<?xml version="1.0" encoding="UTF-8"?>
<!DOCTYPE svg PUBLIC "-//W3C//DTD SVG 1.1//EN" "http://www.w3.org/Graphics/SVG/1.1/DTD/svg11.dtd">
<svg xmlns="http://www.w3.org/2000/svg" version="1.1" width="512px" height="512px" style="shape-rendering:geometricPrecision; text-rendering:geometricPrecision; image-rendering:optimizeQuality; fill-rule:evenodd; clip-rule:evenodd" xmlns:xlink="http://www.w3.org/1999/xlink">
<g><path style="opacity:0.989" fill="#000000" d="M 77.5,7.5 C 107.835,7.33335 138.168,7.50002 168.5,8C 193.957,16.5077 203.791,34.0077 198,60.5C 195.228,68.2659 190.561,74.5993 184,79.5C 182.19,98.9073 188.69,114.907 203.5,127.5C 197.181,134.319 190.681,140.986 184,147.5C 183.667,160.833 183.333,174.167 183,187.5C 175.286,209.684 159.786,218.684 136.5,214.5C 135.193,220.388 135.193,226.221 136.5,232C 157.277,232.918 177.277,237.251 196.5,245C 203.1,248.605 209.434,252.605 215.5,257C 227.871,268.373 240.538,279.373 253.5,290C 265.683,296.277 277.683,295.943 289.5,289C 308.5,270 327.5,251 346.5,232C 297.501,231.5 248.501,231.333 199.5,231.5C 199.5,204.833 199.5,178.167 199.5,151.5C 220.833,151.5 242.167,151.5 263.5,151.5C 263.5,172.833 263.5,194.167 263.5,215.5C 268.833,215.5 274.167,215.5 279.5,215.5C 279.5,178.167 279.5,140.833 279.5,103.5C 300.833,103.5 322.167,103.5 343.5,103.5C 343.5,140.833 343.5,178.167 343.5,215.5C 348.833,215.5 354.167,215.5 359.5,215.5C 359.5,162.167 359.5,108.833 359.5,55.5C 380.833,55.5 402.167,55.5 423.5,55.5C 423.5,108.833 423.5,162.167 423.5,215.5C 428.833,215.5 434.167,215.5 439.5,215.5C 439.5,146.167 439.5,76.8333 439.5,7.5C 460.833,7.5 482.167,7.5 503.5,7.5C 503.5,82.1667 503.5,156.833 503.5,231.5C 470.498,231.333 437.498,231.5 404.5,232C 405.717,233.648 406.55,235.481 407,237.5C 409.151,248.1 407.151,257.766 401,266.5C 375.472,292.362 349.639,317.862 323.5,343C 299.645,359.643 273.645,363.976 245.5,356C 240.936,354.718 236.603,352.885 232.5,350.5C 231.667,376.827 231.167,403.16 231,429.5C 229.167,434 226,437.167 221.5,439C 214.174,439.5 206.841,439.666 199.5,439.5C 199.5,460.833 199.5,482.167 199.5,503.5C 151.5,503.5 103.5,503.5 55.5,503.5C 55.8332,470.16 55.4999,436.827 54.5,403.5C 28.6285,393.46 13.1285,374.794 8,347.5C 7.33333,327.5 7.33333,307.5 8,287.5C 12.4924,265.35 24.9924,249.517 45.5,240C 53.9489,237.264 62.4489,234.764 71,232.5C 71.8326,220.153 71.6659,207.82 70.5,195.5C 51.1895,183.356 35.3561,167.69 23,148.5C 10.5877,127.104 5.58766,104.104 8,79.5C 11.2936,65.8984 19.1269,55.8984 31.5,49.5C 39.6105,27.3814 54.9438,13.3814 77.5,7.5 Z"/></g>
<g><path style="opacity:1" fill="#646c77" d="M 80.5,23.5 C 108.502,23.3334 136.502,23.5 164.5,24C 181.417,30.0014 186.917,41.5014 181,58.5C 177.206,64.9657 171.706,69.1323 164.5,71C 156.5,71.6667 148.5,71.6667 140.5,71C 135.465,67.9867 134.298,63.8201 137,58.5C 137.903,57.2986 139.069,56.4652 140.5,56C 144.152,55.5014 147.818,55.3347 151.5,55.5C 151.5,50.1667 151.5,44.8333 151.5,39.5C 137.765,37.287 127.765,42.287 121.5,54.5C 94.6919,56.4825 78.1919,70.4825 72,96.5C 71.502,99.4816 71.3354,102.482 71.5,105.5C 61.3008,109.211 55.9674,116.545 55.5,127.5C 55.5366,132.444 56.7032,137.111 59,141.5C 62.6321,146.134 66.6321,150.467 71,154.5C 71.6667,161.5 71.6667,168.5 71,175.5C 38.6172,153.069 22.9505,122.069 24,82.5C 27.7004,71.9664 34.8671,64.9664 45.5,61.5C 49.6317,41.7082 61.2983,29.0415 80.5,23.5 Z"/></g>
<g><path style="opacity:1" fill="#feeaa6" d="M 455.5,23.5 C 466.167,23.5 476.833,23.5 487.5,23.5C 487.5,87.5 487.5,151.5 487.5,215.5C 476.833,215.5 466.167,215.5 455.5,215.5C 455.5,151.5 455.5,87.5 455.5,23.5 Z"/></g>
<g><path style="opacity:1" fill="#eeceb2" d="M 112.5,71.5 C 118.249,70.2569 122.082,72.2569 124,77.5C 127.571,82.0314 132.071,85.198 137.5,87C 147.534,87.7576 157.534,87.591 167.5,86.5C 167.293,101.521 171.626,115.021 180.5,127C 176.333,131.167 172.167,135.333 168,139.5C 167.5,148.827 167.334,158.161 167.5,167.5C 160.492,167.666 153.492,167.5 146.5,167C 139.477,164.154 135.81,158.987 135.5,151.5C 130.167,151.5 124.833,151.5 119.5,151.5C 120.564,167.805 128.897,178.305 144.5,183C 151.856,183.169 159.189,183.669 166.5,184.5C 161.822,196.322 153.155,201.155 140.5,199C 128.439,196.688 116.439,194.188 104.5,191.5C 103.963,196.851 103.296,202.184 102.5,207.5C 108.142,208.628 113.809,209.628 119.5,210.5C 119.666,219.506 119.5,228.506 119,237.5C 116.081,242.34 112.914,247.006 109.5,251.5C 101.91,246.745 94.7434,241.411 88,235.5C 87.6667,206.167 87.3333,176.833 87,147.5C 82.3333,142.833 77.6667,138.167 73,133.5C 70.6966,128.962 71.1966,124.795 74.5,121C 78.6996,119.633 83.0329,119.133 87.5,119.5C 82.7996,96.2195 91.1329,80.2195 112.5,71.5 Z"/></g>
<g><path style="opacity:1" fill="#feeaa6" d="M 375.5,71.5 C 386.167,71.5 396.833,71.5 407.5,71.5C 407.5,119.5 407.5,167.5 407.5,215.5C 396.833,215.5 386.167,215.5 375.5,215.5C 375.5,167.5 375.5,119.5 375.5,71.5 Z"/></g>
<g><path style="opacity:1" fill="#0c0a09" d="M 140.5,103.5 C 151.167,104.003 153.833,108.836 148.5,118C 139.42,121.215 135.253,118.048 136,108.5C 137.025,106.313 138.525,104.646 140.5,103.5 Z"/></g>
<g><path style="opacity:1" fill="#feeaa6" d="M 295.5,119.5 C 306.167,119.5 316.833,119.5 327.5,119.5C 327.5,151.5 327.5,183.5 327.5,215.5C 316.833,215.5 306.167,215.5 295.5,215.5C 295.5,183.5 295.5,151.5 295.5,119.5 Z"/></g>
<g><path style="opacity:1" fill="#feeaa6" d="M 215.5,167.5 C 226.167,167.5 236.833,167.5 247.5,167.5C 247.5,183.5 247.5,199.5 247.5,215.5C 236.833,215.5 226.167,215.5 215.5,215.5C 215.5,199.5 215.5,183.5 215.5,167.5 Z"/></g>
<g><path style="opacity:1" fill="#edcdb1" d="M 372.5,231.5 C 388.757,231.578 394.257,239.245 389,254.5C 384.652,259.015 380.152,263.349 375.5,267.5C 368.5,261.167 361.833,254.5 355.5,247.5C 360.584,241.413 366.25,236.079 372.5,231.5 Z"/></g>
<g><path style="opacity:1" fill="#9bcd64" d="M 73.5,248.5 C 75.9892,248.298 78.3225,248.798 80.5,250C 86.3333,254.5 92.1667,259 98,263.5C 98.6667,264.167 98.6667,264.833 98,265.5C 94.6667,268.833 91.3333,272.167 88,275.5C 81.1667,267.333 74.3333,259.167 67.5,251C 69.6115,250.155 71.6115,249.322 73.5,248.5 Z"/></g>
<g><path style="opacity:1" fill="#9bcd64" d="M 130.5,248.5 C 133.881,248.46 137.214,248.793 140.5,249.5C 140.275,255.626 139.275,261.626 137.5,267.5C 132.674,265.254 128.008,262.754 123.5,260C 126.086,256.264 128.419,252.43 130.5,248.5 Z"/></g>
<g><path style="opacity:1" fill="#b2db7e" d="M 156.5,251.5 C 175.246,252.708 191.913,259.208 206.5,271C 218.167,281.333 229.833,291.667 241.5,302C 260.239,314.304 279.239,314.637 298.5,303C 313.652,288.682 328.652,274.182 343.5,259.5C 350.5,265.833 357.167,272.5 363.5,279.5C 346.652,297.181 329.319,314.348 311.5,331C 285.219,347.314 258.885,347.481 232.5,331.5C 231.668,323.187 231.168,314.853 231,306.5C 228.744,301.243 224.91,297.743 219.5,296C 189.833,295.333 160.167,295.333 130.5,296C 125.667,298.167 122.167,301.667 120,306.5C 119.5,318.829 119.333,331.162 119.5,343.5C 104.403,343.967 89.4033,343.467 74.5,342C 73.2986,341.097 72.4652,339.931 72,338.5C 71.5002,329.506 71.3336,320.506 71.5,311.5C 66.1667,311.5 60.8333,311.5 55.5,311.5C 49.2223,349.889 65.2223,365.889 103.5,359.5C 103.5,370.167 103.5,380.833 103.5,391.5C 90.7808,391.898 78.1142,391.398 65.5,390C 41.7525,382.35 27.9191,366.183 24,341.5C 23.3333,324.5 23.3333,307.5 24,290.5C 27.4428,275.071 36.1095,263.737 50,256.5C 63.0097,270.182 75.343,284.515 87,299.5C 95.6809,290.652 104.514,281.986 113.5,273.5C 125.411,279.372 137.245,285.372 149,291.5C 151.824,278.213 154.324,264.88 156.5,251.5 Z"/></g>
<g><path style="opacity:1" fill="#000000" d="M 391.5,295.5 C 402.167,295.5 412.833,295.5 423.5,295.5C 423.5,300.833 423.5,306.167 423.5,311.5C 412.833,311.5 402.167,311.5 391.5,311.5C 391.5,306.167 391.5,300.833 391.5,295.5 Z"/></g>
<g><path style="opacity:1" fill="#000000" d="M 439.5,295.5 C 455.5,295.5 471.5,295.5 487.5,295.5C 487.5,300.833 487.5,306.167 487.5,311.5C 471.5,311.5 455.5,311.5 439.5,311.5C 439.5,306.167 439.5,300.833 439.5,295.5 Z"/></g>
<g><path style="opacity:1" fill="#959ea9" d="M 135.5,311.5 C 162.167,311.5 188.833,311.5 215.5,311.5C 215.5,348.833 215.5,386.167 215.5,423.5C 188.833,423.5 162.167,423.5 135.5,423.5C 135.5,418.167 135.5,412.833 135.5,407.5C 149.066,406.809 158.9,400.476 165,388.5C 176.662,393.844 186.662,391.511 195,381.5C 203.391,365.455 199.558,353.288 183.5,345C 178.924,343.524 174.257,343.19 169.5,344C 164.935,345.865 160.769,348.365 157,351.5C 150.706,346.568 143.539,343.901 135.5,343.5C 135.5,332.833 135.5,322.167 135.5,311.5 Z"/></g>
<g><path style="opacity:1" fill="#000000" d="M 375.5,327.5 C 412.833,327.5 450.167,327.5 487.5,327.5C 487.5,332.833 487.5,338.167 487.5,343.5C 450.167,343.5 412.833,343.5 375.5,343.5C 375.5,338.167 375.5,332.833 375.5,327.5 Z"/></g>
<g><path style="opacity:1" fill="#edceb2" d="M 119.5,359.5 C 126.508,359.334 133.508,359.5 140.5,360C 150.405,364.644 153.572,372.144 150,382.5C 147.685,386.817 144.185,389.65 139.5,391C 132.842,391.5 126.175,391.666 119.5,391.5C 119.5,380.833 119.5,370.167 119.5,359.5 Z"/></g>
<g><path style="opacity:1" fill="#000000" d="M 375.5,359.5 C 412.833,359.5 450.167,359.5 487.5,359.5C 487.5,364.833 487.5,370.167 487.5,375.5C 450.167,375.5 412.833,375.5 375.5,375.5C 375.5,370.167 375.5,364.833 375.5,359.5 Z"/></g>
<g><path style="opacity:1" fill="#64cde9" d="M 172.5,359.5 C 180.658,358.823 184.158,362.49 183,370.5C 180.774,374.861 177.274,376.361 172.5,375C 168.139,372.774 166.639,369.274 168,364.5C 169.025,362.313 170.525,360.646 172.5,359.5 Z"/></g>
<g><path style="opacity:0.971" fill="#010101" d="M 299.5,375.5 C 333.466,372.224 357.632,385.891 372,416.5C 381.302,446.811 373.802,471.977 349.5,492C 330.476,504.158 310.142,506.824 288.5,500C 257.736,485.652 244.236,461.486 248,427.5C 254.681,399.653 271.848,382.319 299.5,375.5 Z"/></g>
<g><path style="opacity:1" fill="#000000" d="M 391.5,391.5 C 396.833,391.5 402.167,391.5 407.5,391.5C 407.5,396.833 407.5,402.167 407.5,407.5C 402.167,407.5 396.833,407.5 391.5,407.5C 391.5,402.167 391.5,396.833 391.5,391.5 Z"/></g>
<g><path style="opacity:1" fill="#000000" d="M 423.5,391.5 C 450.167,391.5 476.833,391.5 503.5,391.5C 503.5,396.833 503.5,402.167 503.5,407.5C 476.833,407.5 450.167,407.5 423.5,407.5C 423.5,402.167 423.5,396.833 423.5,391.5 Z"/></g>
<g><path style="opacity:1" fill="#f9d46e" d="M 298.5,392.5 C 300.167,392.5 301.833,392.5 303.5,392.5C 303.833,406.849 303.499,421.182 302.5,435.5C 290.996,442.42 279.329,449.086 267.5,455.5C 259.496,433.982 264.496,415.815 282.5,401C 287.768,397.868 293.101,395.035 298.5,392.5 Z"/></g>
<g><path style="opacity:1" fill="#68d3f1" d="M 319.5,392.5 C 340.301,397.132 353.467,409.799 359,430.5C 359.985,438.888 359.152,447.055 356.5,455C 354.402,454.968 352.402,454.301 350.5,453C 340.664,446.914 330.664,441.081 320.5,435.5C 319.501,421.182 319.167,406.849 319.5,392.5 Z"/></g>
<g><path style="opacity:1" fill="#b3dd7e" d="M 71.5,407.5 C 87.5,407.5 103.5,407.5 119.5,407.5C 119.5,412.833 119.5,418.167 119.5,423.5C 103.5,423.5 87.5,423.5 71.5,423.5C 71.5,418.167 71.5,412.833 71.5,407.5 Z"/></g>
<g><path style="opacity:1" fill="#000000" d="M 391.5,423.5 C 396.833,423.5 402.167,423.5 407.5,423.5C 407.5,428.833 407.5,434.167 407.5,439.5C 402.167,439.5 396.833,439.5 391.5,439.5C 391.5,434.167 391.5,428.833 391.5,423.5 Z"/></g>
<g><path style="opacity:1" fill="#000000" d="M 423.5,423.5 C 450.167,423.5 476.833,423.5 503.5,423.5C 503.5,428.833 503.5,434.167 503.5,439.5C 476.833,439.5 450.167,439.5 423.5,439.5C 423.5,434.167 423.5,428.833 423.5,423.5 Z"/></g>
<g><path style="opacity:1" fill="#d2a06b" d="M 71.5,439.5 C 108.833,439.5 146.167,439.5 183.5,439.5C 183.5,455.5 183.5,471.5 183.5,487.5C 167.5,487.5 151.5,487.5 135.5,487.5C 135.5,476.833 135.5,466.167 135.5,455.5C 130.167,455.5 124.833,455.5 119.5,455.5C 119.5,466.167 119.5,476.833 119.5,487.5C 103.5,487.5 87.5,487.5 71.5,487.5C 71.5,471.5 71.5,455.5 71.5,439.5 Z"/></g>
<g><path style="opacity:1" fill="#b1da7d" d="M 310.5,448.5 C 323.274,455.39 335.941,462.556 348.5,470C 329.988,488.969 308.988,492.302 285.5,480C 281.534,477.036 277.867,473.703 274.5,470C 286.729,463.059 298.729,455.892 310.5,448.5 Z"/></g>
<g><path style="opacity:1" fill="#000000" d="M 391.5,455.5 C 396.833,455.5 402.167,455.5 407.5,455.5C 407.5,460.833 407.5,466.167 407.5,471.5C 402.167,471.5 396.833,471.5 391.5,471.5C 391.5,466.167 391.5,460.833 391.5,455.5 Z"/></g>
<g><path style="opacity:1" fill="#000000" d="M 423.5,455.5 C 450.167,455.5 476.833,455.5 503.5,455.5C 503.5,460.833 503.5,466.167 503.5,471.5C 476.833,471.5 450.167,471.5 423.5,471.5C 423.5,466.167 423.5,460.833 423.5,455.5 Z"/></g>
<g><path style="opacity:1" fill="#000000" d="M 391.5,487.5 C 396.833,487.5 402.167,487.5 407.5,487.5C 407.5,492.833 407.5,498.167 407.5,503.5C 402.167,503.5 396.833,503.5 391.5,503.5C 391.5,498.167 391.5,492.833 391.5,487.5 Z"/></g>
<g><path style="opacity:1" fill="#000000" d="M 423.5,487.5 C 450.167,487.5 476.833,487.5 503.5,487.5C 503.5,492.833 503.5,498.167 503.5,503.5C 476.833,503.5 450.167,503.5 423.5,503.5C 423.5,498.167 423.5,492.833 423.5,487.5 Z"/></g>
</svg>
