<?xml version="1.0" encoding="UTF-8"?>
<!DOCTYPE svg PUBLIC "-//W3C//DTD SVG 1.1//EN" "http://www.w3.org/Graphics/SVG/1.1/DTD/svg11.dtd">
<svg xmlns="http://www.w3.org/2000/svg" version="1.1" width="512px" height="512px" style="shape-rendering:geometricPrecision; text-rendering:geometricPrecision; image-rendering:optimizeQuality; fill-rule:evenodd; clip-rule:evenodd" xmlns:xlink="http://www.w3.org/1999/xlink">
<g><path style="opacity:1" fill="#828891" d="M 191.5,104.5 C 191.5,105.167 191.5,105.833 191.5,106.5C 190.673,111.651 190.173,116.984 190,122.5C 180.415,136.013 174.415,151.013 172,167.5C 171.5,183.163 171.333,198.83 171.5,214.5C 165.505,217.167 160.172,220.834 155.5,225.5C 155.5,222.167 155.5,218.833 155.5,215.5C 157.017,215.489 158.184,214.823 159,213.5C 159.333,198.167 159.667,182.833 160,167.5C 162.866,148.546 170.532,131.879 183,117.5C 183.64,115.735 183.473,114.068 182.5,112.5C 184.9,109.097 187.9,106.43 191.5,104.5 Z"/></g>
<g><path style="opacity:0.999" fill="#50565f" d="M 313.5,105.5 C 315.858,107.529 318.192,109.529 320.5,111.5C 319.677,113.455 319.51,115.455 320,117.5C 332.468,131.879 340.134,148.546 343,167.5C 343.333,182.833 343.667,198.167 344,213.5C 347.264,216.786 348.264,220.786 347,225.5C 342.598,220.719 337.431,217.053 331.5,214.5C 331.933,196.12 331.433,177.786 330,159.5C 327.019,145.872 321.352,133.539 313,122.5C 312.821,126.025 312.321,129.359 311.5,132.5C 311.236,123.283 311.903,114.283 313.5,105.5 Z"/></g>
<g><path style="opacity:0.948" fill="#3a3847" d="M 182.5,112.5 C 183.473,114.068 183.64,115.735 183,117.5C 170.532,131.879 162.866,148.546 160,167.5C 159.667,182.833 159.333,198.167 159,213.5C 158.184,214.823 157.017,215.489 155.5,215.5C 154.178,215.67 153.011,215.337 152,214.5C 151.333,198.167 151.333,181.833 152,165.5C 154.794,145.251 162.961,127.585 176.5,112.5C 178.532,111.181 180.532,111.181 182.5,112.5 Z"/></g>
<g><path style="opacity:1" fill="#646c77" d="M 191.5,106.5 C 187.493,138.086 195.827,165.753 216.5,189.5C 215.094,189.973 214.427,190.973 214.5,192.5C 207.823,191.181 206.156,193.515 209.5,199.5C 208.833,200.833 207.833,201.833 206.5,202.5C 203.393,202.351 200.393,202.851 197.5,204C 189.009,207.995 180.343,211.495 171.5,214.5C 171.333,198.83 171.5,183.163 172,167.5C 174.415,151.013 180.415,136.013 190,122.5C 190.173,116.984 190.673,111.651 191.5,106.5 Z"/></g>
<g><path style="opacity:0.959" fill="#3a3847" d="M 511.5,264.5 C 511.5,266.5 511.5,268.5 511.5,270.5C 466.571,271.661 421.571,271.828 376.5,271C 374.098,264.554 376.431,261.721 383.5,262.5C 383.333,236.498 383.5,210.498 384,184.5C 385.067,183.809 386.234,183.309 387.5,183C 424.833,182.333 462.167,182.333 499.5,183C 500.766,183.309 501.933,183.809 503,184.5C 503.5,210.498 503.667,236.498 503.5,262.5C 506.341,262.56 509.007,263.226 511.5,264.5 Z"/></g>
<g><path style="opacity:1" fill="#dbdee3" d="M 216.5,189.5 C 225.229,198.532 235.563,205.032 247.5,209C 243.833,210.833 240.167,212.667 236.5,214.5C 228.812,207.479 221.479,200.146 214.5,192.5C 214.427,190.973 215.094,189.973 216.5,189.5 Z"/></g>
<g><path style="opacity:1" fill="#646c77" d="M 391.5,191.5 C 426.167,191.5 460.833,191.5 495.5,191.5C 495.5,215.5 495.5,239.5 495.5,263.5C 460.833,263.5 426.167,263.5 391.5,263.5C 391.5,239.5 391.5,215.5 391.5,191.5 Z"/></g>
<g><path style="opacity:0.991" fill="#3a3846" d="M 18.5,198.5 C 45.5021,198.333 72.5021,198.5 99.5,199C 100.766,199.309 101.933,199.809 103,200.5C 103.667,207.833 103.667,215.167 103,222.5C 74.2386,223.662 45.4052,223.828 16.5,223C 14.0985,217.771 15.7652,214.771 21.5,214C 22.8333,212.333 22.8333,210.667 21.5,209C 19.6494,208.163 17.8161,207.329 16,206.5C 14.8366,203.029 15.6699,200.362 18.5,198.5 Z"/></g>
<g><path style="opacity:0.976" fill="#3a3847" d="M 313.5,105.5 C 311.903,114.283 311.236,123.283 311.5,132.5C 310.322,154.721 301.989,173.721 286.5,189.5C 277.855,198.637 267.522,205.137 255.5,209C 259.382,211.284 263.382,212.951 267.5,214C 275.036,206.632 282.369,199.132 289.5,191.5C 295.582,191.846 296.916,194.513 293.5,199.5C 290.5,201.833 287.833,204.5 285.5,207.5C 280.035,212.464 274.702,217.63 269.5,223C 266.591,222.716 263.758,222.883 261,223.5C 261.219,239.015 262.052,254.515 263.5,270C 263.333,272.5 263.167,275 263,277.5C 262.5,278 262,278.5 261.5,279C 284.831,279.5 308.164,279.667 331.5,279.5C 336.179,279.666 340.845,279.499 345.5,279C 345,278.5 344.5,278 344,277.5C 343.667,263.167 343.333,248.833 343,234.5C 341.6,231.098 339.433,228.264 336.5,226C 323.833,220.667 311.167,215.333 298.5,210C 295.554,208.047 294.887,205.547 296.5,202.5C 298.527,202.338 300.527,202.505 302.5,203C 311.963,207.4 321.63,211.234 331.5,214.5C 337.431,217.053 342.598,220.719 347,225.5C 348.264,220.786 347.264,216.786 344,213.5C 343.667,198.167 343.333,182.833 343,167.5C 340.134,148.546 332.468,131.879 320,117.5C 319.51,115.455 319.677,113.455 320.5,111.5C 322.591,111.318 324.591,111.652 326.5,112.5C 338.561,125.955 346.394,141.622 350,159.5C 351.584,177.795 351.918,196.128 351,214.5C 347.861,220.322 347.861,226.322 351,232.5C 351.5,247.83 351.667,263.163 351.5,278.5C 403.501,278.333 455.501,278.5 507.5,279C 508.901,279.41 510.234,279.91 511.5,280.5C 511.5,293.167 511.5,305.833 511.5,318.5C 506.26,319.449 500.927,319.782 495.5,319.5C 495.667,367.168 495.5,414.834 495,462.5C 492.936,463.591 490.769,463.758 488.5,463C 487.663,461.989 487.33,460.822 487.5,459.5C 487.667,444.163 487.5,428.83 487,413.5C 486.184,414.823 485.017,415.489 483.5,415.5C 481.983,415.511 480.816,416.177 480,417.5C 479.5,431.496 479.333,445.496 479.5,459.5C 479.845,462.488 478.512,463.821 475.5,463.5C 472.488,463.821 471.155,462.488 471.5,459.5C 471.333,444.83 471.5,430.163 472,415.5C 474.005,410.244 477.839,407.578 483.5,407.5C 485.017,407.511 486.184,408.177 487,409.5C 487.5,379.502 487.667,349.502 487.5,319.5C 474.167,319.5 460.833,319.5 447.5,319.5C 447.5,320.833 447.5,322.167 447.5,323.5C 447.5,368.833 447.5,414.167 447.5,459.5C 447.845,462.488 446.512,463.821 443.5,463.5C 440.488,463.821 439.155,462.488 439.5,459.5C 439.5,412.833 439.5,366.167 439.5,319.5C 316.833,319.5 194.167,319.5 71.5,319.5C 71.5,366.167 71.5,412.833 71.5,459.5C 71.8453,462.488 70.512,463.821 67.5,463.5C 64.488,463.821 63.1547,462.488 63.5,459.5C 63.6666,430.831 63.5,402.165 63,373.5C 62.1841,374.823 61.0174,375.489 59.5,375.5C 54.1517,374.981 50.3184,372.315 48,367.5C 47.3333,352.167 47.3333,336.833 48,321.5C 48.5,321 49,320.5 49.5,320C 40.8397,319.5 32.1731,319.334 23.5,319.5C 23.5,320.833 23.5,322.167 23.5,323.5C 23.5,368.833 23.5,414.167 23.5,459.5C 23.67,460.822 23.3366,461.989 22.5,463C 20.2305,463.758 18.0639,463.591 16,462.5C 15.5,414.834 15.3333,367.168 15.5,319.5C 10.0735,319.782 4.74012,319.449 -0.5,318.5C -0.5,305.833 -0.5,293.167 -0.5,280.5C 0.765972,279.91 2.0993,279.41 3.5,279C 52.8322,278.5 102.166,278.333 151.5,278.5C 151.333,263.163 151.5,247.83 152,232.5C 152.67,229.826 153.837,227.493 155.5,225.5C 160.172,220.834 165.505,217.167 171.5,214.5C 180.343,211.495 189.009,207.995 197.5,204C 200.393,202.851 203.393,202.351 206.5,202.5C 208.017,204.936 207.684,207.102 205.5,209C 192.5,214.667 179.5,220.333 166.5,226C 163.567,228.264 161.4,231.098 160,234.5C 159.667,248.833 159.333,263.167 159,277.5C 158.5,278 158,278.5 157.5,279C 162.155,279.499 166.821,279.666 171.5,279.5C 195.169,279.667 218.836,279.5 242.5,279C 241.211,275.598 240.544,271.931 240.5,268C 241.489,253.481 242.322,238.981 243,224.5C 242,223.5 241,222.5 240,221.5C 238.087,223.187 235.92,223.687 233.5,223C 227.965,217.297 222.298,211.797 216.5,206.5C 214.5,203.833 212.167,201.5 209.5,199.5C 206.156,193.515 207.823,191.181 214.5,192.5C 221.479,200.146 228.812,207.479 236.5,214.5C 240.167,212.667 243.833,210.833 247.5,209C 235.563,205.032 225.229,198.532 216.5,189.5C 195.827,165.753 187.493,138.086 191.5,106.5C 191.5,105.833 191.5,105.167 191.5,104.5C 194.092,80.076 206.759,63.2427 229.5,54C 237.569,50.8994 245.902,48.8994 254.5,48C 267.548,47.0995 280.548,47.4328 293.5,49C 295.418,50.7702 295.918,52.9369 295,55.5C 292.667,57.5 290.333,59.5 288,61.5C 286.684,64.6883 286.184,68.0217 286.5,71.5C 300.453,73.0683 308.953,80.7349 312,94.5C 312.548,98.1704 313.048,101.837 313.5,105.5 Z"/></g>
<g><path style="opacity:1" fill="#dcdee3" d="M 286.5,189.5 C 287.5,190.167 288.5,190.833 289.5,191.5C 282.369,199.132 275.036,206.632 267.5,214C 263.382,212.951 259.382,211.284 255.5,209C 267.522,205.137 277.855,198.637 286.5,189.5 Z"/></g>
<g><path style="opacity:1" fill="#646c77" d="M 331.5,214.5 C 321.63,211.234 311.963,207.4 302.5,203C 300.527,202.505 298.527,202.338 296.5,202.5C 295.167,201.833 294.167,200.833 293.5,199.5C 296.916,194.513 295.582,191.846 289.5,191.5C 288.5,190.833 287.5,190.167 286.5,189.5C 301.989,173.721 310.322,154.721 311.5,132.5C 312.321,129.359 312.821,126.025 313,122.5C 321.352,133.539 327.019,145.872 330,159.5C 331.433,177.786 331.933,196.12 331.5,214.5 Z"/></g>
<g><path style="opacity:1" fill="#e9c5ba" d="M 220.5,106.5 C 230.727,109.564 241.227,111.231 252,111.5C 261.58,110.653 271.08,109.32 280.5,107.5C 283.978,112.434 287.478,117.434 291,122.5C 292.254,152.153 281.421,176.32 258.5,195C 255.941,196.777 253.274,198.277 250.5,199.5C 229.581,184.341 216.748,164.008 212,138.5C 211.333,133.167 211.333,127.833 212,122.5C 215,118.167 218,113.833 221,109.5C 221.47,108.423 221.303,107.423 220.5,106.5 Z"/></g>
<g><path style="opacity:1" fill="#b99d95" d="M 246.5,199.5 C 247.833,199.5 249.167,199.5 250.5,199.5C 253.274,198.277 255.941,196.777 258.5,195C 281.421,176.32 292.254,152.153 291,122.5C 287.478,117.434 283.978,112.434 280.5,107.5C 283.615,105.965 286.949,105.131 290.5,105C 294.667,111.167 298.833,117.333 303,123.5C 304.278,154.445 292.111,178.612 266.5,196C 260.156,200.086 253.49,201.253 246.5,199.5 Z"/></g>
<g><path style="opacity:1" fill="#ecd3cc" d="M 220.5,106.5 C 221.303,107.423 221.47,108.423 221,109.5C 218,113.833 215,118.167 212,122.5C 211.333,127.833 211.333,133.167 212,138.5C 216.748,164.008 229.581,184.341 250.5,199.5C 249.167,199.5 247.833,199.5 246.5,199.5C 230.499,193.34 218.332,182.673 210,167.5C 202.244,153.811 198.911,139.145 200,123.5C 204.167,117.333 208.333,111.167 212.5,105C 215.174,105.153 217.84,105.653 220.5,106.5 Z"/></g>
<g><path style="opacity:1" fill="#7f848e" d="M 221.5,68.5 C 211.549,78.067 205.549,89.7336 203.5,103.5C 202.609,105.609 201.442,107.609 200,109.5C 199.766,94.7974 204.933,82.2974 215.5,72C 217.405,70.5787 219.405,69.412 221.5,68.5 Z"/></g>
<g><path style="opacity:1" fill="#646b76" d="M 203.5,103.5 C 205.549,89.7336 211.549,78.067 221.5,68.5C 229.695,62.2588 239.028,58.4254 249.5,57C 259.822,55.4844 270.155,55.3177 280.5,56.5C 276.238,64.3239 276.571,71.8239 281.5,79C 294.279,79.4475 301.779,85.9475 304,98.5C 304.667,102.5 304.667,106.5 304,110.5C 300.753,106.341 297.753,102.008 295,97.5C 294.044,96.1059 292.711,95.4393 291,95.5C 264.488,106.08 237.988,106.08 211.5,95.5C 210.833,95.6667 210.167,95.8333 209.5,96C 207.361,98.4784 205.361,100.978 203.5,103.5 Z"/></g>
<g><path style="opacity:1" fill="#e3e6ea" d="M 31.5,207.5 C 52.8333,207.5 74.1667,207.5 95.5,207.5C 95.5,210.167 95.5,212.833 95.5,215.5C 74.1667,215.5 52.8333,215.5 31.5,215.5C 31.5,212.833 31.5,210.167 31.5,207.5 Z"/></g>
<g><path style="opacity:1" fill="#5d9beb" d="M 216.5,206.5 C 222.298,211.797 227.965,217.297 233.5,223C 235.92,223.687 238.087,223.187 240,221.5C 241,222.5 242,223.5 243,224.5C 242.322,238.981 241.489,253.481 240.5,268C 240.544,271.931 241.211,275.598 242.5,279C 218.836,279.5 195.169,279.667 171.5,279.5C 171.333,264.496 171.5,249.496 172,234.5C 173.119,229.761 175.619,225.928 179.5,223C 191.977,217.574 204.31,212.074 216.5,206.5 Z"/></g>
<g><path style="opacity:1" fill="#5c9beb" d="M 285.5,207.5 C 295.425,211.421 305.425,215.255 315.5,219C 322.934,221.435 328.101,226.268 331,233.5C 331.5,248.83 331.667,264.163 331.5,279.5C 308.164,279.667 284.831,279.5 261.5,279C 262,278.5 262.5,278 263,277.5C 263.167,275 263.333,272.5 263.5,270C 262.052,254.515 261.219,239.015 261,223.5C 263.758,222.883 266.591,222.716 269.5,223C 274.702,217.63 280.035,212.464 285.5,207.5 Z"/></g>
<g><path style="opacity:1" fill="#3b3947" d="M 441.5,215.5 C 445.82,216.498 450.153,216.665 454.5,216C 455.081,216.893 455.415,217.893 455.5,219C 454.313,221.479 454.313,223.979 455.5,226.5C 453.441,237.861 447.108,241.361 436.5,237C 428.608,227.495 430.275,220.328 441.5,215.5 Z"/></g>
<g><path style="opacity:1" fill="#e65362" d="M 249.5,216.5 C 255.81,216.308 256.643,217.974 252,221.5C 249.71,220.172 248.876,218.505 249.5,216.5 Z"/></g>
<g><path style="opacity:1" fill="#8bb7ef" d="M 209.5,199.5 C 212.167,201.5 214.5,203.833 216.5,206.5C 204.31,212.074 191.977,217.574 179.5,223C 175.619,225.928 173.119,229.761 172,234.5C 171.5,249.496 171.333,264.496 171.5,279.5C 166.821,279.666 162.155,279.499 157.5,279C 158,278.5 158.5,278 159,277.5C 159.333,263.167 159.667,248.833 160,234.5C 161.4,231.098 163.567,228.264 166.5,226C 179.5,220.333 192.5,214.667 205.5,209C 207.684,207.102 208.017,204.936 206.5,202.5C 207.833,201.833 208.833,200.833 209.5,199.5 Z"/></g>
<g><path style="opacity:1" fill="#4a7cbb" d="M 293.5,199.5 C 294.167,200.833 295.167,201.833 296.5,202.5C 294.887,205.547 295.554,208.047 298.5,210C 311.167,215.333 323.833,220.667 336.5,226C 339.433,228.264 341.6,231.098 343,234.5C 343.333,248.833 343.667,263.167 344,277.5C 344.5,278 345,278.5 345.5,279C 340.845,279.499 336.179,279.666 331.5,279.5C 331.667,264.163 331.5,248.83 331,233.5C 328.101,226.268 322.934,221.435 315.5,219C 305.425,215.255 295.425,211.421 285.5,207.5C 287.833,204.5 290.5,201.833 293.5,199.5 Z"/></g>
<g><path style="opacity:1" fill="#f1c353" d="M 441.5,223.5 C 447.488,223.664 448.821,226.164 445.5,231C 439.403,231.147 438.07,228.647 441.5,223.5 Z"/></g>
<g><path style="opacity:0.944" fill="#3a3847" d="M -0.5,270.5 C -0.5,257.833 -0.5,245.167 -0.5,232.5C 0.765972,231.91 2.0993,231.41 3.5,231C 43.5,230.333 83.5,230.333 123.5,231C 127.524,232.35 128.524,235.016 126.5,239C 115.872,239.306 111.372,244.806 113,255.5C 113.883,258.102 115.383,260.269 117.5,262C 120.85,262.25 124.017,263.083 127,264.5C 127.758,266.769 127.591,268.936 126.5,271C 84.0957,271.827 41.7623,271.661 -0.5,270.5 Z"/></g>
<g><path style="opacity:1" fill="#e15362" d="M 250.5,231.5 C 252.117,232.589 252.95,234.256 253,236.5C 254.051,249.83 255.051,263.163 256,276.5C 256.5,277.667 257.333,278.5 258.5,279C 254.167,279.667 249.833,279.667 245.5,279C 246.333,278.167 247.167,277.333 248,276.5C 249.166,261.514 249.999,246.514 250.5,231.5 Z"/></g>
<g><path style="opacity:1" fill="#b7b9bd" d="M 11.5,239.5 C 11.5,247.5 11.5,255.5 11.5,263.5C 10.1667,263.5 8.83333,263.5 7.5,263.5C 7.5,255.5 7.5,247.5 7.5,239.5C 8.83333,239.5 10.1667,239.5 11.5,239.5 Z"/></g>
<g><path style="opacity:1" fill="#e5e8ec" d="M 11.5,239.5 C 43.5017,239.333 75.5017,239.5 107.5,240C 102.235,247.637 102.235,255.304 107.5,263C 75.5017,263.5 43.5017,263.667 11.5,263.5C 11.5,255.5 11.5,247.5 11.5,239.5 Z"/></g>
<g><path style="opacity:1" fill="#955252" d="M 7.5,287.5 C 172.833,287.5 338.167,287.5 503.5,287.5C 503.5,295.5 503.5,303.5 503.5,311.5C 338.167,311.5 172.833,311.5 7.5,311.5C 7.5,303.5 7.5,295.5 7.5,287.5 Z"/></g>
<g><path style="opacity:1" fill="#3a3847" d="M 121.5,295.5 C 213.501,295.333 305.501,295.5 397.5,296C 400.167,298.333 400.167,300.667 397.5,303C 305.5,303.667 213.5,303.667 121.5,303C 118.914,300.506 118.914,298.006 121.5,295.5 Z"/></g>
<g><path style="opacity:1" fill="#784242" d="M 57.5,366.5 C 59.4828,352.539 60.1495,338.206 59.5,323.5C 58.1667,323.5 56.8333,323.5 55.5,323.5C 55.4894,321.983 54.8228,320.816 53.5,320C 56.8168,319.502 60.1501,319.335 63.5,319.5C 63.6666,336.17 63.4999,352.837 63,369.5C 61.2811,368.131 59.4478,367.131 57.5,366.5 Z"/></g>
<g><path style="opacity:1" fill="#663737" d="M 439.5,459.5 C 438.167,459.5 436.833,459.5 435.5,459.5C 435.5,414.167 435.5,368.833 435.5,323.5C 315.5,323.5 195.5,323.5 75.5,323.5C 75.5,368.833 75.5,414.167 75.5,459.5C 74.1667,459.5 72.8333,459.5 71.5,459.5C 71.5,412.833 71.5,366.167 71.5,319.5C 194.167,319.5 316.833,319.5 439.5,319.5C 439.5,366.167 439.5,412.833 439.5,459.5 Z"/></g>
<g><path style="opacity:1" fill="#784242" d="M 483.5,407.5 C 483.5,379.5 483.5,351.5 483.5,323.5C 472.833,323.5 462.167,323.5 451.5,323.5C 450.167,323.5 448.833,323.5 447.5,323.5C 447.5,322.167 447.5,320.833 447.5,319.5C 460.833,319.5 474.167,319.5 487.5,319.5C 487.667,349.502 487.5,379.502 487,409.5C 486.184,408.177 485.017,407.511 483.5,407.5 Z"/></g>
<g><path style="opacity:1" fill="#b58686" d="M 23.5,323.5 C 24.8333,323.5 26.1667,323.5 27.5,323.5C 27.5,368.833 27.5,414.167 27.5,459.5C 26.1667,459.5 24.8333,459.5 23.5,459.5C 23.5,414.167 23.5,368.833 23.5,323.5 Z"/></g>
<g><path style="opacity:1" fill="#955252" d="M 59.5,375.5 C 59.5,403.5 59.5,431.5 59.5,459.5C 52.8333,459.5 46.1667,459.5 39.5,459.5C 39.6666,440.164 39.5,420.83 39,401.5C 36.6667,398.833 34.3333,398.833 32,401.5C 31.5,420.83 31.3334,440.164 31.5,459.5C 30.1667,459.5 28.8333,459.5 27.5,459.5C 27.5,414.167 27.5,368.833 27.5,323.5C 26.1667,323.5 24.8333,323.5 23.5,323.5C 23.5,322.167 23.5,320.833 23.5,319.5C 32.1731,319.334 40.8397,319.5 49.5,320C 49,320.5 48.5,321 48,321.5C 47.3333,336.833 47.3333,352.167 48,367.5C 50.3184,372.315 54.1517,374.981 59.5,375.5 Z"/></g>
<g><path style="opacity:1" fill="#955252" d="M 55.5,323.5 C 56.8333,323.5 58.1667,323.5 59.5,323.5C 60.1495,338.206 59.4828,352.539 57.5,366.5C 56.8826,366.389 56.3826,366.056 56,365.5C 55.5001,351.504 55.3334,337.504 55.5,323.5 Z"/></g>
<g><path style="opacity:0.998" fill="#7e4445" d="M 435.5,459.5 C 315.5,459.5 195.5,459.5 75.5,459.5C 75.5,414.167 75.5,368.833 75.5,323.5C 195.5,323.5 315.5,323.5 435.5,323.5C 435.5,368.833 435.5,414.167 435.5,459.5 Z"/></g>
<g><path style="opacity:1" fill="#b58686" d="M 447.5,323.5 C 448.833,323.5 450.167,323.5 451.5,323.5C 451.5,368.833 451.5,414.167 451.5,459.5C 450.167,459.5 448.833,459.5 447.5,459.5C 447.5,414.167 447.5,368.833 447.5,323.5 Z"/></g>
<g><path style="opacity:1" fill="#955252" d="M 451.5,323.5 C 462.167,323.5 472.833,323.5 483.5,323.5C 483.5,351.5 483.5,379.5 483.5,407.5C 477.839,407.578 474.005,410.244 472,415.5C 471.5,430.163 471.333,444.83 471.5,459.5C 464.833,459.5 458.167,459.5 451.5,459.5C 451.5,414.167 451.5,368.833 451.5,323.5 Z"/></g>
<g><path style="opacity:1" fill="#3a3847" d="M 457.5,327.5 C 459.722,327.178 461.556,327.845 463,329.5C 463.667,349.5 463.667,369.5 463,389.5C 460.667,392.167 458.333,392.167 456,389.5C 455.333,369.5 455.333,349.5 456,329.5C 456.717,328.956 457.217,328.289 457.5,327.5 Z"/></g>
<g><path style="opacity:1" fill="#3a3847" d="M 89.5,335.5 C 197.501,335.333 305.501,335.5 413.5,336C 414,336.5 414.5,337 415,337.5C 415.667,373.5 415.667,409.5 415,445.5C 414.5,446 414,446.5 413.5,447C 305.5,447.667 197.5,447.667 89.5,447C 89,446.5 88.5,446 88,445.5C 87.3333,409.5 87.3333,373.5 88,337.5C 88.7172,336.956 89.2172,336.289 89.5,335.5 Z"/></g>
<g><path style="opacity:1" fill="#b48585" d="M 99.5,343.5 C 99.5,356.833 99.5,370.167 99.5,383.5C 98.1667,383.5 96.8333,383.5 95.5,383.5C 95.5,370.167 95.5,356.833 95.5,343.5C 96.8333,343.5 98.1667,343.5 99.5,343.5 Z"/></g>
<g><path style="opacity:1" fill="#955252" d="M 99.5,343.5 C 157.501,343.333 215.501,343.5 273.5,344C 270.401,350.828 272.401,355.828 279.5,359C 320.832,359.5 362.165,359.667 403.5,359.5C 403.5,372.833 403.5,386.167 403.5,399.5C 381.497,399.333 359.497,399.5 337.5,400C 334.833,402.333 334.833,404.667 337.5,407C 359.497,407.5 381.497,407.667 403.5,407.5C 403.5,418.167 403.5,428.833 403.5,439.5C 318.833,439.667 234.166,439.5 149.5,439C 152.599,432.172 150.599,427.172 143.5,424C 128.837,423.5 114.17,423.333 99.5,423.5C 99.5,412.833 99.5,402.167 99.5,391.5C 132.168,391.667 164.835,391.5 197.5,391C 200.167,388.667 200.167,386.333 197.5,384C 164.835,383.5 132.168,383.333 99.5,383.5C 99.5,370.167 99.5,356.833 99.5,343.5 Z"/></g>
<g><path style="opacity:1" fill="#945252" d="M 277.5,344.5 C 320.663,343.501 363.997,343.168 407.5,343.5C 407.665,346.85 407.498,350.183 407,353.5C 406.5,353 406,352.5 405.5,352C 364.167,351.667 322.833,351.333 281.5,351C 280.24,348.699 278.907,346.532 277.5,344.5 Z"/></g>
<g><path style="opacity:1" fill="#774142" d="M 403.5,399.5 C 403.5,386.167 403.5,372.833 403.5,359.5C 405.017,359.489 406.184,358.823 407,357.5C 407.5,371.496 407.667,385.496 407.5,399.5C 406.167,399.5 404.833,399.5 403.5,399.5 Z"/></g>
<g><path style="opacity:0.999" fill="#774142" d="M 63.5,459.5 C 62.1667,459.5 60.8333,459.5 59.5,459.5C 59.5,431.5 59.5,403.5 59.5,375.5C 61.0174,375.489 62.1841,374.823 63,373.5C 63.5,402.165 63.6666,430.831 63.5,459.5 Z"/></g>
<g><path style="opacity:1" fill="#b48585" d="M 99.5,391.5 C 99.5,402.167 99.5,412.833 99.5,423.5C 97.9826,423.511 96.8159,424.177 96,425.5C 95.5001,414.172 95.3335,402.838 95.5,391.5C 96.8333,391.5 98.1667,391.5 99.5,391.5 Z"/></g>
<g><path style="opacity:0.988" fill="#3a3847" d="M 39.5,459.5 C 39.8453,462.488 38.512,463.821 35.5,463.5C 32.488,463.821 31.1547,462.488 31.5,459.5C 31.3334,440.164 31.5,420.83 32,401.5C 34.3333,398.833 36.6667,398.833 39,401.5C 39.5,420.83 39.6666,440.164 39.5,459.5 Z"/></g>
<g><path style="opacity:1" fill="#774242" d="M 403.5,407.5 C 404.833,407.5 406.167,407.5 407.5,407.5C 407.5,418.167 407.5,428.833 407.5,439.5C 406.167,439.5 404.833,439.5 403.5,439.5C 403.5,428.833 403.5,418.167 403.5,407.5 Z"/></g>
<g><path style="opacity:0.999" fill="#774142" d="M 487.5,459.5 C 486.167,459.5 484.833,459.5 483.5,459.5C 483.5,444.833 483.5,430.167 483.5,415.5C 485.017,415.489 486.184,414.823 487,413.5C 487.5,428.83 487.667,444.163 487.5,459.5 Z"/></g>
<g><path style="opacity:0.999" fill="#955252" d="M 483.5,415.5 C 483.5,430.167 483.5,444.833 483.5,459.5C 482.167,459.5 480.833,459.5 479.5,459.5C 479.333,445.496 479.5,431.496 480,417.5C 480.816,416.177 481.983,415.511 483.5,415.5 Z"/></g>
<g><path style="opacity:1" fill="#b38585" d="M 99.5,431.5 C 99.5,434.167 99.5,436.833 99.5,439.5C 98.1667,439.5 96.8333,439.5 95.5,439.5C 95.335,436.15 95.5017,432.817 96,429.5C 96.8159,430.823 97.9826,431.489 99.5,431.5 Z"/></g>
<g><path style="opacity:1" fill="#955252" d="M 99.5,431.5 C 113.504,431.333 127.504,431.5 141.5,432C 142.833,434.333 144.167,436.667 145.5,439C 130.17,439.5 114.837,439.667 99.5,439.5C 99.5,436.833 99.5,434.167 99.5,431.5 Z"/></g>
</svg>
