<?xml version="1.0" encoding="UTF-8"?>
<!DOCTYPE svg PUBLIC "-//W3C//DTD SVG 1.1//EN" "http://www.w3.org/Graphics/SVG/1.1/DTD/svg11.dtd">
<svg xmlns="http://www.w3.org/2000/svg" version="1.1" width="512px" height="512px" style="shape-rendering:geometricPrecision; text-rendering:geometricPrecision; image-rendering:optimizeQuality; fill-rule:evenodd; clip-rule:evenodd" xmlns:xlink="http://www.w3.org/1999/xlink">
<g><path style="opacity:0.979" fill="#2d4356" d="M 219.5,-0.5 C 227.5,-0.5 235.5,-0.5 243.5,-0.5C 286.396,10.9294 306.229,38.9294 303,83.5C 294.196,121.474 270.363,141.474 231.5,143.5C 192.637,141.474 168.804,121.474 160,83.5C 156.771,38.9294 176.604,10.9294 219.5,-0.5 Z"/></g>
<g><path style="opacity:1" fill="#ecf1f6" d="M 287.5,69.5 C 276.495,33.82 252.495,19.32 215.5,26C 195.596,32.2376 182.763,45.4043 177,65.5C 176.51,64.2068 176.343,62.8734 176.5,61.5C 181.281,38.5495 194.948,23.7161 217.5,17C 248.676,11.5022 270.842,23.0022 284,51.5C 286.259,57.293 287.425,63.293 287.5,69.5 Z"/></g>
<g><path style="opacity:1" fill="#e0eaf3" d="M 287.5,69.5 C 287.5,70.5 287.5,71.5 287.5,72.5C 275.857,110.497 250.524,124.997 211.5,116C 192.362,107.366 180.362,92.866 175.5,72.5C 175.185,68.6286 175.518,64.9619 176.5,61.5C 176.343,62.8734 176.51,64.2068 177,65.5C 182.763,45.4043 195.596,32.2376 215.5,26C 252.495,19.32 276.495,33.82 287.5,69.5 Z"/></g>
<g><path style="opacity:0.998" fill="#bdc6cd" d="M 175.5,72.5 C 180.362,92.866 192.362,107.366 211.5,116C 250.524,124.997 275.857,110.497 287.5,72.5C 285.23,102.2 269.563,120.367 240.5,127C 213.821,129.912 193.988,119.745 181,96.5C 177.347,88.9163 175.514,80.9163 175.5,72.5 Z"/></g>
<g><path style="opacity:0.991" fill="#2d4355" d="M 160.5,122.5 C 151.911,130.337 146.411,140.003 144,151.5C 143.333,187.5 143.333,223.5 144,259.5C 148.115,270.14 155.615,273.64 166.5,270C 169.667,268.167 172.167,265.667 174,262.5C 175.308,235.229 175.974,207.895 176,180.5C 179.013,175.465 183.18,174.298 188.5,177C 189.701,177.903 190.535,179.069 191,180.5C 191.5,208.165 191.667,235.831 191.5,263.5C 183.107,284.858 167.774,292.025 145.5,285C 136.48,280.477 130.646,273.31 128,263.5C 127.333,224.833 127.333,186.167 128,147.5C 131.192,131.433 139.192,118.433 152,108.5C 154.662,113.316 157.495,117.982 160.5,122.5 Z"/></g>
<g><path style="opacity:0.988" fill="#2d4355" d="M 319.5,244.5 C 319.667,213.498 319.5,182.498 319,151.5C 316.589,140.003 311.089,130.337 302.5,122.5C 305.505,117.982 308.338,113.316 311,108.5C 323.808,118.433 331.808,131.433 335,147.5C 335.5,178.165 335.667,208.832 335.5,239.5C 330.035,240.766 324.701,242.433 319.5,244.5 Z"/></g>
<g><path style="opacity:0.996" fill="#fb775d" d="M 160.5,122.5 C 185.628,154.154 217.962,164.988 257.5,155C 275.795,148.539 290.795,137.705 302.5,122.5C 311.089,130.337 316.589,140.003 319,151.5C 319.5,182.498 319.667,213.498 319.5,244.5C 309.204,249.982 299.204,255.982 289.5,262.5C 289.013,261.527 288.513,260.527 288,259.5C 287.667,233.167 287.333,206.833 287,180.5C 283.987,175.465 279.82,174.298 274.5,177C 273.299,177.903 272.465,179.069 272,180.5C 271.333,207.167 271.333,233.833 272,260.5C 272.603,265.176 274.436,269.176 277.5,272.5C 271.168,279.668 265.002,287.001 259,294.5C 253.635,302.569 248.802,310.902 244.5,319.5C 236.5,319.5 228.5,319.5 220.5,319.5C 224.763,306.925 222.596,295.592 214,285.5C 206.632,277.964 199.132,270.631 191.5,263.5C 191.667,235.831 191.5,208.165 191,180.5C 190.535,179.069 189.701,177.903 188.5,177C 183.18,174.298 179.013,175.465 176,180.5C 175.974,207.895 175.308,235.229 174,262.5C 172.167,265.667 169.667,268.167 166.5,270C 155.615,273.64 148.115,270.14 144,259.5C 143.333,223.5 143.333,187.5 144,151.5C 146.411,140.003 151.911,130.337 160.5,122.5 Z"/></g>
<g><path style="opacity:1" fill="#2f4356" d="M 289.5,262.5 C 285.817,266.18 281.817,269.514 277.5,272.5C 274.436,269.176 272.603,265.176 272,260.5C 271.333,233.833 271.333,207.167 272,180.5C 272.465,179.069 273.299,177.903 274.5,177C 279.82,174.298 283.987,175.465 287,180.5C 287.333,206.833 287.667,233.167 288,259.5C 288.513,260.527 289.013,261.527 289.5,262.5 Z"/></g>
<g><path style="opacity:0.981" fill="#2d4356" d="M 111.5,235.5 C 80.8333,265.5 50.5,295.833 20.5,326.5C 18.7041,327.793 17.0375,329.293 15.5,331C 41.0138,356.347 66.3472,381.847 91.5,407.5C 125.167,374.5 158.5,341.167 191.5,307.5C 190.148,306.476 188.815,305.476 187.5,304.5C 185.42,302.427 183.754,300.093 182.5,297.5C 186.468,294.824 190.135,291.657 193.5,288C 199.191,291.024 203.691,295.524 207,301.5C 207.826,306.589 207.492,311.589 206,316.5C 171.167,351.333 136.333,386.167 101.5,421C 94.2965,424.526 87.2965,424.193 80.5,420C 52.9083,392.91 25.9083,365.41 -0.5,337.5C -0.5,333.5 -0.5,329.5 -0.5,325.5C 34.2176,289.281 69.5509,253.448 105.5,218C 107.167,217.167 108.833,216.333 110.5,215.5C 111.497,222.134 111.83,228.8 111.5,235.5 Z"/></g>
<g><path style="opacity:0.997" fill="#80d8e2" d="M 111.5,235.5 C 111.105,246.605 111.938,257.605 114,268.5C 123.564,293.537 141.73,304.704 168.5,302C 173.288,300.793 177.955,299.293 182.5,297.5C 183.754,300.093 185.42,302.427 187.5,304.5C 155.535,335.965 123.701,367.632 92,399.5C 67.5807,375.582 43.7473,351.249 20.5,326.5C 50.5,295.833 80.8333,265.5 111.5,235.5 Z"/></g>
<g><path style="opacity:0.98" fill="#2d4356" d="M 511.5,363.5 C 511.5,374.167 511.5,384.833 511.5,395.5C 499.14,460.527 460.473,499.194 395.5,511.5C 384.833,511.5 374.167,511.5 363.5,511.5C 311.305,503.146 275.138,474.48 255,425.5C 237.264,368.742 249.764,319.909 292.5,279C 334.24,245.987 380.24,238.654 430.5,257C 476.27,278.265 503.27,313.765 511.5,363.5 Z"/></g>
<g><path style="opacity:0.999" fill="#a6e2e9" d="M 495.5,376.5 C 487.621,324.773 458.621,290.94 408.5,275C 358.628,264.538 317.794,279.038 286,318.5C 273.404,336.336 265.904,356.003 263.5,377.5C 266.556,326.86 291.223,291.36 337.5,271C 393.999,253.392 440.165,267.892 476,314.5C 488.423,333.271 494.923,353.937 495.5,376.5 Z"/></g>
<g><path style="opacity:1" fill="#80d8e2" d="M 495.5,376.5 C 495.5,379.167 495.5,381.833 495.5,384.5C 487.284,433.562 459.617,466.396 412.5,483C 356.576,495.698 312.409,478.531 280,431.5C 271.356,416.067 265.856,399.733 263.5,382.5C 263.5,380.833 263.5,379.167 263.5,377.5C 265.904,356.003 273.404,336.336 286,318.5C 317.794,279.038 358.628,264.538 408.5,275C 458.621,290.94 487.621,324.773 495.5,376.5 Z"/></g>
<g><path style="opacity:1" fill="#2e4457" d="M 324.5,303.5 C 333.376,302.552 341.376,304.718 348.5,310C 358.681,320.348 369.014,330.514 379.5,340.5C 389.986,330.514 400.319,320.348 410.5,310C 424.025,300.776 436.858,301.609 449,312.5C 457.615,324.445 457.615,336.445 449,348.5C 438.652,358.681 428.486,369.014 418.5,379.5C 428.486,389.986 438.652,400.319 449,410.5C 458.472,424.638 457.306,437.805 445.5,450C 433.603,457.646 421.937,457.312 410.5,449C 400.319,438.652 389.986,428.486 379.5,418.5C 369.347,428.152 359.347,437.986 349.5,448C 332.415,459.997 317.915,457.497 306,440.5C 301.706,429.719 303.04,419.719 310,410.5C 320.348,400.319 330.514,389.986 340.5,379.5C 330.514,369.014 320.348,358.681 310,348.5C 298.329,328.017 303.162,313.017 324.5,303.5 Z"/></g>
<g><path style="opacity:1" fill="#5facb1" d="M 187.5,304.5 C 188.815,305.476 190.148,306.476 191.5,307.5C 158.5,341.167 125.167,374.5 91.5,407.5C 66.3472,381.847 41.0138,356.347 15.5,331C 17.0375,329.293 18.7041,327.793 20.5,326.5C 43.7473,351.249 67.5807,375.582 92,399.5C 123.701,367.632 155.535,335.965 187.5,304.5 Z"/></g>
<g><path style="opacity:0.993" fill="#2d4356" d="M 220.5,319.5 C 228.5,319.5 236.5,319.5 244.5,319.5C 242.796,324.778 240.796,329.944 238.5,335C 233.511,335.499 228.511,335.666 223.5,335.5C 223.667,385.168 223.5,434.834 223,484.5C 218.649,498.016 209.816,507.016 196.5,511.5C 190.5,511.5 184.5,511.5 178.5,511.5C 165.184,507.016 156.351,498.016 152,484.5C 151.333,453.5 151.333,422.5 152,391.5C 157.035,386.297 162.202,381.297 167.5,376.5C 167.5,408.5 167.5,440.5 167.5,472.5C 168.477,490.493 177.811,497.66 195.5,494C 204.297,489.578 208.297,482.412 207.5,472.5C 207.5,427.167 207.5,381.833 207.5,336.5C 212.983,331.687 217.317,326.02 220.5,319.5 Z"/></g>
<g><path style="opacity:0.999" fill="#f99380" d="M 438.5,333.5 C 435.056,328.847 430.389,327.013 424.5,328C 410.862,340.637 397.529,353.637 384.5,367C 381.167,369 377.833,369 374.5,367C 362.167,354.667 349.833,342.333 337.5,330C 330.091,325.558 324.425,327.058 320.5,334.5C 318.135,328.043 320.135,323.209 326.5,320C 329.167,319.333 331.833,319.333 334.5,320C 348.138,332.637 361.471,345.637 374.5,359C 377.833,361 381.167,361 384.5,359C 397.529,345.637 410.862,332.637 424.5,320C 431.126,318.231 435.96,320.397 439,326.5C 439.796,329.039 439.629,331.372 438.5,333.5 Z"/></g>
<g><path style="opacity:1" fill="#fb775e" d="M 438.5,333.5 C 438.649,334.552 438.483,335.552 438,336.5C 425.333,349.167 412.667,361.833 400,374.5C 398,377.833 398,381.167 400,384.5C 413.422,397.419 426.256,410.753 438.5,424.5C 436.792,429.354 433.292,431.688 428,431.5C 425.679,431.091 423.513,430.257 421.5,429C 409.167,416.667 396.833,404.333 384.5,392C 381.167,390 377.833,390 374.5,392C 361.439,405.73 347.772,418.73 333.5,431C 327.224,432.529 322.891,430.362 320.5,424.5C 332.744,410.753 345.578,397.419 359,384.5C 361,381.167 361,377.833 359,374.5C 345.578,361.581 332.744,348.247 320.5,334.5C 324.425,327.058 330.091,325.558 337.5,330C 349.833,342.333 362.167,354.667 374.5,367C 377.833,369 381.167,369 384.5,367C 397.529,353.637 410.862,340.637 424.5,328C 430.389,327.013 435.056,328.847 438.5,333.5 Z"/></g>
<g><path style="opacity:0.998" fill="#fb775d" d="M 207.5,336.5 C 207.5,381.833 207.5,427.167 207.5,472.5C 202.225,485.105 192.892,489.605 179.5,486C 173.514,483.15 169.514,478.65 167.5,472.5C 167.5,440.5 167.5,408.5 167.5,376.5C 180.5,362.833 193.833,349.5 207.5,336.5 Z"/></g>
<g><path style="opacity:0.996" fill="#5eabb0" d="M 263.5,382.5 C 265.856,399.733 271.356,416.067 280,431.5C 312.409,478.531 356.576,495.698 412.5,483C 459.617,466.396 487.284,433.562 495.5,384.5C 491.051,435.097 465.385,469.93 418.5,489C 364.611,504.7 320.111,490.867 285,447.5C 271.346,428.038 264.18,406.372 263.5,382.5 Z"/></g>
<g><path style="opacity:0.993" fill="#d0624f" d="M 438.5,424.5 C 440.865,430.957 438.865,435.791 432.5,439C 429.833,439.667 427.167,439.667 424.5,439C 410.862,426.363 397.529,413.363 384.5,400C 381.134,398.121 377.8,398.121 374.5,400C 361.471,413.363 348.138,426.363 334.5,439C 325.761,440.753 320.761,437.253 319.5,428.5C 319.511,426.955 319.844,425.622 320.5,424.5C 322.891,430.362 327.224,432.529 333.5,431C 347.772,418.73 361.439,405.73 374.5,392C 377.833,390 381.167,390 384.5,392C 396.833,404.333 409.167,416.667 421.5,429C 423.513,430.257 425.679,431.091 428,431.5C 433.292,431.688 436.792,429.354 438.5,424.5 Z"/></g>
<g><path style="opacity:0.977" fill="#2e4355" d="M 255.5,459.5 C 255.5,463.5 255.5,467.5 255.5,471.5C 254.658,483.142 259.658,490.975 270.5,495C 275.651,495.818 280.651,495.318 285.5,493.5C 290.383,496.109 294.716,499.443 298.5,503.5C 294.393,507.218 289.726,509.885 284.5,511.5C 278.5,511.5 272.5,511.5 266.5,511.5C 253.184,507.016 244.351,498.016 240,484.5C 239.333,465.5 239.333,446.5 240,427.5C 244.379,438.591 249.546,449.257 255.5,459.5 Z"/></g>
<g><path style="opacity:0.959" fill="#fb775d" d="M 255.5,459.5 C 262.381,469.39 270.048,478.724 278.5,487.5C 266.748,487.808 259.082,482.474 255.5,471.5C 255.5,467.5 255.5,463.5 255.5,459.5 Z"/></g>
<g><path style="opacity:1" fill="#ce614f" d="M 167.5,472.5 C 169.514,478.65 173.514,483.15 179.5,486C 192.892,489.605 202.225,485.105 207.5,472.5C 208.297,482.412 204.297,489.578 195.5,494C 177.811,497.66 168.477,490.493 167.5,472.5 Z"/></g>
<g><path style="opacity:1" fill="#ce624f" d="M 255.5,471.5 C 259.082,482.474 266.748,487.808 278.5,487.5C 281.447,488.781 283.781,490.781 285.5,493.5C 280.651,495.318 275.651,495.818 270.5,495C 259.658,490.975 254.658,483.142 255.5,471.5 Z"/></g>
</svg>
