<?xml version="1.0" encoding="UTF-8"?>
<!DOCTYPE svg PUBLIC "-//W3C//DTD SVG 1.1//EN" "http://www.w3.org/Graphics/SVG/1.1/DTD/svg11.dtd">
<svg xmlns="http://www.w3.org/2000/svg" version="1.1" width="512px" height="512px" style="shape-rendering:geometricPrecision; text-rendering:geometricPrecision; image-rendering:optimizeQuality; fill-rule:evenodd; clip-rule:evenodd" xmlns:xlink="http://www.w3.org/1999/xlink">
<g><path style="opacity:0.972" fill="#feb69d" d="M 91.5,9.5 C 116.296,7.81931 132.129,18.8193 139,42.5C 141.663,63.6833 133.496,78.8499 114.5,88C 90.6915,95.5117 72.8582,88.345 61,66.5C 53.3405,37.8133 63.5071,18.8133 91.5,9.5 Z"/></g>
<g><path style="opacity:0.938" fill="#696e73" d="M 263.5,122.5 C 258.886,121.45 254.22,121.283 249.5,122C 245.11,124.854 240.776,127.687 236.5,130.5C 237.618,122.461 238.951,114.461 240.5,106.5C 229.912,96.0474 227.745,84.0474 234,70.5C 235.458,68.04 237.291,65.8734 239.5,64C 240.833,63.3333 242.167,63.3333 243.5,64C 243.967,69.1352 244.3,74.3018 244.5,79.5C 248.424,82.3793 252.257,85.3793 256,88.5C 260.667,86.5 265.333,84.5 270,82.5C 271.251,77.9072 272.085,73.2406 272.5,68.5C 276.182,67.7253 278.682,69.0586 280,72.5C 285.627,89.0749 280.794,101.575 265.5,110C 264.6,114.133 263.933,118.3 263.5,122.5 Z"/></g>
<g><path style="opacity:1" fill="#66aefd" d="M 58.5,102.5 C 58.5,102.833 58.5,103.167 58.5,103.5C 58.5,124.5 58.5,145.5 58.5,166.5C 58.5,186.5 58.5,206.5 58.5,226.5C 54.8333,226.5 51.1667,226.5 47.5,226.5C 47.8313,198.328 47.498,170.328 46.5,142.5C 43.8447,143.001 41.678,144.334 40,146.5C 39.5001,160.163 39.3334,173.829 39.5,187.5C 26.1667,187.5 12.8333,187.5 -0.5,187.5C -0.5,171.5 -0.5,155.5 -0.5,139.5C 9.16197,111.809 28.8286,99.4758 58.5,102.5 Z"/></g>
<g><path style="opacity:1" fill="#424c82" d="M 58.5,103.5 C 62.8333,103.5 67.1667,103.5 71.5,103.5C 71.1701,120.675 71.5034,137.675 72.5,154.5C 72.5,158.5 72.5,162.5 72.5,166.5C 67.8333,166.5 63.1667,166.5 58.5,166.5C 58.5,145.5 58.5,124.5 58.5,103.5 Z"/></g>
<g><path style="opacity:1" fill="#424c82" d="M 135.5,166.5 C 130.833,166.5 126.167,166.5 121.5,166.5C 121.5,162.5 121.5,158.5 121.5,154.5C 122.497,137.675 122.83,120.675 122.5,103.5C 126.833,103.5 131.167,103.5 135.5,103.5C 135.5,124.5 135.5,145.5 135.5,166.5 Z"/></g>
<g><path style="opacity:1" fill="#66affd" d="M 153.5,103.5 C 169.82,104.743 182.654,112.076 192,125.5C 195.787,132.363 199.287,139.363 202.5,146.5C 203.167,148.5 203.833,150.5 204.5,152.5C 194.415,160.91 183.748,168.576 172.5,175.5C 167.732,166.735 163.232,157.735 159,148.5C 156.877,145.701 154.21,143.701 151,142.5C 150.5,170.498 150.333,198.498 150.5,226.5C 145.833,226.5 141.167,226.5 136.5,226.5C 136.5,185.5 136.5,144.5 136.5,103.5C 142.167,103.5 147.833,103.5 153.5,103.5 Z"/></g>
<g><path style="opacity:0.993" fill="#feb59d" d="M 263.5,122.5 C 273.799,127.098 277.799,135.098 275.5,146.5C 269.833,154.167 263.167,160.833 255.5,166.5C 247.5,172.833 239.5,179.167 231.5,185.5C 224.998,191.166 218.331,196.666 211.5,202C 206.901,204.867 201.901,206.034 196.5,205.5C 191.521,204.703 187.355,202.37 184,198.5C 180.958,191.832 177.458,185.499 173.5,179.5C 173.167,178.167 172.833,176.833 172.5,175.5C 183.748,168.576 194.415,160.91 204.5,152.5C 205.158,153.398 205.824,154.398 206.5,155.5C 210.501,152.825 214.168,149.825 217.5,146.5C 223.833,141.167 230.167,135.833 236.5,130.5C 240.776,127.687 245.11,124.854 249.5,122C 254.22,121.283 258.886,121.45 263.5,122.5 Z"/></g>
<g><path style="opacity:0.919" fill="#d82e49" d="M 202.5,146.5 C 207.5,146.5 212.5,146.5 217.5,146.5C 214.168,149.825 210.501,152.825 206.5,155.5C 205.824,154.398 205.158,153.398 204.5,152.5C 203.833,150.5 203.167,148.5 202.5,146.5 Z"/></g>
<g><path style="opacity:0.982" fill="#d62846" d="M 275.5,146.5 C 323.501,146.333 371.501,146.5 419.5,147C 424.428,148.927 427.594,152.427 429,157.5C 435.205,190.86 441.539,224.193 448,257.5C 449.707,255.963 451.207,254.296 452.5,252.5C 454.51,261.503 460.177,266.17 469.5,266.5C 464.5,271.833 459.5,277.167 454.5,282.5C 448.051,278.437 441.385,274.604 434.5,271C 430.192,269.342 425.858,267.842 421.5,266.5C 415.74,235.516 410.074,204.516 404.5,173.5C 373.833,173.5 343.167,173.5 312.5,173.5C 306.833,173.5 301.167,173.5 295.5,173.5C 282.167,173.5 268.833,173.5 255.5,173.5C 255.5,171.167 255.5,168.833 255.5,166.5C 263.167,160.833 269.833,154.167 275.5,146.5 Z"/></g>
<g><path style="opacity:0.989" fill="#5e6d9a" d="M 72.5,154.5 C 88.8333,154.5 105.167,154.5 121.5,154.5C 121.5,158.5 121.5,162.5 121.5,166.5C 126.167,166.5 130.833,166.5 135.5,166.5C 135.5,186.833 135.5,207.167 135.5,227.5C 140.5,227.5 145.5,227.5 150.5,227.5C 150.5,228.5 150.5,229.5 150.5,230.5C 150.5,240.167 150.5,249.833 150.5,259.5C 150.5,266.833 150.5,274.167 150.5,281.5C 150.5,282.5 150.5,283.5 150.5,284.5C 150.5,312.5 150.5,340.5 150.5,368.5C 150.5,376.5 150.5,384.5 150.5,392.5C 150.5,393.833 150.5,395.167 150.5,396.5C 150.5,396.833 150.5,397.167 150.5,397.5C 150.5,403.167 150.5,408.833 150.5,414.5C 150.667,437.836 150.5,461.169 150,484.5C 145.118,497.861 135.618,503.361 121.5,501C 113.913,499.082 108.413,494.582 105,487.5C 103.511,422.225 103.011,356.892 103.5,291.5C 100.5,291.5 97.5,291.5 94.5,291.5C 94.6667,355.168 94.5,418.834 94,482.5C 88.7125,498.397 77.8792,504.23 61.5,500C 53.6848,496.218 48.8515,490.051 47,481.5C 46.5,417.834 46.3333,354.168 46.5,290.5C 47.4973,269.673 47.8306,248.673 47.5,227.5C 51.3714,227.815 55.0381,227.482 58.5,226.5C 58.5,206.5 58.5,186.5 58.5,166.5C 63.1667,166.5 67.8333,166.5 72.5,166.5C 72.5,162.5 72.5,158.5 72.5,154.5 Z"/></g>
<g><path style="opacity:1" fill="#618ecf" d="M 58.5,103.5 C 58.5,103.167 58.5,102.833 58.5,102.5C 63.1667,102.5 67.8333,102.5 72.5,102.5C 72.5,104.5 72.5,106.5 72.5,108.5C 72.5,123.5 72.5,138.5 72.5,153.5C 88.8333,153.5 105.167,153.5 121.5,153.5C 121.5,138.833 121.5,124.167 121.5,109.5C 121.5,107.167 121.5,104.833 121.5,102.5C 132.346,102.172 143.013,102.506 153.5,103.5C 147.833,103.5 142.167,103.5 136.5,103.5C 136.5,144.5 136.5,185.5 136.5,226.5C 141.167,226.5 145.833,226.5 150.5,226.5C 150.5,226.833 150.5,227.167 150.5,227.5C 145.5,227.5 140.5,227.5 135.5,227.5C 135.5,207.167 135.5,186.833 135.5,166.5C 135.5,145.5 135.5,124.5 135.5,103.5C 131.167,103.5 126.833,103.5 122.5,103.5C 122.83,120.675 122.497,137.675 121.5,154.5C 105.167,154.5 88.8333,154.5 72.5,154.5C 71.5034,137.675 71.1701,120.675 71.5,103.5C 67.1667,103.5 62.8333,103.5 58.5,103.5 Z"/></g>
<g><path style="opacity:1" fill="#65affe" d="M 72.5,108.5 C 81.6021,128.698 95.6021,132.865 114.5,121C 117.5,117.486 119.833,113.653 121.5,109.5C 121.5,124.167 121.5,138.833 121.5,153.5C 105.167,153.5 88.8333,153.5 72.5,153.5C 72.5,138.5 72.5,123.5 72.5,108.5 Z"/></g>
<g><path style="opacity:0.966" fill="#feb59e" d="M 72.5,102.5 C 88.8333,102.5 105.167,102.5 121.5,102.5C 121.5,104.833 121.5,107.167 121.5,109.5C 119.833,113.653 117.5,117.486 114.5,121C 95.6021,132.865 81.6021,128.698 72.5,108.5C 72.5,106.5 72.5,104.5 72.5,102.5 Z"/></g>
<g><path style="opacity:1" fill="#6b6f74" d="M 255.5,166.5 C 255.5,168.833 255.5,171.167 255.5,173.5C 254.662,173.842 254.328,174.508 254.5,175.5C 254.646,187.191 248.98,192.358 237.5,191C 235.004,189.669 233.004,187.836 231.5,185.5C 239.5,179.167 247.5,172.833 255.5,166.5 Z"/></g>
<g><path style="opacity:1" fill="#414b82" d="M 79.5,170.5 C 92.1667,170.5 104.833,170.5 117.5,170.5C 117.5,177.5 117.5,184.5 117.5,191.5C 104.833,191.5 92.1667,191.5 79.5,191.5C 79.5,184.5 79.5,177.5 79.5,170.5 Z"/></g>
<g><path style="opacity:1" fill="#c3f2fe" d="M 255.5,173.5 C 268.833,173.5 282.167,173.5 295.5,173.5C 295.5,173.833 295.5,174.167 295.5,174.5C 291.894,174.211 288.394,174.544 285,175.5C 268.821,205.194 252.654,234.86 236.5,264.5C 228.167,264.5 219.833,264.5 211.5,264.5C 227.233,234.701 243.233,205.034 259.5,175.5C 257.833,174.334 256.166,174.334 254.5,175.5C 254.328,174.508 254.662,173.842 255.5,173.5 Z"/></g>
<g><path style="opacity:1" fill="#949ca1" d="M 295.5,173.5 C 301.167,173.5 306.833,173.5 312.5,173.5C 312.5,176.5 312.5,179.5 312.5,182.5C 316.042,182.187 319.375,182.521 322.5,183.5C 317.833,183.5 313.167,183.5 308.5,183.5C 303.637,183.819 298.97,183.486 294.5,182.5C 295.473,180.052 295.806,177.385 295.5,174.5C 295.5,174.167 295.5,173.833 295.5,173.5 Z"/></g>
<g><path style="opacity:1" fill="#a0e9fd" d="M 312.5,173.5 C 343.167,173.5 373.833,173.5 404.5,173.5C 410.074,204.516 415.74,235.516 421.5,266.5C 417.821,266.276 414.154,265.942 410.5,265.5C 407.713,264.523 404.713,264.19 401.5,264.5C 398.224,239.89 384.224,226.557 359.5,224.5C 334.767,226.566 320.767,239.9 317.5,264.5C 300.167,264.5 282.833,264.5 265.5,264.5C 275.839,243.656 286.839,223.156 298.5,203C 293.845,202.501 289.179,202.334 284.5,202.5C 284.5,202.167 284.5,201.833 284.5,201.5C 289.5,201.5 294.5,201.5 299.5,201.5C 307.507,201.666 315.507,201.5 323.5,201C 326.013,198.604 327.013,195.604 326.5,192C 326.333,189.833 326.167,187.667 326,185.5C 325.184,184.177 324.017,183.511 322.5,183.5C 319.375,182.521 316.042,182.187 312.5,182.5C 312.5,179.5 312.5,176.5 312.5,173.5 Z"/></g>
<g><path style="opacity:0.977" fill="#d72846" d="M 173.5,179.5 C 177.458,185.499 180.958,191.832 184,198.5C 187.355,202.37 191.521,204.703 196.5,205.5C 192.703,225.815 189.037,246.149 185.5,266.5C 173.24,269.796 162.24,275.463 152.5,283.5C 152.167,282.5 151.5,281.833 150.5,281.5C 150.5,274.167 150.5,266.833 150.5,259.5C 152.206,257.388 153.539,255.055 154.5,252.5C 155.793,254.296 157.293,255.963 159,257.5C 164.286,231.572 169.119,205.572 173.5,179.5 Z"/></g>
<g><path style="opacity:1" fill="#393f44" d="M 283.5,183.5 C 286.898,183.18 290.232,183.513 293.5,184.5C 290.233,190.035 287.233,195.702 284.5,201.5C 282.589,201.426 281.422,200.426 281,198.5C 280.333,194.167 280.333,189.833 281,185.5C 281.708,184.619 282.542,183.953 283.5,183.5 Z"/></g>
<g><path style="opacity:1" fill="#7c8085" d="M 283.5,183.5 C 286.962,182.518 290.629,182.185 294.5,182.5C 298.97,183.486 303.637,183.819 308.5,183.5C 305.487,189.527 302.487,195.527 299.5,201.5C 294.5,201.5 289.5,201.5 284.5,201.5C 287.233,195.702 290.233,190.035 293.5,184.5C 290.232,183.513 286.898,183.18 283.5,183.5 Z"/></g>
<g><path style="opacity:1" fill="#383e44" d="M 308.5,183.5 C 313.167,183.5 317.833,183.5 322.5,183.5C 324.017,183.511 325.184,184.177 326,185.5C 326.167,187.667 326.333,189.833 326.5,192C 327.013,195.604 326.013,198.604 323.5,201C 315.507,201.5 307.507,201.666 299.5,201.5C 302.487,195.527 305.487,189.527 308.5,183.5 Z"/></g>
<g><path style="opacity:1" fill="#a0ebfe" d="M 295.5,174.5 C 295.806,177.385 295.473,180.052 294.5,182.5C 290.629,182.185 286.962,182.518 283.5,183.5C 282.542,183.953 281.708,184.619 281,185.5C 280.333,189.833 280.333,194.167 281,198.5C 281.422,200.426 282.589,201.426 284.5,201.5C 284.5,201.833 284.5,202.167 284.5,202.5C 272.662,222.838 261.329,243.505 250.5,264.5C 245.833,264.5 241.167,264.5 236.5,264.5C 252.654,234.86 268.821,205.194 285,175.5C 288.394,174.544 291.894,174.211 295.5,174.5 Z"/></g>
<g><path style="opacity:1" fill="#a1e9fd" d="M 211.5,264.5 C 206.305,264.179 201.305,264.513 196.5,265.5C 192.802,265.552 189.135,265.886 185.5,266.5C 189.037,246.149 192.703,225.815 196.5,205.5C 201.901,206.034 206.901,204.867 211.5,202C 218.331,196.666 224.998,191.166 231.5,185.5C 233.004,187.836 235.004,189.669 237.5,191C 248.98,192.358 254.646,187.191 254.5,175.5C 256.166,174.334 257.833,174.334 259.5,175.5C 243.233,205.034 227.233,234.701 211.5,264.5 Z"/></g>
<g><path style="opacity:0.972" fill="#feb59e" d="M -0.5,187.5 C 12.8333,187.5 26.1667,187.5 39.5,187.5C 39.6667,222.835 39.5,258.168 39,293.5C 35.598,309.122 26.098,314.956 10.5,311C 5.53892,307.878 1.87225,303.712 -0.5,298.5C -0.5,261.5 -0.5,224.5 -0.5,187.5 Z"/></g>
<g><path style="opacity:1" fill="#c1f1ff" d="M 284.5,202.5 C 289.179,202.334 293.845,202.501 298.5,203C 286.839,223.156 275.839,243.656 265.5,264.5C 260.5,264.5 255.5,264.5 250.5,264.5C 261.329,243.505 272.662,222.838 284.5,202.5 Z"/></g>
<g><path style="opacity:1" fill="#383e43" d="M 401.5,264.5 C 396.833,264.5 392.167,264.5 387.5,264.5C 387.259,254.676 382.926,247.343 374.5,242.5C 364.5,235.833 354.5,235.833 344.5,242.5C 336.577,247.675 332.244,255.008 331.5,264.5C 326.833,264.5 322.167,264.5 317.5,264.5C 320.767,239.9 334.767,226.566 359.5,224.5C 384.224,226.557 398.224,239.89 401.5,264.5 Z"/></g>
<g><path style="opacity:0.964" fill="#e54a54" d="M 511.5,234.5 C 511.5,241.833 511.5,249.167 511.5,256.5C 509.378,260.785 506.045,263.952 501.5,266C 490.839,266.5 480.172,266.667 469.5,266.5C 460.177,266.17 454.51,261.503 452.5,252.5C 452.13,246.075 452.63,239.742 454,233.5C 455.916,229.915 458.749,227.415 462.5,226C 474.117,224.446 485.784,224.113 497.5,225C 504.126,225.466 508.792,228.633 511.5,234.5 Z"/></g>
<g><path style="opacity:0.792" fill="#869ac6" d="M 46.5,142.5 C 47.498,170.328 47.8313,198.328 47.5,226.5C 51.1667,226.5 54.8333,226.5 58.5,226.5C 55.0381,227.482 51.3714,227.815 47.5,227.5C 47.8306,248.673 47.4973,269.673 46.5,290.5C 46.5,241.167 46.5,191.833 46.5,142.5 Z"/></g>
<g><path style="opacity:0.826" fill="#f65b65" d="M 150.5,230.5 C 152.694,232.221 153.861,234.555 154,237.5C 154.499,242.489 154.666,247.489 154.5,252.5C 153.539,255.055 152.206,257.388 150.5,259.5C 150.5,249.833 150.5,240.167 150.5,230.5 Z"/></g>
<g><path style="opacity:1" fill="#697075" d="M 374.5,242.5 C 371.348,241.959 368.848,242.959 367,245.5C 365.829,252.157 366.663,258.491 369.5,264.5C 362.833,264.5 356.167,264.5 349.5,264.5C 352.337,258.491 353.171,252.157 352,245.5C 350.152,242.959 347.652,241.959 344.5,242.5C 354.5,235.833 364.5,235.833 374.5,242.5 Z"/></g>
<g><path style="opacity:1" fill="#9fe9fd" d="M 344.5,242.5 C 347.652,241.959 350.152,242.959 352,245.5C 353.171,252.157 352.337,258.491 349.5,264.5C 343.5,264.5 337.5,264.5 331.5,264.5C 332.244,255.008 336.577,247.675 344.5,242.5 Z"/></g>
<g><path style="opacity:1" fill="#9ee8fc" d="M 374.5,242.5 C 382.926,247.343 387.259,254.676 387.5,264.5C 381.5,264.5 375.5,264.5 369.5,264.5C 366.663,258.491 365.829,252.157 367,245.5C 368.848,242.959 371.348,241.959 374.5,242.5 Z"/></g>
<g><path style="opacity:0.997" fill="#e64b54" d="M 196.5,265.5 C 204.169,276.01 211.669,286.677 219,297.5C 221.921,301.092 225.421,303.925 229.5,306C 253.439,307.152 277.439,307.652 301.5,307.5C 324.5,307.333 347.5,307.167 370.5,307C 378.206,304.729 384.706,300.563 390,294.5C 396.843,284.804 403.676,275.138 410.5,265.5C 414.154,265.942 417.821,266.276 421.5,266.5C 425.858,267.842 430.192,269.342 434.5,271C 441.385,274.604 448.051,278.437 454.5,282.5C 466.424,294.348 473.591,308.681 476,325.5C 476.5,339.829 476.667,354.163 476.5,368.5C 468.493,368.334 460.493,368.5 452.5,369C 450.667,369.5 449.5,370.667 449,372.5C 448.333,377.833 448.333,383.167 449,388.5C 450.167,389.667 451.333,390.833 452.5,392C 460.493,392.5 468.493,392.666 476.5,392.5C 476.167,393.833 475.833,395.167 475.5,396.5C 436.833,396.5 398.167,396.5 359.5,396.5C 362.372,394.129 364.206,391.129 365,387.5C 365.667,369.833 365.667,352.167 365,334.5C 363.928,330.427 361.428,327.593 357.5,326C 321.833,325.333 286.167,325.333 250.5,326C 246.572,327.593 244.072,330.427 243,334.5C 242.333,352.5 242.333,370.5 243,388.5C 244.243,391.576 246.077,394.243 248.5,396.5C 215.833,396.5 183.167,396.5 150.5,396.5C 150.5,395.167 150.5,393.833 150.5,392.5C 152.936,392.683 155.103,392.016 157,390.5C 158.581,384.277 158.915,377.944 158,371.5C 156.152,368.959 153.652,367.959 150.5,368.5C 150.5,340.5 150.5,312.5 150.5,284.5C 151.167,284.167 151.833,283.833 152.5,283.5C 162.24,275.463 173.24,269.796 185.5,266.5C 189.135,265.886 192.802,265.552 196.5,265.5 Z"/></g>
<g><path style="opacity:1" fill="#f65c66" d="M 211.5,264.5 C 219.833,264.5 228.167,264.5 236.5,264.5C 241.167,264.5 245.833,264.5 250.5,264.5C 255.5,264.5 260.5,264.5 265.5,264.5C 282.833,264.5 300.167,264.5 317.5,264.5C 322.167,264.5 326.833,264.5 331.5,264.5C 337.5,264.5 343.5,264.5 349.5,264.5C 356.167,264.5 362.833,264.5 369.5,264.5C 375.5,264.5 381.5,264.5 387.5,264.5C 392.167,264.5 396.833,264.5 401.5,264.5C 404.713,264.19 407.713,264.523 410.5,265.5C 403.676,275.138 396.843,284.804 390,294.5C 384.706,300.563 378.206,304.729 370.5,307C 347.5,307.167 324.5,307.333 301.5,307.5C 277.439,307.652 253.439,307.152 229.5,306C 225.421,303.925 221.921,301.092 219,297.5C 211.669,286.677 204.169,276.01 196.5,265.5C 201.305,264.513 206.305,264.179 211.5,264.5 Z"/></g>
<g><path style="opacity:1" fill="#f9c755" d="M 217.5,350.5 C 211.023,365.244 199.689,371.411 183.5,369C 175.183,366.176 168.85,361.009 164.5,353.5C 158.817,337.376 163.151,324.876 177.5,316C 196.527,309.443 210.027,315.276 218,333.5C 218.74,339.218 218.573,344.885 217.5,350.5 Z"/></g>
<g><path style="opacity:1" fill="#f9c755" d="M 442.5,353.5 C 434.275,367.196 422.275,372.029 406.5,368C 397.749,364.662 392.082,358.495 389.5,349.5C 386.091,332.418 392.424,320.585 408.5,314C 424.273,310.909 435.773,316.409 443,330.5C 445.02,338.215 444.854,345.882 442.5,353.5 Z"/></g>
<g><path style="opacity:1" fill="#faf48b" d="M 185.5,325.5 C 201.677,325.167 208.177,332.833 205,348.5C 199.039,357.283 191.206,359.449 181.5,355C 171.083,343.501 172.416,333.667 185.5,325.5 Z"/></g>
<g><path style="opacity:1" fill="#faf48b" d="M 411.5,325.5 C 427.677,325.167 434.177,332.833 431,348.5C 425.039,357.283 417.206,359.449 407.5,355C 400.203,348.662 398.703,341.162 403,332.5C 405.441,329.546 408.275,327.213 411.5,325.5 Z"/></g>
<g><path style="opacity:1" fill="#d72946" d="M 359.5,396.5 C 352.5,396.5 345.5,396.5 338.5,396.5C 338.5,393.167 338.5,389.833 338.5,386.5C 338.802,383.941 338.468,381.607 337.5,379.5C 337.084,377.248 335.751,375.748 333.5,375C 313.833,374.333 294.167,374.333 274.5,375C 272.249,375.748 270.916,377.248 270.5,379.5C 269.532,381.607 269.198,383.941 269.5,386.5C 269.5,389.833 269.5,393.167 269.5,396.5C 262.5,396.5 255.5,396.5 248.5,396.5C 246.077,394.243 244.243,391.576 243,388.5C 242.333,370.5 242.333,352.5 243,334.5C 244.072,330.427 246.572,327.593 250.5,326C 286.167,325.333 321.833,325.333 357.5,326C 361.428,327.593 363.928,330.427 365,334.5C 365.667,352.167 365.667,369.833 365,387.5C 364.206,391.129 362.372,394.129 359.5,396.5 Z"/></g>
<g><path style="opacity:1" fill="#e54a54" d="M 260.5,338.5 C 289.502,338.333 318.502,338.5 347.5,339C 351.753,342.42 352.587,346.587 350,351.5C 349.097,352.701 347.931,353.535 346.5,354C 318.167,354.667 289.833,354.667 261.5,354C 256.931,351.459 255.431,347.625 257,342.5C 258.376,341.295 259.542,339.962 260.5,338.5 Z"/></g>
<g><path style="opacity:1" fill="#d83047" d="M 217.5,350.5 C 217.789,361.369 212.789,369.202 202.5,374C 185.586,379.958 172.753,375.125 164,359.5C 163.211,357.288 163.378,355.288 164.5,353.5C 168.85,361.009 175.183,366.176 183.5,369C 199.689,371.411 211.023,365.244 217.5,350.5 Z"/></g>
<g><path style="opacity:1" fill="#d82f46" d="M 389.5,349.5 C 392.082,358.495 397.749,364.662 406.5,368C 422.275,372.029 434.275,367.196 442.5,353.5C 443.622,355.288 443.789,357.288 443,359.5C 434.828,374.004 422.661,379.17 406.5,375C 394.766,370.17 389.099,361.67 389.5,349.5 Z"/></g>
<g><path style="opacity:1" fill="#f9850c" d="M 150.5,368.5 C 153.652,367.959 156.152,368.959 158,371.5C 158.915,377.944 158.581,384.277 157,390.5C 155.103,392.016 152.936,392.683 150.5,392.5C 150.5,384.5 150.5,376.5 150.5,368.5 Z"/></g>
<g><path style="opacity:1" fill="#f9850c" d="M 476.5,368.5 C 476.5,376.5 476.5,384.5 476.5,392.5C 468.493,392.666 460.493,392.5 452.5,392C 451.333,390.833 450.167,389.667 449,388.5C 448.333,383.167 448.333,377.833 449,372.5C 449.5,370.667 450.667,369.5 452.5,369C 460.493,368.5 468.493,368.334 476.5,368.5 Z"/></g>
<g><path style="opacity:1" fill="#d1cbd1" d="M 337.5,379.5 C 337.66,381.199 337.494,382.866 337,384.5C 336.097,383.299 334.931,382.465 333.5,382C 313.5,381.333 293.5,381.333 273.5,382C 270.812,385.075 269.812,384.242 270.5,379.5C 270.916,377.248 272.249,375.748 274.5,375C 294.167,374.333 313.833,374.333 333.5,375C 335.751,375.748 337.084,377.248 337.5,379.5 Z"/></g>
<g><path style="opacity:1" fill="#b9b8bd" d="M 270.5,379.5 C 269.812,384.242 270.812,385.075 273.5,382C 293.5,381.333 313.5,381.333 333.5,382C 334.931,382.465 336.097,383.299 337,384.5C 337.494,382.866 337.66,381.199 337.5,379.5C 338.468,381.607 338.802,383.941 338.5,386.5C 337.518,389.962 337.185,393.629 337.5,397.5C 337.056,399.113 336.056,400.28 334.5,401C 314.167,401.667 293.833,401.667 273.5,401C 271.944,400.28 270.944,399.113 270.5,397.5C 270.815,393.629 270.482,389.962 269.5,386.5C 269.198,383.941 269.532,381.607 270.5,379.5 Z"/></g>
<g><path style="opacity:1" fill="#975159" d="M 269.5,386.5 C 270.482,389.962 270.815,393.629 270.5,397.5C 230.5,397.5 190.5,397.5 150.5,397.5C 150.5,397.167 150.5,396.833 150.5,396.5C 183.167,396.5 215.833,396.5 248.5,396.5C 255.5,396.5 262.5,396.5 269.5,396.5C 269.5,393.167 269.5,389.833 269.5,386.5 Z"/></g>
<g><path style="opacity:1" fill="#975159" d="M 338.5,386.5 C 338.5,389.833 338.5,393.167 338.5,396.5C 345.5,396.5 352.5,396.5 359.5,396.5C 398.167,396.5 436.833,396.5 475.5,396.5C 475.672,397.492 475.338,398.158 474.5,398.5C 429.003,397.501 383.336,397.168 337.5,397.5C 337.185,393.629 337.518,389.962 338.5,386.5 Z"/></g>
<g><path style="opacity:1" fill="#525459" d="M 150.5,397.5 C 190.5,397.5 230.5,397.5 270.5,397.5C 270.944,399.113 271.944,400.28 273.5,401C 293.833,401.667 314.167,401.667 334.5,401C 336.056,400.28 337.056,399.113 337.5,397.5C 383.336,397.168 429.003,397.501 474.5,398.5C 469.591,409.717 460.924,415.384 448.5,415.5C 444.5,415.5 440.5,415.5 436.5,415.5C 432.167,415.5 427.833,415.5 423.5,415.5C 418.5,415.5 413.5,415.5 408.5,415.5C 404.167,415.5 399.833,415.5 395.5,415.5C 391.167,415.5 386.833,415.5 382.5,415.5C 329.833,415.5 277.167,415.5 224.5,415.5C 202.5,415.5 180.5,415.5 158.5,415.5C 155.794,415.425 153.127,415.092 150.5,414.5C 150.5,408.833 150.5,403.167 150.5,397.5 Z"/></g>
<g><path style="opacity:1" fill="#3e4246" d="M 423.5,415.5 C 427.833,415.5 432.167,415.5 436.5,415.5C 436.5,431.833 436.5,448.167 436.5,464.5C 431.833,464.5 427.167,464.5 422.5,464.5C 422.172,453.321 422.505,442.321 423.5,431.5C 423.5,426.167 423.5,420.833 423.5,415.5 Z"/></g>
<g><path style="opacity:0.936" fill="#25282c" d="M 382.5,415.5 C 386.833,415.5 391.167,415.5 395.5,415.5C 394.693,431.82 394.36,448.153 394.5,464.5C 388.128,464.067 384.294,460.733 383,454.5C 382.5,441.504 382.333,428.504 382.5,415.5 Z"/></g>
<g><path style="opacity:1" fill="#4a4f54" d="M 395.5,415.5 C 399.833,415.5 404.167,415.5 408.5,415.5C 408.5,431.833 408.5,448.167 408.5,464.5C 403.833,464.5 399.167,464.5 394.5,464.5C 394.36,448.153 394.693,431.82 395.5,415.5 Z"/></g>
<g><path style="opacity:0.996" fill="#25282b" d="M 408.5,415.5 C 413.5,415.5 418.5,415.5 423.5,415.5C 423.5,420.833 423.5,426.167 423.5,431.5C 422.505,442.321 422.172,453.321 422.5,464.5C 417.833,464.5 413.167,464.5 408.5,464.5C 408.5,448.167 408.5,431.833 408.5,415.5 Z"/></g>
<g><path style="opacity:0.996" fill="#363b40" d="M 158.5,415.5 C 180.5,415.5 202.5,415.5 224.5,415.5C 224.93,429.892 224.43,444.226 223,458.5C 220.346,462.744 216.513,464.744 211.5,464.5C 211.5,454.167 211.5,443.833 211.5,433.5C 207.124,433.091 202.79,432.425 198.5,431.5C 198.5,442.5 198.5,453.5 198.5,464.5C 193.5,464.5 188.5,464.5 183.5,464.5C 183.5,452.5 183.5,440.5 183.5,428.5C 179.167,427.833 174.833,427.167 170.5,426.5C 170.5,439.167 170.5,451.833 170.5,464.5C 164.291,464.484 160.457,461.484 159,455.5C 158.5,442.171 158.333,428.837 158.5,415.5 Z"/></g>
<g><path style="opacity:1" fill="#4f5459" d="M 183.5,464.5 C 179.167,464.5 174.833,464.5 170.5,464.5C 170.5,451.833 170.5,439.167 170.5,426.5C 174.833,427.167 179.167,427.833 183.5,428.5C 183.5,440.5 183.5,452.5 183.5,464.5 Z"/></g>
<g><path style="opacity:1" fill="#4f5459" d="M 211.5,464.5 C 207.167,464.5 202.833,464.5 198.5,464.5C 198.5,453.5 198.5,442.5 198.5,431.5C 202.79,432.425 207.124,433.091 211.5,433.5C 211.5,443.833 211.5,454.167 211.5,464.5 Z"/></g>
<g><path style="opacity:1" fill="#4f5459" d="M 423.5,431.5 C 427.477,432.259 431.477,432.925 435.5,433.5C 435.5,443.5 435.5,453.5 435.5,463.5C 431.5,463.5 427.5,463.5 423.5,463.5C 423.5,452.833 423.5,442.167 423.5,431.5 Z"/></g>
<g><path style="opacity:0.947" fill="#24272b" d="M 436.5,415.5 C 440.5,415.5 444.5,415.5 448.5,415.5C 448.667,428.837 448.5,442.171 448,455.5C 446.543,461.484 442.709,464.484 436.5,464.5C 436.5,448.167 436.5,431.833 436.5,415.5 Z"/></g>
</svg>
