<?xml version="1.0" encoding="UTF-8"?>
<svg version="1.1" xmlns="http://www.w3.org/2000/svg" width="512" height="512">
<path d="M0 0 C1.0358499 -0.00453111 2.07169979 -0.00906223 3.13893908 -0.01373065 C6.61494396 -0.02640556 10.09079278 -0.02475226 13.56681824 -0.02310181 C16.05700889 -0.02908512 18.54719769 -0.03589021 21.03738403 -0.04345703 C27.10272426 -0.05930654 33.16800297 -0.0655663 39.23335818 -0.06668179 C44.16452639 -0.06763259 49.09568178 -0.07174448 54.02684593 -0.07808304 C68.0125186 -0.09569401 81.9981606 -0.10492217 95.98384444 -0.10342209 C97.11449655 -0.10330222 97.11449655 -0.10330222 98.26799011 -0.10317993 C99.40002535 -0.10305729 99.40002535 -0.10305729 100.55492999 -0.10293217 C112.7839286 -0.10211938 125.012804 -0.12125553 137.24176697 -0.14945666 C149.80319052 -0.17819552 162.36455401 -0.1919964 174.92601126 -0.19026911 C181.97638031 -0.18960554 189.02662021 -0.19508337 196.07695961 -0.21662521 C202.70816413 -0.2367568 209.33914261 -0.23615305 215.97037697 -0.22159195 C218.40359902 -0.2194989 220.83683801 -0.22423411 223.27003098 -0.23631287 C226.59318381 -0.25174044 229.91539299 -0.24247258 233.23852539 -0.22705078 C234.20011293 -0.23733791 235.16170046 -0.24762503 236.15242702 -0.25822389 C243.31266066 -0.18485614 248.62069837 1.47284886 254.05192566 6.23226929 C254.59075378 6.88324585 255.12958191 7.53422241 255.68473816 8.20492554 C256.23903503 8.85332397 256.79333191 9.50172241 257.36442566 10.16976929 C261.27220808 15.84133459 261.10632271 21.13596744 261.1002655 27.80575562 C261.10698273 28.86652817 261.11369995 29.92730072 261.12062073 31.0202179 C261.13961335 34.52584523 261.14352566 38.03128121 261.14567566 41.53695679 C261.15210293 43.97687356 261.15883124 46.41678956 261.16584778 48.85670471 C261.17782388 53.97190131 261.18152827 59.08703036 261.18034363 64.20223999 C261.18014048 70.74926511 261.20743771 77.29585597 261.24188805 83.84277821 C261.26415173 88.88289877 261.26818131 93.92291476 261.26712418 98.96307945 C261.26948111 101.37635481 261.27830979 103.78963301 261.29378891 106.20285988 C261.31343626 109.58251767 261.3076148 112.96123822 261.295578 116.34091187 C261.30681702 117.33287567 261.31805603 118.32483948 261.32963562 119.34686279 C261.26387326 126.63199759 259.69093489 131.97953901 254.84489441 137.50961304 C254.19391785 138.04844116 253.54294128 138.58726929 252.87223816 139.14242554 C252.22383972 139.69672241 251.57544128 140.25101929 250.90739441 140.82211304 C243.4415907 145.96614911 238.86634882 144.26742554 228.80973816 144.26742554 C228.80973816 160.43742554 228.80973816 176.60742554 228.80973816 193.26742554 C232.10973816 193.92742554 235.40973816 194.58742554 238.80973816 195.26742554 C266.08579322 203.52707601 282.73346265 221.83305733 295.80973816 246.26742554 C296.63634949 247.80559937 296.63634949 247.80559937 297.47966003 249.37484741 C298.71441969 251.67290925 299.94674952 253.97227793 301.17692566 256.27279663 C302.47726694 258.70074164 303.79373574 261.11894312 305.12223816 263.53158569 C308.19478809 269.14410144 311.06902266 274.7014187 313.38786316 280.68148804 C317.57176531 291.06612992 317.57176531 291.06612992 326.06315613 297.87484741 C332.46077247 300.12173368 338.82352567 301.49939592 345.49723816 302.70492554 C359.53092768 305.31056505 370.33417702 312.89003293 378.97770691 324.07211304 C385.23953666 333.49823628 388.94402062 342.814917 388.92326355 354.16903687 C388.92340958 354.84276337 388.9235556 355.51648987 388.92370605 356.21063232 C388.92301288 358.42360728 388.91524852 360.63649665 388.90739441 362.84945679 C388.90552811 364.38930719 388.90410521 365.92915819 388.90310669 367.4690094 C388.89929818 371.51153213 388.88948218 375.55401863 388.87840271 379.5965271 C388.86815271 383.72575389 388.86360139 387.85498656 388.85856628 391.98422241 C388.84785836 400.07864003 388.83080202 408.17302827 388.80973816 416.26742554 C389.73528503 416.23390991 390.66083191 416.20039429 391.61442566 416.16586304 C396.77071873 416.32975499 399.51416554 418.89647415 402.95817566 422.54086304 C406.2873467 427.72537809 405.38244818 434.35367698 405.30973816 440.26742554 C405.32520691 441.52555054 405.34067566 442.78367554 405.35661316 444.07992554 C405.30733377 455.70986199 405.30733377 455.70986199 400.80973816 460.26742554 C395.53158332 464.70689052 391.59228309 464.74734085 385.02848816 464.52523804 C383.11574023 464.51049692 381.20297794 464.49753009 379.29020691 464.48617554 C376.29378483 464.44683305 373.29981394 464.39213853 370.30436707 464.30551147 C359.14296252 463.429812 359.14296252 463.429812 349.30143738 467.35385132 C347.78438691 469.9471124 346.78808983 472.4338976 345.80973816 475.26742554 C337.34156332 486.07728217 325.22878719 493.32178063 311.80973816 496.26742554 C300.23198486 497.30261564 288.43685368 497.38001667 277.80973816 492.26742554 C276.45428894 491.68348022 276.45428894 491.68348022 275.07145691 491.08773804 C269.37178302 488.36285858 264.9125727 484.83866466 260.43473816 480.45492554 C259.70287292 479.74529663 259.70287292 479.74529663 258.95622253 479.02133179 C256.12502599 476.10835378 254.07865564 473.13642466 252.139328 469.56161499 C251.69986847 468.75601639 251.26040894 467.95041779 250.80763245 467.1204071 C250.31367477 466.20318123 250.31367477 466.20318123 249.80973816 465.26742554 C227.74837551 465.0338404 205.68721668 464.85749065 183.62486839 464.74930382 C173.38089542 464.69773559 163.13769068 464.62743047 152.89421082 464.51303101 C143.96609255 464.41336905 135.03853056 464.34884639 126.10987151 464.32654059 C121.38168896 464.31350059 116.65509783 464.28285465 111.92742538 464.21012497 C107.47656804 464.14220894 103.02795594 464.12131469 98.57662964 464.13634872 C96.94389257 464.13359899 95.31107997 464.11372147 93.67879105 464.07537079 C88.92041875 463.96906286 84.43294948 463.97642344 79.80973816 465.26742554 C76.74886086 468.25397931 75.37418613 471.34432796 73.80973816 475.26742554 C65.34156332 486.07728217 53.22878719 493.32178063 39.80973816 496.26742554 C28.23198486 497.30261564 16.43685368 497.38001667 5.80973816 492.26742554 C4.45428894 491.68348022 4.45428894 491.68348022 3.07145691 491.08773804 C-2.62821698 488.36285858 -7.0874273 484.83866466 -11.56526184 480.45492554 C-12.053172 479.9818396 -12.54108215 479.50875366 -13.04377747 479.02133179 C-15.21162163 476.79086764 -16.92404877 474.93751856 -18.08679199 472.01074219 C-19.1688182 469.28910379 -20.18085917 467.41176382 -22.19026184 465.26742554 C-26.56821972 463.95835175 -30.83643788 464.17518847 -35.37385559 464.31039429 C-37.34224736 464.31043276 -39.31063935 464.31045169 -41.2790308 464.30932331 C-44.03129172 464.31871772 -46.78223811 464.36885841 -49.53401184 464.41903687 C-54.34475231 464.50149709 -59.15574004 464.53558618 -63.96713257 464.54582214 C-66.5260222 464.55536685 -69.08494489 464.58668683 -71.64324951 464.64222717 C-82.34425585 464.72795959 -82.34425585 464.72795959 -87.19026184 460.26742554 C-91.9316275 455.46284167 -91.70998912 450.48678768 -91.73713684 444.07992554 C-91.72166809 442.82180054 -91.70619934 441.56367554 -91.69026184 440.26742554 C-91.70573059 439.00930054 -91.72119934 437.75117554 -91.73713684 436.45492554 C-91.68886676 425.06318601 -91.68886676 425.06318601 -87.19026184 420.26742554 C-82.04784932 415.6267118 -76.82505624 415.50353922 -70.19026184 415.26742554 C-70.7587384 414.4540271 -71.32721497 413.64062866 -71.91291809 412.80258179 C-83.33681356 396.0258321 -91.22901539 375.99228821 -91.35139465 355.48446655 C-91.3610022 354.1752272 -91.37060974 352.86598785 -91.38050842 351.51707458 C-91.38536049 350.10182879 -91.38963831 348.68658093 -91.39338684 347.27133179 C-91.39621422 346.54750746 -91.3990416 345.82368313 -91.40195465 345.07792473 C-91.41689915 341.24045327 -91.42615611 337.40301889 -91.43049622 333.56552124 C-91.43594629 329.64923946 -91.45991386 325.73331142 -91.48846817 321.81713963 C-91.50732529 318.76517329 -91.51231241 315.71328784 -91.51383209 312.66126823 C-91.51681205 311.22031681 -91.52467739 309.77936512 -91.53801727 308.33847237 C-91.65487742 294.73525719 -90.00129668 281.54714185 -85.06526184 268.76742554 C-84.61739319 267.58696655 -84.61739319 267.58696655 -84.16047668 266.38265991 C-79.12657509 253.58032808 -72.31840975 242.56542634 -63.19026184 232.26742554 C-62.57924622 231.51332397 -61.96823059 230.75922241 -61.33869934 229.98226929 C-46.31578176 211.85887723 -23.02881432 199.15634008 -0.19026184 194.26742554 C1.45973816 194.26742554 3.10973816 194.26742554 4.80973816 194.26742554 C4.80973816 177.76742554 4.80973816 161.26742554 4.80973816 144.26742554 C-0.14026184 144.26742554 -5.09026184 144.26742554 -10.19026184 144.26742554 C-17.48205569 141.83682759 -22.57196485 137.08425582 -26.26243591 130.29496765 C-27.64392126 125.78711231 -27.48504818 121.41881432 -27.48078918 116.72909546 C-27.48750641 115.66832291 -27.49422363 114.60755035 -27.50114441 113.51463318 C-27.52013704 110.00900585 -27.52404934 106.50356986 -27.52619934 102.99789429 C-27.53262661 100.55797751 -27.53935492 98.11806151 -27.54637146 95.67814636 C-27.55834756 90.56294976 -27.56205196 85.44782072 -27.56086731 80.33261108 C-27.56066416 73.78558597 -27.58796139 67.23899511 -27.62241173 60.69207287 C-27.64467542 55.65195231 -27.64870499 50.61193632 -27.64764786 45.57177162 C-27.65000479 43.15849626 -27.65883347 40.74521806 -27.67431259 38.3319912 C-27.69395994 34.9523334 -27.68813848 31.57361286 -27.67610168 28.19393921 C-27.6873407 27.2019754 -27.69857971 26.2100116 -27.7101593 25.18798828 C-27.64439695 17.90285348 -26.07145857 12.55531207 -21.22541809 7.02523804 C-20.57444153 6.48640991 -19.92346497 5.94758179 -19.25276184 5.39242554 C-18.6043634 4.83812866 -17.95596497 4.28383179 -17.28791809 3.71273804 C-11.70354045 -0.13497095 -6.56496211 -0.02099913 0 0 Z M52.80973816 144.26742554 C52.80973816 160.10742554 52.80973816 175.94742554 52.80973816 192.26742554 C95.04973816 192.26742554 137.28973816 192.26742554 180.80973816 192.26742554 C180.80973816 176.42742554 180.80973816 160.58742554 180.80973816 144.26742554 C138.56973816 144.26742554 96.32973816 144.26742554 52.80973816 144.26742554 Z " fill="#000000" transform="translate(99.19026184082031,7.732574462890625)"/>
<path d="M0 0 C1.00121462 -0.00638882 2.00242925 -0.01277764 3.03398371 -0.01936007 C6.39297471 -0.03463534 9.75079105 -0.01413097 13.10974121 0.00622559 C15.51613252 0.00272517 17.92252152 -0.00293249 20.3289032 -0.0105896 C26.18880369 -0.02337612 32.04838899 -0.01288464 37.90823877 0.00852364 C44.73239629 0.03253941 51.55647449 0.03081892 58.38066489 0.02821773 C70.55686776 0.02452769 82.7329074 0.04535179 94.90905762 0.07946777 C106.72387823 0.11255907 118.53852753 0.12672606 130.35339355 0.1204834 C143.21931008 0.11371883 156.08515484 0.1161815 168.95106077 0.1358428 C169.97165748 0.13740203 169.97165748 0.13740203 171.01287231 0.13899276 C172.37940866 0.14108365 173.74594498 0.14319462 175.11248127 0.14532593 C179.86912707 0.15222056 184.62575076 0.152891 189.38240051 0.15144348 C195.78460503 0.14985316 202.18664739 0.16475279 208.58880043 0.19067001 C210.94102801 0.19784309 213.29327741 0.19990998 215.64551353 0.19655228 C218.85138343 0.19284841 222.0566507 0.20754761 225.26245117 0.22705078 C226.1977587 0.22172286 227.13306623 0.21639493 228.0967164 0.21090555 C232.90730671 0.26154788 236.25424829 0.43262648 240.13122559 3.62145996 C241.26675469 5.89251817 241.26148154 7.14082386 241.27166748 9.66267395 C241.27737762 10.50802704 241.28308777 11.35338013 241.28897095 12.22434998 C241.29008881 13.15372879 241.29120667 14.0831076 241.2923584 15.04064941 C241.2973233 16.01802063 241.30228821 16.99539185 241.30740356 18.00238037 C241.32204845 21.24650773 241.32883126 24.49058618 241.33435059 27.73474121 C241.34010037 29.98434959 241.34585812 32.23395795 241.35162354 34.48356628 C241.36214032 39.20555856 241.36797847 43.92753378 241.37145996 48.64953613 C241.37694437 54.70250032 241.40096859 60.75523951 241.42943192 66.80813313 C241.44804923 71.45695149 241.45326343 76.1057156 241.45479584 80.7545681 C241.45782522 82.98610857 241.46586332 85.21764802 241.47898102 87.44915199 C241.49602137 90.57097132 241.49416595 93.69224005 241.4876709 96.81408691 C241.49688568 97.73739304 241.50610046 98.66069916 241.51559448 99.61198425 C241.4844571 104.38568805 241.37606916 107.82259767 238.13122559 111.62145996 C235.384016 112.53719649 233.77501306 112.74813013 230.94699955 112.75288773 C230.09006128 112.75672887 229.23312302 112.76057002 228.35021693 112.76452756 C227.4084016 112.76366108 226.46658627 112.76279459 225.49623108 112.76190186 C224.49601974 112.76487298 223.4958084 112.7678441 222.46528763 112.77090526 C219.09814725 112.77960918 215.73104235 112.78110192 212.3638916 112.78259277 C209.95617598 112.78721967 207.5484611 112.79224415 205.14074707 112.79763794 C198.58921303 112.81077444 192.03768639 112.81724558 185.4861424 112.8216486 C181.39667903 112.82441058 177.30721804 112.82864779 173.21775627 112.83315277 C161.89849909 112.84534427 150.57924381 112.85564452 139.2599802 112.85902786 C138.17330048 112.85935721 138.17330048 112.85935721 137.06466764 112.85969321 C136.33847152 112.85991149 135.6122754 112.86012977 134.86407334 112.86035466 C133.39249583 112.86079813 131.92091832 112.86124469 130.44934082 112.86169434 C129.71938595 112.86191577 128.98943107 112.8621372 128.23735636 112.86236534 C116.40324424 112.86631535 104.56919363 112.88377609 92.73510528 112.90705386 C80.58961525 112.9307517 68.44415611 112.94322896 56.29864258 112.94439578 C49.47754468 112.94531331 42.65652697 112.95108537 35.83545113 112.96921539 C29.42264595 112.98620012 23.00995253 112.98788078 16.59712982 112.97907639 C14.23963196 112.97830285 11.8821261 112.98269011 9.52464867 112.99253464 C6.31398277 113.00515892 3.10386503 112.99942922 -0.10679626 112.98895264 C-1.04638087 112.99700904 -1.98596548 113.00506545 -2.95402235 113.01336598 C-9.21268518 112.96538296 -9.21268518 112.96538296 -12.41639805 111.28599167 C-14.80875924 108.5441672 -14.99626498 105.9460834 -15.02267456 102.45999146 C-15.03127502 101.6132637 -15.03987549 100.76653595 -15.04873657 99.89414978 C-15.05299652 98.96836624 -15.05725647 98.0425827 -15.06164551 97.08874512 C-15.069823 96.11122787 -15.07800049 95.13371063 -15.08642578 94.12657166 C-15.1112634 90.88789483 -15.12778965 87.64926172 -15.14221191 84.41052246 C-15.14753559 83.30522564 -15.15285927 82.19992882 -15.15834427 81.06113815 C-15.18506583 75.21341393 -15.20444593 69.36571102 -15.21887207 63.51794434 C-15.23553822 57.47270479 -15.28033578 51.42800846 -15.33124352 45.38297462 C-15.36486057 40.73844765 -15.37644331 36.09405067 -15.38209915 31.4494133 C-15.38882445 29.22063407 -15.40407948 26.99186378 -15.42798996 24.76320267 C-15.45953126 21.64600208 -15.45969479 18.53028145 -15.45227051 15.41296387 C-15.46867584 14.49122879 -15.48508118 13.56949371 -15.50198364 12.61982727 C-15.49366516 11.76745987 -15.48534668 10.91509247 -15.47677612 10.03689575 C-15.48008627 9.30059244 -15.48339642 8.56428913 -15.48680687 7.8056736 C-13.23890158 -0.13873993 -6.90989558 -0.09247977 0 0 Z " fill="#FBD66F" transform="translate(102.8687744140625,23.3785400390625)"/>
<path d="M0 0 C2.01183193 -0.00271433 4.02366287 -0.00627774 6.03549194 -0.01062012 C11.46932311 -0.01969379 16.90307784 -0.01622066 22.33691025 -0.00986195 C28.04077094 -0.00477586 33.74462536 -0.00950063 39.44848633 -0.01263428 C49.02458869 -0.01626634 58.60066015 -0.01149479 68.17675781 -0.00195312 C79.22625487 0.00892994 90.27567811 0.00540383 101.32517338 -0.00560594 C110.83550934 -0.01470048 120.34582316 -0.0159535 129.85616207 -0.0107286 C135.52599738 -0.00762081 141.19579806 -0.00716669 146.8656311 -0.01380157 C152.19762225 -0.01960599 157.52951879 -0.01552174 162.86149979 -0.00401306 C164.81088733 -0.00138298 166.76028293 -0.0021031 168.70966721 -0.00653839 C194.21056733 -0.05918123 194.21056733 -0.05918123 206.04296875 5.44628906 C206.719646 5.75236084 207.39632324 6.05843262 208.09350586 6.3737793 C213.84246093 9.05662499 218.94828503 12.30900312 223.91796875 16.25878906 C224.52640625 16.70480469 225.13484375 17.15082031 225.76171875 17.61035156 C235.45705463 25.14627172 241.58318567 36.69120763 247.10546875 47.38378906 C247.74365966 48.59995993 248.3830077 49.81552421 249.0234375 51.03051758 C250.3391402 53.5281924 251.65030661 56.02816784 252.95849609 58.52978516 C256.05946562 64.44662855 259.24247859 70.3191982 262.41796875 76.19628906 C264.03646708 79.19933161 265.65436328 82.20268435 267.26953125 85.20751953 C268.46463535 87.41966572 269.66758462 89.62637282 270.87890625 91.82958984 C271.20338745 92.42316788 271.52786865 93.01674591 271.86218262 93.62831116 C272.77715559 95.30162559 273.69608864 96.97277284 274.61523438 98.64379883 C275.91796875 101.25878906 275.91796875 101.25878906 275.91796875 103.25878906 C276.99820312 103.36964844 278.0784375 103.48050781 279.19140625 103.59472656 C293.69856363 105.42486026 309.61906204 109.03961678 321.91796875 117.25878906 C322.57796875 118.24878906 323.23796875 119.23878906 323.91796875 120.25878906 C322.17773438 120.28005859 322.17773438 120.28005859 320.40234375 120.30175781 C307.22659392 120.6339077 295.8436413 122.86843369 285.91796875 132.25878906 C276.01411488 142.72723318 274.8161407 153.88803779 273.91796875 168.25878906 C295.03796875 168.25878906 316.15796875 168.25878906 337.91796875 168.25878906 C337.91796875 181.45878906 337.91796875 194.65878906 337.91796875 208.25878906 C317.59320474 209.5817027 317.59320474 209.5817027 313.0390625 205.98535156 C311.33063055 203.13414298 310.14149137 200.34256545 308.91796875 197.25878906 C301.12284441 186.1631759 287.76324938 180.30751073 274.91796875 177.25878906 C271.91133241 177.01478419 268.93259032 177.02323721 265.91796875 177.07128906 C264.76554688 177.07225586 264.76554688 177.07225586 263.58984375 177.07324219 C258.94101259 177.10881998 254.52560435 177.58437566 249.91796875 178.25878906 C249.94097046 177.25830032 249.96397217 176.25781158 249.9876709 175.227005 C250.19675728 165.65584512 250.31662136 156.08687094 250.35581207 146.51347065 C250.37863694 141.59462163 250.4296109 136.6799045 250.55224609 131.76245117 C251.15591316 106.56670911 249.65357535 88.40732676 235.00012207 67.37001038 C231.40163197 61.99302925 228.45085687 56.28181073 225.41796875 50.57128906 C217.13633797 35.33016614 208.0241951 23.60628167 190.91796875 18.25878906 C186.55233155 17.16247582 182.28440491 17.11589865 177.81140137 17.12507629 C176.59368601 17.12167796 176.59368601 17.12167796 175.35137033 17.11821097 C172.63332093 17.11188517 169.91532157 17.11269944 167.19726562 17.11352539 C165.2472019 17.11053289 163.29713877 17.10713015 161.34707642 17.10334778 C156.04914476 17.0945097 150.75122925 17.09216965 145.45329094 17.09153199 C142.13998624 17.09082101 138.82668564 17.08868571 135.51338196 17.08603477 C123.94414001 17.07677976 112.37490959 17.07269981 100.80566406 17.07348633 C90.03978776 17.07408614 79.27396172 17.06355365 68.50809813 17.04774266 C59.25351588 17.03463804 49.99894999 17.02930371 40.74435854 17.02994174 C35.22249365 17.030196 29.70067336 17.02738475 24.17881775 17.01676369 C18.97824743 17.00703429 13.7777639 17.00703655 8.5771904 17.01428032 C6.67660265 17.01532039 4.77600937 17.01299791 2.87543106 17.00691986 C-25.6052468 16.92179722 -48.67410211 23.33054537 -69.48046875 43.59472656 C-81.30474691 56.0646991 -90.62437034 73.09827953 -93.08203125 90.25878906 C-93.2840918 90.98026123 -93.48615234 91.7017334 -93.69433594 92.44506836 C-94.23430414 95.56533081 -94.19929014 97.26843078 -93.08203125 100.25878906 C-90.84653784 102.15451447 -88.73568342 103.71618458 -86.30078125 105.30957031 C-75.99014483 112.36362065 -64.672125 120.46378643 -61.58890533 133.31404114 C-59.33784425 145.91540068 -59.76440857 158.9548763 -60.14453125 171.69628906 C-60.18433609 173.03861288 -60.18433609 173.03861288 -60.22494507 174.40805435 C-60.58460166 185.71025634 -61.21565558 196.98437146 -62.08203125 208.25878906 C-65.45912796 208.41215812 -68.83532238 208.50482043 -72.21484375 208.58691406 C-73.16721924 208.63090332 -74.11959473 208.67489258 -75.10083008 208.72021484 C-83.06173156 208.86527248 -83.06173156 208.86527248 -86.5625 205.81958008 C-89.15034165 202.78187403 -91.12235165 199.73348201 -93.08203125 196.25878906 C-93.76523438 195.17210937 -94.4484375 194.08542969 -95.15234375 192.96582031 C-102.08203125 181.67351578 -102.08203125 181.67351578 -102.08203125 176.25878906 C-100.78265625 176.05253906 -99.48328125 175.84628906 -98.14453125 175.63378906 C-91.86890718 174.19088967 -86.47057333 171.51948775 -82.59301758 166.22607422 C-78.63723236 158.88706187 -78.35809974 152.36243291 -78.51953125 144.13378906 C-78.50857422 142.91046875 -78.49761719 141.68714844 -78.48632812 140.42675781 C-78.55373208 132.11360277 -79.57803448 126.4057873 -84.9765625 120.01660156 C-92.7287903 113.41694531 -100.17209577 112.877143 -110.08203125 112.25878906 C-110.95043956 80.05197434 -103.5195209 54.77654516 -81.74609375 30.67285156 C-59.57534604 7.35410397 -31.1660785 -0.07090994 0 0 Z " fill="#FD816D" transform="translate(134.08203125,215.7412109375)"/>
<path d="M0 0 C59.4 0 118.8 0 180 0 C180 34.32 180 68.64 180 104 C168.594375 104.226875 157.18875 104.45375 145.4375 104.6875 C140.05135376 104.83771606 140.05135376 104.83771606 134.55639648 104.9909668 C130.14465332 105.04064941 130.14465332 105.04064941 128.07411194 105.04988098 C126.63903707 105.06668859 125.20411043 105.10521146 123.77003479 105.16133118 C119.01876931 105.33783968 114.61236386 105.33589381 110 104 C106.65052028 100.73129927 104.98882413 97.17914905 103 93 C94.817194 81.95920666 82.08621548 76.16736426 69 73 C53.72435931 71.33816877 39.90136956 74.49336341 27 83 C25.18154574 84.57929248 23.62546725 86.21722947 22 88 C21.34 88 20.68 88 20 88 C20.04449532 86.78542366 20.04449532 86.78542366 20.08988953 85.54631042 C20.35520568 77.82558663 20.52477819 70.11091007 20.59327984 62.38613415 C20.63169332 58.41609033 20.70397761 54.45336292 20.8605957 50.48608398 C22.10930605 30.94579019 22.10930605 30.94579019 14.65478516 13.59619141 C10.69469921 9.36737803 6.41280973 5.68845891 1.71736145 2.29927063 C1.15063217 1.87051132 0.58390289 1.44175201 0 1 C0 0.67 0 0.34 0 0 Z " fill="#FB6D50" transform="translate(68,320)"/>
<path d="M0 0 C34.32 0 68.64 0 104 0 C104.185625 13.365 104.37125 26.73 104.5625 40.5 C104.68540405 46.8122168 104.68540405 46.8122168 104.81079102 53.25195312 C104.85144043 58.42089844 104.85144043 58.42089844 104.85899353 60.84655762 C104.87274636 62.52809121 104.90426323 64.20954011 104.95018005 65.89050293 C105.31897712 80.11206969 105.31897712 80.11206969 102.01875305 84.83587646 C99.77504284 86.8298781 97.53147658 88.40131158 95 90 C92.68877528 92.69004334 92.68877528 92.69004334 91.0625 95.25 C90.51722656 96.05953125 89.97195313 96.8690625 89.41015625 97.703125 C87.8109134 100.23341759 87.8109134 100.23341759 86 104 C57.62 104 29.24 104 0 104 C0 80.24 0 56.48 0 32 C10.56 32 21.12 32 32 32 C32 26.72 32 21.44 32 16 C21.44 16 10.88 16 0 16 C0 10.72 0 5.44 0 0 Z " fill="#FB6D50" transform="translate(264,320)"/>
<path d="M0 0 C1.25967087 -0.00029205 2.51934174 -0.00058411 3.81718445 -0.00088501 C7.24009537 -0.00145422 10.66286351 0.01022936 14.08574152 0.02426291 C17.67449356 0.03684298 21.26324958 0.03794646 24.85202026 0.04031372 C31.63387623 0.04650725 38.41566701 0.06288899 45.19749439 0.0830127 C54.37165783 0.10963897 63.54583935 0.12036155 72.72003174 0.13201714 C87.1543863 0.15077134 101.58860337 0.19063107 116.02294922 0.22705078 C116.02294922 18.70705078 116.02294922 37.18705078 116.02294922 56.22705078 C53.32294922 56.22705078 -9.37705078 56.22705078 -73.97705078 56.22705078 C-72.85006665 48.33816189 -72.85006665 48.33816189 -71.37548828 45.35986328 C-71.05386719 44.70630859 -70.73224609 44.05275391 -70.40087891 43.37939453 C-70.05476563 42.71037109 -69.70865234 42.04134766 -69.35205078 41.35205078 C-68.99304688 40.64951172 -68.63404297 39.94697266 -68.26416016 39.22314453 C-65.38042167 33.7201374 -62.15648417 28.84397497 -57.97705078 24.22705078 C-57.40857422 23.56705078 -56.84009766 22.90705078 -56.25439453 22.22705078 C-41.52032933 6.21040241 -21.2172645 -0.13036385 0 0 Z " fill="#68D5F3" transform="translate(131.97705078125,247.77294921875)"/>
<path d="M0 0 C10.25852706 6.32091061 16.22552373 15.25047309 19.5703125 26.6796875 C20.90432619 38.48415752 18.31032942 50.03695076 11.265625 59.68359375 C3.80863913 68.46359324 -5.41070071 73.83977157 -16.97265625 75.05078125 C-30.453817 75.29641869 -40.24149938 71.22604615 -50.07421875 62.1640625 C-58.31819486 53.56528235 -60.87788468 41.70547568 -60.7734375 30.1640625 C-59.73202139 19.60789016 -53.74863475 10.45915749 -46.0546875 3.4296875 C-32.46470025 -7.61030214 -15.15126219 -8.23332254 0 0 Z " fill="#808C98" transform="translate(420.4296875,413.3203125)"/>
<path d="M0 0 C10.25852706 6.32091061 16.22552373 15.25047309 19.5703125 26.6796875 C20.90432619 38.48415752 18.31032942 50.03695076 11.265625 59.68359375 C3.80863913 68.46359324 -5.41070071 73.83977157 -16.97265625 75.05078125 C-30.453817 75.29641869 -40.24149938 71.22604615 -50.07421875 62.1640625 C-58.31819486 53.56528235 -60.87788468 41.70547568 -60.7734375 30.1640625 C-59.73202139 19.60789016 -53.74863475 10.45915749 -46.0546875 3.4296875 C-32.46470025 -7.61030214 -15.15126219 -8.23332254 0 0 Z " fill="#808C98" transform="translate(148.4296875,413.3203125)"/>
<path d="M0 0 C13.303125 -0.12375 13.303125 -0.12375 26.875 -0.25 C29.65534668 -0.28641602 32.43569336 -0.32283203 35.30029297 -0.36035156 C37.53091665 -0.37204594 39.76154894 -0.38223599 41.9921875 -0.390625 C43.12857666 -0.41108887 44.26496582 -0.43155273 45.43579102 -0.45263672 C56.59456601 -0.45747259 64.51545715 2.50488097 72.61181641 10.24365234 C77.07666391 15.39680388 80.08071501 21.29131736 83.1875 27.3125 C84.18182067 29.19239132 85.18182519 31.06918754 86.18191528 32.9460144 C86.83437412 34.17328966 87.48373851 35.40221551 88.12985229 36.63284302 C90.83029361 41.76108036 93.74443992 46.73558703 96.7434082 51.69604492 C98 54 98 54 98 56 C65.66 56 33.32 56 0 56 C0 37.52 0 19.04 0 0 Z " fill="#68D5F3" transform="translate(264,248)"/>
<path d="M0 0 C7.26 0 14.52 0 22 0 C22.7425 2.64 23.485 5.28 24.25 8 C24.47461914 8.7940625 24.69923828 9.588125 24.93066406 10.40625 C27.11882535 18.23833316 29.02454651 26.09818603 31 34 C31.33 22.78 31.66 11.56 32 0 C37.28 0 42.56 0 48 0 C48 26.4 48 52.8 48 80 C40.74 80 33.48 80 26 80 C25.2575 77.36 24.515 74.72 23.75 72 C23.52538086 71.2059375 23.30076172 70.411875 23.06933594 69.59375 C20.88117465 61.76166684 18.97545349 53.90181397 17 46 C16.67 57.22 16.34 68.44 16 80 C10.72 80 5.44 80 0 80 C0 53.6 0 27.2 0 0 Z " fill="#000000" transform="translate(216,40)"/>
<path d="M0 0 C33.68789144 0 33.68789144 0 42.234375 8.05859375 C47.20776002 13.52711665 48.69503332 18.8310006 48.48046875 26.1875 C47.7939204 30.20631958 46.06116679 33.28947688 43.8984375 36.7109375 C42.73883791 38.9932748 42.73883791 38.9932748 43.6640625 41.4140625 C44.58857213 43.20361037 45.5591363 44.96983242 46.56518555 46.71484375 C48.20719045 50.47438398 48.34536072 53.06186362 48.29296875 57.1484375 C48.28872391 57.80582916 48.28447906 58.46322083 48.28010559 59.14053345 C48.26344977 61.21912391 48.2258262 63.29670774 48.1875 65.375 C48.17243605 66.79295464 48.15875065 68.21092464 48.14648438 69.62890625 C48.11615349 73.0866276 48.05741733 76.54220091 48 80 C42.72 80 37.44 80 32 80 C31.95101562 78.08574219 31.90203125 76.17148438 31.8515625 74.19921875 C31.77653864 71.69529756 31.70099065 69.19139204 31.625 66.6875 C31.5940625 65.42486328 31.563125 64.16222656 31.53125 62.86132812 C31.49257812 61.65283203 31.45390625 60.44433594 31.4140625 59.19921875 C31.3826416 58.08377686 31.3512207 56.96833496 31.31884766 55.8190918 C31.194751 52.79631214 31.194751 52.79631214 29 50 C24.71 49.34 20.42 48.68 16 48 C16 58.56 16 69.12 16 80 C10.72 80 5.44 80 0 80 C0 53.6 0 27.2 0 0 Z " fill="#010000" transform="translate(104,40)"/>
<path d="M0 0 C52.8 0 105.6 0 160 0 C160 5.28 160 10.56 160 16 C107.2 16 54.4 16 0 16 C0 10.72 0 5.44 0 0 Z " fill="#CCD1D9" transform="translate(184,440)"/>
<path d="M0 0 C10.56 0 21.12 0 32 0 C32 5.28 32 10.56 32 16 C26.72 16 21.44 16 16 16 C16 21.28 16 26.56 16 32 C21.28 32 26.56 32 32 32 C32 37.28 32 42.56 32 48 C26.72 48 21.44 48 16 48 C16 53.28 16 58.56 16 64 C21.28 64 26.56 64 32 64 C32 69.28 32 74.56 32 80 C21.44 80 10.88 80 0 80 C0 53.6 0 27.2 0 0 Z " fill="#000000" transform="translate(168,40)"/>
<path d="M0 0 C6.50099074 3.68128391 11.87819747 8.78320492 13.9453125 16.1015625 C15.20908545 24.11749375 13.55801943 30.4620601 8.9453125 37.1015625 C4.23417819 42.52165392 -1.40366726 45.500713 -8.50390625 46.41796875 C-14.535995 46.70433131 -19.18658897 45.7526364 -24.0546875 42.1015625 C-30.68913654 35.90235214 -34.00272204 30.86864646 -34.4296875 21.7265625 C-34.25680824 15.00246918 -32.59983783 10.77492003 -27.9609375 5.90234375 C-19.7156089 -1.75206963 -10.78488932 -4.67199659 0 0 Z " fill="#010102" transform="translate(410.0546875,425.8984375)"/>
<path d="M0 0 C6.50099074 3.68128391 11.87819747 8.78320492 13.9453125 16.1015625 C15.20908545 24.11749375 13.55801943 30.4620601 8.9453125 37.1015625 C4.23417819 42.52165392 -1.40366726 45.500713 -8.50390625 46.41796875 C-14.535995 46.70433131 -19.18658897 45.7526364 -24.0546875 42.1015625 C-30.68913654 35.90235214 -34.00272204 30.86864646 -34.4296875 21.7265625 C-34.25680824 15.00246918 -32.59983783 10.77492003 -27.9609375 5.90234375 C-19.7156089 -1.75206963 -10.78488932 -4.67199659 0 0 Z " fill="#010102" transform="translate(138.0546875,425.8984375)"/>
<path d="M0 0 C15.84 0 31.68 0 48 0 C48 5.28 48 10.56 48 16 C42.72 16 37.44 16 32 16 C32 37.12 32 58.24 32 80 C26.72 80 21.44 80 16 80 C16 58.88 16 37.76 16 16 C10.72 16 5.44 16 0 16 C0 10.72 0 5.44 0 0 Z " fill="#000000" transform="translate(280,40)"/>
<path d="M0 0 C15.84 0 31.68 0 48 0 C48 5.28 48 10.56 48 16 C32.16 16 16.32 16 0 16 C0 10.72 0 5.44 0 0 Z " fill="#CCD1D9" transform="translate(24,440)"/>
<path d="M0 0 C5.28 0 10.56 0 16 0 C16 15.84 16 31.68 16 48 C10.72 48 5.44 48 0 48 C0 32.16 0 16.32 0 0 Z " fill="#B27946" transform="translate(296,152)"/>
<path d="M0 0 C5.28 0 10.56 0 16 0 C16 15.84 16 31.68 16 48 C10.72 48 5.44 48 0 48 C0 32.16 0 16.32 0 0 Z " fill="#B27946" transform="translate(120,152)"/>
<path d="M0 0 C1.299375 0.01804687 2.59875 0.03609375 3.9375 0.0546875 C7.12577151 0.10157385 10.312493 0.16719107 13.5 0.25 C15.97247506 6.12212826 15.5 9.13974627 15.5 16.25 C0.32 16.25 -14.86 16.25 -30.5 16.25 C-29.53579095 12.39316381 -28.91572161 11.14031769 -26.4375 8.25 C-25.88964844 7.59 -25.34179688 6.93 -24.77734375 6.25 C-17.1719699 -0.42916194 -9.84165787 -0.26004381 0 0 Z " fill="#F9D46E" transform="translate(456.5,351.75)"/>
<path d="M0 0 C10.56 0 21.12 0 32 0 C32 5.28 32 10.56 32 16 C21.44 16 10.88 16 0 16 C0 10.72 0 5.44 0 0 Z " fill="#CCD1D9" transform="translate(456,440)"/>
<path d="M0 0 C10.56 0 21.12 0 32 0 C32 5.28 32 10.56 32 16 C21.44 16 10.88 16 0 16 C0 10.72 0 5.44 0 0 Z " fill="#000000" transform="translate(104,344)"/>
<path d="M0 0 C1.60268771 -0.03724993 3.20562536 -0.06385133 4.80859375 -0.0859375 C5.70118896 -0.10188965 6.59378418 -0.1178418 7.51342773 -0.13427734 C10.70647006 0.03815008 12.56232611 0.95549932 15 3 C16.93118218 6.86236435 16.31534465 11.56341181 16.375 15.8125 C16.41238281 16.81087891 16.44976562 17.80925781 16.48828125 18.83789062 C16.54561216 23.61865161 16.57383694 26.17908037 13.77734375 30.1796875 C9.64948824 32.88514554 6.71482976 32.35185297 2 32 C0.10574697 24.84807616 -0.24602079 18.31511339 -0.125 10.9375 C-0.11597656 9.88111328 -0.10695313 8.82472656 -0.09765625 7.73632812 C-0.0743167 5.15730747 -0.04157775 2.5787801 0 0 Z " fill="#F7D36E" transform="translate(24,344)"/>
<path d="M0 0 C10.9030837 -0.43612335 10.9030837 -0.43612335 15 3 C16.40457737 5.80915474 16.24895157 7.88810534 16 11 C14.22015595 14.1359157 13.47691793 14.84102736 10 16 C8.27204648 16.06802967 6.54164635 16.08495645 4.8125 16.0625 C3.224375 16.041875 1.63625 16.02125 0 16 C0 10.72 0 5.44 0 0 Z " fill="#F7D36E" transform="translate(120,56)"/>
<path d="M0 0 C4.0743356 0.84881992 5.54405875 2.30225596 8 5.625 C8.625 8.625 8.625 8.625 8 11.625 C5.54405875 14.94774404 4.0743356 16.40118008 0 17.25 C-4.0743356 16.40118008 -5.54405875 14.94774404 -8 11.625 C-8.625 8.625 -8.625 8.625 -8 5.625 C-5.54405875 2.30225596 -4.0743356 0.84881992 0 0 Z " fill="#DBDDE1" transform="translate(400,439.375)"/>
<path d="M0 0 C4.0743356 0.84881992 5.54405875 2.30225596 8 5.625 C8.625 8.625 8.625 8.625 8 11.625 C5.54405875 14.94774404 4.0743356 16.40118008 0 17.25 C-4.0743356 16.40118008 -5.54405875 14.94774404 -8 11.625 C-8.625 8.625 -8.625 8.625 -8 5.625 C-5.54405875 2.30225596 -4.0743356 0.84881992 0 0 Z " fill="#DBDDE1" transform="translate(128,439.375)"/>
</svg>
