<?xml version="1.0" encoding="UTF-8"?>
<svg version="1.1" xmlns="http://www.w3.org/2000/svg" width="512" height="512">
<path d="M0 0 C1.69099529 -0.00542575 3.38198586 -0.01255095 5.07296753 -0.02124023 C9.64951707 -0.03942412 14.22570456 -0.03242616 18.80226016 -0.01972389 C23.60134246 -0.00956893 28.40039458 -0.01899665 33.19947815 -0.02526855 C41.25853008 -0.0325384 49.31743522 -0.0229754 57.37646484 -0.00390625 C66.67988625 0.01785382 75.98295686 0.01081474 85.28636974 -0.01121187 C93.28748518 -0.02939359 101.28849532 -0.03191043 109.28962475 -0.0214572 C114.06241384 -0.01523654 118.83503833 -0.01434707 123.6078167 -0.02760315 C128.09693986 -0.03920118 132.58561313 -0.03106411 137.07468796 -0.00802612 C138.7173278 -0.00275975 140.36000584 -0.00421714 142.00263023 -0.01307678 C160.35068837 -0.10287603 160.35068837 -0.10287603 166.9207983 5.96477509 C173.67562773 13.61834284 173.50224589 21.63029205 173.48747253 31.3528595 C173.48973809 32.44602799 173.49200365 33.53919648 173.49433786 34.66549128 C173.50066931 38.32949516 173.49984903 41.99346196 173.49902344 45.6574707 C173.50201546 48.28411405 173.50541808 50.91075696 173.50920105 53.53739929 C173.51749924 59.93245976 173.52025552 66.32751101 173.52081343 72.72257642 C173.52128898 77.92210985 173.52334572 83.12164024 173.52651405 88.32117271 C173.53531838 103.07059201 173.53993378 117.82000404 173.53918358 132.56942598 C173.53914362 133.36418386 173.53910367 134.15894175 173.5390625 134.9777832 C173.53902162 135.77351416 173.53898074 136.56924511 173.53893862 137.38908913 C173.53853222 150.28336042 173.54810086 163.17760251 173.56220087 176.07186536 C173.57657242 189.31923622 173.58347062 202.56659284 173.58260709 215.8139717 C173.58227539 223.24829097 173.58501071 230.68257962 173.59578514 238.11689186 C173.6049004 244.44682449 173.60705698 250.7767126 173.60027572 257.10664896 C173.59701567 260.33409117 173.59802685 263.56143053 173.60562897 266.78886795 C173.61334788 270.29310331 173.60870452 273.79711526 173.60099792 277.30134583 C173.60614149 278.31381168 173.61128505 279.32627753 173.61658448 280.36942416 C173.58010009 287.88852006 173.52054664 296.08495346 168.16625977 301.89257812 C167.61583008 302.5190625 167.06540039 303.14554687 166.49829102 303.79101562 C161.34861255 307.93702269 156.41187842 308.89287708 149.9221344 308.90525818 C149.20717629 308.91064372 148.49221818 308.91602925 147.75559467 308.92157799 C145.3774116 308.93580181 142.99978955 308.92876796 140.62158203 308.92163086 C138.90940913 308.92733735 137.19724003 308.9343027 135.4850769 308.94242859 C130.8466174 308.96034407 126.20834724 308.95919467 121.56986356 308.9534862 C117.69314051 308.95039208 113.81645371 308.95648928 109.93973583 308.96252495 C100.79214988 308.97656322 91.64465734 308.97501463 82.49707031 308.96362305 C73.06926218 308.95214173 63.64173851 308.96621932 54.21396786 308.99301952 C46.11013907 309.01519113 38.00639949 309.02181062 29.90254253 309.01594311 C25.06660234 309.01257593 20.23084449 309.01497281 15.39492989 309.03219414 C10.84674755 309.04768454 6.298986 309.04368455 1.75082016 309.02488899 C0.08517855 309.02120894 -1.58049439 309.02429454 -3.2461071 309.03477478 C-18.88573744 309.12564091 -18.88573744 309.12564091 -25.64624023 304.51757812 C-27.70483398 302.48242188 -27.70483398 302.48242188 -29.08374023 300.45507812 C-29.55682617 299.78347656 -30.02991211 299.111875 -30.51733398 298.41992188 C-32.44513013 295.17135191 -32.77219003 292.5155729 -32.777668 288.82356548 C-32.78150914 287.85290856 -32.78535029 286.88225164 -32.78930783 285.88218087 C-32.78844135 284.81332849 -32.78757487 283.7444761 -32.78668213 282.64323425 C-32.78965325 281.50967682 -32.79262437 280.37611938 -32.79568553 279.20821172 C-32.80439388 275.38969562 -32.80588258 271.5712108 -32.80737305 267.75268555 C-32.81146078 265.02309483 -32.81700336 262.29350743 -32.82241821 259.56391907 C-32.83600507 252.13418037 -32.84202677 244.70444707 -32.84642887 237.27469802 C-32.84919063 232.63645739 -32.85342786 227.99821885 -32.85793304 223.35997963 C-32.87012604 210.52064107 -32.88042538 197.68130418 -32.88380814 184.84195995 C-32.8840277 184.02007876 -32.88424727 183.19819757 -32.88447349 182.35141088 C-32.8848009 181.11562316 -32.8848009 181.11562316 -32.88513494 179.85487002 C-32.8855784 178.18539186 -32.88602497 176.5159137 -32.88647461 174.84643555 C-32.88669604 174.01831501 -32.88691747 173.19019447 -32.88714561 172.33697937 C-32.89109412 158.91668948 -32.90854961 145.49645387 -32.93183413 132.07618495 C-32.95554138 118.30120767 -32.9680097 104.52625764 -32.96917605 90.75125962 C-32.97009315 83.01571943 -32.97585427 75.28024996 -32.99399567 67.54472923 C-33.00938819 60.95807509 -33.01452215 54.37151354 -33.00625756 47.78484484 C-33.002348 44.4240515 -33.00492375 41.06359643 -33.01731491 37.70280075 C-33.02996239 34.05932973 -33.02419638 30.41634014 -33.01373291 26.77287292 C-33.02178931 25.71071271 -33.02984572 24.64855249 -33.03814626 23.5542056 C-32.99159991 16.64286207 -31.98521723 12.32435052 -27.45874023 6.89257812 C-18.85141959 -0.37582598 -10.68307282 -0.0575425 0 0 Z " fill="#81E6FA" transform="translate(42.646240234375,193.482421875)"/>
<path d="M0 0 C0.87235894 -0.00297112 1.74471789 -0.00594224 2.64351195 -0.0090034 C5.57214 -0.01768803 8.50072716 -0.01919845 11.42936707 -0.02069092 C13.52694791 -0.02531923 15.62452791 -0.0303439 17.72210693 -0.03573608 C23.42463723 -0.04886013 29.12715576 -0.05530496 34.8296988 -0.05974674 C38.39170315 -0.06267723 41.95370428 -0.06678197 45.51570702 -0.07125092 C56.65841749 -0.08492534 67.80112061 -0.09459249 78.94383889 -0.09845281 C91.81034044 -0.10293472 104.67673582 -0.12048912 117.54320508 -0.1494534 C127.48641485 -0.17106082 137.42959471 -0.18115657 147.37282771 -0.18249393 C153.31260711 -0.18354255 159.2522867 -0.18946272 165.1920414 -0.20731354 C170.77919044 -0.22377807 176.36616445 -0.22595752 181.95332909 -0.21717453 C184.00318241 -0.21640331 186.05304508 -0.22075798 188.10287476 -0.23063278 C190.90302043 -0.24333038 193.70254416 -0.23748728 196.50268555 -0.22705078 C197.31223011 -0.23510719 198.12177468 -0.24316359 198.9558509 -0.25146413 C206.23102871 -0.18812525 212.17428218 1.87290584 217.44181824 7.14044189 C220.90917263 12.52668151 222.02674323 17.15745706 221.94975281 23.48956299 C221.95599277 24.29113012 221.96223273 25.09269726 221.96866179 25.91855431 C221.9845192 28.58396875 221.97201644 31.24845942 221.95939636 33.91387939 C221.96482071 35.83309459 221.97194513 37.75230561 221.9806366 39.67150879 C221.99883555 44.86985785 221.99181651 50.06788852 221.97912025 55.26624298 C221.96897486 60.71308738 221.97839021 66.15990499 221.98466492 71.60675049 C221.99193682 80.75279623 221.98236555 89.89871267 221.96330261 99.04473877 C221.94153481 109.61034445 221.9485865 120.17564135 221.97060823 130.74123955 C221.98877519 139.82173234 221.9913142 148.90213231 221.98085356 157.98263741 C221.97462578 163.40205062 221.97376337 168.82131882 221.98699951 174.24072266 C221.99857619 179.33637659 221.9904989 184.43163341 221.96742249 189.52724457 C221.96214513 191.3944508 221.96363247 193.2616906 221.97247314 195.12888336 C221.98345096 197.68347639 221.96963894 200.23680755 221.94975281 202.7913208 C221.95867569 203.52518698 221.96759858 204.25905315 221.97679186 205.0151577 C221.88206858 211.3149778 219.87821011 216.67599177 215.40666199 221.19903564 C214.40312683 221.88159424 214.40312683 221.88159424 213.37931824 222.57794189 C212.70771667 223.05102783 212.03611511 223.52411377 211.34416199 224.01153564 C207.03021109 226.5715599 202.7841172 226.28869498 197.93469238 226.28761292 C197.05572632 226.2912896 196.17676027 226.29496629 195.27115887 226.29875439 C192.31412346 226.30980251 189.35712317 226.31363699 186.40007019 226.31744385 C184.28455493 226.32370766 182.16904078 226.33035438 180.05352783 226.33735657 C174.29715739 226.35477411 168.54079526 226.36532045 162.78440499 226.3735621 C159.18872893 226.37871079 155.59305545 226.38478659 151.99738121 226.39107323 C140.74948187 226.41012764 129.5015891 226.4243581 118.25367671 226.4326852 C105.26602342 226.44245872 92.27854051 226.46878034 79.29094726 226.50918609 C69.25517453 226.53933789 59.21945066 226.5541532 49.18363351 226.55746621 C43.18843958 226.55981779 37.19342762 226.5687925 31.19828224 226.59392738 C25.55693648 226.61719649 19.91589264 226.62144584 14.27451134 226.611166 C12.20572277 226.61067025 10.1369194 226.61700224 8.06817627 226.63072205 C5.2397103 226.64842833 2.41232936 226.64134083 -0.4161377 226.62818909 C-1.23123344 226.63915833 -2.04632918 226.65012758 -2.88612479 226.66142923 C-9.09416858 226.59193003 -14.48446301 225.04765315 -19.08838862 220.69312841 C-23.79754787 215.25597393 -24.85501923 211.27150472 -24.83233643 204.19641113 C-24.8375731 203.39009459 -24.84280978 202.58377805 -24.84820515 201.75302768 C-24.86322179 199.04780584 -24.86391067 196.34277288 -24.86457825 193.63751221 C-24.87219869 191.69918498 -24.88062599 189.76086078 -24.88980103 187.82254028 C-24.91176606 182.55380717 -24.92054779 177.28513211 -24.92562747 172.01635838 C-24.9292691 168.72436648 -24.93550819 165.43238984 -24.94262886 162.14040375 C-24.96713168 150.65473258 -24.98017676 139.16910661 -24.98371887 127.68341064 C-24.98735334 116.97926792 -25.01724034 106.27541207 -25.05912346 95.57135701 C-25.09382396 86.38055922 -25.10926728 77.18985649 -25.10996491 67.99899364 C-25.11075789 62.51014718 -25.11950636 57.02159278 -25.14796257 51.53281403 C-25.17413842 46.36824849 -25.17635091 41.20421722 -25.16030693 36.03961563 C-25.15849199 34.14659332 -25.16518724 32.25354034 -25.18112564 30.36058426 C-25.20159939 27.77056204 -25.19102781 25.1824068 -25.1729126 22.59240723 C-25.18611257 21.84803067 -25.19931253 21.10365412 -25.2129125 20.33672071 C-25.12138363 14.5843937 -23.18626533 10.58529993 -19.55818176 6.14044189 C-13.30491907 0.62711519 -8.24019297 -0.00874744 0 0 Z " fill="#BB9BF1" transform="translate(280.5581817626953,275.85955810546875)"/>
<path d="M0 0 C1.32101236 -0.00679667 1.32101236 -0.00679667 2.66871184 -0.01373065 C5.61958255 -0.02639042 8.57026907 -0.02475325 11.52116394 -0.02310181 C13.63697548 -0.02908608 15.75278483 -0.03589139 17.86859131 -0.04345703 C23.61659461 -0.06113481 29.36453838 -0.06581317 35.11256623 -0.0670886 C39.9112383 -0.06898756 44.70989649 -0.07634509 49.50856322 -0.08343279 C60.83080446 -0.09972123 72.15301389 -0.10460134 83.4752655 -0.10317993 C95.15356529 -0.10197846 106.83168027 -0.12308038 118.50993329 -0.15466726 C128.53726121 -0.18082201 138.56452875 -0.19154756 148.59189051 -0.19026911 C154.58033695 -0.18975923 160.56861918 -0.19545695 166.55703163 -0.21662521 C172.19021058 -0.23599386 177.82306848 -0.23614124 183.45625877 -0.22159195 C185.52181848 -0.21950104 187.58739821 -0.22422147 189.65292358 -0.23631287 C192.47691871 -0.25177134 195.29980763 -0.24245306 198.1237793 -0.22705078 C198.9375108 -0.23733791 199.7512423 -0.24762503 200.58963233 -0.25822389 C207.14719661 -0.17940894 212.58159853 1.62706616 217.31095886 6.30258179 C217.76599792 6.97160522 218.22103699 7.64062866 218.68986511 8.32992554 C219.16295105 9.0015271 219.63603699 9.67312866 220.12345886 10.36508179 C222.56197378 14.47427474 222.40067416 18.3953988 222.39953613 23.01527405 C222.40321282 23.81256906 222.40688951 24.60986407 222.41067761 25.43131953 C222.42172033 28.11196485 222.4255593 30.79257142 222.42936707 33.47323608 C222.4356313 35.39170963 222.44227806 37.31018196 222.44927979 39.22865295 C222.46669371 44.44785005 222.47724275 49.66703798 222.48548532 54.88625693 C222.49063494 58.14691372 222.49671071 61.40756765 222.50299644 64.66822243 C222.52205015 74.86960704 222.53628057 85.0709844 222.54460841 95.27238339 C222.55438065 107.04883372 222.58069915 118.82509609 222.62110931 130.60148019 C222.65126938 139.70307821 222.66607721 148.80462235 222.66938943 157.90626937 C222.67174013 163.3425577 222.68070328 168.77864526 222.7058506 174.21487999 C222.72913415 179.33093832 222.73336332 184.44666373 222.72308922 189.56276131 C222.72259381 191.43804405 222.72891568 193.3133432 222.74264526 195.18857574 C222.76037578 197.75433398 222.75325275 200.31889894 222.7401123 202.88465881 C222.75108155 203.62193559 222.7620508 204.35921236 222.77335244 205.11883086 C222.70646824 210.55025956 221.21979688 214.70785284 218.25236511 219.26742554 C215.99845886 221.32601929 215.99845886 221.32601929 213.68986511 222.70492554 C212.92545105 223.17801147 212.16103699 223.65109741 211.37345886 224.13851929 C206.88773614 226.52594814 202.76292499 226.41310186 197.81443787 226.40786743 C196.94293335 226.41083855 196.07142883 226.41380968 195.17351508 226.41687083 C192.24178099 226.42556957 189.31008767 226.42706708 186.37834167 226.42855835 C184.28090833 226.43318571 182.18347583 226.43821026 180.08604431 226.44360352 C174.3793227 226.45673787 168.67261286 226.46317455 162.96587849 226.46761417 C159.4017019 226.47054338 155.83752854 226.47464791 152.27335358 226.47911835 C141.12530032 226.49279633 129.97725442 226.50246138 118.82919335 226.50632024 C105.95419171 226.51080114 93.07929623 226.52834936 80.20432687 226.55732083 C70.25689102 226.57892875 60.30948505 226.58902405 50.36202598 226.59036136 C44.41887825 226.59141007 38.47583027 226.59733196 32.53270721 226.61518097 C26.94146759 226.63164607 21.35040286 226.63382467 15.75914764 226.62504196 C13.70768262 226.62427074 11.65620825 226.62862548 9.60476685 226.63850021 C6.8023783 226.6511978 4.00061119 226.64535467 1.19822693 226.63491821 C0.38800024 226.64297462 -0.42222644 226.65103102 -1.25700545 226.65933156 C-9.29131004 226.58944054 -14.90766214 223.97467163 -20.74763489 218.26742554 C-23.67354411 213.54888957 -24.18074914 209.51295948 -24.14204407 204.08288574 C-24.14813517 203.27486035 -24.15422627 202.46683496 -24.16050196 201.63432395 C-24.17710936 198.93522017 -24.17235941 196.23658932 -24.16755676 193.53744507 C-24.17489841 191.59882112 -24.18348492 189.66020154 -24.19322205 187.72158813 C-24.21543684 182.46120474 -24.21836873 177.200978 -24.21647453 171.94055414 C-24.21635483 167.54693266 -24.22491901 163.15334437 -24.23325205 158.75973213 C-24.25248609 148.39297069 -24.25536996 138.02628977 -24.24861145 127.65951538 C-24.24197074 116.97008638 -24.26483636 106.28100246 -24.30192518 95.59164345 C-24.33262744 86.40928761 -24.34398162 77.22704275 -24.34008837 68.04463661 C-24.33802139 62.56254106 -24.34349242 57.08071403 -24.36798096 51.59866714 C-24.390254 46.44226288 -24.38836537 41.28641941 -24.36805344 36.13001251 C-24.36464438 34.24022104 -24.36972797 32.35039177 -24.38403702 30.4606514 C-24.40226012 27.87509429 -24.38945902 25.29143352 -24.36909485 22.70593262 C-24.3816127 21.9629203 -24.39413054 21.21990799 -24.40702772 20.45438015 C-24.30968522 14.66643595 -22.28684187 10.79958179 -18.74763489 6.26742554 C-12.98804203 0.79581232 -7.74785194 -0.02924913 0 0 Z " fill="#FB7F97" transform="translate(279.7476348876953,9.732574462890625)"/>
<path d="M0 0 C0.71154041 -0.00367669 1.42308082 -0.00735338 2.15618306 -0.01114148 C4.54661894 -0.0221772 6.93701134 -0.02602198 9.32746887 -0.02983093 C11.03904865 -0.03609572 12.75062706 -0.04274253 14.46220398 -0.04974365 C20.0889135 -0.07078623 25.71562329 -0.08114681 31.34236145 -0.09111023 C33.27969693 -0.09515783 35.21703226 -0.09927476 37.15436745 -0.10346031 C46.25691153 -0.12251309 55.35944751 -0.13674346 64.4620077 -0.14507228 C74.9666969 -0.15484284 85.47117528 -0.18115729 95.9757902 -0.22157317 C104.09650481 -0.25174399 112.21715903 -0.26654211 120.33792859 -0.26985329 C125.18736803 -0.27220286 130.03658226 -0.28115098 134.88596153 -0.30631447 C139.45047029 -0.3296168 144.01460593 -0.33381974 148.57915878 -0.32355309 C150.25126068 -0.32305812 151.92338107 -0.32936685 153.59542656 -0.34310913 C163.04732232 -0.41642409 170.32745376 -0.392823 178.0728302 5.75263977 C178.51884583 6.27471008 178.96486145 6.7967804 179.4243927 7.33467102 C180.11661926 8.09844055 180.11661926 8.09844055 180.8228302 8.87763977 C184.40379602 15.50356698 184.34025294 23.24093104 184.30818176 30.58882141 C184.31343872 32.09307426 184.31343872 32.09307426 184.31880188 33.62771606 C184.32754834 36.91682518 184.32179556 40.20571627 184.3150177 43.49482727 C184.31636628 45.79450522 184.31830842 48.09418289 184.32081604 50.39385986 C184.32375762 55.20268989 184.31950034 60.01144539 184.31013489 64.82026672 C184.29873458 70.97246506 184.30530973 77.12448898 184.31727982 83.27668095 C184.324519 88.02169094 184.32220112 92.76665981 184.31702423 97.51167107 C184.31569377 99.77979491 184.31731424 102.04792252 184.32198334 104.31604195 C184.32708309 107.48909981 184.31929008 110.66187803 184.30818176 113.83491516 C184.31223022 114.76449036 184.31627869 115.69406555 184.32044983 116.65180969 C184.26788591 124.78912748 183.27733614 131.57489927 178.0493927 138.14717102 C172.6418009 143.13879422 168.18317478 144.39607247 160.88951111 144.40786743 C160.17963983 144.41169298 159.46976856 144.41551853 158.73838603 144.41946 C156.36557932 144.42975843 153.99301601 144.4258039 151.62019348 144.42182922 C149.91654741 144.42617747 148.2129033 144.431361 146.50926208 144.43731689 C141.88524664 144.45070665 137.26131294 144.45128554 132.63728189 144.4487536 C128.77548403 144.44768377 124.9137027 144.4525676 121.05190837 144.45735902 C111.93989187 144.46845433 102.82791659 144.46889161 93.71589661 144.46284485 C84.31996927 144.45680548 74.9241917 144.46911508 65.52828991 144.49041492 C57.45764847 144.50803685 49.38705466 144.5140313 41.31639469 144.51077718 C36.49781083 144.50896496 31.67933378 144.51159424 26.86076736 144.52549171 C22.32827623 144.53807488 17.79601832 144.53612131 13.26353073 144.52308083 C11.60230683 144.52071648 9.9410665 144.52344465 8.27986145 144.53170395 C6.00738545 144.54218557 3.73568996 144.53406006 1.46324158 144.52139282 C-0.44204221 144.52164443 -0.44204221 144.52164443 -2.38581657 144.52190113 C-8.45737615 143.88365997 -13.59536505 141.50241327 -17.9506073 137.14717102 C-22.18247272 130.96937458 -22.52599053 125.21622656 -22.46818542 117.90107727 C-22.4751947 116.80085236 -22.48220398 115.70062744 -22.48942566 114.56706238 C-22.50696138 110.94767153 -22.49539782 107.32906917 -22.4818573 103.70967102 C-22.48455346 101.18436026 -22.48843692 98.65905051 -22.49345398 96.13374329 C-22.49934305 90.84809903 -22.49118922 85.56265796 -22.47209167 80.27705383 C-22.45032598 74.18295986 -22.45737862 68.08940134 -22.4793973 61.99532032 C-22.4997988 56.11129496 -22.49756026 50.22747164 -22.48587036 44.34342957 C-22.48320741 41.84922714 -22.48645758 39.35501098 -22.49578857 36.86082458 C-22.50597925 33.37127299 -22.49041607 29.88274072 -22.46818542 26.39326477 C-22.47628235 25.36861115 -22.48437927 24.34395752 -22.49272156 23.28825378 C-22.40774462 16.06589679 -21.10942189 10.34236352 -15.91545105 5.08857727 C-15.24642761 4.63353821 -14.57740417 4.17849915 -13.8881073 3.70967102 C-13.21650574 3.23658508 -12.54490417 2.76349915 -11.85295105 2.27607727 C-7.89951254 -0.07000842 -4.5040965 0.01506878 0 0 Z " fill="#F0CE85" transform="translate(31.950607299804688,9.852828979492188)"/>
</svg>
