<?xml version="1.0" encoding="UTF-8"?>
<svg version="1.1" xmlns="http://www.w3.org/2000/svg" width="512" height="512">
<path d="M0 0 C82.17 0 164.34 0 249 0 C249 20.46 249 40.92 249 62 C258.24 62 267.48 62 277 62 C289.8880597 65.51492537 289.8880597 65.51492537 296 71 C296.58265625 71.47953125 297.1653125 71.9590625 297.765625 72.453125 C304.90229244 78.81826082 309.69944827 88.23507617 312.9375 97.125 C314.02854397 99.77677502 314.61363255 100.76832343 317.09765625 102.2578125 C318.67619182 102.90976052 320.26903409 103.52826892 321.875 104.109375 C324.92951279 105.38957521 326.32012545 107.20020909 328 110 C332.185574 122.43723035 326.25141501 141.2427281 324.4375 153.875 C324.10437726 156.21998956 323.77169137 158.56504122 323.43945312 160.91015625 C322.63133814 166.60749673 321.81783036 172.30404645 321 178 C322.09699219 177.95875 323.19398438 177.9175 324.32421875 177.875 C328 178 328 178 330.8125 180 C335.24902813 186.08438144 335.40314243 191.94720126 334.5390625 199.19140625 C333.01438423 207.13520101 329.84867555 214.66653556 323 219.375 C320.59796085 220.12563723 318.50389774 220.04118253 316 220 C315.81002441 220.52207031 315.62004883 221.04414063 315.42431641 221.58203125 C307.10917103 244.12421766 296.21632564 262.2746304 276 276 C275.06929688 276.41121094 274.13859375 276.82242187 273.1796875 277.24609375 C270.59672949 278.92848157 270.59672949 278.92848157 270.37109375 282.66015625 C270.36172797 284.12774122 270.38553114 285.59580555 270.4375 287.0625 C270.44974609 287.82312744 270.46199219 288.58375488 270.47460938 289.36743164 C270.67351079 294.80657581 271.695912 299.29762742 274.125 304.21484375 C275 306 275 306 275 308 C275.70382812 308.25265625 276.40765625 308.5053125 277.1328125 308.765625 C280.3101525 310.13352614 282.98372776 311.85191288 285.875 313.75 C302.18737261 323.84186575 316.04554664 325.02891602 335 325 C334.98952637 324.41508789 334.97905273 323.83017578 334.96826172 323.22753906 C334.92659736 320.56840337 334.90064099 317.90933647 334.875 315.25 C334.85824219 314.32960938 334.84148437 313.40921875 334.82421875 312.4609375 C334.81777344 311.57148438 334.81132812 310.68203125 334.8046875 309.765625 C334.79421387 308.94868164 334.78374023 308.13173828 334.77294922 307.29003906 C335.02560219 304.74177581 335.63865265 303.15880181 337 301 C340.4151296 299.2924352 344.3250867 299.83428891 348.08374023 299.82299805 C349.49609451 299.81314125 349.49609451 299.81314125 350.9369812 299.80308533 C354.06085279 299.78333178 357.18467633 299.77168691 360.30859375 299.76171875 C361.37317369 299.75764322 362.43775364 299.7535677 363.53459358 299.74936867 C369.16604545 299.728502 374.79747289 299.71420124 380.42895508 299.70483398 C386.25798873 299.69375101 392.08664258 299.65933094 397.91554165 299.61966228 C402.38756544 299.593578 406.85949747 299.58514959 411.33159065 299.58155251 C413.48106523 299.57666756 415.6305352 299.56499982 417.77993584 299.54651451 C420.78255659 299.52229073 423.78417768 299.52305704 426.78686523 299.5300293 C428.12650581 299.51081421 428.12650581 299.51081421 429.49320984 299.49121094 C435.45123141 299.54182395 435.45123141 299.54182395 438.05751038 301.71784973 C439.13551229 304.3281303 439.34457426 306.16327362 439.29296875 308.984375 C439.28330078 309.91894531 439.27363281 310.85351562 439.26367188 311.81640625 C439.23853516 312.78449219 439.21339844 313.75257813 439.1875 314.75 C439.16719727 316.22533203 439.16719727 316.22533203 439.14648438 317.73046875 C439.11118726 320.15420415 439.06188054 322.57682145 439 325 C439.66763367 324.99111755 440.33526733 324.98223511 441.02313232 324.9730835 C447.96585538 324.88465527 454.90841871 324.82428424 461.8515625 324.78027344 C464.44342546 324.76014625 467.03524296 324.73284184 469.62695312 324.69824219 C473.35037449 324.64977499 477.07319599 324.62704184 480.796875 324.609375 C482.53768341 324.57840729 482.53768341 324.57840729 484.31365967 324.54681396 C485.39447815 324.54651184 486.47529663 324.54620972 487.58886719 324.54589844 C488.53928894 324.53701599 489.48971069 324.52813354 490.46893311 324.51898193 C493.74874587 325.14229584 494.91001462 326.45874172 497 329 C498.44857447 331.89714893 498.14333559 334.42856367 498.16113281 337.6652832 C498.16609772 338.3500473 498.17106262 339.0348114 498.17617798 339.74032593 C498.1908077 342.01048786 498.19760348 344.28057988 498.203125 346.55078125 C498.2088765 348.12778221 498.21463424 349.70478314 498.22039795 351.28178406 C498.23091073 354.59142381 498.23675134 357.90103925 498.24023438 361.21069336 C498.24571481 365.44767524 498.26973177 369.68433505 498.29820633 373.92121601 C498.31684993 377.18034293 498.32203926 380.43939261 498.32357025 383.69856834 C498.32659425 385.26025335 498.33461428 386.82193708 498.34775543 388.38356972 C498.36484986 390.57147158 498.36292768 392.75859127 498.35644531 394.9465332 C498.36009094 396.19070511 498.36373657 397.43487701 498.36749268 398.7167511 C497.96883068 402.27847262 497.14574402 404.15949791 495 407 C494.34 407.33 493.68 407.66 493 408 C492.99786247 409.5430909 492.99786247 409.5430909 492.99568176 411.11735535 C492.97900953 420.81395341 492.9362291 430.51013193 492.86790943 440.20650768 C492.833624 445.19152527 492.80852703 450.17623588 492.80444336 455.16137695 C492.80016375 459.97272329 492.77172911 464.78337698 492.72656822 469.59450722 C492.71358241 471.42965981 492.70928938 473.26489524 492.71384621 475.10008812 C492.71874464 477.67189621 492.69269575 480.24167398 492.65942383 482.81323242 C492.67236229 483.9504348 492.67236229 483.9504348 492.68556213 485.11061096 C492.5990267 489.10269916 492.14810056 490.819232 489.58378601 493.94917297 C485.51088619 497.18195348 482.62326681 497.16541442 477.59057617 497.20433044 C476.81178352 497.21412805 476.03299088 497.22392567 475.23059845 497.23402017 C472.58475305 497.26577551 469.9388944 497.29012105 467.29296875 497.31420898 C465.37709784 497.33481897 463.46122977 497.35569358 461.54536438 497.37681007 C456.22518612 497.43342611 450.90496176 497.48220538 445.58468628 497.52869725 C442.16696026 497.55877451 438.74925199 497.59045825 435.33154297 497.6224041 C372.41418963 498.20168668 309.49465961 498.11664262 246.57532692 498.07202756 C235.06763377 498.0639591 223.55994146 498.05859034 212.05224609 498.05493164 C211.2282756 498.05466892 210.4043051 498.05440619 209.5553658 498.05413551 C205.41705148 498.05282939 201.27873716 498.05156595 197.14042282 498.05032361 C163.42694388 498.04014862 129.71347287 498.02263513 96 498 C96 493.71 96 489.42 96 485 C94.35 485.33 92.7 485.66 91 486 C69.31134767 487.75303017 47.28593622 481.10329978 30.25 467.6875 C14.33357787 453.96564986 2.93704966 435.30754622 1 414 C-0.37365325 391.48981122 4.76014722 369.66334798 19.90649414 352.29589844 C34.53708807 336.2096125 53.0181277 325.72583698 75.00390625 324.625 C93.79440427 324.07745475 114.65454835 326.44489284 129.1484375 339.81640625 C131.73742627 342.25176667 131.73742627 342.25176667 134.5390625 342.0234375 C137.41062661 340.82923147 139.79009026 339.3600764 142.375 337.625 C150.26891569 332.52489857 158.75598702 328.68484794 167.25390625 324.7109375 C173.21353321 321.89925762 179.10609146 318.94695427 185 316 C123.95 315.67 62.9 315.34 0 315 C0 211.05 0 107.1 0 0 Z M347 311 C347 315.62 347 320.24 347 325 C373.73 325 400.46 325 428 325 C428 320.38 428 315.76 428 311 C401.27 311 374.54 311 347 311 Z " fill="#3B4C56" transform="translate(7,7)"/>
<path d="M0 0 C82.17 0 164.34 0 249 0 C249 20.46 249 40.92 249 62 C223 64 223 64 216 64 C216 60.37 216 56.74 216 53 C181.35 53 146.7 53 111 53 C111 58.94 111 64.88 111 71 C136.74 71 162.48 71 189 71 C184.65956043 74.25532967 180.19071529 76.59581858 175.38671875 79.0859375 C171.91605562 80.89088203 171.91605562 80.89088203 169.06933594 83.6027832 C163.9783094 87.25059491 158.52174245 86.52011454 152.50390625 86.26953125 C150.72088356 86.22562508 150.72088356 86.22562508 148.90184021 86.18083191 C145.12092778 86.08219671 141.34225816 85.94786059 137.5625 85.8125 C134.99290483 85.73917549 132.4232419 85.6681856 129.85351562 85.59960938 C123.56790415 85.42677855 117.28406166 85.22193195 111 85 C111 90.61 111 96.22 111 102 C125.52 102 140.04 102 155 102 C153.68 107.28 152.36 112.56 151 118 C150.01 122.95 149.02 127.9 148 133 C135.79 133 123.58 133 111 133 C111 138.61 111 144.22 111 150 C123.21 150 135.42 150 148 150 C148.33 154.62 148.66 159.24 149 164 C136.46 164 123.92 164 111 164 C111 169.94 111 175.88 111 182 C121.56 182 132.12 182 143 182 C142.67 183.65 142.34 185.3 142 187 C141.39212193 194.61016579 142.53458153 200.83368 145 208 C145.33 209.32 145.66 210.64 146 212 C134.45 212 122.9 212 111 212 C111 217.94 111 223.88 111 230 C128.82 230 146.64 230 165 230 C167.97 235.61 170.94 241.22 174 247 C180.7715081 256.82345542 187.88242096 266.32525715 198.5625 272 C201.12890625 273.6484375 201.12890625 273.6484375 203 276 C203.15999934 278.9614424 203.15064434 281.68229286 203 284.625 C202.85234732 288.91653832 202.77959976 292.4697732 205.54443359 295.93652344 C209.81975285 299.73239692 214.67390665 302.64621796 219.58642578 305.54052734 C223.25213043 307.75715514 226.67442894 310.27920385 230.125 312.8125 C231.27205805 313.63344129 232.42034932 314.4526644 233.5703125 315.26953125 C234.77300781 316.12611328 234.77300781 316.12611328 236 317 C234.85200035 320.44399894 234.05944169 320.94809674 231.18359375 322.99609375 C230.41982422 323.55490234 229.65605469 324.11371094 228.86914062 324.68945312 C227.24731684 325.85534251 225.62230187 327.01680547 223.99414062 328.17382812 C223.23166016 328.73392578 222.46917969 329.29402344 221.68359375 329.87109375 C220.97775146 330.37568115 220.27190918 330.88026855 219.54467773 331.40014648 C217.5369383 333.10895863 217.5369383 333.10895863 218 337 C219.13327614 338.60740187 220.30636039 340.18690051 221.5 341.75 C229.35735646 354.86146754 225.10028227 373.77262641 223.85595703 388.33642578 C222.86265179 399.97204122 222.28153197 411.62401205 221.69775391 423.28588867 C221.31231167 430.88131784 220.85432772 438.43957774 220 446 C217.53541302 442.30311953 216.76251026 438.58947743 215.7578125 434.328125 C215.54930161 433.46225266 215.34079071 432.59638031 215.1259613 431.70426941 C214.45118268 428.88796821 213.78698011 426.06933532 213.125 423.25 C212.78551834 421.8127507 212.78551834 421.8127507 212.43917847 420.34646606 C209.12932202 406.30237812 206.00717727 392.29773836 204 378 C203.87077148 377.13101074 203.74154297 376.26202148 203.60839844 375.36669922 C200.34271121 353.06454281 199.37122623 330.47899801 198 308 C197.49151331 308.496093 196.98302662 308.99218599 196.45913124 309.50331211 C188.17652021 316.48575971 179.83765293 315.94753859 169.60693359 315.79467773 C167.72340305 315.79253071 165.83986689 315.7934724 163.95633888 315.79723454 C158.93423881 315.79880814 153.91331774 315.7583834 148.89149475 315.70896149 C144.17087285 315.66895173 139.45053062 315.66721198 134.72973633 315.66223145 C120.94466943 315.62557129 107.15981961 315.52784246 93.375 315.4375 C62.56125 315.293125 31.7475 315.14875 0 315 C0 211.05 0 107.1 0 0 Z " fill="#E5E5E7" transform="translate(7,7)"/>
<path d="M0 0 C34.65 0 69.3 0 105 0 C105 3.63 105 7.26 105 11 C106.70349609 10.7834375 106.70349609 10.7834375 108.44140625 10.5625 C120.47806969 9.18565746 132.47512754 8.75793765 144.58004761 8.70043945 C146.30462891 8.69188124 148.0291933 8.67829121 149.75369263 8.65942383 C163.0438764 8.52958007 174.62661912 8.69055562 185 18 C185.58265625 18.47953125 186.1653125 18.9590625 186.765625 19.453125 C193.90229244 25.81826082 198.69944827 35.23507617 201.9375 44.125 C203.02854397 46.77677502 203.61363255 47.76832343 206.09765625 49.2578125 C207.67619182 49.90976052 209.26903409 50.52826892 210.875 51.109375 C213.92951279 52.38957521 215.32012545 54.20020909 217 57 C221.185574 69.43723035 215.25141501 88.2427281 213.4375 100.875 C213.10437726 103.21998956 212.77169137 105.56504122 212.43945312 107.91015625 C211.63133814 113.60749673 210.81783036 119.30404645 210 125 C211.09699219 124.95875 212.19398438 124.9175 213.32421875 124.875 C217 125 217 125 219.8125 127 C224.24902813 133.08438144 224.40314243 138.94720126 223.5390625 146.19140625 C222.01438423 154.13520101 218.84867555 161.66653556 212 166.375 C209.59796085 167.12563723 207.50389774 167.04118253 205 167 C204.71503662 167.78310547 204.71503662 167.78310547 204.42431641 168.58203125 C196.10917103 191.12421766 185.21632564 209.2746304 165 223 C164.06929687 223.41121094 163.13859375 223.82242188 162.1796875 224.24609375 C159.59672949 225.92848157 159.59672949 225.92848157 159.37109375 229.66015625 C159.36710929 231.1277657 159.39026448 232.59564548 159.4375 234.0625 C159.42106445 235.13274414 159.42106445 235.13274414 159.40429688 236.22460938 C159.46280642 240.5894215 160.2303052 243.81203095 162.0390625 247.7890625 C164.58378462 253.711936 164.34322899 258.96560557 163.9375 265.3125 C163.87804199 266.47676514 163.81858398 267.64103027 163.75732422 268.84057617 C162.9991112 282.27421086 161.58686943 295.64237417 160 309 C159.88930176 309.96180176 159.77860352 310.92360352 159.66455078 311.91455078 C157.07297908 334.11262023 152.61904807 356.06774016 147.25 377.75 C146.95641602 378.93996582 146.66283203 380.12993164 146.36035156 381.35595703 C144.25618521 389.61572219 144.25618521 389.61572219 142 393 C140.8674872 387.15329267 140.48050683 381.26936519 140.0390625 375.33984375 C139.95282623 374.19789047 139.86658997 373.05593719 139.77774048 371.87937927 C138.9172561 360.25966971 138.21640007 348.63199755 137.56738281 336.9987793 C137.37213342 333.51129806 137.17063362 330.02421222 136.96875 326.53710938 C136.84077621 324.27606256 136.71315854 322.01499555 136.5859375 319.75390625 C136.52659027 318.7329335 136.46724304 317.71196075 136.40609741 316.66004944 C136.13859268 311.78795056 135.93099072 306.91637704 135.84033203 302.03759766 C135.82277863 301.17325104 135.80522522 300.30890442 135.78713989 299.41836548 C136.1551411 295.23739695 138.16475454 292.2031642 140.5 288.8125 C140.92925781 288.14669922 141.35851562 287.48089844 141.80078125 286.79492188 C142.84506963 285.18207648 143.91939713 283.58874351 145 282 C141.14326043 278.00341682 137.06199437 274.43480041 132.75 270.9375 C132.05398682 270.37240723 131.35797363 269.80731445 130.64086914 269.22509766 C125.69607711 265.25710244 120.6285186 261.51312431 115.4375 257.875 C114.39094238 257.12875366 114.39094238 257.12875366 113.32324219 256.36743164 C109.83361743 253.89729776 106.33006081 251.57944477 102.62890625 249.4375 C92.63055244 243.38559005 92.63055244 243.38559005 91.44335938 238.89404297 C91.15496244 235.71426466 91.21971197 232.60638641 91.34130859 229.41918945 C91.4737435 224.53606443 91.4737435 224.53606443 88.9296875 220.453125 C87.03239798 219.17417218 85.08735027 217.9638043 83.10546875 216.8203125 C74.88475218 212.00162832 68.88703648 204.29719168 63.625 196.5 C63.2323999 195.91984131 62.8397998 195.33968262 62.43530273 194.74194336 C58.93010816 189.31953054 56.74829689 184.04625315 54 178 C36.18 177.67 18.36 177.34 0 177 C0 171.06 0 165.12 0 159 C11.55 159 23.1 159 35 159 C33.68 155.7 32.36 152.4 31 149 C30.14671155 145.5868462 29.83654522 143.02982017 29.8125 139.5625 C29.79832031 138.63566406 29.78414062 137.70882812 29.76953125 136.75390625 C30 134 30 134 32 129 C21.44 129 10.88 129 0 129 C0 123.06 0 117.12 0 111 C12.54 111 25.08 111 38 111 C37.67 109.35 37.34 107.7 37 106 C37 103.03 37 100.06 37 97 C24.79 97 12.58 97 0 97 C0 91.39 0 85.78 0 80 C12.21 80 24.42 80 37 80 C37.66 75.05 38.32 70.1 39 65 C41.44067797 54.11864407 41.44067797 54.11864407 44 49 C29.48 49 14.96 49 0 49 C0 43.39 0 37.78 0 32 C1.61898193 32.03665771 3.23796387 32.07331543 4.90600586 32.11108398 C10.9384429 32.23821478 16.97076262 32.31830368 23.00415039 32.38452148 C25.61047305 32.4196262 28.21665882 32.46732266 30.82250977 32.52807617 C34.57863201 32.61342629 38.33292547 32.65279125 42.08984375 32.68359375 C43.82475319 32.73778725 43.82475319 32.73778725 45.5947113 32.79307556 C54.27529141 32.79724615 57.47504674 30.62790216 64 25 C67.96 23.02 71.92 21.04 76 19 C50.92 18.67 25.84 18.34 0 18 C0 12.06 0 6.12 0 0 Z " fill="#D4B69E" transform="translate(118,60)"/>
<path d="M0 0 C1.41235428 -0.0098568 1.41235428 -0.0098568 2.85324097 -0.01991272 C5.97711256 -0.03966627 9.1009361 -0.05131114 12.22485352 -0.0612793 C13.28943346 -0.06535482 14.3540134 -0.06943035 15.45085335 -0.07362938 C21.08230522 -0.09449604 26.71373266 -0.10879681 32.34521484 -0.11816406 C38.1742485 -0.12924704 44.00290235 -0.16366711 49.83180141 -0.20333576 C54.3038252 -0.22942005 58.77575724 -0.23784846 63.24785042 -0.24144554 C65.39732499 -0.24633048 67.54679496 -0.25799823 69.6961956 -0.27648354 C72.69881636 -0.30070732 75.70043745 -0.29994101 78.703125 -0.29296875 C80.04276558 -0.31218384 80.04276558 -0.31218384 81.4094696 -0.33178711 C87.36749118 -0.2811741 87.36749118 -0.2811741 89.97377014 1.89485168 C91.05177205 4.50513226 91.26083403 6.34027557 91.20922852 9.16137695 C91.19956055 10.09594727 91.18989258 11.03051758 91.17993164 11.9934082 C91.15479492 12.96149414 91.1296582 13.92958008 91.10375977 14.92700195 C91.09022461 15.91055664 91.07668945 16.89411133 91.06274414 17.9074707 C91.02744702 20.3312061 90.97814031 22.75382341 90.91625977 25.17700195 C91.58389343 25.16811951 92.2515271 25.15923706 92.93939209 25.15008545 C99.88211514 25.06165722 106.82467848 25.00128619 113.76782227 24.95727539 C116.35968523 24.9371482 118.95150272 24.9098438 121.54321289 24.87524414 C125.26663425 24.82677694 128.98945576 24.80404379 132.71313477 24.78637695 C134.45394318 24.75540924 134.45394318 24.75540924 136.22991943 24.72381592 C137.31073792 24.72351379 138.3915564 24.72321167 139.50512695 24.72290039 C140.93075958 24.70957672 140.93075958 24.70957672 142.38519287 24.69598389 C145.66500563 25.31929779 146.82627439 26.63574367 148.91625977 29.17700195 C150.36483423 32.07415088 150.05959535 34.60556562 150.07739258 37.84228516 C150.08235748 38.52704926 150.08732239 39.21181335 150.09243774 39.91732788 C150.10706747 42.18748981 150.11386324 44.45758183 150.11938477 46.7277832 C150.12513627 48.30478416 150.130894 49.8817851 150.13665771 51.45878601 C150.1471705 54.76842576 150.15301111 58.07804121 150.15649414 61.38769531 C150.16197457 65.62467719 150.18599154 69.861337 150.21446609 74.09821796 C150.2331097 77.35734488 150.23829902 80.61639456 150.23983002 83.8755703 C150.24285401 85.4372553 150.25087405 86.99893903 150.2640152 88.56057167 C150.28110963 90.74847353 150.27918744 92.93559323 150.27270508 95.12353516 C150.27635071 96.36770706 150.27999634 97.61187897 150.28375244 98.89375305 C149.88509044 102.45547457 149.06200379 104.33649986 146.91625977 107.17700195 C146.25625977 107.50700195 145.59625977 107.83700195 144.91625977 108.17700195 C144.91412224 109.72009285 144.91412224 109.72009285 144.91194153 111.2943573 C144.8952693 120.99095536 144.85248887 130.68713388 144.7841692 140.38350964 C144.74988376 145.36852722 144.7247868 150.35323783 144.72070312 155.33837891 C144.71642351 160.14972525 144.68798887 164.96037894 144.64282799 169.77150917 C144.62984218 171.60666176 144.62554914 173.4418972 144.63010597 175.27709007 C144.63500441 177.84889816 144.60895552 180.41867593 144.57568359 182.99023438 C144.58430923 183.74836929 144.59293488 184.50650421 144.6018219 185.28761292 C144.51528647 189.27970112 144.06436033 190.99623395 141.50004578 194.12617493 C137.42714595 197.35895543 134.53952657 197.34241637 129.50683594 197.3813324 C128.72804329 197.39113001 127.94925064 197.40092762 127.14685822 197.41102213 C124.50101282 197.44277746 121.85515416 197.467123 119.20922852 197.49121094 C117.29335761 197.51182092 115.37748954 197.53269553 113.46162415 197.55381203 C108.14144589 197.61042806 102.82122152 197.65920733 97.50094604 197.70569921 C94.08322003 197.73577646 90.66551176 197.7674602 87.24780273 197.79940605 C24.33044939 198.37868863 -38.58908063 198.29364458 -101.50841331 198.24902952 C-113.01610646 198.24096105 -124.52379877 198.23559229 -136.03149414 198.23193359 C-136.85546464 198.23167087 -137.67943513 198.23140815 -138.52837443 198.23113746 C-142.66668875 198.22983135 -146.80500308 198.2285679 -150.94331741 198.22732556 C-184.65679631 198.21715058 -218.37026745 198.19971769 -252.08374023 198.17700195 C-252.08374023 197.84700195 -252.08374023 197.51700195 -252.08374023 197.17700195 C-188.06374023 196.84700195 -124.04374023 196.51700195 -58.08374023 196.17700195 C-59.73374023 194.85700195 -61.38374023 193.53700195 -63.08374023 192.17700195 C-64.29070743 188.55610035 -64.22042789 185.24875739 -64.2097168 181.48022461 C-64.212519 180.30655586 -64.212519 180.30655586 -64.21537781 179.10917664 C-64.21938086 177.41004389 -64.22145656 175.71090576 -64.2218399 174.01176834 C-64.22525568 170.399363 -64.24661702 166.78713762 -64.26707077 163.17479515 C-64.30509774 156.44861847 -64.33635373 149.72263434 -64.33422852 142.99633789 C-64.33344172 138.31771988 -64.35678986 133.63976106 -64.39611053 128.96131516 C-64.40657627 127.17918231 -64.40809032 125.39697344 -64.40045929 123.6148262 C-64.39084184 121.12001405 -64.41200836 118.62720005 -64.44018555 116.13256836 C-64.42998886 115.39784805 -64.41979218 114.66312775 -64.4092865 113.90614319 C-64.51962786 108.45309647 -66.33263557 106.85594798 -70.08374023 103.17700195 C-70.71865845 99.8380127 -70.71865845 99.8380127 -70.73071289 95.98754883 C-70.73947449 95.28283951 -70.74823608 94.57813019 -70.75726318 93.85206604 C-70.77919244 91.53266027 -70.76473005 89.21517561 -70.74780273 86.89575195 C-70.7511728 85.27819454 -70.756027 83.66063959 -70.76229858 82.04309082 C-70.76966105 78.65698073 -70.75898543 75.2715312 -70.7355957 71.88549805 C-70.70710729 67.55068127 -70.72351477 63.2174123 -70.75345802 58.88265228 C-70.77154853 55.54364412 -70.76576516 52.20500138 -70.75281906 48.86598206 C-70.74948984 47.26802893 -70.75355514 45.67004234 -70.76521683 44.0721283 C-70.77795577 41.83601357 -70.75851204 39.60238512 -70.73071289 37.36645508 C-70.72673492 36.095802 -70.72275696 34.82514893 -70.71865845 33.51599121 C-69.91798305 29.30529684 -68.38456201 27.82209492 -65.08374023 25.17700195 C-62.6496582 24.50170898 -62.6496582 24.50170898 -60.07592773 24.43481445 C-59.10131592 24.40057373 -58.1267041 24.36633301 -57.12255859 24.33105469 C-56.07849854 24.32146729 -55.03443848 24.31187988 -53.95874023 24.30200195 C-52.87665283 24.27501221 -51.79456543 24.24802246 -50.6796875 24.22021484 C-38.13908746 23.98962643 -25.60538538 24.52940661 -13.08374023 25.17700195 C-13.09421387 24.59208984 -13.1046875 24.00717773 -13.11547852 23.40454102 C-13.15714288 20.74540532 -13.18309925 18.08633842 -13.20874023 15.42700195 C-13.22549805 14.50661133 -13.24225586 13.5862207 -13.25952148 12.63793945 C-13.2659668 11.74848633 -13.27241211 10.8590332 -13.27905273 9.94262695 C-13.28952637 9.12568359 -13.3 8.30874023 -13.31079102 7.46704102 C-13.05813805 4.91877776 -12.44508759 3.33580376 -11.08374023 1.17700195 C-7.66861064 -0.53056285 -3.75865353 0.01129087 0 0 Z M-1.08374023 11.17700195 C-1.08374023 15.79700195 -1.08374023 20.41700195 -1.08374023 25.17700195 C25.64625977 25.17700195 52.37625977 25.17700195 79.91625977 25.17700195 C79.91625977 20.55700195 79.91625977 15.93700195 79.91625977 11.17700195 C53.18625977 11.17700195 26.45625977 11.17700195 -1.08374023 11.17700195 Z " fill="#C5A28B" transform="translate(355.083740234375,306.822998046875)"/>
<path d="M0 0 C3.97838682 3.23842428 7.19877308 7.04234689 10.4375 11 C11.39462891 12.07507813 11.39462891 12.07507813 12.37109375 13.171875 C28.46110014 31.86513779 32.21835471 53.98231209 30.4375 78 C28.80276525 91.83280761 21.51353717 106.46902557 12.4375 117 C11.87933594 117.7115625 11.32117188 118.423125 10.74609375 119.15625 C5.25508556 125.85092386 -1.29296031 130.45875943 -8.5625 135 C-9.71105469 135.72509766 -9.71105469 135.72509766 -10.8828125 136.46484375 C-16.5941621 139.66852193 -22.81638253 141.45226693 -29.0625 143.3125 C-29.94099609 143.57957764 -30.81949219 143.84665527 -31.72460938 144.12182617 C-37.80280979 145.84250986 -43.26461974 146.35926633 -49.5625 146 C-50.26745605 145.96124756 -50.97241211 145.92249512 -51.69873047 145.88256836 C-74.64555319 144.25296343 -94.27446986 134.9707451 -110.25 118.3125 C-125.35141817 100.83375661 -131.10277203 78.71901245 -129.5625 56 C-127.18162166 33.72625663 -115.56777477 15.13838499 -98.875 0.75 C-69.8682319 -21.24565353 -29.47890308 -20.78859061 0 0 Z " fill="#DE593F" transform="translate(137.5625,347)"/>
<path d="M0 0 C34.65 0 69.3 0 105 0 C105 3.63 105 7.26 105 11 C106.70349609 10.7834375 106.70349609 10.7834375 108.44140625 10.5625 C120.47806969 9.18565746 132.47512754 8.75793765 144.58004761 8.70043945 C146.30462891 8.69188124 148.0291933 8.67829121 149.75369263 8.65942383 C163.0438764 8.52958007 174.62661912 8.69055562 185 18 C185.58265625 18.47953125 186.1653125 18.9590625 186.765625 19.453125 C193.90229244 25.81826082 198.69944827 35.23507617 201.9375 44.125 C203.02854397 46.77677502 203.61363255 47.76832343 206.09765625 49.2578125 C207.67619182 49.90976052 209.26903409 50.52826892 210.875 51.109375 C213.92951279 52.38957521 215.32012545 54.20020909 217 57 C220.81397832 68.29489001 215.73523116 85.03084214 214.09863281 96.53955078 C213.62710955 99.860144 213.1645828 103.18190098 212.703125 106.50390625 C211.23997983 116.9417658 209.6624601 127.32127113 207.63867188 137.66552734 C206.61041492 143.03400343 205.84286543 148.43783794 205.09570312 153.8515625 C204.21675322 159.78324678 204.21675322 159.78324678 202 162 C198.875 161.625 198.875 161.625 196 161 C193.80084328 155.40731696 193.20121271 149.79619276 192.5 143.875 C191.39296119 134.8127931 191.39296119 134.8127931 189.875 125.8125 C188.95376176 120.68625495 188.79871205 115.62966961 188.625 110.4375 C188.27658888 100.32392637 186.3861414 90.81092558 184 81 C183.44820068 81.19698486 182.89640137 81.39396973 182.32788086 81.59692383 C166.28763709 87.15815448 149.75192637 87.32425344 132.9375 87.4375 C132.05474396 87.44953461 131.17198792 87.46156921 130.26248169 87.47396851 C115.50295204 87.64587138 101.91584087 85.53506338 87.64111328 81.89208984 C82.06257874 80.5253227 76.69866755 80.26297233 71 81 C67.80996117 82.93921761 67.80996117 82.93921761 66 86 C65.2575 87.03125 64.515 88.0625 63.75 89.125 C61.53994179 92.75580991 60.87476172 95.32517445 60.87060547 99.49291992 C60.86587723 100.85660957 60.86587723 100.85660957 60.86105347 102.24784851 C60.8630777 103.23211319 60.86510193 104.21637787 60.8671875 105.23046875 C60.86623077 106.25368729 60.86527405 107.27690582 60.86428833 108.33113098 C60.86360686 110.50582948 60.86545883 112.68053 60.86962891 114.85522461 C60.87490642 118.12944333 60.86972022 121.40352034 60.86328125 124.67773438 C60.86332171 126.79947957 60.86460937 128.92122513 60.8671875 131.04296875 C60.86836578 132.59647537 60.86836578 132.59647537 60.86956787 134.18136597 C60.90825127 141.50530028 61.34913142 148.70586604 62.17626953 155.98168945 C62 159 62 159 60.17919922 161.42651367 C58 163 58 163 55.375 162.875 C53 162 53 162 51 160 C50.37827433 158.14297499 49.83852183 156.25808613 49.34375 154.36328125 C49.04339844 153.22826172 48.74304688 152.09324219 48.43359375 150.92382812 C48.12550781 149.73208984 47.81742188 148.54035156 47.5 147.3125 C46.88579029 144.9751622 46.27121703 142.63791991 45.65625 140.30078125 C45.37007812 139.20588379 45.08390625 138.11098633 44.7890625 136.98291016 C43.90493112 133.64060903 42.97153531 130.31779307 42 127 C38.58343976 126.83322718 38.58343976 126.83322718 35 127 C34.34 127.66 33.68 128.32 33 129 C30.49079154 129.17495606 28.09375059 129.23169569 25.5859375 129.1953125 C24.49147812 129.19106766 24.49147812 129.19106766 23.37490845 129.18673706 C21.04143972 129.17553002 18.70835297 129.1504251 16.375 129.125 C14.79427637 129.11497085 13.21354673 129.10584489 11.6328125 129.09765625 C7.75494231 129.07728928 3.87789938 129.03814327 0 129 C0 123.06 0 117.12 0 111 C12.54 111 25.08 111 38 111 C37.67 109.35 37.34 107.7 37 106 C37 103.03 37 100.06 37 97 C24.79 97 12.58 97 0 97 C0 91.39 0 85.78 0 80 C12.21 80 24.42 80 37 80 C37.66 75.05 38.32 70.1 39 65 C41.44067797 54.11864407 41.44067797 54.11864407 44 49 C29.48 49 14.96 49 0 49 C0 43.39 0 37.78 0 32 C1.61898193 32.03665771 3.23796387 32.07331543 4.90600586 32.11108398 C10.9384429 32.23821478 16.97076262 32.31830368 23.00415039 32.38452148 C25.61047305 32.4196262 28.21665882 32.46732266 30.82250977 32.52807617 C34.57863201 32.61342629 38.33292547 32.65279125 42.08984375 32.68359375 C43.82475319 32.73778725 43.82475319 32.73778725 45.5947113 32.79307556 C54.27529141 32.79724615 57.47504674 30.62790216 64 25 C67.96 23.02 71.92 21.04 76 19 C50.92 18.67 25.84 18.34 0 18 C0 12.06 0 6.12 0 0 Z " fill="#465C6A" transform="translate(118,60)"/>
<path d="M0 0 C0.94156952 -0.0065712 1.88313904 -0.0131424 2.85324097 -0.01991272 C5.97711256 -0.03966627 9.1009361 -0.05131114 12.22485352 -0.0612793 C13.28943346 -0.06535482 14.3540134 -0.06943035 15.45085335 -0.07362938 C21.08230522 -0.09449604 26.71373266 -0.10879681 32.34521484 -0.11816406 C38.1742485 -0.12924704 44.00290235 -0.16366711 49.83180141 -0.20333576 C54.3038252 -0.22942005 58.77575724 -0.23784846 63.24785042 -0.24144554 C65.39732499 -0.24633048 67.54679496 -0.25799823 69.6961956 -0.27648354 C72.69881636 -0.30070732 75.70043745 -0.29994101 78.703125 -0.29296875 C80.04276558 -0.31218384 80.04276558 -0.31218384 81.4094696 -0.33178711 C87.36749118 -0.2811741 87.36749118 -0.2811741 89.97377014 1.89485168 C91.05177205 4.50513226 91.26083403 6.34027557 91.20922852 9.16137695 C91.19956055 10.09594727 91.18989258 11.03051758 91.17993164 11.9934082 C91.15479492 12.96149414 91.1296582 13.92958008 91.10375977 14.92700195 C91.08345703 16.40233398 91.08345703 16.40233398 91.06274414 17.9074707 C91.02744702 20.3312061 90.97814031 22.75382341 90.91625977 25.17700195 C91.58389343 25.16811951 92.2515271 25.15923706 92.93939209 25.15008545 C99.88211514 25.06165722 106.82467848 25.00128619 113.76782227 24.95727539 C116.35968523 24.9371482 118.95150272 24.9098438 121.54321289 24.87524414 C125.26663425 24.82677694 128.98945576 24.80404379 132.71313477 24.78637695 C134.45394318 24.75540924 134.45394318 24.75540924 136.22991943 24.72381592 C137.31073792 24.72351379 138.3915564 24.72321167 139.50512695 24.72290039 C140.93075958 24.70957672 140.93075958 24.70957672 142.38519287 24.69598389 C145.66500563 25.31929779 146.82627439 26.63574367 148.91625977 29.17700195 C150.36754478 32.07957198 150.05159455 34.61572308 150.06152344 37.8581543 C150.06488205 38.54452469 150.06824066 39.23089508 150.07170105 39.93806458 C150.08122024 42.21304115 150.08315472 44.48794419 150.08422852 46.76293945 C150.08744072 48.34233633 150.09080476 49.92173291 150.09431458 51.50112915 C150.10030847 54.81496877 150.10215424 58.1287823 150.1015625 61.44262695 C150.10146093 65.68860345 150.11510669 69.93441252 150.13233471 74.18034935 C150.14345526 77.44372322 150.14548168 80.70705666 150.14495277 83.97044754 C150.14613305 85.53573813 150.15055753 87.10102976 150.15828514 88.66630173 C150.16808507 90.8566737 150.165207 93.0466827 150.15917969 95.23706055 C150.16060471 96.48345306 150.16202972 97.72984558 150.16349792 99.01400757 C149.92676353 102.04262402 149.74398799 103.76618495 147.91625977 106.17700195 C143.72514388 107.53715427 139.46730988 107.30926008 135.10864258 107.29052734 C134.22048355 107.29067337 133.33232452 107.2908194 132.41725159 107.29096985 C129.48460438 107.29027376 126.55202086 107.28249553 123.61938477 107.2746582 C121.58485957 107.27279295 119.55033392 107.27136955 117.51580811 107.27037048 C112.16301227 107.26655379 106.8102436 107.25673071 101.4574585 107.2456665 C95.99451057 107.23543418 90.53155826 107.23086896 85.06860352 107.22583008 C74.35114367 107.21510771 63.63370398 107.19804143 52.91625977 107.17700195 C52.8651001 107.78680908 52.81394043 108.39661621 52.76123047 109.02490234 C52.68477295 109.82919678 52.60831543 110.63349121 52.52954102 111.4621582 C52.45775635 112.25759033 52.38597168 113.05302246 52.31201172 113.87255859 C51.71442439 117.35227902 50.18101583 119.52400199 47.91625977 122.17700195 C43.73377488 124.71981247 39.69213066 125.01153995 34.91625977 124.17700195 C31.84564009 122.46331587 29.5117525 120.36798743 27.91625977 117.17700195 C27.83115771 115.21764156 27.8090832 113.25537401 27.81860352 111.29418945 C27.82182617 110.12758789 27.82504883 108.96098633 27.82836914 107.7590332 C27.8409375 105.92405273 27.8409375 105.92405273 27.85375977 104.05200195 C27.85827148 102.82094727 27.8627832 101.58989258 27.86743164 100.3215332 C27.87924636 97.27333556 27.89718226 94.22516279 27.91625977 91.17700195 C31.87625977 91.17700195 35.83625977 91.17700195 39.91625977 91.17700195 C39.91625977 69.39700195 39.91625977 47.61700195 39.91625977 25.17700195 C53.11625977 25.17700195 66.31625977 25.17700195 79.91625977 25.17700195 C79.91625977 20.55700195 79.91625977 15.93700195 79.91625977 11.17700195 C53.18625977 11.17700195 26.45625977 11.17700195 -1.08374023 11.17700195 C-1.08374023 15.79700195 -1.08374023 20.41700195 -1.08374023 25.17700195 C-5.04374023 25.17700195 -9.00374023 25.17700195 -13.08374023 25.17700195 C-13.13771072 21.92677963 -13.17739978 18.67745442 -13.20874023 15.42700195 C-13.22549805 14.50661133 -13.24225586 13.5862207 -13.25952148 12.63793945 C-13.2659668 11.74848633 -13.27241211 10.8590332 -13.27905273 9.94262695 C-13.28952637 9.12568359 -13.3 8.30874023 -13.31079102 7.46704102 C-13.05813805 4.91877776 -12.44508759 3.33580376 -11.08374023 1.17700195 C-7.66861064 -0.53056285 -3.75865353 0.01129087 0 0 Z " fill="#C5A28A" transform="translate(355.083740234375,306.822998046875)"/>
<path d="M0 0 C0.65077296 2.04009755 1.29539824 4.08215669 1.9375 6.125 C2.47697266 7.83042969 2.47697266 7.83042969 3.02734375 9.5703125 C4.53417043 14.88354071 5.08586884 19.88039727 5.23999023 25.3684082 C5.59974856 37.49480768 7.48292823 49.21907124 9.52880859 61.15820312 C10.51128163 67.08358455 11.26344241 73.03969845 12 79 C13.9914056 79.38133299 15.99279077 79.71325582 18 80 C20.18580219 77.81419781 19.98309132 73.27862229 20.4375 70.25 C20.57091797 69.39341797 20.70433594 68.53683594 20.84179688 67.65429688 C21.44585777 63.75854183 22.0280959 59.86274884 22.53515625 55.953125 C22.68855469 54.81359375 22.84195313 53.6740625 23 52.5 C23.185625 50.99953125 23.185625 50.99953125 23.375 49.46875 C24.0722219 46.71472349 24.72717454 45.66893464 27 44 C29.875 43.5 29.875 43.5 33 44 C36.99235327 46.90352965 38.82865784 49.8302497 39.78125 54.703125 C40.69047852 64.25002449 38.47540233 73.88320629 32.5 81.5 C29.41716043 84.58283957 27.75569399 85.9738736 23.375 86.0390625 C22.59125 86.02617187 21.8075 86.01328125 21 86 C20.71503662 86.78310547 20.71503662 86.78310547 20.42431641 87.58203125 C11.82354965 110.89853129 -0.10672159 132.03880795 -22.875 144.25 C-34.23159702 149.43817169 -44.35884521 152 -57 152 C-57 103.82 -57 55.64 -57 6 C-48.09 5.67 -39.18 5.34 -30 5 C-20.97262634 3.90143072 -9.11980885 0 0 0 Z " fill="#C5A18A" transform="translate(302,141)"/>
<path d="M0 0 C-0.66 0.33 -1.32 0.66 -2 1 C-2.00142502 2.02872726 -2.00285004 3.05745453 -2.00431824 4.11735535 C-2.02099047 13.81395341 -2.0637709 23.51013193 -2.13209057 33.20650768 C-2.166376 38.19152527 -2.19147297 43.17623588 -2.19555664 48.16137695 C-2.19983625 52.97272329 -2.22827089 57.78337698 -2.27343178 62.59450722 C-2.28641759 64.42965981 -2.29071062 66.26489524 -2.28615379 68.10008812 C-2.28125536 70.67189621 -2.30730425 73.24167398 -2.34057617 75.81323242 C-2.33195053 76.57136734 -2.32332489 77.32950226 -2.31443787 78.11061096 C-2.4009733 82.10269916 -2.85189944 83.819232 -5.41621399 86.94917297 C-9.91579119 90.52061987 -13.57685327 90.13571838 -19.13134766 90.11352539 C-20.07773605 90.11367142 -21.02412445 90.11381744 -21.99919128 90.1139679 C-25.13750475 90.11326942 -28.27575937 90.10548002 -31.4140625 90.09765625 C-33.58596769 90.09579184 -35.75787329 90.09436805 -37.92977905 90.09336853 C-43.65414587 90.08954516 -49.37848742 90.07971639 -55.10284424 90.06866455 C-61.96689329 90.05665095 -68.83095077 90.05204733 -75.69500732 90.04621124 C-86.13002246 90.03650456 -96.56498215 90.01734672 -107 90 C-107 66.24 -107 42.48 -107 18 C-102.545 15.525 -102.545 15.525 -98 13 C-95.51383602 8.72690566 -94.76029045 4.82648672 -94 0 C-82.18695669 -0.1537215 -70.37385823 -0.30190319 -58.56065655 -0.4429636 C-53.07563656 -0.50863489 -47.59065425 -0.5762323 -42.10571289 -0.64819336 C-36.81492128 -0.71753699 -31.52409053 -0.78187105 -26.23319435 -0.84269524 C-24.21211335 -0.86681718 -22.19105327 -0.89276067 -20.17001915 -0.92053413 C-17.34474331 -0.95905203 -14.51946325 -0.9911604 -11.6940918 -1.02172852 C-10.85396042 -1.03467453 -10.01382904 -1.04762054 -9.14823914 -1.06095886 C-5.8292148 -1.09130944 -3.17289079 -1.05763026 0 0 Z " fill="#D4B69E" transform="translate(502,414)"/>
<path d="M0 0 C5.721434 0.08437873 11.44300411 0.15893217 17.16455078 0.2352066 C25.78106935 0.35113722 34.39732797 0.47924494 43.01373291 0.60510254 C43.01373291 22.38510254 43.01373291 44.16510254 43.01373291 66.60510254 C38.72373291 66.60510254 34.43373291 66.60510254 30.01373291 66.60510254 C30.01373291 72.21510254 30.01373291 77.82510254 30.01373291 83.60510254 C18.10479566 83.71805099 6.19621397 83.8097887 -5.71313763 83.8641634 C-11.24310386 83.89026018 -16.77268475 83.92566036 -22.3024292 83.9822998 C-27.63870342 84.03661571 -32.97460693 84.06652246 -38.31113625 84.07948875 C-40.3473475 84.08872932 -42.38353841 84.10677411 -44.4195919 84.13375282 C-47.27128355 84.17003729 -50.12144239 84.17504811 -52.97332764 84.17272949 C-53.8156192 84.19070587 -54.65791077 84.20868225 -55.52572632 84.22720337 C-59.65611452 84.19085205 -61.52278012 83.92496276 -65.00914001 81.51896667 C-67.47284738 77.88798684 -67.61955788 75.78594956 -67.63323975 71.41564941 C-67.64200134 70.71094009 -67.65076294 70.00623077 -67.65979004 69.28016663 C-67.6817193 66.96076085 -67.6672569 64.64327619 -67.65032959 62.32385254 C-67.65369965 60.70629512 -67.65855386 59.08874018 -67.66482544 57.47119141 C-67.6721879 54.08508131 -67.66151228 50.69963179 -67.63812256 47.31359863 C-67.60963415 42.97878186 -67.62604162 38.64551288 -67.65598488 34.31075287 C-67.67407539 30.97174471 -67.66829201 27.63310196 -67.65534592 24.29408264 C-67.6520167 22.69612951 -67.656082 21.09814293 -67.66774368 19.50022888 C-67.68048262 17.26411415 -67.66103889 15.0304857 -67.63323975 12.79455566 C-67.62926178 11.52390259 -67.62528381 10.25324951 -67.6211853 8.9440918 C-66.81513944 4.70515451 -65.35593243 3.22396827 -61.98626709 0.60510254 C-58.92651688 0.02241488 -56.42972534 -0.20786018 -53.35345459 -0.23474121 C-52.42411102 -0.25987289 -51.49476746 -0.28500458 -50.53726196 -0.31089783 C-33.70049239 -0.65418958 -16.83589232 -0.25320367 0 0 Z " fill="#D4B69E" transform="translate(351.98626708984375,331.3948974609375)"/>
<path d="M0 0 C4.20634791 0.89384893 7.40573022 2.97875751 11 5.25 C17.45471554 9.24086566 23.86889476 12.35737441 31 15 C31 15.66 31 16.32 31 17 C30.35450195 17.0093457 29.70900391 17.01869141 29.04394531 17.02832031 C26.11186056 17.08209101 23.18135992 17.1657234 20.25 17.25 C18.72632813 17.27126953 18.72632813 17.27126953 17.171875 17.29296875 C16.1921875 17.32519531 15.2125 17.35742188 14.203125 17.390625 C13.30239258 17.41157227 12.40166016 17.43251953 11.47363281 17.45410156 C8.14252423 18.1892337 7.09322595 19.3169476 5 22 C4.38647822 25.31028025 4.38647822 25.31028025 4.46655273 29.07592773 C4.45793716 29.78049103 4.44932159 30.48505432 4.44044495 31.21096802 C4.41777779 33.53555238 4.42452474 35.8589318 4.43359375 38.18359375 C4.42835812 39.80258034 4.42208186 41.42156387 4.41481018 43.0405426 C4.40440442 46.43252929 4.40896916 49.82409653 4.42358398 53.21606445 C4.44076508 57.55871271 4.41728727 61.90003701 4.38209438 66.2425375 C4.36011104 69.58580765 4.36156412 72.92876151 4.3698597 76.27208138 C4.37067886 77.87283848 4.36382205 79.47361889 4.34908867 81.0743084 C4.33162541 83.31525362 4.34619563 85.55382704 4.36889648 87.79467773 C4.36985825 89.06834702 4.37082001 90.3420163 4.37181091 91.65428162 C4.70289062 95.17666193 4.70289062 95.17666193 7.50120544 97.45509338 C10.29219822 100.29759037 10.58926222 101.79001257 10.65223694 105.70692444 C10.63889816 106.43850266 10.62555939 107.17008087 10.61181641 107.92382812 C10.61748123 108.70656601 10.62314606 109.48930389 10.62898254 110.29576111 C10.64245154 112.87474927 10.62156386 115.45232389 10.6015625 118.03125 C10.60706384 119.82817547 10.61518949 121.62509465 10.62582397 123.42199707 C10.64870255 128.1482781 10.64449214 132.87409649 10.63201904 137.60040283 C10.61370769 145.16490166 10.62367322 152.72912966 10.65787888 160.29356384 C10.66398047 162.93326382 10.65072635 165.57238187 10.63589478 168.21203613 C10.63884312 169.83341624 10.64249801 171.45479526 10.64697266 173.07617188 C10.63768234 173.80775009 10.62839203 174.53932831 10.61882019 175.29307556 C10.6531711 179.69783914 11.28471661 182.49817617 14 186 C17.27081131 187.63540565 20.89217828 187.18051325 24.48876953 187.20532227 C25.36688293 187.21522186 26.24499634 187.22512146 27.14971924 187.23532104 C30.06072262 187.26698274 32.97174235 187.29171191 35.8828125 187.31640625 C37.89778067 187.33697175 39.91274449 187.35796811 41.92770386 187.37937927 C47.23773681 187.43464171 52.54780897 187.48403257 57.85791016 187.53222656 C63.27379862 187.58241115 68.68962997 187.63811308 74.10546875 187.69335938 C84.73693041 187.80099197 95.3684416 187.9024256 106 188 C106 188.33 106 188.66 106 189 C58.48 189 10.96 189 -38 189 C-43.82527613 175.01933728 -43.82527613 175.01933728 -45.89453125 168.6640625 C-46.13161301 167.93738373 -46.36869476 167.21070496 -46.61296082 166.46200562 C-47.10404219 164.94572307 -47.5920256 163.42843367 -48.0769043 161.91015625 C-48.56710637 160.38732471 -49.06646645 158.86741067 -49.57495117 157.35058594 C-52.65174096 148.1706882 -54.78863711 140.03053505 -54.14480591 130.24163818 C-53.96969927 127.53093568 -53.84275066 124.81928303 -53.71459961 122.10595703 C-53.43319441 116.35162762 -53.1103715 110.60042806 -52.77319336 104.84912109 C-52.5621909 101.24471995 -52.35777576 97.63998917 -52.15429688 94.03515625 C-52.02121942 91.71612365 -51.88776877 89.39711242 -51.75390625 87.078125 C-51.6934462 86.01434631 -51.63298615 84.95056763 -51.57069397 83.85455322 C-51.24089834 78.27341351 -50.80289244 72.72186716 -50.22059631 67.16146851 C-48.85059643 53.73780083 -47.59278092 41.29980533 -56.4453125 30.390625 C-58 28 -58 28 -57.66796875 26.01953125 C-55.19255534 23.02236795 -52.27286815 20.78237979 -49.1875 18.4375 C-48.57068359 17.95603516 -47.95386719 17.47457031 -47.31835938 16.97851562 C-43.99586523 14.41161526 -40.66228594 12.07180747 -37 10 C-34.41359791 12.07954636 -31.83144261 14.16430156 -29.25 16.25 C-28.52039063 16.83652344 -27.79078125 17.42304688 -27.0390625 18.02734375 C-23.52031409 20.8743311 -20.10802298 23.69568083 -17 27 C-17.97453125 28.43279297 -17.97453125 28.43279297 -18.96875 29.89453125 C-19.8138073 31.19967531 -20.65748369 32.5057142 -21.5 33.8125 C-21.92925781 34.43576172 -22.35851562 35.05902344 -22.80078125 35.70117188 C-25.23791752 39.55029979 -26.25272912 42.45517663 -26.15966797 47.03759766 C-26.14164124 48.00770279 -26.1236145 48.97780792 -26.1050415 49.97731018 C-25.93372558 54.90712238 -25.70031232 59.82944272 -25.4140625 64.75390625 C-25.35221771 65.8530687 -25.29037292 66.95223114 -25.22665405 68.08470154 C-25.09532071 70.40510506 -24.96245338 72.72542223 -24.828125 75.0456543 C-24.62855714 78.5009128 -24.4349778 81.95646689 -24.2421875 85.41210938 C-23.57947645 97.12442554 -22.83402747 108.8287233 -21.9609375 120.52734375 C-21.88026031 121.63614395 -21.79958313 122.74494415 -21.71646118 123.88734436 C-21.63777802 124.90928391 -21.55909485 125.93122345 -21.47802734 126.98413086 C-21.40981781 127.8830455 -21.34160828 128.78196014 -21.27133179 129.70811462 C-21.05967327 132.15848162 -21.05967327 132.15848162 -20 135 C-9.24680048 94.55571996 -1.94620481 53.64747462 -0.4375 11.75 C-0.37272461 10.04263672 -0.37272461 10.04263672 -0.30664062 8.30078125 C-0.20201199 5.53393504 -0.0998311 2.76702274 0 0 Z " fill="#E6694E" transform="translate(281,315)"/>
<path d="M0 0 C47.97142857 0 47.97142857 0 58 9 C58.58265625 9.47953125 59.1653125 9.9590625 59.765625 10.453125 C66.90229244 16.81826082 71.69944827 26.23507617 74.9375 35.125 C76.02854397 37.77677502 76.61363255 38.76832343 79.09765625 40.2578125 C80.67619182 40.90976052 82.26903409 41.52826892 83.875 42.109375 C86.92951279 43.38957521 88.32012545 45.20020909 90 48 C93.81397832 59.29489001 88.73523116 76.03084214 87.09863281 87.53955078 C86.62710955 90.860144 86.1645828 94.18190098 85.703125 97.50390625 C84.23997983 107.9417658 82.6624601 118.32127113 80.63867188 128.66552734 C79.61041492 134.03400343 78.84286543 139.43783794 78.09570312 144.8515625 C77.21675322 150.78324678 77.21675322 150.78324678 75 153 C71.875 152.625 71.875 152.625 69 152 C66.80084328 146.40731696 66.20121271 140.79619276 65.5 134.875 C64.39296119 125.8127931 64.39296119 125.8127931 62.875 116.8125 C61.95376176 111.68625495 61.79871205 106.62966961 61.625 101.4375 C61.27658888 91.32392637 59.3861414 81.81092558 57 72 C56.45907715 72.19698486 55.9181543 72.39396973 55.36083984 72.59692383 C37.40882037 78.89111224 18.96422563 78 0 78 C0 52.26 0 26.52 0 0 Z " fill="#3B4C56" transform="translate(245,69)"/>
<path d="M0 0 C0 15.51 0 31.02 0 47 C4.69550152 42.89143617 9.15322119 38.96965074 13.5 34.5625 C14.3559375 33.69753906 15.211875 32.83257812 16.09375 31.94140625 C17.03734375 30.98041016 17.03734375 30.98041016 18 30 C21.23861303 31.44424635 23.61969163 33.25772247 26.25 35.625 C26.95640625 36.25664062 27.6628125 36.88828125 28.390625 37.5390625 C29.18726562 38.26222656 29.18726562 38.26222656 30 39 C29.77539016 42.31057479 28.81876882 43.16771513 26.33203125 45.46899414 C25.16167929 46.41123472 23.98828469 47.34970374 22.8125 48.28515625 C6.32239368 61.61134732 6.32239368 61.61134732 -1.078125 80.63671875 C-1.66636544 89.09799177 -1.06961037 97.60015125 0 106 C-12.35791564 106.22541262 -21.71830456 102.90941924 -32 96 C-32.65742187 95.56042969 -33.31484375 95.12085938 -33.9921875 94.66796875 C-44.47339516 86.67423664 -50.80146262 73.7627459 -53 61 C-54.92562246 45.11002216 -50.80744678 31.41564879 -41.22265625 18.62890625 C-30.55767923 5.69571326 -16.44564333 0 0 0 Z " fill="#E7664A" transform="translate(88,359)"/>
<path d="M0 0 C4.20634791 0.89384893 7.40573022 2.97875751 11 5.25 C17.45471554 9.24086566 23.86889476 12.35737441 31 15 C31 15.66 31 16.32 31 17 C30.35450195 17.0093457 29.70900391 17.01869141 29.04394531 17.02832031 C26.11186056 17.08209101 23.18135992 17.1657234 20.25 17.25 C18.72632813 17.27126953 18.72632813 17.27126953 17.171875 17.29296875 C16.1921875 17.32519531 15.2125 17.35742188 14.203125 17.390625 C13.30239258 17.41157227 12.40166016 17.43251953 11.47363281 17.45410156 C8.14252423 18.1892337 7.09322595 19.3169476 5 22 C4.38647822 25.31028025 4.38647822 25.31028025 4.46655273 29.07592773 C4.45793716 29.78049103 4.44932159 30.48505432 4.44044495 31.21096802 C4.41777779 33.53555238 4.42452474 35.8589318 4.43359375 38.18359375 C4.42835812 39.80258034 4.42208186 41.42156387 4.41481018 43.0405426 C4.40440442 46.43252929 4.40896916 49.82409653 4.42358398 53.21606445 C4.44076508 57.55871271 4.41728727 61.90003701 4.38209438 66.2425375 C4.36011104 69.58580765 4.36156412 72.92876151 4.3698597 76.27208138 C4.37067886 77.87283848 4.36382205 79.47361889 4.34908867 81.0743084 C4.33162541 83.31525362 4.34619563 85.55382704 4.36889648 87.79467773 C4.36985825 89.06834702 4.37082001 90.3420163 4.37181091 91.65428162 C4.70289062 95.17666193 4.70289062 95.17666193 7.50120544 97.45509338 C10.29219822 100.29759037 10.58926222 101.79001257 10.65223694 105.70692444 C10.63889816 106.43850266 10.62555939 107.17008087 10.61181641 107.92382812 C10.61748123 108.70656601 10.62314606 109.48930389 10.62898254 110.29576111 C10.64245154 112.87474927 10.62156386 115.45232389 10.6015625 118.03125 C10.60706384 119.82817547 10.61518949 121.62509465 10.62582397 123.42199707 C10.64870255 128.1482781 10.64449214 132.87409649 10.63201904 137.60040283 C10.61370769 145.16490166 10.62367322 152.72912966 10.65787888 160.29356384 C10.66398047 162.93326382 10.65072635 165.57238187 10.63589478 168.21203613 C10.63884312 169.83341624 10.64249801 171.45479526 10.64697266 173.07617188 C10.63303719 174.1735392 10.63303719 174.1735392 10.61882019 175.29307556 C10.6531711 179.69783914 11.28471661 182.49817617 14 186 C17.27081131 187.63540565 20.89217828 187.18051325 24.48876953 187.20532227 C25.36688293 187.21522186 26.24499634 187.22512146 27.14971924 187.23532104 C30.06072262 187.26698274 32.97174235 187.29171191 35.8828125 187.31640625 C37.89778067 187.33697175 39.91274449 187.35796811 41.92770386 187.37937927 C47.23773681 187.43464171 52.54780897 187.48403257 57.85791016 187.53222656 C63.27379862 187.58241115 68.68962997 187.63811308 74.10546875 187.69335938 C84.73693041 187.80099197 95.3684416 187.9024256 106 188 C106 188.33 106 188.66 106 189 C58.81 189 11.62 189 -37 189 C-36.1200312 184.60015598 -34.89930515 180.55884962 -33.41796875 176.34765625 C-32.89256911 174.83268542 -32.3671788 173.31771135 -31.84179688 171.80273438 C-31.02020915 169.44647819 -30.19734949 167.09067137 -29.3737793 164.73510742 C-25.93989007 154.89767576 -22.71286025 145.06675426 -20 135 C-19.57956421 133.45082886 -19.57956421 133.45082886 -19.15063477 131.87036133 C-8.65729691 92.54746893 -1.90361472 52.46472684 -0.4375 11.75 C-0.37272461 10.04263672 -0.37272461 10.04263672 -0.30664062 8.30078125 C-0.20201199 5.53393504 -0.0998311 2.76702274 0 0 Z " fill="#3E4E58" transform="translate(281,315)"/>
<path d="M0 0 C0.06993164 1.23637207 0.13986328 2.47274414 0.21191406 3.74658203 C1.60137524 27.97669735 3.11565914 52.02104887 7 76 C7.16161621 77.04269043 7.32323242 78.08538086 7.48974609 79.15966797 C12.44584953 110.646952 20.69723286 141.8394669 31.20336914 171.90795898 C31.45021957 172.61602188 31.69707001 173.32408478 31.95140076 174.05360413 C32.61371366 175.94235517 33.28617974 177.82753748 33.95947266 179.71240234 C34.94153088 182.81526392 35.55616349 185.78050177 36 189 C31.13495441 185.08200468 27.03173316 180.98058865 23.1875 176.0625 C22.67251953 175.40773682 22.15753906 174.75297363 21.62695312 174.07836914 C8.13046106 156.70225968 -3.00642769 137.35649354 -11.21777344 116.93408203 C-12.05189655 114.871684 -12.92103655 112.82567898 -13.7890625 110.77734375 C-17.47480697 101.85780104 -19.23253123 95.78755898 -15.66796875 86.546875 C-14.22991801 82.58893253 -13.2145239 79.24231952 -13 75 C-15.24271249 71.21458667 -17.41624876 68.92751784 -20.671875 65.9765625 C-24.8661266 60.6141133 -23.06051233 53.4701333 -22.28897095 46.98429871 C-22.18587616 46.16834732 -22.08278137 45.35239594 -21.9765625 44.51171875 C-21.87032562 43.64609818 -21.76408875 42.7804776 -21.65463257 41.8886261 C-21.43040948 40.07571438 -21.20337597 38.26314819 -20.97363281 36.45092773 C-20.62388556 33.6786664 -20.28804262 30.9049468 -19.953125 28.13085938 C-19.73260596 26.36187486 -19.51128027 24.59299067 -19.2890625 22.82421875 C-19.19001617 21.99814621 -19.09096985 21.17207367 -18.98892212 20.32096863 C-18.03557287 12.96260128 -18.03557287 12.96260128 -16 10 C-13.5390625 8.18359375 -13.5390625 8.18359375 -10.625 6.4375 C-8.01429546 4.85770709 -2.9742059 0 0 0 Z " fill="#475C6A" transform="translate(206,314)"/>
<path d="M0 0 C16.5 0 33 0 50 0 C50 16.17 50 32.34 50 49 C33.5 49 17 49 0 49 C0 32.83 0 16.66 0 0 Z " fill="#F9D22D" transform="translate(41,219)"/>
<path d="M0 0 C16.5 0 33 0 50 0 C50 16.17 50 32.34 50 49 C33.5 49 17 49 0 49 C0 32.83 0 16.66 0 0 Z " fill="#E7664B" transform="translate(41,140)"/>
<path d="M0 0 C16.5 0 33 0 50 0 C50 16.17 50 32.34 50 49 C33.5 49 17 49 0 49 C0 32.83 0 16.66 0 0 Z " fill="#6FAC44" transform="translate(41,60)"/>
<path d="M0 0 C34.65 0 69.3 0 105 0 C105 3.63 105 7.26 105 11 C105.99 11.495 105.99 11.495 107 12 C106.44127197 12.10546143 105.88254395 12.21092285 105.30688477 12.31958008 C102.72416641 12.81085368 100.14337279 13.3116249 97.5625 13.8125 C96.24475586 14.0609668 96.24475586 14.0609668 94.90039062 14.31445312 C93.59038086 14.5706543 93.59038086 14.5706543 92.25390625 14.83203125 C91.46314697 14.98389893 90.6723877 15.1357666 89.85766602 15.29223633 C87.14997498 15.87884777 87.14997498 15.87884777 85.2986908 16.73893738 C77.21098816 20.08342795 68.63216786 19.26888648 60.05859375 19.07421875 C58.32269917 19.04614463 56.58678163 19.01945867 54.85084534 18.99409485 C50.30830038 18.9240299 45.76631146 18.83525268 41.22418213 18.74243164 C36.57868102 18.65085859 31.93289879 18.57718333 27.28710938 18.50195312 C18.19102266 18.35204421 9.09552739 18.18068908 0 18 C0 12.06 0 6.12 0 0 Z " fill="#2288B7" transform="translate(118,60)"/>
<path d="M0 0 C3.3 0 6.6 0 10 0 C10 47.85 10 95.7 10 145 C7.68920356 141.53380534 6.53537489 137.99879216 5.25 134.078125 C4.9912207 133.29991394 4.73244141 132.52170288 4.46582031 131.71990967 C3.91911829 130.07308523 3.37457423 128.42554305 2.83203125 126.77734375 C2.00720587 124.27188825 1.1760992 121.76858979 0.34375 119.265625 C-0.18787173 117.66158149 -0.71913325 116.05741854 -1.25 114.453125 C-1.61883301 113.34025116 -1.61883301 113.34025116 -1.99511719 112.20489502 C-7.46110787 95.58215765 -5.83929204 80.00780259 -4.828125 62.72802734 C-4.62788598 59.29941541 -4.43452672 55.87046939 -4.2421875 52.44140625 C-3.58207233 40.84393376 -2.83520045 29.25527197 -1.9609375 17.671875 C-1.88026031 16.58747131 -1.79958313 15.50306763 -1.71646118 14.38580322 C-1.34035461 9.54258273 -0.92552185 4.77655559 0 0 Z " fill="#D8523A" transform="translate(233,358)"/>
<path d="M0 0 C0.33 0 0.66 0 1 0 C2.51576602 31.91529558 -0.74237088 92.61355631 -19 120 C-20.1325128 114.15329267 -20.51949317 108.26936519 -20.9609375 102.33984375 C-21.0902919 100.62691383 -21.0902919 100.62691383 -21.22225952 98.87937927 C-22.0827439 87.25966971 -22.78359993 75.63199755 -23.43261719 63.9987793 C-23.62786658 60.51129806 -23.82936638 57.02421222 -24.03125 53.53710938 C-24.15922379 51.27606256 -24.28684146 49.01499555 -24.4140625 46.75390625 C-24.50308334 45.22244713 -24.50308334 45.22244713 -24.59390259 43.66004944 C-24.86140732 38.78795056 -25.06900928 33.91637704 -25.15966797 29.03759766 C-25.18599808 27.74107773 -25.18599808 27.74107773 -25.21286011 26.41836548 C-24.8448589 22.23739695 -22.83524546 19.2031642 -20.5 15.8125 C-20.07074219 15.14669922 -19.64148438 14.48089844 -19.19921875 13.79492188 C-18.15493037 12.18207648 -17.08060287 10.58874351 -16 9 C-12.56049636 9.61198376 -10.48435515 10.92058847 -7.75 13.0625 C-7.04359375 13.61035156 -6.3371875 14.15820312 -5.609375 14.72265625 C-5.07828125 15.14417969 -4.5471875 15.56570313 -4 16 C-3.87882812 15.34773438 -3.75765625 14.69546875 -3.6328125 14.0234375 C-2.71056011 9.21353658 -1.69832723 4.60974535 0 0 Z " fill="#E5E4E6" transform="translate(279,333)"/>
<path d="M0 0 C1.90389849 2.85584773 2.69462177 4.9311762 3.625 8.1875 C4.01558594 9.53908203 4.01558594 9.53908203 4.4140625 10.91796875 C4.60742188 11.60503906 4.80078125 12.29210937 5 13 C9.04420651 11.22054913 12.46078487 8.60470327 16 6 C26.0796331 18.47954574 26.12962829 29.43357891 25 45 C24.89921143 46.49805176 24.89921143 46.49805176 24.79638672 48.02636719 C24.43747383 53.23442225 24.01911324 58.43537878 23.57421875 63.63671875 C22.70607143 74.17092743 22.22615473 84.73025873 21.69775391 95.28588867 C21.31231167 102.88131784 20.85432772 110.43957774 20 118 C17.53541302 114.30311953 16.76251026 110.58947743 15.7578125 106.328125 C15.54930161 105.46225266 15.34079071 104.59638031 15.1259613 103.70426941 C14.45118268 100.88796821 13.78698011 98.06933532 13.125 95.25 C12.89867889 94.2918338 12.67235779 93.3336676 12.43917847 92.34646606 C5.33550374 62.20478646 -0.57125117 31.10145255 0 0 Z " fill="#D3D5D8" transform="translate(207,335)"/>
<path d="M0 0 C0.94156952 -0.0065712 1.88313904 -0.0131424 2.85324097 -0.01991272 C5.97711256 -0.03966627 9.1009361 -0.05131114 12.22485352 -0.0612793 C13.28943346 -0.06535482 14.3540134 -0.06943035 15.45085335 -0.07362938 C21.08230522 -0.09449604 26.71373266 -0.10879681 32.34521484 -0.11816406 C38.1742485 -0.12924704 44.00290235 -0.16366711 49.83180141 -0.20333576 C54.3038252 -0.22942005 58.77575724 -0.23784846 63.24785042 -0.24144554 C65.39732499 -0.24633048 67.54679496 -0.25799823 69.6961956 -0.27648354 C72.69881636 -0.30070732 75.70043745 -0.29994101 78.703125 -0.29296875 C80.04276558 -0.31218384 80.04276558 -0.31218384 81.4094696 -0.33178711 C87.41613454 -0.28076087 87.41613454 -0.28076087 89.97079468 2.05751038 C91.10218617 4.59380153 91.25998069 6.38692494 91.20922852 9.16137695 C91.19956055 10.09594727 91.18989258 11.03051758 91.17993164 11.9934082 C91.15479492 12.96149414 91.1296582 13.92958008 91.10375977 14.92700195 C91.08345703 16.40233398 91.08345703 16.40233398 91.06274414 17.9074707 C91.02745173 20.33088272 90.97364636 22.75401245 90.91625977 25.17700195 C87.28625977 25.17700195 83.65625977 25.17700195 79.91625977 25.17700195 C79.91625977 20.55700195 79.91625977 15.93700195 79.91625977 11.17700195 C53.18625977 11.17700195 26.45625977 11.17700195 -1.08374023 11.17700195 C-1.08374023 15.79700195 -1.08374023 20.41700195 -1.08374023 25.17700195 C-5.04374023 25.17700195 -9.00374023 25.17700195 -13.08374023 25.17700195 C-13.13771072 21.92677963 -13.17739978 18.67745442 -13.20874023 15.42700195 C-13.22549805 14.50661133 -13.24225586 13.5862207 -13.25952148 12.63793945 C-13.2659668 11.74848633 -13.27241211 10.8590332 -13.27905273 9.94262695 C-13.28952637 9.12568359 -13.3 8.30874023 -13.31079102 7.46704102 C-13.05813805 4.91877776 -12.44508759 3.33580376 -11.08374023 1.17700195 C-7.66861064 -0.53056285 -3.75865353 0.01129087 0 0 Z " fill="#3B4C56" transform="translate(355.083740234375,306.822998046875)"/>
<path d="M0 0 C0.33 0 0.66 0 1 0 C1.00586624 0.67794113 1.01173248 1.35588226 1.01777649 2.05436707 C1.08171579 9.11114535 1.16613745 16.16746781 1.26245117 23.22387695 C1.29570325 25.85727936 1.32373424 28.49075309 1.34643555 31.12426758 C1.37997529 34.90997711 1.4322932 38.69503289 1.48828125 42.48046875 C1.49467117 43.65772018 1.5010611 44.83497162 1.50764465 46.04789734 C1.53733589 47.69904289 1.53733589 47.69904289 1.56762695 49.38354492 C1.58428154 50.83249397 1.58428154 50.83249397 1.60127258 52.31071472 C2.07340917 55.49512069 3.12421309 57.40406137 5 60 C8.27081131 61.63540565 11.89217828 61.18051325 15.48876953 61.20532227 C16.36688293 61.21522186 17.24499634 61.22512146 18.14971924 61.23532104 C21.06072262 61.26698274 23.97174235 61.29171191 26.8828125 61.31640625 C28.89778067 61.33697175 30.91274449 61.35796811 32.92770386 61.37937927 C38.23773681 61.43464171 43.54780897 61.48403257 48.85791016 61.53222656 C54.27379862 61.58241115 59.68962997 61.63811308 65.10546875 61.69335938 C75.73693041 61.80099197 86.3684416 61.9024256 97 62 C97 62.33 97 62.66 97 63 C49.81 63 2.62 63 -46 63 C-45.67 62.01 -45.34 61.02 -45 60 C-44.34 60 -43.68 60 -43 60 C-24.59985762 44.09864238 -10.54405797 21.6922026 0 0 Z " fill="#4A5E6A" transform="translate(290,441)"/>
<path d="M0 0 C3.20610865 1.5325904 5.60129099 3.24116189 8.25 5.625 C8.95640625 6.25664062 9.6628125 6.88828125 10.390625 7.5390625 C10.92171875 8.02117187 11.4528125 8.50328125 12 9 C11.41710597 12.47687821 10.25337803 14.11474055 7.76538086 16.57519531 C7.08475082 17.25559875 6.40412079 17.9360022 5.7028656 18.63702393 C4.96431839 19.36008728 4.22577118 20.08315063 3.46484375 20.828125 C2.71159317 21.57713074 1.95834259 22.32613647 1.18226624 23.09783936 C-1.22571044 25.48902044 -3.64390745 27.86956165 -6.0625 30.25 C-7.69664738 31.86910177 -9.33011955 33.48888532 -10.96289062 35.109375 C-14.96745846 39.08086182 -18.98046807 43.0436621 -23 47 C-24.11287909 46.04755896 -25.22555027 45.09487499 -26.33813477 44.14208984 C-26.95777603 43.61159027 -27.5774173 43.0810907 -28.21583557 42.53451538 C-35.08393053 36.627438 -41.67460555 30.48441275 -48 24 C-46.52278578 20.54798361 -44.56205999 18.35038064 -41.875 15.75 C-41.15054688 15.04359375 -40.42609375 14.3371875 -39.6796875 13.609375 C-39.12539062 13.07828125 -38.57109375 12.5471875 -38 12 C-34.31930113 13.53643852 -32.01224796 15.78150945 -29.25 18.625 C-28.45078125 19.44226563 -27.6515625 20.25953125 -26.828125 21.1015625 C-26.22484375 21.72804688 -25.6215625 22.35453125 -25 23 C-21.23396131 21.43717018 -18.86360849 19.0936525 -16.015625 16.2109375 C-15.55516785 15.74765045 -15.09471069 15.2843634 -14.62030029 14.80703735 C-13.15874922 13.33434102 -11.70432832 11.85482597 -10.25 10.375 C-9.25697389 9.37193678 -8.26348911 8.36932743 -7.26953125 7.3671875 C-4.84102059 4.91669165 -2.41885325 2.4600333 0 0 Z " fill="#FEFBFA" transform="translate(106,389)"/>
<path d="M0 0 C0.66 0 1.32 0 2 0 C6.68194109 9.03769414 7.57214994 16.18327201 6.8125 26.25 C6.74224609 27.48363281 6.67199219 28.71726562 6.59960938 29.98828125 C6.42481852 32.99468395 6.22461767 35.99698036 6 39 C5.67 39 5.34 39 5 39 C4.67 37.35 4.34 35.7 4 34 C3.79503906 34.75925781 3.59007812 35.51851563 3.37890625 36.30078125 C3.10949219 37.29464844 2.84007812 38.28851563 2.5625 39.3125 C2.29566406 40.29863281 2.02882813 41.28476562 1.75390625 42.30078125 C1.21920575 44.21517526 0.62855462 46.11433615 0 48 C-4.46678254 46.74371741 -7.13403012 44.24633976 -10.48046875 41.20703125 C-13.64631098 38.43385162 -16.93463223 35.84110987 -20.25 33.25 C-20.85255615 32.77828369 -21.4551123 32.30656738 -22.07592773 31.82055664 C-22.65415283 31.3693042 -23.23237793 30.91805176 -23.828125 30.453125 C-24.37533203 30.02580078 -24.92253906 29.59847656 -25.48632812 29.15820312 C-26.77443279 28.1725953 -28.09515707 27.22985729 -29.421875 26.296875 C-29.94265625 25.86890625 -30.4634375 25.4409375 -31 25 C-31 24.34 -31 23.68 -31 23 C-29.03228485 21.45657343 -27.06201455 20.03327875 -25 18.625 C-23.72401324 17.73485804 -22.44932751 16.8428489 -21.17578125 15.94921875 C-20.4998291 15.47532715 -19.82387695 15.00143555 -19.12744141 14.51318359 C-15.43296566 11.8854167 -11.8103061 9.16281583 -8.1875 6.4375 C-7.48818359 5.9130127 -6.78886719 5.38852539 -6.06835938 4.84814453 C-2.91676467 2.56306781 -2.91676467 2.56306781 0 0 Z " fill="#B5B9BD" transform="translate(275,301)"/>
<path d="M0 0 C17.82 0 35.64 0 54 0 C54 5.61 54 11.22 54 17 C36.18 17 18.36 17 0 17 C0 11.39 0 5.78 0 0 Z " fill="#1E87B7" transform="translate(118,251)"/>
<path d="M0 0 C5.05513432 -0.11488942 10.10573223 -0.21438301 15.16113281 -0.2746582 C16.88003901 -0.29978367 18.59883856 -0.33389047 20.31738281 -0.37719727 C22.78998114 -0.43794029 25.26116606 -0.46622762 27.734375 -0.48828125 C28.50118591 -0.51408768 29.26799683 -0.5398941 30.05804443 -0.56648254 C32.24121094 -0.56762695 32.24121094 -0.56762695 36 0 C38.36425781 2.49243164 38.36425781 2.49243164 40 5 C42.43433135 5.69016796 42.43433135 5.69016796 45 5.75 C49.56654911 6.42353232 49.56654911 6.42353232 51.5390625 9.046875 C52.85888162 12.02833689 54 14.71243474 54 18 C36.18 18 18.36 18 0 18 C0 12.06 0 6.12 0 0 Z " fill="#2489B8" transform="translate(118,219)"/>
<path d="M0 0 C4.87731417 3.12998978 9.37400579 6.60384577 13.875 10.25 C14.56335938 10.80429687 15.25171875 11.35859375 15.9609375 11.9296875 C17.64242881 13.28422217 19.32146867 14.64179907 21 16 C20.06385433 17.72990025 19.12602042 19.45888696 18.1875 21.1875 C17.66542969 22.15042969 17.14335937 23.11335938 16.60546875 24.10546875 C16.07566406 25.06066406 15.54585938 26.01585937 15 27 C14.66871094 27.92039062 14.33742188 28.84078125 13.99609375 29.7890625 C11.0639623 33.0367854 8.26478682 32.90750458 4.01147461 33.15136719 C-9.0526867 33.30186893 -9.0526867 33.30186893 -12.99169922 30.66845703 C-16.51088586 27.00304082 -18.640577 22.86530336 -20 18 C-19.18758174 13.57683391 -14.53257479 11.00879626 -11.125 8.4375 C-10.18720703 7.71530273 -10.18720703 7.71530273 -9.23046875 6.97851562 C-6.17198537 4.62807438 -3.09143529 2.30692533 0 0 Z " fill="#E7664B" transform="translate(243,325)"/>
<path d="M0 0 C17.82 0 35.64 0 54 0 C52.069797 3.860406 49.86825327 7.23235023 47.4375 10.78125 C45.79177045 13.23143959 45.79177045 13.23143959 44 17 C29.48 17 14.96 17 0 17 C0 11.39 0 5.78 0 0 Z " fill="#1E86B6" transform="translate(118,92)"/>
<path d="M0 0 C3.54505099 1.14111083 6.92604026 2.39594886 10.3125 3.9375 C17.58284208 6.91934537 25.27831193 7.77433523 33 9 C33 19.23 33 29.46 33 40 C25.12288229 35.49878988 25.12288229 35.49878988 21.66015625 32.9765625 C20.90669922 32.43 20.15324219 31.8834375 19.37695312 31.3203125 C18.61318359 30.76085937 17.84941406 30.20140625 17.0625 29.625 C15.92264648 28.79742187 15.92264648 28.79742187 14.75976562 27.953125 C13.24369166 26.85005496 11.73459482 25.73732659 10.23291016 24.61474609 C8.02086813 22.97377525 8.02086813 22.97377525 5.66943359 21.56103516 C0.34172852 18.12841189 0.34172852 18.12841189 -0.62475586 14.93701172 C-0.78701301 12.61276036 -0.70447753 10.44503355 -0.5 8.125 C-0.46390625 7.34125 -0.4278125 6.5575 -0.390625 5.75 C-0.29702486 3.83119716 -0.15353632 1.91493914 0 0 Z " fill="#C6A28A" transform="translate(210,284)"/>
<path d="M0 0 C7.92 0 15.84 0 24 0 C24.1081173 4.04238572 24.18738513 8.0818685 24.25 12.125 C24.30027344 13.83816406 24.30027344 13.83816406 24.3515625 15.5859375 C24.47673857 26.35107918 24.47673857 26.35107918 20 31 C16.02479311 33.71036834 11.64814629 33.81221933 7 33 C3.92938032 31.28631391 1.59549274 29.19098548 0 26 C-0.08510205 24.0406396 -0.10717656 22.07837206 -0.09765625 20.1171875 C-0.09443359 18.95058594 -0.09121094 17.78398437 -0.08789062 16.58203125 C-0.07951172 15.35871094 -0.07113281 14.13539063 -0.0625 12.875 C-0.05798828 11.64394531 -0.05347656 10.41289062 -0.04882812 9.14453125 C-0.03701341 6.09633361 -0.0190775 3.04816084 0 0 Z " fill="#475D6B" transform="translate(383,398)"/>
<path d="M0 0 C0.33 0 0.66 0 1 0 C1.19916016 1.21236328 1.19916016 1.21236328 1.40234375 2.44921875 C1.57894531 3.51785156 1.75554687 4.58648437 1.9375 5.6875 C2.11152344 6.74324219 2.28554687 7.79898438 2.46484375 8.88671875 C2.93167121 11.60249604 3.44422616 14.30124235 4 17 C2.88625 17.12375 1.7725 17.2475 0.625 17.375 C-3.03103677 17.6465813 -3.03103677 17.6465813 -5 20 C-7.50920846 20.17495606 -9.90624941 20.23169569 -12.4140625 20.1953125 C-13.14370209 20.1924826 -13.87334167 20.18965271 -14.62509155 20.18673706 C-16.95856028 20.17553002 -19.29164703 20.1504251 -21.625 20.125 C-23.20572363 20.11497085 -24.78645327 20.10584489 -26.3671875 20.09765625 C-30.24505769 20.07728928 -34.12210062 20.03814327 -38 20 C-38 14.06 -38 8.12 -38 2 C-25.46 2 -12.92 2 0 2 C0 1.34 0 0.68 0 0 Z " fill="#2389B7" transform="translate(156,169)"/>
<path d="M0 0 C12.21 0 24.42 0 37 0 C37 5.61 37 11.22 37 17 C24.79 17 12.58 17 0 17 C0 11.39 0 5.78 0 0 Z " fill="#1E86B6" transform="translate(118,140)"/>
<path d="M0 0 C3.22475475 1.93485285 5.91085374 3.60616867 8.76953125 5.91796875 C9.43017578 6.44970703 10.09082031 6.98144531 10.77148438 7.52929688 C11.44501953 8.07650391 12.11855469 8.62371094 12.8125 9.1875 C13.50537109 9.74630859 14.19824219 10.30511719 14.91210938 10.88085938 C16.61031334 12.2511343 18.30546593 13.62518934 20 15 C19.06385433 16.72990025 18.12602042 18.45888696 17.1875 20.1875 C16.66542969 21.15042969 16.14335937 22.11335938 15.60546875 23.10546875 C15.07566406 24.06066406 14.54585938 25.01585937 14 26 C13.66613281 26.94488281 13.33226562 27.88976562 12.98828125 28.86328125 C12.33214844 29.56839844 11.67601562 30.27351563 11 31 C7.37 31 3.74 31 0 31 C0 20.77 0 10.54 0 0 Z " fill="#D8533A" transform="translate(244,326)"/>
<path d="M0 0 C2 2 2 2 2.3125 4.9375 C2 8 2 8 0.875 9.875 C-1.88090884 11.52854531 -3.85075452 11.39365568 -7 11 C-8.875 9.875 -8.875 9.875 -10 8 C-10.39310741 4.85514075 -10.47555213 2.86718329 -8.9375 0.0625 C-5.81651045 -1.6490104 -3.35466116 -0.79291991 0 0 Z " fill="#E0E1E3" transform="translate(399,413)"/>
<path d="M0 0 C0.33 0 0.66 0 1 0 C1 8.58 1 17.16 1 26 C2.65 26 4.3 26 6 26 C6 26.33 6 26.66 6 27 C4.35 27 2.7 27 1 27 C1.33 42.51 1.66 58.02 2 74 C1.34 74 0.68 74 0 74 C0 58.49 0 42.98 0 27 C-1.65 27 -3.3 27 -5 27 C-5 26.67 -5 26.34 -5 26 C-3.35 26 -1.7 26 0 26 C0 17.42 0 8.84 0 0 Z " fill="#E05B40" transform="translate(88,332)"/>
<path d="M0 0 C0.33 0 0.66 0 1 0 C1 11.55 1 23.1 1 35 C1.66 35.33 2.32 35.66 3 36 C2.34 36 1.68 36 1 36 C1 44.58 1 53.16 1 62 C0.67 62 0.34 62 0 62 C0 53.42 0 44.84 0 36 C-0.99 35.67 -1.98 35.34 -3 35 C-2.01 35 -1.02 35 0 35 C0 23.45 0 11.9 0 0 Z " fill="#E05B40" transform="translate(88,430)"/>
<path d="M0 0 C1.58468677 0.45363171 3.16769924 0.91311452 4.75 1.375 C5.63171875 1.63023437 6.5134375 1.88546875 7.421875 2.1484375 C9.76080572 2.9209934 11.83442562 3.83625676 14 5 C14 5.66 14 6.32 14 7 C10.04 7 6.08 7 2 7 C1.34 4.69 0.68 2.38 0 0 Z " fill="#6B7C87" transform="translate(298,325)"/>
</svg>
