<?xml version="1.0" encoding="UTF-8"?>
<svg version="1.1" xmlns="http://www.w3.org/2000/svg" width="512" height="512">
<path d="M0 0 C2.9576473 2.29217666 3.81597278 3.44791835 5 7 C5.03954234 9.33299825 5.04401732 11.66708189 5 14 C6.98 14 8.96 14 11 14 C11.33 15.65 11.66 17.3 12 19 C8.77208445 21.1519437 7.71599191 21.20086443 4 21 C4.24995493 23.93630876 4.24995493 23.93630876 6 27 C14.14790953 31.75541629 23.13659793 32.19601065 32.34179688 32.4296875 C37.62622332 32.66830694 37.62622332 32.66830694 39.72387695 34.52978516 C40.14499756 35.01495605 40.56611816 35.50012695 41 36 C39.66016214 39.30708144 38.27244771 42.59189367 36.875 45.875 C36.49601562 46.81214844 36.11703125 47.74929687 35.7265625 48.71484375 C32.72142116 55.67675453 32.72142116 55.67675453 28.765625 57.44921875 C27.85296875 57.63097656 26.9403125 57.81273437 26 58 C24.82917122 60.92914165 24.82917122 60.92914165 24 64 C21.9453125 65.69140625 21.9453125 65.69140625 20 67 C20.144375 67.65484375 20.28875 68.3096875 20.4375 68.984375 C24.01162589 86.5571606 21.71668594 104.81337465 12.00390625 120.15234375 C6.65184071 127.78271976 6.65184071 127.78271976 3 129 C3.03480469 129.76699219 3.06960938 130.53398437 3.10546875 131.32421875 C3.63038704 152.84586882 -1.16487334 175.15633542 -8.18408203 195.41796875 C-8.56806152 196.52785156 -8.95204102 197.63773438 -9.34765625 198.78125 C-9.70996338 199.76158203 -10.07227051 200.74191406 -10.44555664 201.75195312 C-11.66911732 208.91983129 -8.41573356 216.15833975 -6.078125 222.875 C-5.78538193 223.72947723 -5.49263885 224.58395447 -5.19102478 225.46432495 C-4.55159312 227.32912903 -3.90998636 229.1931884 -3.26644897 231.05657959 C-1.86118849 235.12591558 -0.46663941 239.19889784 0.92854309 243.271698 C1.6933176 245.50407251 2.45862208 247.73626551 3.22441101 249.96829224 C7.96693027 263.79872922 12.64912179 277.64958001 17.33288574 291.5 C18.55731929 295.1207835 19.78244473 298.74133237 21.00785923 302.36178398 C21.93779423 305.10931002 22.86751919 307.8569071 23.79717827 310.60452652 C24.43625411 312.49328174 25.07543276 314.38200217 25.71461487 316.27072144 C26.47383727 318.51558487 27.23222475 320.76073094 27.98957825 323.00622559 C28.63394457 324.91541588 29.28073527 326.82379082 29.93070984 328.7310791 C30.20236465 329.53315796 30.47401947 330.33523682 30.75390625 331.16162109 C31.10171143 332.18284561 31.10171143 332.18284561 31.45654297 333.22470093 C32.20728662 335.67713863 32.56628853 337.47702344 32 340 C29.98828125 341.765625 29.98828125 341.765625 27.3125 343.25 C26.44238281 343.75015625 25.57226562 344.2503125 24.67578125 344.765625 C22.08283387 345.96178759 19.81267847 346.57429731 17 347 C17.3609375 348.05960937 17.721875 349.11921875 18.09375 350.2109375 C18.56265793 351.59890499 19.03139931 352.98692875 19.5 354.375 C19.73847656 355.07367188 19.97695313 355.77234375 20.22265625 356.4921875 C22 361.7734375 22 361.7734375 22 364 C17.71006667 365.50499009 13.41777842 367.00314637 9.125 368.5 C7.90167969 368.92925781 6.67835938 369.35851562 5.41796875 369.80078125 C3.66806641 370.40986328 3.66806641 370.40986328 1.8828125 371.03125 C0.80402832 371.40830078 -0.27475586 371.78535156 -1.38623047 372.17382812 C-4 373 -4 373 -6 373 C-6.17016853 368.57561829 -6.00025858 365.88285489 -4 362 C-3.5311656 359.33640239 -3.26945451 356.69454509 -3 354 C-3.66644531 354.144375 -4.33289063 354.28875 -5.01953125 354.4375 C-11.7796403 355.79897651 -18.11953211 356.19234414 -25 356 C-28.8780104 347.95781844 -31.40001039 339.62385469 -33.94921875 331.09765625 C-34.41137054 329.56814403 -34.87409292 328.03880412 -35.33735657 326.5096283 C-36.5469843 322.51219275 -37.74995892 318.51278844 -38.95117188 314.51281738 C-40.8823169 308.08644569 -42.82376746 301.66317979 -44.7650547 295.23986626 C-45.44122677 292.99914038 -46.11459974 290.75758828 -46.78752136 288.5158844 C-47.19903405 287.14997809 -47.61059645 285.78408676 -48.0222168 284.41821289 C-48.38099411 283.22402237 -48.73977142 282.02983185 -49.10942078 280.79945374 C-49.89401623 278.08278605 -49.89401623 278.08278605 -51 276 C-51.05375793 276.97052811 -51.10751587 277.94105621 -51.16290283 278.94099426 C-51.67160166 288.07999773 -52.20024151 297.21765726 -52.74850845 306.35437489 C-53.02974734 311.05190379 -53.30390425 315.74962516 -53.56201172 320.44848633 C-53.81128524 324.98180401 -54.07898398 329.5136888 -54.35958099 334.04517174 C-54.46345962 335.7755676 -54.56065353 337.50637794 -54.65110016 339.23752785 C-54.77877907 341.65954013 -54.93000074 344.07899839 -55.08691406 346.49926758 C-55.13547295 347.57712524 -55.13547295 347.57712524 -55.18501282 348.67675781 C-55.41228772 351.83211872 -55.6137544 353.59598592 -57.83856201 355.92314148 C-60.97950247 357.48800178 -63.96283426 357.7845903 -67.4375 358.1875 C-69.38462891 358.42533203 -69.38462891 358.42533203 -71.37109375 358.66796875 C-74.28245158 358.93434702 -77.08162309 359.0731 -80 359 C-79.98839844 359.59167969 -79.97679687 360.18335938 -79.96484375 360.79296875 C-79.95130859 361.97826172 -79.95130859 361.97826172 -79.9375 363.1875 C-79.92589844 363.96480469 -79.91429687 364.74210937 -79.90234375 365.54296875 C-80.00486419 368.12238294 -80.46914924 370.47799967 -81 373 C-87.83173836 373.10179743 -94.66327959 373.17163191 -101.49560547 373.21972656 C-103.81761993 373.23978577 -106.13958423 373.26703991 -108.46142578 373.30175781 C-111.80774345 373.35052541 -115.15339059 373.37302643 -118.5 373.390625 C-119.5305249 373.41127014 -120.5610498 373.43191528 -121.62280273 373.45318604 C-127.87223983 373.45511186 -132.85732704 372.76781854 -138 369 C-145.19657796 359.95814563 -143 355.46497751 -143 342 C-215.6 342 -288.2 342 -363 342 C-363 348.6 -363 355.2 -363 362 C-366.89090327 367.83635491 -369.42745454 370.80915151 -376 373 C-380.05659623 373.24968438 -384.11328797 373.27080263 -388.17700195 373.29516602 C-390.16315908 373.31229014 -392.14902687 373.35617576 -394.13476562 373.40039062 C-401.57980992 373.44954531 -406.73370116 373.15730238 -413 369 C-417.05664649 364.73532036 -418.11696971 361.51069204 -418.17700195 355.72167969 C-418.18983719 354.64335876 -418.20267242 353.56503784 -418.21589661 352.45404053 C-418.22328354 351.2884259 -418.23067047 350.12281128 -418.23828125 348.921875 C-418.246353 347.72193909 -418.25442474 346.52200317 -418.26274109 345.28570557 C-418.27658075 342.74370773 -418.28730343 340.20169132 -418.29516602 337.65966797 C-418.31237026 333.77926247 -418.35625845 329.89971073 -418.40039062 326.01953125 C-418.41051836 323.54948543 -418.41903421 321.07943237 -418.42578125 318.609375 C-418.44328934 317.4518573 -418.46079742 316.2943396 -418.47883606 315.10174561 C-418.46089298 308.41085909 -417.80448279 304.51685036 -414 299 C-413.65593123 296.25817525 -413.65593123 296.25817525 -414.125 293.5625 C-414.24875 292.52480469 -414.3725 291.48710937 -414.5 290.41796875 C-414.84719827 288.04454309 -415.20190287 285.67220819 -415.5625 283.30078125 C-419.25104359 257.55782081 -413.90658778 236.48852412 -398.20068359 215.49194336 C-395.77904455 212.56467572 -395.77904455 212.56467572 -395 209 C-395.99 209.66 -396.98 210.32 -398 211 C-402.53196745 211.43410313 -407.07337172 211.41407449 -411.62353516 211.42553711 C-413.86081763 211.43742464 -416.09533169 211.48660008 -418.33203125 211.53710938 C-419.76040325 211.54657549 -421.18879214 211.55380963 -422.6171875 211.55859375 C-424.56020752 211.57877563 -424.56020752 211.57877563 -426.54248047 211.59936523 C-430.90184065 210.84366482 -432.35603966 209.49204067 -435 206 C-435.63110352 203.76757812 -435.63110352 203.76757812 -435.62890625 201.53125 C-435.63083984 200.71269531 -435.63277344 199.89414062 -435.63476562 199.05078125 C-435.59899414 197.78814453 -435.59899414 197.78814453 -435.5625 196.5 C-435.57345703 195.65824219 -435.58441406 194.81648437 -435.59570312 193.94921875 C-435.5466943 189.79980501 -435.34465909 187.54694368 -433.08984375 183.96875 C-428.41921182 179.56875281 -422.36395418 180.77668421 -416.30639648 180.75976562 C-414.20581089 180.75008439 -412.10621425 180.71907316 -410.00585938 180.6875 C-408.6640683 180.68096714 -407.32227023 180.67571778 -405.98046875 180.671875 C-404.76254639 180.6625293 -403.54462402 180.65318359 -402.28979492 180.64355469 C-398.71751908 181.03060647 -396.86473366 181.87956894 -394 184 C-391.39281781 187.46583501 -391.79708062 191.04235344 -391.875 195.25 C-391.89304687 196.51328125 -391.91109375 197.7765625 -391.9296875 199.078125 C-391.95289063 200.04234375 -391.97609375 201.0065625 -392 202 C-388.67796322 201.26956514 -388.67796322 201.26956514 -387.24169922 197.80737305 C-386.58518022 196.38042971 -385.94034841 194.94807514 -385.3046875 193.51171875 C-384.95570908 192.74520493 -384.60673065 191.9786911 -384.24717712 191.18894958 C-383.11347956 188.69270662 -381.9945032 186.19013624 -380.875 183.6875 C-380.10222135 181.98307759 -379.3283765 180.27913819 -378.5534668 178.57568359 C-375.34952808 171.51856328 -372.18060967 164.44735864 -369.08984375 157.33984375 C-368.6923291 156.43210205 -368.29481445 155.52436035 -367.88525391 154.58911133 C-367.19981623 153.0146638 -366.52518816 151.43543678 -365.86474609 149.8503418 C-363.14446882 143.57936372 -359.30183825 137.44870407 -352.8125 134.625 C-351.83216797 134.18027344 -351.83216797 134.18027344 -350.83203125 133.7265625 C-346.64989412 132.06797507 -343.37585412 131.86749244 -338.87976074 131.85282898 C-338.14991927 131.84915229 -337.42007779 131.8454756 -336.66811991 131.8416875 C-334.21558848 131.83064979 -331.76309943 131.82680661 -329.31054688 131.82299805 C-327.55457423 131.81673326 -325.79860292 131.81008644 -324.04263306 131.80308533 C-318.26801477 131.78203723 -312.49339621 131.77167946 -306.71875 131.76171875 C-304.72947679 131.7576709 -302.74020371 131.75355397 -300.75093079 131.74936867 C-291.40116808 131.73031215 -282.05141328 131.71608438 -272.70163488 131.7077567 C-261.91964551 131.69799442 -251.13786199 131.67170318 -240.35594511 131.63125581 C-232.01692646 131.60105016 -223.67796664 131.58628344 -215.33889437 131.58297569 C-210.36137035 131.58062947 -205.38406613 131.57172551 -200.40660095 131.54651451 C-195.71814871 131.52315216 -191.03005965 131.51903326 -186.34156418 131.52927589 C-184.62718367 131.52976945 -182.9127848 131.52350248 -181.19845963 131.50971985 C-169.16882301 131.4184724 -158.42349952 132.34645295 -148.74731445 140.27783203 C-141.5438069 147.37767027 -137.78150378 157.38694247 -133.625 166.4375 C-132.95993081 167.86885963 -132.29423704 169.29992922 -131.62792969 170.73071289 C-128.80313733 176.81303231 -126.0156606 182.90773397 -123.3515625 189.0625 C-122.98595215 189.90627197 -122.6203418 190.75004395 -122.24365234 191.61938477 C-121.60022968 193.12044084 -120.96704084 194.62594223 -120.34619141 196.13647461 C-119.64188027 197.79291006 -118.83142536 199.4035776 -118 201 C-117.01 201.33 -116.02 201.66 -115 202 C-115.04640625 200.97519531 -115.0928125 199.95039063 -115.140625 198.89453125 C-115.17816011 197.53388344 -115.21455841 196.17320395 -115.25 194.8125 C-115.30027344 193.80219727 -115.30027344 193.80219727 -115.3515625 192.77148438 C-115.42301429 189.10958025 -115.11534178 187.17849378 -113.109375 184.07421875 C-109.7940598 180.8141588 -107.72275421 180.89145156 -103.13671875 180.91210938 C-102.39035156 180.92048828 -101.64398438 180.92886719 -100.875 180.9375 C-100.12089844 180.94201172 -99.36679687 180.94652344 -98.58984375 180.95117188 C-96.72652873 180.96296501 -94.86325445 180.98090058 -93 181 C-92.87415527 179.82703369 -92.74831055 178.65406738 -92.61865234 177.44555664 C-92.11815013 173.46475586 -91.22058469 169.72996283 -90.1015625 165.87109375 C-89.91064026 165.21096786 -89.71971802 164.55084198 -89.52301025 163.87071228 C-88.89816778 161.72392312 -88.26253284 159.58055217 -87.625 157.4375 C-87.30018646 156.33489838 -87.30018646 156.33489838 -86.96881104 155.21002197 C-82.25638606 139.25361398 -76.75909863 123.6054061 -71 108 C-72.14404297 108.33064453 -73.28808594 108.66128906 -74.46679688 109.00195312 C-78.91855137 110.1115965 -82.97313495 110.12844716 -87.53125 109.96875 C-98.97251294 109.77617822 -110.15862537 111.12724223 -121.5 112.5 C-124.55103718 112.8590306 -127.60241219 113.21503152 -130.65393066 113.56994629 C-132.5318167 113.78943532 -134.40936083 114.0118754 -136.28649902 114.2376709 C-137.12588013 114.33777466 -137.96526123 114.43787842 -138.83007812 114.54101562 C-139.56552856 114.62984009 -140.300979 114.71866455 -141.05871582 114.81018066 C-143 115 -143 115 -146 115 C-147.17541342 104.62132836 -148.34903699 94.24245606 -149.52036285 83.86332226 C-150.06428634 79.04411631 -150.60883093 74.22498221 -151.15478516 69.40600586 C-151.68143377 64.75723164 -152.20646369 60.10827723 -152.73036194 55.45919228 C-152.93073132 53.68368296 -153.13168828 51.90823986 -153.33323669 50.132864 C-153.61498003 47.65018969 -153.89465141 45.16729022 -154.17382812 42.68432617 C-154.3000631 41.57841629 -154.3000631 41.57841629 -154.42884827 40.45016479 C-154.74605021 37.61331763 -155 34.85740751 -155 32 C-154.36191406 31.86722656 -153.72382813 31.73445313 -153.06640625 31.59765625 C-152.24011719 31.42105469 -151.41382813 31.24445313 -150.5625 31.0625 C-149.73878906 30.88847656 -148.91507812 30.71445313 -148.06640625 30.53515625 C-146.02338796 30.19247006 -146.02338796 30.19247006 -145 29 C-142.32941149 28.85884839 -139.67567762 28.95752893 -137 29 C-136.67 27.68 -136.34 26.36 -136 25 C-135.34 25 -134.68 25 -134 25 C-134 25.66 -134 26.32 -134 27 C-133.40574219 26.86722656 -132.81148438 26.73445313 -132.19921875 26.59765625 C-125.81489175 25.23738751 -119.50786446 24.4701499 -113 24 C-112.67 24.66 -112.34 25.32 -112 26 C-101.605 25.505 -101.605 25.505 -91 25 C-90.80664062 26.49789062 -90.61328125 27.99578125 -90.4140625 29.5390625 C-89.01138242 40.36991763 -87.5917218 51.19501788 -86 62 C-84.515 60.02 -84.515 60.02 -83 58 C-79.00146009 59.33284664 -78.21502331 61.52979682 -76 65 C-75.67 65 -75.34 65 -75 65 C-75 64.01 -75 63.02 -75 62 C-73.02 62.66 -71.04 63.32 -69 64 C-68.62302979 63.58226318 -68.24605957 63.16452637 -67.85766602 62.73413086 C-54.4817187 47.97762451 -44.39451704 38.39564651 -24 36 C-24 35.34 -24 34.68 -24 34 C-22.68 34 -21.36 34 -20 34 C-20 32.68 -20 31.36 -20 30 C-20.99 29.34 -21.98 28.68 -23 28 C-23.51171875 25.390625 -23.51171875 25.390625 -23.6875 22.25 C-23.75324219 21.22390625 -23.81898438 20.1978125 -23.88671875 19.140625 C-23.96364551 17.00789693 -23.96214794 14.87119738 -23.890625 12.73828125 C-23.69643536 9.83721829 -23.69643536 9.83721829 -26.0625 7.9375 C-26.701875 7.298125 -27.34125 6.65875 -28 6 C-27.875 3.3125 -27.875 3.3125 -27 1 C-24.2540274 -0.3729863 -22.0410953 -0.12412634 -19 0 C-18.01 0.33 -17.02 0.66 -16 1 C-14.96875 0.484375 -13.9375 -0.03125 -12.875 -0.5625 C-8.34005769 -2.66147542 -4.53519923 -1.80706198 0 0 Z M-113 208 C-113 212.32212979 -110.52725706 214.83502689 -108.0625 218.1875 C-107.35963867 219.16879883 -107.35963867 219.16879883 -106.64257812 220.16992188 C-105.4592394 221.80275905 -104.23307049 223.40438571 -103 225 C-102.67 225 -102.34 225 -102 225 C-101.34 220.38 -100.68 215.76 -100 211 C-102.3821875 210.814375 -102.3821875 210.814375 -104.8125 210.625 C-108.49342531 210.33817465 -109.83759418 210.10827055 -113 208 Z " fill="#DB5651" transform="translate(454,70)"/>
<path d="M0 0 C2.9576473 2.29217666 3.81597278 3.44791835 5 7 C5.03954234 9.33299825 5.04401732 11.66708189 5 14 C6.98 14 8.96 14 11 14 C11.33 15.65 11.66 17.3 12 19 C8.77208445 21.1519437 7.71599191 21.20086443 4 21 C4.24995493 23.93630876 4.24995493 23.93630876 6 27 C14.14790953 31.75541629 23.13659793 32.19601065 32.34179688 32.4296875 C37.62622332 32.66830694 37.62622332 32.66830694 39.72387695 34.52978516 C40.14499756 35.01495605 40.56611816 35.50012695 41 36 C39.66016214 39.30708144 38.27244771 42.59189367 36.875 45.875 C36.49601563 46.81214844 36.11703125 47.74929687 35.7265625 48.71484375 C32.72142116 55.67675453 32.72142116 55.67675453 28.765625 57.44921875 C27.85296875 57.63097656 26.9403125 57.81273437 26 58 C24.82917122 60.92914165 24.82917122 60.92914165 24 64 C21.9453125 65.69140625 21.9453125 65.69140625 20 67 C20.2165625 67.98226562 20.2165625 67.98226562 20.4375 68.984375 C24.01162589 86.5571606 21.71668594 104.81337465 12.00390625 120.15234375 C6.65184071 127.78271976 6.65184071 127.78271976 3 129 C3.03480469 129.76699219 3.06960938 130.53398437 3.10546875 131.32421875 C3.63038704 152.84586882 -1.16487334 175.15633542 -8.18408203 195.41796875 C-8.56806152 196.52785156 -8.95204102 197.63773438 -9.34765625 198.78125 C-9.70996338 199.76158203 -10.07227051 200.74191406 -10.44555664 201.75195312 C-11.66911732 208.91983129 -8.41573356 216.15833975 -6.078125 222.875 C-5.78538193 223.72947723 -5.49263885 224.58395447 -5.19102478 225.46432495 C-4.55159312 227.32912903 -3.90998636 229.1931884 -3.26644897 231.05657959 C-1.86118849 235.12591558 -0.46663941 239.19889784 0.92854309 243.271698 C1.6933176 245.50407251 2.45862208 247.73626551 3.22441101 249.96829224 C7.96693027 263.79872922 12.64912179 277.64958001 17.33288574 291.5 C18.55731929 295.1207835 19.78244473 298.74133237 21.00785923 302.36178398 C21.93779423 305.10931002 22.86751919 307.8569071 23.79717827 310.60452652 C24.43625411 312.49328174 25.07543276 314.38200217 25.71461487 316.27072144 C26.47383727 318.51558487 27.23222475 320.76073094 27.98957825 323.00622559 C28.63394457 324.91541588 29.28073527 326.82379082 29.93070984 328.7310791 C30.20236465 329.53315796 30.47401947 330.33523682 30.75390625 331.16162109 C31.10171143 332.18284561 31.10171143 332.18284561 31.45654297 333.22470093 C32.20728662 335.67713863 32.56628853 337.47702344 32 340 C29.98828125 341.765625 29.98828125 341.765625 27.3125 343.25 C26.44238281 343.75015625 25.57226562 344.2503125 24.67578125 344.765625 C22.08283387 345.96178759 19.81267847 346.57429731 17 347 C17.3609375 348.05960937 17.721875 349.11921875 18.09375 350.2109375 C18.56265793 351.59890499 19.03139931 352.98692875 19.5 354.375 C19.73847656 355.07367188 19.97695313 355.77234375 20.22265625 356.4921875 C22 361.7734375 22 361.7734375 22 364 C17.71006667 365.50499009 13.41777842 367.00314637 9.125 368.5 C7.90167969 368.92925781 6.67835938 369.35851562 5.41796875 369.80078125 C3.66806641 370.40986328 3.66806641 370.40986328 1.8828125 371.03125 C0.80402832 371.40830078 -0.27475586 371.78535156 -1.38623047 372.17382812 C-4 373 -4 373 -6 373 C-6.17016853 368.57561829 -6.00025858 365.88285489 -4 362 C-3.5311656 359.33640239 -3.26945451 356.69454509 -3 354 C-3.66644531 354.144375 -4.33289063 354.28875 -5.01953125 354.4375 C-11.7796403 355.79897651 -18.11953211 356.19234414 -25 356 C-28.8780104 347.95781844 -31.40001039 339.62385469 -33.94921875 331.09765625 C-34.41137054 329.56814403 -34.87409292 328.03880412 -35.33735657 326.5096283 C-36.5469843 322.51219275 -37.74995892 318.51278844 -38.95117188 314.51281738 C-40.8823169 308.08644569 -42.82376746 301.66317979 -44.7650547 295.23986626 C-45.44122677 292.99914038 -46.11459974 290.75758828 -46.78752136 288.5158844 C-47.19903405 287.14997809 -47.61059645 285.78408676 -48.0222168 284.41821289 C-48.38099411 283.22402237 -48.73977142 282.02983185 -49.10942078 280.79945374 C-49.89401623 278.08278605 -49.89401623 278.08278605 -51 276 C-52.65 301.74 -54.3 327.48 -56 354 C-57.98 353.34 -59.96 352.68 -62 352 C-67.44005948 351.13403556 -72.7334163 350.84067121 -78.234375 350.83203125 C-78.99365295 350.82870285 -79.75293091 350.82537445 -80.53521729 350.82194519 C-82.13187054 350.8169166 -83.72853415 350.81453559 -85.32519531 350.81469727 C-87.72999985 350.81251812 -90.13433923 350.79433902 -92.5390625 350.77539062 C-101.22485323 350.74477843 -109.46761173 351.14627458 -118 353 C-118.37659855 341.42383571 -117.3654365 330.1764264 -116.02856445 318.68603516 C-115.6897717 315.76955585 -115.36436293 312.8518216 -115.04101562 309.93359375 C-113.75970378 298.54987813 -112.16437352 287.25191004 -110.31234741 275.94818115 C-109.64556486 271.78930823 -109.10498003 267.61399917 -108.5625 263.4375 C-104.06752153 229.83146168 -104.06752153 229.83146168 -100.4921875 213.28710938 C-99.87015286 210.39662301 -99.26400644 207.50289675 -98.65625 204.609375 C-97.37154956 198.5165712 -96.05829754 192.43039005 -94.72900391 186.34716797 C-94.28606453 184.31344429 -93.8471339 182.27883468 -93.41552734 180.24267578 C-88.19658345 155.68038857 -80.14107337 131.36745378 -71 108 C-72.14404297 108.33064453 -73.28808594 108.66128906 -74.46679688 109.00195312 C-78.91855137 110.1115965 -82.97313495 110.12844716 -87.53125 109.96875 C-98.97251294 109.77617822 -110.15862537 111.12724223 -121.5 112.5 C-124.55103718 112.8590306 -127.60241219 113.21503152 -130.65393066 113.56994629 C-132.5318167 113.78943532 -134.40936083 114.0118754 -136.28649902 114.2376709 C-137.12588013 114.33777466 -137.96526123 114.43787842 -138.83007812 114.54101562 C-139.56552856 114.62984009 -140.300979 114.71866455 -141.05871582 114.81018066 C-143 115 -143 115 -146 115 C-147.17541342 104.62132836 -148.34903699 94.24245606 -149.52036285 83.86332226 C-150.06428634 79.04411631 -150.60883093 74.22498221 -151.15478516 69.40600586 C-151.68143377 64.75723164 -152.20646369 60.10827723 -152.73036194 55.45919228 C-152.93073132 53.68368296 -153.13168828 51.90823986 -153.33323669 50.132864 C-153.61498003 47.65018969 -153.89465141 45.16729022 -154.17382812 42.68432617 C-154.25798477 41.94705292 -154.34214142 41.20977966 -154.42884827 40.45016479 C-154.74605021 37.61331763 -155 34.85740751 -155 32 C-154.04287109 31.80083984 -154.04287109 31.80083984 -153.06640625 31.59765625 C-152.24011719 31.42105469 -151.41382813 31.24445313 -150.5625 31.0625 C-149.73878906 30.88847656 -148.91507812 30.71445313 -148.06640625 30.53515625 C-146.02338796 30.19247006 -146.02338796 30.19247006 -145 29 C-142.32941149 28.85884839 -139.67567762 28.95752893 -137 29 C-136.67 27.68 -136.34 26.36 -136 25 C-135.34 25 -134.68 25 -134 25 C-134 25.66 -134 26.32 -134 27 C-133.10861328 26.80083984 -133.10861328 26.80083984 -132.19921875 26.59765625 C-125.81489175 25.23738751 -119.50786446 24.4701499 -113 24 C-112.505 24.99 -112.505 24.99 -112 26 C-101.605 25.505 -101.605 25.505 -91 25 C-90.80664062 26.49789062 -90.61328125 27.99578125 -90.4140625 29.5390625 C-89.01138242 40.36991763 -87.5917218 51.19501788 -86 62 C-85.01 60.68 -84.02 59.36 -83 58 C-79.00146009 59.33284664 -78.21502331 61.52979682 -76 65 C-75.67 65 -75.34 65 -75 65 C-75 64.01 -75 63.02 -75 62 C-73.02 62.66 -71.04 63.32 -69 64 C-68.43454468 63.37339478 -68.43454468 63.37339478 -67.85766602 62.73413086 C-54.4817187 47.97762451 -44.39451704 38.39564651 -24 36 C-24 35.34 -24 34.68 -24 34 C-22.68 34 -21.36 34 -20 34 C-20 32.68 -20 31.36 -20 30 C-20.99 29.34 -21.98 28.68 -23 28 C-23.51171875 25.390625 -23.51171875 25.390625 -23.6875 22.25 C-23.75324219 21.22390625 -23.81898438 20.1978125 -23.88671875 19.140625 C-23.96364551 17.00789693 -23.96214794 14.87119738 -23.890625 12.73828125 C-23.69643536 9.83721829 -23.69643536 9.83721829 -26.0625 7.9375 C-26.701875 7.298125 -27.34125 6.65875 -28 6 C-27.875 3.3125 -27.875 3.3125 -27 1 C-24.2540274 -0.3729863 -22.0410953 -0.12412634 -19 0 C-18.01 0.33 -17.02 0.66 -16 1 C-14.96875 0.484375 -13.9375 -0.03125 -12.875 -0.5625 C-8.34005769 -2.66147542 -4.53519923 -1.80706198 0 0 Z " fill="#7EBB0A" transform="translate(454,70)"/>
<path d="M0 0 C0.66 0 1.32 0 2 0 C2.66 1.65 3.32 3.3 4 5 C4.99 4.34 5.98 3.68 7 3 C9.25132006 2.75160301 9.25132006 2.75160301 11.94503307 2.75390434 C13.48494515 2.7479312 13.48494515 2.7479312 15.05596656 2.74183738 C16.18727588 2.74766307 17.31858521 2.75348875 18.48417664 2.75949097 C19.68322075 2.75778212 20.88226487 2.75607327 22.11764365 2.75431263 C25.4516139 2.75158211 28.78535077 2.75785471 32.11929286 2.76786876 C35.71232075 2.77648832 39.30534115 2.77358416 42.89837646 2.77206421 C49.12546695 2.77101441 55.3525156 2.77730091 61.57959557 2.78853989 C70.58295331 2.80477908 79.58629077 2.81000127 88.58966158 2.81251587 C103.19626047 2.81689546 117.80283705 2.83021171 132.40942383 2.84912109 C146.6001779 2.86747307 160.79092591 2.88163291 174.98168945 2.89013672 C176.29329175 2.89092489 176.29329175 2.89092489 177.63139107 2.89172898 C182.01791201 2.89433902 186.40443299 2.89686644 190.79095399 2.89935279 C227.19398508 2.92009351 263.59699081 2.95532621 300 3 C299.84570441 5.55330177 299.68998142 8.10650327 299.53344727 10.65966797 C299.49023598 11.37716721 299.44702469 12.09466644 299.40250397 12.83390808 C299.06668996 18.28467511 298.55425355 23.6989419 297.9375 29.125 C297.07658904 37.12604278 296.76001181 44.9470631 297 53 C297.58523438 52.85852539 298.17046875 52.71705078 298.7734375 52.57128906 C307.07244986 50.79871473 315.16352786 50.69421968 323.60644531 50.73925781 C325.99570081 50.74998071 328.3842047 50.73930769 330.7734375 50.7265625 C350.41844893 50.70922447 350.41844893 50.70922447 357 54 C356.67 54.99 356.34 55.98 356 57 C351.0305787 58.86115906 346.37553866 59.34289175 341.0625 59.625 C340.03672852 59.68300781 340.03672852 59.68300781 338.99023438 59.7421875 C337.32720487 59.83522412 335.66364153 59.91863787 334 60 C334.01160156 60.59167969 334.02320313 61.18335938 334.03515625 61.79296875 C334.04417969 62.58316406 334.05320312 63.37335938 334.0625 64.1875 C334.07410156 64.96480469 334.08570313 65.74210937 334.09765625 66.54296875 C333.99513581 69.12238294 333.53085076 71.47799967 333 74 C326.16826164 74.10179743 319.33672041 74.17163191 312.50439453 74.21972656 C310.18238007 74.23978577 307.86041577 74.26703991 305.53857422 74.30175781 C302.19225655 74.35052541 298.84660941 74.37302643 295.5 74.390625 C294.4694751 74.41127014 293.4389502 74.43191528 292.37719727 74.45318604 C286.12776017 74.45511186 281.14267296 73.76781854 276 70 C268.80342204 60.95814563 271 56.46497751 271 43 C198.4 43 125.8 43 51 43 C51 49.6 51 56.2 51 63 C47.10909673 68.83635491 44.57254546 71.80915151 38 74 C33.94340377 74.24968438 29.88671203 74.27080263 25.82299805 74.29516602 C23.83684092 74.31229014 21.85097313 74.35617576 19.86523438 74.40039062 C12.42019008 74.44954531 7.26629884 74.15730238 1 70 C-3.05664649 65.73532036 -4.11696971 62.51069204 -4.17700195 56.72167969 C-4.18983719 55.64335876 -4.20267242 54.56503784 -4.21589661 53.45404053 C-4.22328354 52.2884259 -4.23067047 51.12281128 -4.23828125 49.921875 C-4.246353 48.72193909 -4.25442474 47.52200317 -4.26274109 46.28570557 C-4.27658075 43.74370773 -4.28730343 41.20169132 -4.29516602 38.65966797 C-4.31237026 34.77926247 -4.35625845 30.89971073 -4.40039062 27.01953125 C-4.41051836 24.54948543 -4.41903421 22.07943237 -4.42578125 19.609375 C-4.45204338 17.87309845 -4.45204338 17.87309845 -4.47883606 16.10174561 C-4.46112845 9.4986681 -3.91950154 5.38634457 0 0 Z " fill="#D04657" transform="translate(40,369)"/>
<path d="M0 0 C1.78128777 -0.00706376 3.56256954 -0.0158107 5.34384155 -0.02610779 C10.16616408 -0.04855865 14.98815774 -0.04567236 19.81051254 -0.03678632 C23.84138486 -0.03166721 27.87219587 -0.03897637 31.90306187 -0.04625839 C41.41361946 -0.06324328 50.92401655 -0.05970521 60.43457031 -0.04296875 C70.23679311 -0.02604182 80.03857077 -0.04189307 89.84074497 -0.07419163 C98.26732198 -0.10090267 106.69376055 -0.10815964 115.12037563 -0.09967655 C120.14859844 -0.09475263 125.17655336 -0.09693433 130.20474243 -0.11746407 C134.93276679 -0.13584539 139.66015146 -0.12983256 144.38814163 -0.10526466 C146.11989652 -0.10026488 147.85170036 -0.1037249 149.58341599 -0.11641312 C165.36245532 -0.2228517 165.36245532 -0.2228517 171.11981201 4.13267612 C177.66143632 10.71596098 180.26415666 20.08648057 183.44921875 28.59594727 C184.20457207 30.59082979 184.96235473 32.58477306 185.72085571 34.57846069 C186.22380191 35.90296217 186.72444205 37.22834166 187.2227478 38.55459595 C188.50272417 41.94856349 189.82454561 45.31648633 191.22705078 48.66186523 C191.5055336 49.33213242 191.78401642 50.0023996 192.07093811 50.69297791 C192.84316744 52.54097205 193.62737516 54.38394765 194.41235352 56.2265625 C195.52815553 59.58288902 195.59780768 62.03362552 195.51171875 65.53344727 C164.31718984 65.55623709 133.12266311 65.57394516 101.92812786 65.5845126 C98.24920437 65.58576337 94.57028089 65.58705769 90.89135742 65.58837891 C90.15891911 65.58864122 89.4264808 65.58890353 88.6718474 65.58917379 C76.79674457 65.5935306 64.92164655 65.6014182 53.04654659 65.61060006 C40.87065844 65.6199363 28.69477284 65.62550281 16.51888126 65.62753576 C8.99966564 65.62891105 1.48046364 65.63326197 -6.03874779 65.64136373 C-11.79477397 65.64725152 -17.55079133 65.64790631 -23.30681992 65.64655495 C-25.67524741 65.64683147 -28.0436754 65.64883912 -30.41209984 65.65265274 C-33.63037912 65.65758329 -36.84859879 65.65644792 -40.06687927 65.65370178 C-41.49243351 65.65807104 -41.49243351 65.65807104 -42.94678682 65.66252857 C-49.37416004 65.64756848 -49.37416004 65.64756848 -50.48828125 64.53344727 C-50.10071448 57.86758484 -48.13737853 52.31581919 -45.6640625 46.15454102 C-45.28017868 45.18364029 -44.89629486 44.21273956 -44.5007782 43.2124176 C-43.68932804 41.16915516 -42.87297626 39.12783324 -42.05200195 37.08837891 C-40.80582573 33.98351565 -39.58479482 30.86954839 -38.36523438 27.75415039 C-37.57051976 25.76201115 -36.77434375 23.77045416 -35.9765625 21.77954102 C-35.43712761 20.39489906 -35.43712761 20.39489906 -34.88679504 18.98228455 C-31.72179341 11.22193841 -28.0624563 5.07262099 -20.22852039 1.3500452 C-13.75922269 -0.57782127 -6.69543234 -0.02789585 0 0 Z " fill="#0D194D" transform="translate(127.48828125,210.466552734375)"/>
<path d="M0 0 C2.9576473 2.29217666 3.81597278 3.44791835 5 7 C5.03954234 9.33299825 5.04401732 11.66708189 5 14 C6.98 14 8.96 14 11 14 C11.495 16.475 11.495 16.475 12 19 C8.77208445 21.1519437 7.71599191 21.20086443 4 21 C4.24995493 23.93630876 4.24995493 23.93630876 6 27 C14.14790953 31.75541629 23.13659793 32.19601065 32.34179688 32.4296875 C37.62622332 32.66830694 37.62622332 32.66830694 39.72387695 34.52978516 C40.14499756 35.01495605 40.56611816 35.50012695 41 36 C39.66016214 39.30708144 38.27244771 42.59189367 36.875 45.875 C36.30652344 47.28072266 36.30652344 47.28072266 35.7265625 48.71484375 C32.72142116 55.67675453 32.72142116 55.67675453 28.765625 57.44921875 C27.85296875 57.63097656 26.9403125 57.81273437 26 58 C24.82917122 60.92914165 24.82917122 60.92914165 24 64 C21.9453125 65.69140625 21.9453125 65.69140625 20 67 C20.2165625 67.98226562 20.2165625 67.98226562 20.4375 68.984375 C24.01162589 86.5571606 21.71668594 104.81337465 12.00390625 120.15234375 C6.65184071 127.78271976 6.65184071 127.78271976 3 129 C3 129.66 3 130.32 3 131 C-4.82021925 136.04530275 -11.78270943 137.26712199 -21 136 C-25.269384 134.77424012 -29.07629601 133.06886211 -33 131 C-33.82886719 130.56558594 -34.65773438 130.13117188 -35.51171875 129.68359375 C-42.86779265 125.52581285 -49.40547338 120.24623546 -56 115 C-56.70511719 114.47535156 -57.41023438 113.95070313 -58.13671875 113.41015625 C-64.05040206 108.82539054 -68.63730625 102.08808126 -71 95 C-70.97679687 94.00871094 -70.95359375 93.01742187 -70.9296875 91.99609375 C-70.77715349 84.28621147 -70.77715349 84.28621147 -74.51171875 77.85546875 C-77.1679581 75.34322141 -80.02604947 73.12635013 -83 71 C-81.93453047 68.86906094 -80.70840281 67.63412443 -79 66 C-79.66 64.35 -80.32 62.7 -81 61 C-81.99 61 -82.98 61 -84 61 C-83.505 62.485 -83.505 62.485 -83 64 C-83.66 64.99 -84.32 65.98 -85 67 C-85.6875 64.75 -85.6875 64.75 -86 62 C-84.5625 59.6875 -84.5625 59.6875 -83 58 C-79.00146009 59.33284664 -78.21502331 61.52979682 -76 65 C-75.67 65 -75.34 65 -75 65 C-75 64.01 -75 63.02 -75 62 C-73.02 62.66 -71.04 63.32 -69 64 C-68.62302979 63.58226318 -68.24605957 63.16452637 -67.85766602 62.73413086 C-54.4817187 47.97762451 -44.39451704 38.39564651 -24 36 C-24 35.34 -24 34.68 -24 34 C-22.68 34 -21.36 34 -20 34 C-20 32.68 -20 31.36 -20 30 C-20.99 29.34 -21.98 28.68 -23 28 C-23.51171875 25.390625 -23.51171875 25.390625 -23.6875 22.25 C-23.78611328 20.71085937 -23.78611328 20.71085937 -23.88671875 19.140625 C-23.96364551 17.00789693 -23.96214794 14.87119738 -23.890625 12.73828125 C-23.69643536 9.83721829 -23.69643536 9.83721829 -26.0625 7.9375 C-26.701875 7.298125 -27.34125 6.65875 -28 6 C-27.875 3.3125 -27.875 3.3125 -27 1 C-24.2540274 -0.3729863 -22.0410953 -0.12412634 -19 0 C-18.01 0.33 -17.02 0.66 -16 1 C-14.96875 0.484375 -13.9375 -0.03125 -12.875 -0.5625 C-8.34005769 -2.66147542 -4.53519923 -1.80706198 0 0 Z " fill="#7CB70D" transform="translate(454,70)"/>
<path d="M0 0 C0.495 0.99 0.495 0.99 1 2 C11.395 1.505 11.395 1.505 22 1 C24.04633064 16.18245313 25.85320132 31.35827372 27.36254883 46.60302734 C27.69218459 49.92216971 28.0304222 53.24036727 28.36914062 56.55859375 C28.58384446 58.70307389 28.79805587 60.8476034 29.01171875 62.9921875 C29.11167648 63.96727264 29.21163422 64.94235779 29.31462097 65.94699097 C29.87269952 71.66303054 30.09306268 77.25659834 30 83 C24.08350288 85.40129136 17.99878622 85.84091541 11.70703125 86.5078125 C9.93255867 86.70333206 9.93255867 86.70333206 8.12223816 86.90280151 C5.62878295 87.17638523 3.13498225 87.44683588 0.64086914 87.71435547 C-3.18481602 88.12471211 -7.00945025 88.54390678 -10.83398438 88.96484375 C-13.25775667 89.22967816 -15.68158304 89.49401818 -18.10546875 89.7578125 C-19.25234665 89.88278107 -20.39922455 90.00774963 -21.58085632 90.13650513 C-23.17314812 90.30700882 -23.17314812 90.30700882 -24.79760742 90.48095703 C-25.73215256 90.58151398 -26.66669769 90.68207092 -27.62956238 90.78567505 C-30 91 -30 91 -33 91 C-34.17541342 80.62132836 -35.34903699 70.24245606 -36.52036285 59.86332226 C-37.06428634 55.04411631 -37.60883093 50.22498221 -38.15478516 45.40600586 C-38.68143377 40.75723164 -39.20646369 36.10827723 -39.73036194 31.45919228 C-39.93073132 29.68368296 -40.13168828 27.90823986 -40.33323669 26.132864 C-40.61498003 23.65018969 -40.89465141 21.16729022 -41.17382812 18.68432617 C-41.25798477 17.94705292 -41.34214142 17.20977966 -41.42884827 16.45016479 C-41.74605021 13.61331763 -42 10.85740751 -42 8 C-41.04287109 7.80083984 -41.04287109 7.80083984 -40.06640625 7.59765625 C-39.24011719 7.42105469 -38.41382813 7.24445313 -37.5625 7.0625 C-36.73878906 6.88847656 -35.91507812 6.71445313 -35.06640625 6.53515625 C-33.02338796 6.19247006 -33.02338796 6.19247006 -32 5 C-29.32941149 4.85884839 -26.67567762 4.95752893 -24 5 C-23.67 3.68 -23.34 2.36 -23 1 C-22.34 1 -21.68 1 -21 1 C-21 1.66 -21 2.32 -21 3 C-20.38253906 2.86722656 -19.76507813 2.73445313 -19.12890625 2.59765625 C-12.83465502 1.28515637 -6.45546379 0 0 0 Z " fill="#F6F3DB" transform="translate(341,94)"/>
<path d="M0 0 C1.19238785 -0.00700928 2.3847757 -0.01401855 3.61329651 -0.02124023 C6.87584907 -0.03581228 10.13775076 -0.0324205 13.40029335 -0.01972389 C16.818593 -0.00957873 20.23684996 -0.01899376 23.65515137 -0.02526855 C29.39501726 -0.0325406 35.13467712 -0.02296909 40.87451172 -0.00390625 C47.50538314 0.0178619 54.13576257 0.0108102 60.76662207 -0.01121187 C66.46531042 -0.0293787 72.16385088 -0.03191801 77.86255884 -0.0214572 C81.26371478 -0.01522921 84.66463965 -0.01436717 88.06578064 -0.02760315 C91.85799527 -0.03774998 95.64926228 -0.02229156 99.44140625 0 C100.56571548 -0.00809692 101.69002472 -0.01619385 102.84840393 -0.02453613 C110.40382095 0.05783458 110.40382095 0.05783458 114.42102051 2.31872559 C116.58920257 4.96781081 116.88006477 6.92770353 116.65576172 10.32373047 C115.85400181 14.36672402 114.02449559 17.75458785 112.03320312 21.33007812 C111.4521582 22.45446289 111.4521582 22.45446289 110.859375 23.6015625 C108.49511869 27.97445972 106.86366992 30.36409979 102.22070312 32.51757812 C98.81592405 32.97061067 95.43285004 32.94791553 92.00195312 32.9375 C90.4620874 32.95020432 90.4620874 32.95020432 88.89111328 32.96316528 C85.50085025 32.98654706 82.11104065 32.98755724 78.72070312 32.98632812 C76.3632794 32.99342818 74.0058574 33.00112695 71.6484375 33.00939941 C66.70893549 33.02284639 61.76959332 33.02441159 56.83007812 33.01855469 C50.49786442 33.01265385 44.16641616 33.04326605 37.83435059 33.08367157 C32.96675478 33.10950788 28.09934438 33.11242973 23.23168945 33.10877991 C20.89687168 33.11047448 18.56204565 33.12014923 16.22729492 33.13792419 C12.96415773 33.16003601 9.70258453 33.15045088 6.43945312 33.1328125 C4.99143311 33.15270737 4.99143311 33.15270737 3.51416016 33.17300415 C-1.1142388 33.11481456 -3.10715749 33.0506757 -6.83659363 30.09272766 C-9.24786484 26.89646804 -11.21205873 23.73270815 -13.09179688 20.20507812 C-13.63030273 19.26631836 -13.63030273 19.26631836 -14.1796875 18.30859375 C-16.76029963 13.51602837 -17.5625298 9.95513046 -16.77929688 4.51757812 C-12.34010258 -0.92297445 -6.44678619 -0.04642774 0 0 Z " fill="#0E184C" transform="translate(151.779296875,332.482421875)"/>
<path d="M0 0 C0.66 0 1.32 0 2 0 C2.59747227 4.10762183 3.01798112 7.99352424 2.95703125 12.14453125 C2.93282184 17.2521906 3.47605983 22.19763347 4.1875 27.25 C4.28869141 28.12140625 4.38988281 28.9928125 4.49414062 29.890625 C4.61337891 30.73625 4.73261719 31.581875 4.85546875 32.453125 C4.95496826 33.20754883 5.05446777 33.96197266 5.15698242 34.73925781 C6.45288134 38.21450367 8.03399658 39.76995666 11 42 C14.08199908 42.72290517 17.08275385 42.72164546 20.23828125 42.70703125 C21.11904831 42.72215256 21.99981537 42.73727386 22.90727234 42.75285339 C25.70927588 42.7957029 28.51020158 42.80456556 31.3125 42.8125 C33.21682547 42.8356465 35.12112536 42.86101216 37.02539062 42.88867188 C41.68368891 42.95149697 46.3413155 42.98385369 51 43 C51.11698258 46.20802233 51.18750607 49.41549025 51.25 52.625 C51.28351563 53.52863281 51.31703125 54.43226563 51.3515625 55.36328125 C51.43550483 61.11333079 50.9349822 64.48572059 47 69 C39.96598755 74.31139716 34.38230651 74.24384996 25.82299805 74.29516602 C23.83684092 74.31229014 21.85097313 74.35617576 19.86523438 74.40039062 C12.42019008 74.44954531 7.26629884 74.15730238 1 70 C-3.05664649 65.73532036 -4.11696971 62.51069204 -4.17700195 56.72167969 C-4.18983719 55.64335876 -4.20267242 54.56503784 -4.21589661 53.45404053 C-4.22328354 52.2884259 -4.23067047 51.12281128 -4.23828125 49.921875 C-4.246353 48.72193909 -4.25442474 47.52200317 -4.26274109 46.28570557 C-4.27658075 43.74370773 -4.28730343 41.20169132 -4.29516602 38.65966797 C-4.31237026 34.77926247 -4.35625845 30.89971073 -4.40039062 27.01953125 C-4.41051836 24.54948543 -4.41903421 22.07943237 -4.42578125 19.609375 C-4.45204338 17.87309845 -4.45204338 17.87309845 -4.47883606 16.10174561 C-4.46112845 9.4986681 -3.91950154 5.38634457 0 0 Z " fill="#0C184B" transform="translate(40,369)"/>
<path d="M0 0 C0.91177505 -0.0127597 1.82355011 -0.02551941 2.76295471 -0.03866577 C4.24722206 -0.04200424 4.24722206 -0.04200424 5.76147461 -0.04541016 C7.29003334 -0.05539536 7.29003334 -0.05539536 8.84947205 -0.06558228 C11.01242261 -0.07572558 13.17540458 -0.08039878 15.33837891 -0.08007812 C18.62643283 -0.08442325 21.91311401 -0.12064773 25.20092773 -0.15869141 C27.30443879 -0.16456504 29.4079562 -0.16853077 31.51147461 -0.17041016 C32.48681656 -0.18478119 33.46215851 -0.19915222 34.46705627 -0.21395874 C42.23809977 -0.16275378 47.78214726 1.94694508 54.35131836 5.97802734 C57.60408742 9.3211511 59.54802596 13.13148618 61.60131836 17.29052734 C62.03444336 18.15677734 62.46756836 19.02302734 62.91381836 19.91552734 C63.84699664 23.13923414 63.85295048 25.95640175 63.60131836 29.29052734 C61.11397708 31.77786862 60.34337807 31.55061966 56.91137695 31.58105469 C55.93631195 31.59381439 54.96124695 31.6065741 53.95663452 31.61972046 C52.36922958 31.62305893 52.36922958 31.62305893 50.74975586 31.62646484 C49.11775742 31.63645004 49.11775742 31.63645004 47.45278931 31.64663696 C45.14440606 31.65678021 42.8359934 31.66145347 40.52758789 31.66113281 C37.01129972 31.66548406 33.49628868 31.70172658 29.98022461 31.73974609 C27.73673931 31.74561841 25.49324806 31.74958502 23.24975586 31.75146484 C21.680569 31.77302139 21.680569 31.77302139 20.0796814 31.79501343 C12.51371207 31.748176 7.47335312 30.35472751 1.42944336 25.57177734 C-3.32837837 20.20156272 -6.07087019 14.36893397 -7.39868164 7.29052734 C-6.84824798 1.93144408 -5.42116749 0.05144474 0 0 Z " fill="#ECCE41" transform="translate(62.398681640625,332.70947265625)"/>
<path d="M0 0 C2.9576473 2.29217666 3.81597278 3.44791835 5 7 C5.03954234 9.33299825 5.04401732 11.66708189 5 14 C6.98 14 8.96 14 11 14 C11.495 16.475 11.495 16.475 12 19 C8.77208445 21.1519437 7.71599191 21.20086443 4 21 C4.24995493 23.93630876 4.24995493 23.93630876 6 27 C14.14790953 31.75541629 23.13659793 32.19601065 32.34179688 32.4296875 C37.62622332 32.66830694 37.62622332 32.66830694 39.72387695 34.52978516 C40.14499756 35.01495605 40.56611816 35.50012695 41 36 C39.66016214 39.30708144 38.27244771 42.59189367 36.875 45.875 C36.30652344 47.28072266 36.30652344 47.28072266 35.7265625 48.71484375 C32.72137261 55.67686699 32.72137261 55.67686699 28.7734375 57.4453125 C27.85820312 57.62835938 26.94296875 57.81140625 26 58 C24.68314723 60.9502491 24.68314723 60.9502491 24 64 C22 66 22 66 19.1875 66.0625 C15.70341618 64.90113873 15.44933046 64.5501129 13.625 61.625 C11.71276239 58.57775684 10.45084551 57.52103669 7 56.5 C2.81907417 55.23945869 1.47695554 53.3391222 -0.7734375 49.7109375 C-2.66334881 47.07469178 -5.2697863 45.67535841 -8 44 C-10.85606667 38.28786666 -9.27622438 30.11489181 -7.5 24.25 C-7.01688253 22.82748745 -6.52339804 21.40818995 -6 20 C-4.35 20 -2.7 20 -1 20 C-1.99 20.33 -2.98 20.66 -4 21 C-4 21.66 -4 22.32 -4 23 C-2.68 22.67 -1.36 22.34 0 22 C0 20.68 0 19.36 0 18 C-3.90590763 17.82245874 -6.68902394 17.79268263 -10 20 C-10.33 20.66 -10.66 21.32 -11 22 C-12.65 22 -14.3 22 -16 22 C-16 21.01 -16 20.02 -16 19 C-16.99 19.66 -17.98 20.32 -19 21 C-21.6875 20.625 -21.6875 20.625 -24 20 C-23.93039062 18.98679687 -23.93039062 18.98679687 -23.859375 17.953125 C-23.40456996 12.3332493 -23.40456996 12.3332493 -26.0625 7.6875 C-26.701875 7.130625 -27.34125 6.57375 -28 6 C-27.875 3.3125 -27.875 3.3125 -27 1 C-24.2540274 -0.3729863 -22.0410953 -0.12412634 -19 0 C-18.01 0.33 -17.02 0.66 -16 1 C-14.96875 0.484375 -13.9375 -0.03125 -12.875 -0.5625 C-8.34005769 -2.66147542 -4.53519923 -1.80706198 0 0 Z " fill="#0D194C" transform="translate(454,70)"/>
<path d="M0 0 C1.0517189 0.00328812 2.10343781 0.00657623 3.18702698 0.00996399 C5.39484917 0.02033629 7.60264518 0.04020294 9.81030273 0.0690918 C13.20506622 0.11345978 16.59912206 0.1305764 19.99414062 0.14257812 C22.1419374 0.15599079 24.28972541 0.17091059 26.4375 0.1875 C27.45718369 0.19488693 28.47686737 0.20227386 29.52745056 0.20988464 C30.93009911 0.2291375 30.93009911 0.2291375 32.36108398 0.2487793 C33.18744858 0.2586235 34.01381317 0.26846771 34.86521912 0.27861023 C36.75390625 0.42578125 36.75390625 0.42578125 37.75390625 1.42578125 C38.43035017 9.35433321 38.19074334 17.77343497 33.12890625 24.23828125 C29.54314152 28.43549141 24.50758624 31.04978502 19.08071899 31.79078674 C16.00893863 31.91944779 12.96091853 31.92808532 9.88671875 31.88671875 C8.2128157 31.88534409 8.2128157 31.88534409 6.50509644 31.88394165 C4.16025506 31.87792634 1.81542063 31.86224319 -0.52929688 31.83740234 C-4.13049349 31.80068541 -7.7306662 31.79638475 -11.33203125 31.796875 C-13.6132902 31.78705104 -15.89454216 31.7753972 -18.17578125 31.76171875 C-19.25592499 31.7594931 -20.33606873 31.75726746 -21.44894409 31.75497437 C-22.94157272 31.73583481 -22.94157272 31.73583481 -24.46435547 31.71630859 C-25.78051346 31.7048732 -25.78051346 31.7048732 -27.1232605 31.69320679 C-29.24609375 31.42578125 -29.24609375 31.42578125 -31.24609375 29.42578125 C-32.25828144 22.67786333 -29.29825261 16.33603309 -25.48046875 10.921875 C-18.08955156 2.0906019 -11.3512679 -0.19764914 0 0 Z " fill="#ECCE41" transform="translate(307.24609375,332.57421875)"/>
<path d="M0 0 C8.25 0 16.5 0 25 0 C25.33 3.3 25.66 6.6 26 10 C27.44375 9.67515625 28.8875 9.3503125 30.375 9.015625 C37.7785853 7.67425839 45.10805314 7.69925818 52.60644531 7.73925781 C54.99570081 7.74998071 57.3842047 7.73930769 59.7734375 7.7265625 C79.41844893 7.70922447 79.41844893 7.70922447 86 11 C85.67 11.99 85.34 12.98 85 14 C80.0305787 15.86115906 75.37553866 16.34289175 70.0625 16.625 C69.37865234 16.66367187 68.69480469 16.70234375 67.99023438 16.7421875 C66.32720487 16.83522412 64.66364153 16.91863787 63 17 C63.01160156 17.59167969 63.02320313 18.18335938 63.03515625 18.79296875 C63.04417969 19.58316406 63.05320312 20.37335938 63.0625 21.1875 C63.07410156 21.96480469 63.08570313 22.74210937 63.09765625 23.54296875 C62.99513581 26.12238294 62.53085076 28.47799967 62 31 C55.16826164 31.10179743 48.33672041 31.17163191 41.50439453 31.21972656 C39.18238007 31.23978577 36.86041577 31.26703991 34.53857422 31.30175781 C31.19225655 31.35052541 27.84660941 31.37302643 24.5 31.390625 C23.4694751 31.41127014 22.4389502 31.43191528 21.37719727 31.45318604 C15.12776017 31.45511186 10.14267296 30.76781854 5 27 C1.58978384 22.71536944 -0.13641413 19.23439196 -0.09765625 13.76953125 C-0.09515869 13.04612549 -0.09266113 12.32271973 -0.09008789 11.57739258 C-0.08098389 10.66497803 -0.07187988 9.75256348 -0.0625 8.8125 C-0.041875 5.904375 -0.02125 2.99625 0 0 Z " fill="#0C194B" transform="translate(311,412)"/>
<path d="M0 0 C1.86108398 0.01353516 1.86108398 0.01353516 3.75976562 0.02734375 C5.83641612 15.20201833 7.61329442 30.38892507 9.12231445 45.63037109 C9.45195022 48.94951346 9.79018783 52.26771102 10.12890625 55.5859375 C10.34361009 57.73041764 10.55782149 59.87494715 10.77148438 62.01953125 C10.87144211 62.99461639 10.97139984 63.96970154 11.0743866 64.97433472 C11.63246514 70.69037429 11.8528283 76.28394209 11.75976562 82.02734375 C5.8432685 84.42863511 -0.24144815 84.86825916 -6.53320312 85.53515625 C-8.3076757 85.73067581 -8.3076757 85.73067581 -10.11799622 85.93014526 C-12.61145142 86.20372898 -15.10525213 86.47417963 -17.59936523 86.74169922 C-21.4250504 87.15205586 -25.24968463 87.57125053 -29.07421875 87.9921875 C-31.49799104 88.25702191 -33.92181741 88.52136193 -36.34570312 88.78515625 C-37.49258102 88.91012482 -38.63945892 89.03509338 -39.8210907 89.16384888 C-41.41338249 89.33435257 -41.41338249 89.33435257 -43.0378418 89.50830078 C-43.97238693 89.60885773 -44.90693207 89.70941467 -45.86979675 89.8130188 C-48.24023438 90.02734375 -48.24023438 90.02734375 -51.24023438 90.02734375 C-52.4156478 79.64867211 -53.58927137 69.26979981 -54.76059723 58.89066601 C-55.30452071 54.07146006 -55.84906531 49.25232596 -56.39501953 44.43334961 C-56.92166815 39.78457539 -57.44669807 35.13562098 -57.97059631 30.48653603 C-58.17096569 28.71102671 -58.37192266 26.93558361 -58.57347107 25.16020775 C-58.8552144 22.67753344 -59.13488578 20.19463397 -59.4140625 17.71166992 C-59.49821915 16.97439667 -59.58237579 16.23712341 -59.66908264 15.47750854 C-59.98628459 12.64066138 -60.24023438 9.88475126 -60.24023438 7.02734375 C-55.78523438 6.53234375 -55.78523438 6.53234375 -51.24023438 6.02734375 C-51.57023437 6.68734375 -51.90023438 7.34734375 -52.24023438 8.02734375 C-52.93179383 18.31003928 -52.26750412 27.99458241 -50.24023438 38.08984375 C-47.71357884 50.73289364 -47.83697425 63.18350868 -48.24023438 76.02734375 C-41.58077673 76.29793119 -35.37449958 75.66830697 -28.80908203 74.57519531 C-22.21520044 73.56297269 -15.56838672 73.01444271 -8.92773438 72.40234375 C-7.49345663 72.26727651 -6.05921159 72.13186165 -4.625 71.99609375 C-1.16377745 71.66918619 2.29785791 71.34692417 5.75976562 71.02734375 C4.87830543 60.35703608 3.60748297 50.17003676 0.75976562 39.8359375 C-1.55357278 31.02537129 -2.51613567 23.02606832 -2.36523438 13.90234375 C-2.35621094 12.85046875 -2.3471875 11.79859375 -2.33789062 10.71484375 C-2.31459425 8.15224289 -2.27873481 5.58976128 -2.24023438 3.02734375 C-7.52023437 3.68734375 -12.80023438 4.34734375 -18.24023438 5.02734375 C-18.24023438 4.03734375 -18.24023438 3.04734375 -18.24023438 2.02734375 C-16.07470522 1.68669871 -13.9077364 1.3552012 -11.74023438 1.02734375 C-10.53367187 0.84171875 -9.32710938 0.65609375 -8.08398438 0.46484375 C-5.29939502 0.14789862 -2.77866911 -0.0202085 0 0 Z " fill="#4C48E4" transform="translate(359.240234375,94.97265625)"/>
<path d="M0 0 C-0.12890625 1.796875 -0.12890625 1.796875 -1 4 C-3.65234375 5.703125 -3.65234375 5.703125 -6.9375 7.25 C-8.01902344 7.77078125 -9.10054688 8.2915625 -10.21484375 8.828125 C-13 10 -13 10 -15 10 C-14.6390625 11.05960937 -14.278125 12.11921875 -13.90625 13.2109375 C-13.43734207 14.59890499 -12.96860069 15.98692875 -12.5 17.375 C-12.26152344 18.07367188 -12.02304687 18.77234375 -11.77734375 19.4921875 C-10 24.7734375 -10 24.7734375 -10 27 C-14.28993333 28.50499009 -18.58222158 30.00314637 -22.875 31.5 C-24.09832031 31.92925781 -25.32164062 32.35851562 -26.58203125 32.80078125 C-27.74863281 33.20683594 -28.91523438 33.61289062 -30.1171875 34.03125 C-31.73536377 34.59682617 -31.73536377 34.59682617 -33.38623047 35.17382812 C-36 36 -36 36 -38 36 C-38.17016853 31.57561829 -38.00025858 28.88285489 -36 25 C-35.5311656 22.33640239 -35.26945451 19.69454509 -35 17 C-35.66644531 17.144375 -36.33289063 17.28875 -37.01953125 17.4375 C-43.76981758 18.79699823 -50.12328495 19.23942141 -57 19 C-57.33 18.01 -57.66 17.02 -58 16 C-54.24826959 11.85941461 -50.57104803 9.36972164 -45.5625 6.9375 C-44.86382812 6.59388428 -44.16515625 6.25026855 -43.4453125 5.89624023 C-32.43708689 0.65215446 -11.15490208 -7.43660139 0 0 Z " fill="#7BB908" transform="translate(486,407)"/>
<path d="M0 0 C-0.06640625 1.76171875 -0.06640625 1.76171875 -1 4 C-3.3220021 5.47069918 -5.46927486 6.65544302 -7.9375 7.8125 C-8.58396484 8.13669922 -9.23042969 8.46089844 -9.89648438 8.79492188 C-11.56393351 9.60353947 -13.28009216 10.30995213 -15 11 C-17 10 -17 10 -18 7 C-18.71285156 7.20496094 -19.42570312 7.40992188 -20.16015625 7.62109375 C-25.43976749 9.10620647 -30.54711116 10.39412346 -36 11 C-36 12.98 -36 14.96 -36 17 C-43.09326321 18.72330907 -49.70968976 19.2494783 -57 19 C-57.33 18.01 -57.66 17.02 -58 16 C-54.24826959 11.85941461 -50.57104803 9.36972164 -45.5625 6.9375 C-44.86382812 6.59388428 -44.16515625 6.25026855 -43.4453125 5.89624023 C-32.43708689 0.65215446 -11.15490208 -7.43660139 0 0 Z " fill="#0F1D49" transform="translate(486,407)"/>
<path d="M0 0 C6.27 0 12.54 0 19 0 C19.020625 2.536875 19.04125 5.07375 19.0625 7.6875 C19.071604 8.47729248 19.08070801 9.26708496 19.09008789 10.08081055 C19.10488141 13.85506693 18.91811717 17.33476057 18 21 C14.79168609 21.0292483 11.58340693 21.04688189 8.375 21.0625 C7.47136719 21.07087891 6.56773437 21.07925781 5.63671875 21.08789062 C0.97095711 21.10491895 -3.41013285 20.96829423 -8 20 C-7.65011209 16.85100878 -7.04362446 16.036913 -4.5625 13.9375 C-0.78461012 9.60674818 -0.74853606 5.64804481 0 0 Z " fill="#7CBA07" transform="translate(355,422)"/>
<path d="M0 0 C2.9576473 2.29217666 3.81597278 3.44791835 5 7 C5.47469459 14.05061082 5.47469459 14.05061082 4 17 C0.6427437 16.40347495 -2.375942 15.56799834 -5.5390625 14.30078125 C-6.36664063 13.97916016 -7.19421875 13.65753906 -8.046875 13.32617188 C-9.77639835 12.64615474 -11.50295591 11.95854931 -13.2265625 11.26367188 C-14.0515625 10.94591797 -14.8765625 10.62816406 -15.7265625 10.30078125 C-16.84925537 9.85472534 -16.84925537 9.85472534 -17.99462891 9.3996582 C-20.30577169 8.69350646 -20.30577169 8.69350646 -23 11 C-25.5625 8.8125 -25.5625 8.8125 -28 6 C-27.9375 3.25 -27.9375 3.25 -27 1 C-24.2540274 -0.3729863 -22.0410953 -0.12412634 -19 0 C-18.01 0.33 -17.02 0.66 -16 1 C-14.96875 0.484375 -13.9375 -0.03125 -12.875 -0.5625 C-8.34005769 -2.66147542 -4.53519923 -1.80706198 0 0 Z " fill="#7DBA09" transform="translate(454,70)"/>
<path d="M0 0 C0.33 1.65 0.66 3.3 1 5 C-0.65614657 5.38218767 -2.32457024 5.71395102 -4 6 C-4.33 5.67 -4.66 5.34 -5 5 C-6.86540627 9.70406799 -8.36843005 13.94744036 -9 19 C-9.99 19 -10.98 19 -12 19 C-12.37125 20.258125 -12.7425 21.51625 -13.125 22.8125 C-15.03191422 28.59772767 -17.96313588 33.74199902 -21 39 C-22.75197679 35.49604642 -20.70878727 31.77217338 -19.69140625 28.140625 C-18.63727864 23.35238431 -18.59712008 18.71877791 -20 14 C-20.515625 13.54625 -21.03125 13.0925 -21.5625 12.625 C-23.8713299 10.01501838 -23.18853244 7.33073979 -23 4 C-20.69 3.34 -18.38 2.68 -16 2 C-16 2.99 -16 3.98 -16 5 C-14.35 5 -12.7 5 -11 5 C-10.731875 4.360625 -10.46375 3.72125 -10.1875 3.0625 C-7.91853758 -0.87832947 -4.08928415 -0.09087298 0 0 Z " fill="#DB8884" transform="translate(454,87)"/>
<path d="M0 0 C1 5.75 1 5.75 1 8 C-6.05453001 9.20443195 -12.83437211 10.28100502 -20 10 C-20 9.34 -20 8.68 -20 8 C-20.99 8 -21.98 8 -23 8 C-23 8.66 -23 9.32 -23 10 C-29.4 11.35384615 -29.4 11.35384615 -32.4375 9.5625 C-32.953125 9.046875 -33.46875 8.53125 -34 8 C-33.34 7.01 -32.68 6.02 -32 5 C-30.0546875 4.70703125 -30.0546875 4.70703125 -27.875 4.8125 C-26.59625 4.874375 -25.3175 4.93625 -24 5 C-23.67 3.68 -23.34 2.36 -23 1 C-22.34 1 -21.68 1 -21 1 C-21 1.66 -21 2.32 -21 3 C-20.38253906 2.86722656 -19.76507813 2.73445313 -19.12890625 2.59765625 C-12.83465502 1.28515637 -6.45546379 0 0 0 Z " fill="#EDD046" transform="translate(341,94)"/>
<path d="M0 0 C3.99853991 1.33284664 4.78497669 3.52979682 7 7 C7.33 7 7.66 7 8 7 C8 6.01 8 5.02 8 4 C11.82448388 5.47480097 13.25042364 7.45294912 15.3125 10.9375 C15.84488281 11.81277344 16.37726563 12.68804687 16.92578125 13.58984375 C18 16 18 16 17 19 C14.6875 20.8125 14.6875 20.8125 12 22 C8.69311742 20.78453392 6.34563834 18.71107451 3.75 16.375 C3.04359375 15.74335938 2.3371875 15.11171875 1.609375 14.4609375 C1.07828125 13.97882813 0.5471875 13.49671875 0 13 C1.06546953 10.86906094 2.29159719 9.63412443 4 8 C3.34 6.35 2.68 4.7 2 3 C1.01 3 0.02 3 -1 3 C-0.67 3.99 -0.34 4.98 0 6 C-0.66 6.99 -1.32 7.98 -2 9 C-2.6875 6.75 -2.6875 6.75 -3 4 C-1.5625 1.6875 -1.5625 1.6875 0 0 Z " fill="#DF8A85" transform="translate(371,128)"/>
<path d="M0 0 C6.93 2.64 13.86 5.28 21 8 C20.67 8.66 20.34 9.32 20 10 C18.63875 9.938125 18.63875 9.938125 17.25 9.875 C14.10359074 9.99601574 12.57843802 10.28104132 10 12 C9.67 12.66 9.34 13.32 9 14 C7.35 14 5.7 14 4 14 C4 13.01 4 12.02 4 11 C3.01 11.66 2.02 12.32 1 13 C-1.6875 12.625 -1.6875 12.625 -4 12 C-3.91253716 10.56138706 -3.80434652 9.12402492 -3.6875 7.6875 C-3.62949219 6.88699219 -3.57148438 6.08648437 -3.51171875 5.26171875 C-3 3 -3 3 0 0 Z " fill="#171F4F" transform="translate(434,78)"/>
<path d="M0 0 C0.99 0 1.98 0 3 0 C3.99 1.98 4.98 3.96 6 6 C4.68 7.32 3.36 8.64 2 10 C2.68320312 10.53367188 3.36640625 11.06734375 4.0703125 11.6171875 C6 14 6 14 5.8046875 16.9453125 C5.49789063 17.99460938 5.19109375 19.04390625 4.875 20.125 C4.43800781 21.70667969 4.43800781 21.70667969 3.9921875 23.3203125 C3 26 3 26 1 28 C-1.27809723 25.72190277 -1.31541896 25.12447637 -1.6328125 22.04296875 C-1.75849609 20.86831055 -1.75849609 20.86831055 -1.88671875 19.66992188 C-1.96535156 18.85072266 -2.04398437 18.03152344 -2.125 17.1875 C-2.21136719 16.37990234 -2.29773438 15.57230469 -2.38671875 14.74023438 C-2.79205902 10.81229413 -3.1122952 6.95439514 -3 3 C-2.01 3 -1.02 3 0 3 C0 2.01 0 1.02 0 0 Z " fill="#71A316" transform="translate(370,131)"/>
<path d="M0 0 C5.13910674 3.41948256 8.90340571 7.70998475 12 13 C10.39566191 12.52140759 8.79153584 12.04210442 7.1875 11.5625 C6.29417969 11.29566406 5.40085937 11.02882813 4.48046875 10.75390625 C2.64526945 10.19612127 0.81966274 9.60655425 -1 9 C-1.99 9.66 -2.98 10.32 -4 11 C-6.5625 8.8125 -6.5625 8.8125 -9 6 C-8.9375 3.25 -8.9375 3.25 -8 1 C-4.98221063 -0.50889469 -3.37677363 -0.50026276 0 0 Z " fill="#FAF6E2" transform="translate(435,70)"/>
<path d="M0 0 C0.33 0 0.66 0 1 0 C1.09796875 1.258125 1.1959375 2.51625 1.296875 3.8125 C2.12945338 13.62613216 3.48118745 22.88278273 6.046875 32.38671875 C8.39564484 41.29086672 9.32578608 49.80559293 9 59 C8.01 59 7.02 59 6 59 C5.96036133 58.40799805 5.92072266 57.81599609 5.87988281 57.20605469 C5.13379812 46.50942611 4.21539312 36.04051444 1.875 25.5625 C-0.05322416 16.90276926 -0.44560407 8.86256977 0 0 Z " fill="#DDC9A5" transform="translate(356,107)"/>
<path d="M0 0 C0.33 0 0.66 0 1 0 C1.02687279 1.81242052 1.04633715 3.62495233 1.0625 5.4375 C1.07410156 6.44683594 1.08570313 7.45617187 1.09765625 8.49609375 C1 11 1 11 0 12 C-2.33297433 12.04092937 -4.66705225 12.04241723 -7 12 C-7.33 9.36 -7.66 6.72 -8 4 C-5.69 4 -3.38 4 -1 4 C-0.67 2.68 -0.34 1.36 0 0 Z " fill="#A8D051" transform="translate(317,107)"/>
<path d="M0 0 C0.66 0 1.32 0 2 0 C2.33 2.31 2.66 4.62 3 7 C2.01 7 1.02 7 0 7 C0 7.66 0 8.32 0 9 C-6.4 10.35384615 -6.4 10.35384615 -9.4375 8.5625 C-9.953125 8.046875 -10.46875 7.53125 -11 7 C-10.34 6.01 -9.68 5.02 -9 4 C-7.0546875 3.70703125 -7.0546875 3.70703125 -4.875 3.8125 C-3.59625 3.874375 -2.3175 3.93625 -1 4 C-0.67 2.68 -0.34 1.36 0 0 Z " fill="#CD8FA4" transform="translate(318,95)"/>
<path d="M0 0 C0.33 0 0.66 0 1 0 C1 3.63 1 7.26 1 11 C-1.70879335 12.35439668 -4.00933268 12.06501451 -7 12 C-7 9.36 -7 6.72 -7 4 C-6.030625 3.71125 -5.06125 3.4225 -4.0625 3.125 C-0.89335797 2.35785318 -0.89335797 2.35785318 0 0 Z " fill="#A4CE4A" transform="translate(320,134)"/>
<path d="M0 0 C4.29 1.65 8.58 3.3 13 5 C12.67 5.66 12.34 6.32 12 7 C11.113125 6.95875 10.22625 6.9175 9.3125 6.875 C6.02722987 6.99897246 3.94550705 7.61387904 1 9 C0.67 8.01 0.34 7.02 0 6 C-1.65 6.33 -3.3 6.66 -5 7 C-5.33 6.01 -5.66 5.02 -6 4 C-4.7934375 3.566875 -4.7934375 3.566875 -3.5625 3.125 C-0.8673532 2.26737432 -0.8673532 2.26737432 0 0 Z " fill="#584360" transform="translate(442,81)"/>
<path d="M0 0 C0.66 0.33 1.32 0.66 2 1 C1.67 4.3 1.34 7.6 1 11 C-1.64 11 -4.28 11 -7 11 C-7 8.69 -7 6.38 -7 4 C-6.67 4.66 -6.34 5.32 -6 6 C-4.68 6 -3.36 6 -2 6 C-1.67 5.34 -1.34 4.68 -1 4 C-2.32 3.67 -3.64 3.34 -5 3 C-3.35 3 -1.7 3 0 3 C0 2.01 0 1.02 0 0 Z " fill="#B2D563" transform="translate(318,121)"/>
<path d="M0 0 C6.27 0 12.54 0 19 0 C19 0.33 19 0.66 19 1 C13.06 1 7.12 1 1 1 C1.33 1.66 1.66 2.32 2 3 C4.31 3 6.62 3 9 3 C8.67 4.32 8.34 5.64 8 7 C5.66705225 7.04241723 3.33297433 7.04092937 1 7 C0.67 6.67 0.34 6.34 0 6 C0 4.02 0 2.04 0 0 Z " fill="#57841E" transform="translate(355,422)"/>
<path d="M0 0 C0.33 0.99 0.66 1.98 1 3 C1.66 3 2.32 3 3 3 C3.85298376 6.67387495 4.10789471 10.0447393 4.0625 13.8125 C4.05347656 14.78832031 4.04445313 15.76414063 4.03515625 16.76953125 C4.02355469 17.50558594 4.01195312 18.24164063 4 19 C3.01 19 2.02 19 1 19 C0.67 12.73 0.34 6.46 0 0 Z " fill="#EAD39A" transform="translate(361,147)"/>
<path d="M0 0 C0.66 0.33 1.32 0.66 2 1 C1.51273437 1.55429688 1.02546875 2.10859375 0.5234375 2.6796875 C-2.17289247 6.78640546 -1.48625372 11.25590926 -1 16 C-0.2099605 19.41896403 0.79895601 22.7042781 2 26 C-2.90954525 21.75993819 -3.37192017 16.59601156 -3.875 10.375 C-3.99617188 9.06273437 -4.11734375 7.75046875 -4.2421875 6.3984375 C-4 3 -4 3 -2.0078125 1.0390625 C-1.34523438 0.69617188 -0.68265625 0.35328125 0 0 Z " fill="#283941" transform="translate(386,147)"/>
<path d="M0 0 C1.32 0 2.64 0 4 0 C2.58707905 4.8274799 0.57025846 8.7162359 -2 13 C-3.45047396 10.09905209 -2.45356803 8.44027404 -1.5625 5.375 C-1.27503906 4.37210937 -0.98757813 3.36921875 -0.69140625 2.3359375 C-0.46324219 1.56507812 -0.23507812 0.79421875 0 0 Z " fill="#ECE4C2" transform="translate(435,113)"/>
<path d="M0 0 C0 0.66 0 1.32 0 2 C-4.62 2.66 -9.24 3.32 -14 4 C-14 3.01 -14 2.02 -14 1 C-9.32798795 -0.20568053 -4.78503708 -0.09382426 0 0 Z " fill="#554FDE" transform="translate(355,96)"/>
<path d="M0 0 C3.625 -0.1875 3.625 -0.1875 7 0 C6.8125 1.875 6.8125 1.875 6 4 C3.4375 5.25 3.4375 5.25 1 6 C0.01 5.01 -0.98 4.02 -2 3 C-1.34 2.01 -0.68 1.02 0 0 Z " fill="#8E6179" transform="translate(309,99)"/>
<path d="M0 0 C0.99 0 1.98 0 3 0 C3.99 1.98 4.98 3.96 6 6 C4.68 6.99 3.36 7.98 2 9 C-0.29013653 5.5647952 -0.17842973 4.014669 0 0 Z " fill="#5A4161" transform="translate(370,131)"/>
<path d="M0 0 C1.32 0 2.64 0 4 0 C4 1 4 2 4 3 C4.66 3 5.32 3 6 3 C6.33 2.01 6.66 1.02 7 0 C6.125 4.875 6.125 4.875 5 6 C3.33382885 6.04063832 1.66611905 6.042721 0 6 C0 4.02 0 2.04 0 0 Z " fill="#E9EEC3" transform="translate(316,152)"/>
<path d="M0 0 C1.67542976 0.28604898 3.34385343 0.61781233 5 1 C4.67 2.65 4.34 4.3 4 6 C2.68 6 1.36 6 0 6 C0 5.34 0 4.68 0 4 C0.66 3.67 1.32 3.34 2 3 C1.01 2.34 0.02 1.68 -1 1 C-0.67 0.67 -0.34 0.34 0 0 Z " fill="#DE8886" transform="translate(450,87)"/>
<path d="M0 0 C1.32 0 2.64 0 4 0 C4 0.99 4 1.98 4 3 C4.66 2.34 5.32 1.68 6 1 C6 2.32 6 3.64 6 5 C4.02 5 2.04 5 0 5 C0 3.35 0 1.7 0 0 Z " fill="#F1F2CF" transform="translate(314,139)"/>
<path d="M0 0 C1.32 0 2.64 0 4 0 C4 1 4 2 4 3 C4.66 3 5.32 3 6 3 C6 3.66 6 4.32 6 5 C4.02 5.33 2.04 5.66 0 6 C0 4.02 0 2.04 0 0 Z " fill="#F1F2CF" transform="translate(311,112)"/>
<path d="M0 0 C0.66 1.32 1.32 2.64 2 4 C-0.31 4.33 -2.62 4.66 -5 5 C-5.33 4.01 -5.66 3.02 -6 2 C-4.02 1.34 -2.04 0.68 0 0 Z " fill="#395A30" transform="translate(458,420)"/>
<path d="M0 0 C2.02045442 0.60183749 4.02111039 1.27306096 6 2 C6.33 2.66 6.66 3.32 7 4 C6.0925 3.773125 5.185 3.54625 4.25 3.3125 C1.00496499 2.67394455 1.00496499 2.67394455 -1.375 4.4375 C-1.91125 4.953125 -2.4475 5.46875 -3 6 C-1.125 1.125 -1.125 1.125 0 0 Z " fill="#5E8226" transform="translate(389,145)"/>
<path d="M0 0 C1.98 0 3.96 0 6 0 C6 0.66 6 1.32 6 2 C3.35261084 3.4606285 2.10551666 4 -1 4 C-0.67 2.68 -0.34 1.36 0 0 Z " fill="#322B59" transform="translate(435,99)"/>
<path d="M0 0 C0.66 0 1.32 0 2 0 C2 0.99 2 1.98 2 3 C3.32 3.33 4.64 3.66 6 4 C3.36 4.33 0.72 4.66 -2 5 C-1.34 3.35 -0.68 1.7 0 0 Z " fill="#AA6C78" transform="translate(436,89)"/>
</svg>
