<?xml version="1.0" encoding="UTF-8"?>
<!DOCTYPE svg PUBLIC "-//W3C//DTD SVG 1.1//EN" "http://www.w3.org/Graphics/SVG/1.1/DTD/svg11.dtd">
<svg xmlns="http://www.w3.org/2000/svg" version="1.1" width="512px" height="512px" style="shape-rendering:geometricPrecision; text-rendering:geometricPrecision; image-rendering:optimizeQuality; fill-rule:evenodd; clip-rule:evenodd" xmlns:xlink="http://www.w3.org/1999/xlink">
<g><path style="opacity:0.943" fill="#000000" d="M 191.5,16.5 C 220.034,14.1056 246.7,19.9389 271.5,34C 305.63,36.7936 324.796,55.2936 329,89.5C 330.945,101.169 330.945,112.836 329,124.5C 328.347,127.807 326.681,130.473 324,132.5C 324.216,152.819 321.883,172.819 317,192.5C 308.124,219.537 291.624,240.537 267.5,255.5C 266.503,263.138 266.169,270.804 266.5,278.5C 278.154,280.247 289.487,283.247 300.5,287.5C 300.25,277.809 304.583,271.309 313.5,268C 367.225,267.013 420.892,267.346 474.5,269C 478.388,271.222 481.221,274.388 483,278.5C 483.667,313.833 483.667,349.167 483,384.5C 480.321,391.598 475.155,395.431 467.5,396C 444.5,396.333 421.5,396.667 398.5,397C 401.46,406.925 403.294,417.092 404,427.5C 404.667,445.833 404.667,464.167 404,482.5C 402.257,487.91 398.757,491.744 393.5,494C 275.167,494.667 156.833,494.667 38.5,494C 33,492.5 29.5,489 28,483.5C 27.3333,463.167 27.3333,442.833 28,422.5C 34.6362,368.687 60.8028,327.521 106.5,299C 124.831,288.279 144.498,281.445 165.5,278.5C 165.666,271.159 165.5,263.826 165,256.5C 133.855,236.646 115.521,208.312 110,171.5C 109.01,157.181 108.177,142.848 107.5,128.5C 104.145,126.462 102.312,123.462 102,119.5C 100.927,75.8008 120.094,44.6341 159.5,26C 169.947,21.6801 180.614,18.5134 191.5,16.5 Z M 194.5,34.5 C 219.653,32.4554 242.986,37.9554 264.5,51C 287.45,50.3127 302.283,60.8127 309,82.5C 310.771,90.7444 311.937,99.0778 312.5,107.5C 312.299,109.973 311.632,112.306 310.5,114.5C 296.614,108.781 286.447,99.1145 280,85.5C 275.454,81.2512 270.287,80.4179 264.5,83C 242.352,102.731 216.352,113.731 186.5,116C 164.058,118.115 141.724,117.282 119.5,113.5C 121.549,77.2835 139.549,52.7835 173.5,40C 180.514,37.705 187.514,35.8716 194.5,34.5 Z M 268.5,103.5 C 277.277,116.395 288.943,125.729 303.5,131.5C 309.808,171.748 298.142,205.581 268.5,233C 230.789,260.041 194.122,258.708 158.5,229C 132.711,202.075 122.211,169.909 127,132.5C 165.849,138.742 203.682,134.909 240.5,121C 250.739,116.393 260.072,110.56 268.5,103.5 Z M 247.5,264.5 C 248.483,268.298 248.817,272.298 248.5,276.5C 226.833,276.5 205.167,276.5 183.5,276.5C 183.5,272.833 183.5,269.167 183.5,265.5C 199.562,270.429 215.895,271.596 232.5,269C 237.843,268.253 242.843,266.753 247.5,264.5 Z M 319.5,285.5 C 368.167,285.5 416.833,285.5 465.5,285.5C 465.5,316.5 465.5,347.5 465.5,378.5C 416.833,378.5 368.167,378.5 319.5,378.5C 319.5,347.5 319.5,316.5 319.5,285.5 Z M 180.5,294.5 C 184.392,301.281 188.059,308.281 191.5,315.5C 185.495,351.035 180.661,386.702 177,422.5C 177.725,424.949 178.725,427.283 180,429.5C 190.046,442.424 200.213,455.258 210.5,468C 216.082,470.143 220.915,468.976 225,464.5C 233.333,453.5 241.667,442.5 250,431.5C 252.478,428.211 254.144,424.544 255,420.5C 250.687,385.81 245.854,351.143 240.5,316.5C 243.187,308.792 246.687,301.459 251,294.5C 268.185,296.088 284.685,300.422 300.5,307.5C 301.333,333.16 301.833,358.827 302,384.5C 304.897,391.397 310.064,395.231 317.5,396C 338.406,396.173 359.24,396.673 380,397.5C 383.284,407.922 385.284,418.588 386,429.5C 386.5,445.163 386.667,460.83 386.5,476.5C 369.833,476.5 353.167,476.5 336.5,476.5C 336.667,456.831 336.5,437.164 336,417.5C 334.877,413.181 332.044,411.181 327.5,411.5C 323.497,411.249 320.664,412.916 319,416.5C 318.5,436.497 318.333,456.497 318.5,476.5C 250.167,476.5 181.833,476.5 113.5,476.5C 113.667,456.831 113.5,437.164 113,417.5C 111.7,413.013 108.7,411.013 104,411.5C 100.066,411.096 97.3989,412.762 96,416.5C 95.5,436.497 95.3334,456.497 95.5,476.5C 78.8333,476.5 62.1667,476.5 45.5,476.5C 45.3334,459.163 45.5001,441.83 46,424.5C 53.6533,368.994 82.82,329.494 133.5,306C 148.723,299.777 164.39,295.943 180.5,294.5 Z M 201.5,295.5 C 210.675,294.178 220.008,294.178 229.5,295.5C 228.167,298.167 226.833,300.833 225.5,303.5C 219.193,304.664 212.859,304.831 206.5,304C 204.933,301.021 203.266,298.188 201.5,295.5 Z M 208.5,322.5 C 213.5,322.5 218.5,322.5 223.5,322.5C 227.692,353.344 232.025,384.177 236.5,415C 236.333,416.5 236.167,418 236,419.5C 229.333,428.167 222.667,436.833 216,445.5C 208.435,436.273 201.268,426.773 194.5,417C 199.214,385.501 203.881,354.001 208.5,322.5 Z"/></g>
<g><path style="opacity:0.939" fill="#000000" d="M 337.5,304.5 C 374.168,304.333 410.835,304.5 447.5,305C 451.084,306.664 452.751,309.497 452.5,313.5C 452.819,318.044 450.819,320.877 446.5,322C 410.5,322.667 374.5,322.667 338.5,322C 334.181,320.877 332.181,318.044 332.5,313.5C 332.377,309.405 334.044,306.405 337.5,304.5 Z"/></g>
<g><path style="opacity:0.937" fill="#000000" d="M 367.5,341.5 C 394.169,341.333 420.835,341.5 447.5,342C 452.155,344.897 453.655,349.063 452,354.5C 451.065,357.102 449.232,358.602 446.5,359C 420.5,359.667 394.5,359.667 368.5,359C 364.181,357.877 362.181,355.044 362.5,350.5C 362.377,346.405 364.044,343.405 367.5,341.5 Z"/></g>
</svg>
