<?xml version="1.0" encoding="UTF-8"?>
<!DOCTYPE svg PUBLIC "-//W3C//DTD SVG 1.1//EN" "http://www.w3.org/Graphics/SVG/1.1/DTD/svg11.dtd">
<svg xmlns="http://www.w3.org/2000/svg" version="1.1" width="512px" height="512px" style="shape-rendering:geometricPrecision; text-rendering:geometricPrecision; image-rendering:optimizeQuality; fill-rule:evenodd; clip-rule:evenodd" xmlns:xlink="http://www.w3.org/1999/xlink">
<g><path style="opacity:0.924" fill="#000000" d="M 190.5,13.5 C 215.91,11.4373 232.41,22.4373 240,46.5C 242.92,72.8581 231.753,89.6914 206.5,97C 180.586,99.6331 164.086,88.4664 157,63.5C 154.485,37.5015 165.651,20.8348 190.5,13.5 Z M 192.5,29.5 C 208.276,27.9661 218.776,34.6328 224,49.5C 226.037,65.2551 219.537,75.7551 204.5,81C 188.708,83.0217 178.208,76.5217 173,61.5C 171.101,45.6201 177.601,34.9535 192.5,29.5 Z"/></g>
<g><path style="opacity:0.924" fill="#000000" d="M 304.5,13.5 C 339.462,12.6286 355.962,29.6286 354,64.5C 349.833,82 339,92.8333 321.5,97C 295.199,99.9419 278.366,88.7753 271,63.5C 268.485,37.5015 279.651,20.8348 304.5,13.5 Z M 306.5,29.5 C 328.654,28.8196 339.154,39.4863 338,61.5C 332.845,76.4996 322.345,82.9996 306.5,81C 287.206,72.9122 282.04,59.4122 291,40.5C 295.127,35.202 300.294,31.5354 306.5,29.5 Z"/></g>
<g><path style="opacity:0.921" fill="#000000" d="M 411.5,60.5 C 415.131,60.1604 418.464,60.9937 421.5,63C 426.714,68.5142 432.214,73.6808 438,78.5C 448.278,94.5028 447.611,110.169 436,125.5C 425.504,139.996 411.337,146.163 393.5,144C 388.787,142.81 384.453,140.81 380.5,138C 374.312,132.81 368.479,127.31 363,121.5C 362.333,119.167 362.333,116.833 363,114.5C 379.061,96.2796 395.227,78.2796 411.5,60.5 Z M 414.5,80.5 C 429.953,88.3614 433.119,99.6947 424,114.5C 419.308,120.531 413.475,125.031 406.5,128C 402.833,128.667 399.167,128.667 395.5,128C 390.708,125.039 386.375,121.539 382.5,117.5C 393.189,105.147 403.856,92.8137 414.5,80.5 Z"/></g>
<g><path style="opacity:0.922" fill="#000000" d="M 97.5,64.5 C 102.661,64.4712 107.661,65.3046 112.5,67C 116.926,72.4414 116.259,77.1081 110.5,81C 90.0514,78.1296 78.0514,86.7963 74.5,107C 76.758,125.296 87.0914,133.962 105.5,133C 119.625,129.581 125.292,120.747 122.5,106.5C 117.237,109.814 111.571,111.314 105.5,111C 101.723,108.045 100.557,104.212 102,99.5C 109.326,94.7541 117.159,90.9208 125.5,88C 128.961,87.1263 131.961,87.9597 134.5,90.5C 140.529,103.295 141.029,116.295 136,129.5C 127.841,142.5 116.008,149.167 100.5,149.5C 74.8333,147.167 60.8333,133.167 58.5,107.5C 60.3129,82.798 73.3129,68.4647 97.5,64.5 Z"/></g>
<g><path style="opacity:0.957" fill="#020101" d="M 165.5,348.5 C 167.127,345.213 169.793,343.546 173.5,343.5C 180.93,343.965 187.097,346.965 192,352.5C 196.333,359.167 200.667,365.833 205,372.5C 211.145,379.088 218.645,381.255 227.5,379C 236.455,375.347 245.622,372.514 255,370.5C 261.055,370.973 266.889,372.306 272.5,374.5C 279.775,379.153 287.775,380.653 296.5,379C 299.941,377.224 303.108,375.057 306,372.5C 311.22,363.893 317.053,355.726 323.5,348C 333.193,343.743 343.193,340.41 353.5,338C 359.061,335.438 362.894,331.272 365,325.5C 365.333,313.5 365.667,301.5 366,289.5C 370.935,281.299 376.601,273.632 383,266.5C 386.723,259.433 387.39,252.099 385,244.5C 378.613,236.446 372.613,228.112 367,219.5C 365.727,207.237 365.06,194.903 365,182.5C 363.604,178.208 361.104,174.708 357.5,172C 348.363,168.382 339.029,165.382 329.5,163C 327.004,161.92 324.67,160.586 322.5,159C 316.943,151.775 311.776,144.275 307,136.5C 301.293,129.894 294.126,127.06 285.5,128C 275.971,131.677 266.304,134.843 256.5,137.5C 245.817,135.663 235.483,132.496 225.5,128C 217.393,126.968 210.56,129.468 205,135.5C 199.889,143.61 194.389,151.443 188.5,159C 179.23,163.313 169.563,166.646 159.5,169C 153,171.5 148.5,176 146,182.5C 145.667,194.167 145.333,205.833 145,217.5C 140.328,226.168 134.661,234.168 128,241.5C 123.333,249.833 123.333,258.167 128,266.5C 134.438,273.604 140.105,281.27 145,289.5C 145.333,300.833 145.667,312.167 146,323.5C 146.914,326.98 148.081,330.313 149.5,333.5C 149.305,336.218 148.305,338.551 146.5,340.5C 140.086,343.512 135.586,341.512 133,334.5C 130.808,328.872 129.641,323.039 129.5,317C 130.395,309.51 130.562,302.01 130,294.5C 124.909,287.32 119.576,280.32 114,273.5C 106.667,260.5 106.667,247.5 114,234.5C 119.576,227.68 124.909,220.68 130,213.5C 130.195,203.826 130.195,194.16 130,184.5C 131.827,170.347 139.327,160.514 152.5,155C 161.271,152.641 169.938,149.974 178.5,147C 183.21,139.747 188.043,132.58 193,125.5C 202.55,114.983 214.384,110.816 228.5,113C 237.602,115.867 246.602,119.034 255.5,122.5C 264.398,119.034 273.398,115.867 282.5,113C 297.187,110.783 309.353,115.283 319,126.5C 323.376,133.419 327.876,140.252 332.5,147C 341.155,149.664 349.822,152.331 358.5,155C 374.279,162.214 381.946,174.547 381.5,192C 380.769,199.164 380.602,206.33 381,213.5C 386,219.833 391,226.167 396,232.5C 404.219,245.996 404.552,259.662 397,273.5C 391.424,280.32 386.091,287.32 381,294.5C 381.156,304.495 381.156,314.495 381,324.5C 379.125,335.369 373.625,343.869 364.5,350C 353.943,353.973 343.276,357.64 332.5,361C 327.79,368.253 322.957,375.42 318,382.5C 307.415,393.69 294.582,397.523 279.5,394C 271.532,391.066 263.532,388.233 255.5,385.5C 246.267,388.949 236.934,392.116 227.5,395C 213.872,396.57 202.372,392.403 193,382.5C 188.224,374.725 183.057,367.225 177.5,360C 169.649,359.946 165.649,356.112 165.5,348.5 Z"/></g>
<g><path style="opacity:1" fill="#fc6d7e" d="M 256.5,137.5 C 254.97,146.242 255.304,154.909 257.5,163.5C 212.552,164.942 182.718,186.942 168,229.5C 159.459,268.88 170.626,301.38 201.5,327C 222.335,341.468 245.335,346.968 270.5,343.5C 269.877,353.524 270.877,363.358 273.5,373C 273.43,373.765 273.097,374.265 272.5,374.5C 266.889,372.306 261.055,370.973 255,370.5C 245.622,372.514 236.455,375.347 227.5,379C 218.645,381.255 211.145,379.088 205,372.5C 200.667,365.833 196.333,359.167 192,352.5C 187.097,346.965 180.93,343.965 173.5,343.5C 169.793,343.546 167.127,345.213 165.5,348.5C 158.315,347.738 151.982,345.071 146.5,340.5C 148.305,338.551 149.305,336.218 149.5,333.5C 148.081,330.313 146.914,326.98 146,323.5C 145.667,312.167 145.333,300.833 145,289.5C 140.105,281.27 134.438,273.604 128,266.5C 123.333,258.167 123.333,249.833 128,241.5C 134.661,234.168 140.328,226.168 145,217.5C 145.333,205.833 145.667,194.167 146,182.5C 148.5,176 153,171.5 159.5,169C 169.563,166.646 179.23,163.313 188.5,159C 194.389,151.443 199.889,143.61 205,135.5C 210.56,129.468 217.393,126.968 225.5,128C 235.483,132.496 245.817,135.663 256.5,137.5 Z"/></g>
<g><path style="opacity:1" fill="#fa9087" d="M 272.5,374.5 C 273.097,374.265 273.43,373.765 273.5,373C 270.877,363.358 269.877,353.524 270.5,343.5C 313.32,333.513 338.487,306.846 346,263.5C 348.164,241.667 343.164,221.667 331,203.5C 327.959,200.458 324.459,199.792 320.5,201.5C 316.155,196.156 311.155,191.489 305.5,187.5C 307.932,181.711 306.266,177.544 300.5,175C 287.03,167.883 272.696,164.049 257.5,163.5C 255.304,154.909 254.97,146.242 256.5,137.5C 266.304,134.843 275.971,131.677 285.5,128C 294.126,127.06 301.293,129.894 307,136.5C 311.776,144.275 316.943,151.775 322.5,159C 324.67,160.586 327.004,161.92 329.5,163C 339.029,165.382 348.363,168.382 357.5,172C 361.104,174.708 363.604,178.208 365,182.5C 365.06,194.903 365.727,207.237 367,219.5C 372.613,228.112 378.613,236.446 385,244.5C 387.39,252.099 386.723,259.433 383,266.5C 376.601,273.632 370.935,281.299 366,289.5C 365.667,301.5 365.333,313.5 365,325.5C 362.894,331.272 359.061,335.438 353.5,338C 343.193,340.41 333.193,343.743 323.5,348C 317.053,355.726 311.22,363.893 306,372.5C 303.108,375.057 299.941,377.224 296.5,379C 287.775,380.653 279.775,379.153 272.5,374.5 Z"/></g>
<g><path style="opacity:0.955" fill="#020100" d="M 63.5,157.5 C 71.3798,156.181 77.8798,158.514 83,164.5C 85.782,170.959 87.9487,177.626 89.5,184.5C 97.7394,187.582 103.906,192.915 108,200.5C 110.032,208.734 107.866,215.567 101.5,221C 97.582,223.877 93.4153,226.377 89,228.5C 88.043,236.01 85.7097,243.01 82,249.5C 74.3321,255.839 66.1654,256.672 57.5,252C 53.8683,249.37 50.535,246.37 47.5,243C 42.9967,242.624 38.4967,242.791 34,243.5C 19.1358,242.299 12.8025,234.299 15,219.5C 16.2819,214.936 18.1153,210.603 20.5,206.5C 15.4489,198.853 13.6155,190.52 15,181.5C 16.8333,175.667 20.6667,171.833 26.5,170C 32.8849,169.207 39.2182,169.374 45.5,170.5C 51.0045,165.306 57.0045,160.973 63.5,157.5 Z"/></g>
<g><path style="opacity:0.954" fill="#020100" d="M 438.5,157.5 C 442.605,157.234 446.605,157.734 450.5,159C 455.642,162.642 460.642,166.475 465.5,170.5C 472.865,169.076 480.198,169.242 487.5,171C 493.611,174.548 496.945,179.882 497.5,187C 496.349,193.787 494.016,200.121 490.5,206C 496.68,214.876 498.18,224.376 495,234.5C 491.955,238.942 487.789,241.776 482.5,243C 476.157,243.18 469.824,243.18 463.5,243C 458.16,249.685 451.326,253.852 443,255.5C 436.866,254.933 431.866,252.266 428,247.5C 425.23,241.424 423.23,235.091 422,228.5C 416.145,225.574 410.812,221.907 406,217.5C 401.006,209.117 401.506,201.117 407.5,193.5C 411.827,190.001 416.494,187.001 421.5,184.5C 423.051,177.626 425.218,170.959 428,164.5C 430.998,161.262 434.498,158.929 438.5,157.5 Z"/></g>
<g><path style="opacity:1" fill="#050302" d="M 257.5,163.5 C 272.696,164.049 287.03,167.883 300.5,175C 306.266,177.544 307.932,181.711 305.5,187.5C 302.993,190.036 299.993,190.869 296.5,190C 287.359,184.048 277.359,180.548 266.5,179.5C 229.734,175.724 202.901,190.391 186,223.5C 173.768,256.902 180.268,286.069 205.5,311C 227.263,329.253 251.596,334.086 278.5,325.5C 312.156,313.481 329.823,289.481 331.5,253.5C 331.122,237.867 326.622,223.533 318,210.5C 317.131,207.007 317.964,204.007 320.5,201.5C 324.459,199.792 327.959,200.458 331,203.5C 343.164,221.667 348.164,241.667 346,263.5C 338.487,306.846 313.32,333.513 270.5,343.5C 245.335,346.968 222.335,341.468 201.5,327C 170.626,301.38 159.459,268.88 168,229.5C 182.718,186.942 212.552,164.942 257.5,163.5 Z"/></g>
<g><path style="opacity:1" fill="#f3e567" d="M 63.5,236.5 C 58.3417,217.362 57.3417,198.029 60.5,178.5C 62.2959,177.207 63.9625,175.707 65.5,174C 67.5784,171.866 69.4117,172.032 71,174.5C 72.5186,180.469 73.8519,186.469 75,192.5C 81.1086,197.132 87.2752,201.632 93.5,206C 93.2409,207.261 92.5742,208.261 91.5,209C 86.313,212.198 81.1463,215.365 76,218.5C 74.0011,225.142 72.0011,231.809 70,238.5C 69.4387,239.022 68.772,239.355 68,239.5C 66.3566,238.685 64.8566,237.685 63.5,236.5 Z"/></g>
<g><path style="opacity:1" fill="#f4cd6f" d="M 454.5,182.5 C 452.755,197.535 453.755,212.535 457.5,227.5C 454.062,230.435 450.729,233.601 447.5,237C 445.788,238.751 443.788,239.418 441.5,239C 439.078,232.196 436.911,225.363 435,218.5C 428.903,214.869 423.069,210.869 417.5,206.5C 423.539,201.723 429.705,197.057 436,192.5C 436.994,186.374 438.494,180.374 440.5,174.5C 442.074,173.369 443.741,173.202 445.5,174C 448.957,176.387 451.957,179.22 454.5,182.5 Z"/></g>
<g><path style="opacity:1" fill="#f6ce70" d="M 266.5,179.5 C 265.5,179.5 264.5,179.5 263.5,179.5C 255.134,201.003 251.134,223.336 251.5,246.5C 243.826,246.334 236.159,246.5 228.5,247C 223.177,251.62 223.177,256.286 228.5,261C 236.827,261.5 245.16,261.666 253.5,261.5C 255.201,285.547 263.534,306.88 278.5,325.5C 251.596,334.086 227.263,329.253 205.5,311C 180.268,286.069 173.768,256.902 186,223.5C 202.901,190.391 229.734,175.724 266.5,179.5 Z"/></g>
<g><path style="opacity:1" fill="#f5e768" d="M 266.5,179.5 C 277.359,180.548 287.359,184.048 296.5,190C 299.993,190.869 302.993,190.036 305.5,187.5C 311.155,191.489 316.155,196.156 320.5,201.5C 317.964,204.007 317.131,207.007 318,210.5C 326.622,223.533 331.122,237.867 331.5,253.5C 329.823,289.481 312.156,313.481 278.5,325.5C 263.534,306.88 255.201,285.547 253.5,261.5C 256.425,261.54 259.091,260.707 261.5,259C 269.333,251.167 277.167,243.333 285,235.5C 289.274,226.552 286.44,222.385 276.5,223C 267.995,230.672 259.662,238.505 251.5,246.5C 251.134,223.336 255.134,201.003 263.5,179.5C 264.5,179.5 265.5,179.5 266.5,179.5 Z"/></g>
<g><path style="opacity:1" fill="#f4cd6f" d="M 60.5,178.5 C 57.3417,198.029 58.3417,217.362 63.5,236.5C 59.9504,232.786 55.9504,229.619 51.5,227C 44.508,227.165 37.508,227.165 30.5,227C 29.9781,226.439 29.6448,225.772 29.5,225C 31.8521,218.638 34.1854,212.304 36.5,206C 34.767,200.361 32.6003,194.861 30,189.5C 28.9004,185.265 30.5671,183.599 35,184.5C 40.1494,185.533 45.3161,186.033 50.5,186C 54.2762,184.053 57.6096,181.553 60.5,178.5 Z"/></g>
<g><path style="opacity:1" fill="#f3e567" d="M 454.5,182.5 C 456.986,184.492 459.82,185.826 463,186.5C 468.711,184.649 474.545,184.149 480.5,185C 481.022,185.561 481.355,186.228 481.5,187C 479.299,193.232 476.966,199.399 474.5,205.5C 476.099,211.367 478.265,217.034 481,222.5C 481.667,223.833 481.667,225.167 481,226.5C 473.159,227.093 465.325,227.426 457.5,227.5C 453.755,212.535 452.755,197.535 454.5,182.5 Z"/></g>
<g><path style="opacity:1" fill="#090804" d="M 253.5,261.5 C 245.16,261.666 236.827,261.5 228.5,261C 223.177,256.286 223.177,251.62 228.5,247C 236.159,246.5 243.826,246.334 251.5,246.5C 259.662,238.505 267.995,230.672 276.5,223C 286.44,222.385 289.274,226.552 285,235.5C 277.167,243.333 269.333,251.167 261.5,259C 259.091,260.707 256.425,261.54 253.5,261.5 Z"/></g>
<g><path style="opacity:0.922" fill="#000000" d="M 511.5,307.5 C 511.5,313.167 511.5,318.833 511.5,324.5C 502.863,346.83 486.53,356.33 462.5,353C 441.342,347.507 430.009,333.84 428.5,312C 430.099,288.944 442.099,274.777 464.5,269.5C 472.984,272.205 474.65,277.205 469.5,284.5C 449.675,289.499 442.175,301.833 447,321.5C 456.333,338.052 469.5,341.885 486.5,333C 496.022,325.148 498.022,315.648 492.5,304.5C 491.998,303.479 491.332,303.312 490.5,304C 487.1,308.583 482.767,311.75 477.5,313.5C 470.523,311.545 468.356,307.212 471,300.5C 476.864,294.301 483.031,288.468 489.5,283C 491.971,282.294 494.305,282.627 496.5,284C 503.672,290.525 508.672,298.358 511.5,307.5 Z"/></g>
<g><path style="opacity:0.929" fill="#000000" d="M -0.5,310.5 C -0.5,307.833 -0.5,305.167 -0.5,302.5C 2.0042,300.156 5.0042,298.656 8.5,298C 28.8765,292.823 49.2098,287.489 69.5,282C 80.3903,281.224 84.2236,286.058 81,296.5C 69.1667,307 57.3333,317.5 45.5,328C 61.0544,326.548 76.5544,324.381 92,321.5C 100.183,323.531 102.849,328.531 100,336.5C 81.1149,351.052 61.9482,365.219 42.5,379C 32,381.833 28.1667,378 31,367.5C 41.9005,358.967 53.0672,350.8 64.5,343C 49.5711,345.21 34.5711,346.876 19.5,348C 11.8277,342.573 11.4943,336.573 18.5,330C 28.1667,321.667 37.8333,313.333 47.5,305C 34.2526,308.144 20.9193,311.311 7.5,314.5C 3.93421,314.718 1.26754,313.384 -0.5,310.5 Z"/></g>
<g><path style="opacity:0.925" fill="#000000" d="M 403.5,348.5 C 405.857,348.337 408.19,348.503 410.5,349C 428.333,365.5 445.5,382.667 462,400.5C 463.82,408.212 460.82,412.212 453,412.5C 434.416,409.314 415.916,406.147 397.5,403C 408,413.5 418.5,424 429,434.5C 430.32,444.512 426.154,448.012 416.5,445C 399.304,428.138 382.471,410.972 366,393.5C 364.065,386.011 366.898,382.344 374.5,382.5C 393.552,385.746 412.552,388.913 431.5,392C 421.637,381.803 411.471,371.97 401,362.5C 397.395,356.94 398.228,352.273 403.5,348.5 Z"/></g>
<g><path style="opacity:0.928" fill="#000000" d="M 113.5,363.5 C 140.754,365.089 155.421,379.422 157.5,406.5C 155.177,432.157 141.177,446.157 115.5,448.5C 93.8363,447.335 80.0029,436.335 74,415.5C 70.817,393.027 79.317,376.861 99.5,367C 104.184,365.347 108.85,364.181 113.5,363.5 Z M 113.5,379.5 C 133.496,381.497 142.662,392.497 141,412.5C 134.957,428.772 123.457,434.939 106.5,431C 88.6357,421.072 84.8023,407.239 95,389.5C 100.186,384.16 106.353,380.827 113.5,379.5 Z"/></g>
<g><path style="opacity:0.93" fill="#000000" d="M 190.5,403.5 C 200.422,406.293 209.755,410.46 218.5,416C 228.267,426.168 230.1,437.668 224,450.5C 217.181,458.992 208.348,462.659 197.5,461.5C 199.832,470.83 202.166,480.163 204.5,489.5C 204.035,496.414 200.368,498.914 193.5,497C 192.069,496.535 190.903,495.701 190,494.5C 186.477,482.729 182.811,471.063 179,459.5C 176.072,467.191 172.239,474.358 167.5,481C 164.036,481.817 160.702,481.483 157.5,480C 156.106,478.261 155.439,476.261 155.5,474C 164.965,451.233 175.131,428.733 186,406.5C 187.409,405.219 188.909,404.219 190.5,403.5 Z M 195.5,422.5 C 201.785,424.218 206.952,427.552 211,432.5C 212.218,441.949 208.052,446.115 198.5,445C 195.145,443.882 191.978,442.382 189,440.5C 190.837,434.47 193.004,428.47 195.5,422.5 Z"/></g>
<g><path style="opacity:0.912" fill="#000000" d="M 338.5,404.5 C 342.603,403.769 346.103,404.769 349,407.5C 359,428.833 369,450.167 379,471.5C 379.833,479.333 376.333,482.833 368.5,482C 367.069,481.535 365.903,480.701 365,479.5C 354.131,457.267 343.965,434.767 334.5,412C 334.43,408.634 335.763,406.134 338.5,404.5 Z"/></g>
<g><path style="opacity:0.932" fill="#000000" d="M 257.5,413.5 C 261.516,412.9 265.016,413.9 268,416.5C 279,432.5 290,448.5 301,464.5C 300.435,449.194 300.435,433.86 301,418.5C 303.435,413.776 307.269,412.276 312.5,414C 313.667,415.167 314.833,416.333 316,417.5C 316.854,441.832 317.187,466.165 317,490.5C 315.523,494.744 312.523,497.077 308,497.5C 305.373,496.686 303.04,495.353 301,493.5C 290.667,478.5 280.333,463.5 270,448.5C 269.667,462.833 269.333,477.167 269,491.5C 267.02,496.906 263.186,498.739 257.5,497C 256.584,496.626 255.75,496.126 255,495.5C 253.352,469.587 253.019,443.587 254,417.5C 255.376,416.295 256.542,414.962 257.5,413.5 Z"/></g>
</svg>
