<?xml version="1.0" encoding="UTF-8"?>
<!DOCTYPE svg PUBLIC "-//W3C//DTD SVG 1.1//EN" "http://www.w3.org/Graphics/SVG/1.1/DTD/svg11.dtd">
<svg xmlns="http://www.w3.org/2000/svg" version="1.1" width="512px" height="512px" style="shape-rendering:geometricPrecision; text-rendering:geometricPrecision; image-rendering:optimizeQuality; fill-rule:evenodd; clip-rule:evenodd" xmlns:xlink="http://www.w3.org/1999/xlink">
<g><path style="opacity:0.936" fill="#f6c95b" d="M 246.5,5.5 C 249.518,5.33537 252.518,5.50204 255.5,6C 257.049,7.21398 258.215,8.71398 259,10.5C 259.667,27.1667 259.667,43.8333 259,60.5C 256.103,65.1549 251.937,66.6549 246.5,65C 244.951,63.786 243.785,62.286 243,60.5C 242.333,43.8333 242.333,27.1667 243,10.5C 243.997,8.67694 245.164,7.01027 246.5,5.5 Z"/></g>
<g><path style="opacity:0.939" fill="#f6c95c" d="M 72.5,77.5 C 75.5184,77.3354 78.5184,77.502 81.5,78C 92.6667,89.1667 103.833,100.333 115,111.5C 117.991,118.851 115.658,123.517 108,125.5C 106.601,124.773 105.101,124.273 103.5,124C 92.3333,112.833 81.1667,101.667 70,90.5C 67.6062,85.5272 68.4395,81.1938 72.5,77.5 Z"/></g>
<g><path style="opacity:0.938" fill="#f6c95b" d="M 420.5,77.5 C 431.04,76.1971 434.874,80.5304 432,90.5C 420.833,101.667 409.667,112.833 398.5,124C 389.023,126.195 384.856,122.362 386,112.5C 397.702,100.965 409.202,89.2985 420.5,77.5 Z"/></g>
<g><path style="opacity:0.998" fill="#f3b725" d="M 371.5,155.5 C 348.027,164.058 340.861,180.058 350,203.5C 352.463,206.965 355.296,210.131 358.5,213C 373.496,213.5 388.496,213.667 403.5,213.5C 418.279,269.365 407.613,319.699 371.5,364.5C 368.533,364.002 365.533,363.669 362.5,363.5C 357.329,363.884 352.329,364.717 347.5,366C 332.448,346.32 313.448,341.32 290.5,351C 265.836,368.494 261.17,390.327 276.5,416.5C 218.391,424.078 169.557,406.411 130,363.5C 112.023,341.876 100.189,317.209 94.5,289.5C 133.501,289.667 172.501,289.5 211.5,289C 220.806,269.258 216.473,253.258 198.5,241C 188.79,236.162 178.79,235.329 168.5,238.5C 167.078,222.572 158.745,212.072 143.5,207C 133.824,204.273 124.657,205.44 116,210.5C 111.459,206.421 107.626,201.754 104.5,196.5C 128.61,143.918 169.277,112.418 226.5,102C 284.367,94.6709 332.7,112.504 371.5,155.5 Z"/></g>
<g><path style="opacity:0.992" fill="#cacdeb" d="M 371.5,155.5 C 385.739,153.873 396.905,158.873 405,170.5C 420.08,164.957 429.913,169.957 434.5,185.5C 449.19,183.019 457.523,189.185 459.5,204C 459.519,206.999 458.852,209.832 457.5,212.5C 439.512,213.5 421.512,213.833 403.5,213.5C 388.496,213.667 373.496,213.5 358.5,213C 355.296,210.131 352.463,206.965 350,203.5C 340.861,180.058 348.027,164.058 371.5,155.5 Z"/></g>
<g><path style="opacity:0.994" fill="#ebeaea" d="M 104.5,196.5 C 107.626,201.754 111.459,206.421 116,210.5C 124.657,205.44 133.824,204.273 143.5,207C 158.745,212.072 167.078,222.572 168.5,238.5C 178.79,235.329 188.79,236.162 198.5,241C 216.473,253.258 220.806,269.258 211.5,289C 172.501,289.5 133.501,289.667 94.5,289.5C 72.4089,289.978 50.4089,289.478 28.5,288C 6.94693,268.956 0.780266,245.789 10,218.5C 23.3473,191.075 45.1807,179.242 75.5,183C 86.4557,184.92 96.1223,189.42 104.5,196.5 Z"/></g>
<g><path style="opacity:0.938" fill="#f6c95b" d="M 451.5,250.5 C 466.837,250.333 482.17,250.5 497.5,251C 504.868,252.904 507.035,257.404 504,264.5C 503.097,265.701 501.931,266.535 500.5,267C 483.167,267.667 465.833,267.667 448.5,267C 442.559,260.143 443.559,254.643 451.5,250.5 Z"/></g>
<g><path style="opacity:0.986" fill="#ebeaea" d="M 371.5,364.5 C 381.648,368.321 387.315,375.654 388.5,386.5C 412.659,383.647 424.159,394.313 423,418.5C 422.443,420.615 421.609,422.615 420.5,424.5C 375.504,425.667 330.504,425.833 285.5,425C 281.973,422.638 278.973,419.804 276.5,416.5C 261.17,390.327 265.836,368.494 290.5,351C 313.448,341.32 332.448,346.32 347.5,366C 352.329,364.717 357.329,363.884 362.5,363.5C 365.533,363.669 368.533,364.002 371.5,364.5 Z"/></g>
<g><path style="opacity:0.97" fill="#caceec" d="M 103.5,452.5 C 121.836,452.333 140.17,452.5 158.5,453C 164.468,455.391 166.302,459.558 164,465.5C 162.833,466.667 161.667,467.833 160.5,469C 141.167,469.667 121.833,469.667 102.5,469C 97.391,465.634 96.2243,461.134 99,455.5C 100.409,454.219 101.909,453.219 103.5,452.5 Z"/></g>
<g><path style="opacity:0.977" fill="#caceec" d="M 185.5,452.5 C 255.834,452.333 326.167,452.5 396.5,453C 404.088,457.924 404.421,463.257 397.5,469C 326.5,469.667 255.5,469.667 184.5,469C 177.632,463.144 177.965,457.644 185.5,452.5 Z"/></g>
<g><path style="opacity:0.997" fill="#caceeb" d="M 56.5,489.5 C 139.834,489.333 223.167,489.5 306.5,490C 311.833,495 311.833,500 306.5,505C 223.167,505.667 139.833,505.667 56.5,505C 50.0505,499.759 50.0505,494.592 56.5,489.5 Z"/></g>
<g><path style="opacity:0.994" fill="#caceec" d="M 329.5,489.5 C 374.168,489.333 418.835,489.5 463.5,490C 468.833,495 468.833,500 463.5,505C 419.167,505.667 374.833,505.667 330.5,505C 324.215,500.316 323.881,495.149 329.5,489.5 Z"/></g>
</svg>
