<?xml version="1.0" encoding="UTF-8"?>
<!DOCTYPE svg PUBLIC "-//W3C//DTD SVG 1.1//EN" "http://www.w3.org/Graphics/SVG/1.1/DTD/svg11.dtd">
<svg xmlns="http://www.w3.org/2000/svg" version="1.1" width="512px" height="512px" style="shape-rendering:geometricPrecision; text-rendering:geometricPrecision; image-rendering:optimizeQuality; fill-rule:evenodd; clip-rule:evenodd" xmlns:xlink="http://www.w3.org/1999/xlink">
<g><path style="opacity:0.952" fill="#010100" d="M 31.5,-0.5 C 34.8333,-0.5 38.1667,-0.5 41.5,-0.5C 43.1032,0.596413 44.6032,1.92975 46,3.5C 48.0391,7.74529 50.2058,11.912 52.5,16C 57.5,17 62.5,18 67.5,19C 74.1145,22.8434 75.9479,28.3434 73,35.5C 69.6667,38.8333 66.3333,42.1667 63,45.5C 62.8371,50.368 63.3371,55.2014 64.5,60C 63.2935,69.5272 57.9601,73.1938 48.5,71C 44.6143,68.8901 40.6143,67.0567 36.5,65.5C 32.8696,67.3152 29.2029,69.1485 25.5,71C 18.803,73.0101 13.6363,71.1768 10,65.5C 9.20633,59.1916 9.70633,53.0249 11.5,47C 7.26879,42.9379 3.26879,38.7712 -0.5,34.5C -0.5,31.1667 -0.5,27.8333 -0.5,24.5C 0.977392,22.193 2.97739,20.3597 5.5,19C 10.5232,18.1073 15.5232,17.1073 20.5,16C 22.7942,11.912 24.9609,7.74529 27,3.5C 28.3968,1.92975 29.8968,0.596413 31.5,-0.5 Z"/></g>
<g><path style="opacity:0.961" fill="#020101" d="M 233.5,-0.5 C 242.5,-0.5 251.5,-0.5 260.5,-0.5C 267.522,4.17545 269.355,10.5088 266,18.5C 264.833,19.6667 263.667,20.8333 262.5,22C 200.383,43.1167 159.549,84.95 140,147.5C 122.164,225.662 143.997,290.162 205.5,341C 260.174,379.331 319.174,387.498 382.5,365.5C 385.818,365.159 388.152,366.492 389.5,369.5C 390.359,374.28 388.692,377.78 384.5,380C 339.763,395.71 294.763,396.544 249.5,382.5C 181.45,355.778 138.95,306.778 122,235.5C 108.843,154.702 134.01,88.8682 197.5,38C 209.722,29.3865 222.722,22.0531 236.5,16C 228.595,15.7119 220.928,16.5453 213.5,18.5C 187.764,22.9125 163.43,31.4125 140.5,44C 136.077,45.1176 132.41,43.9509 129.5,40.5C 128.618,36.0907 129.952,32.5907 133.5,30C 164.94,13.2391 198.274,3.07245 233.5,-0.5 Z"/></g>
<g><path style="opacity:0.953" fill="#020100" d="M 393.5,-0.5 C 396.833,-0.5 400.167,-0.5 403.5,-0.5C 405.103,0.596413 406.603,1.92975 408,3.5C 410.039,7.74529 412.206,11.912 414.5,16C 420.292,16.8736 425.959,18.2069 431.5,20C 436.464,24.2725 437.63,29.4392 435,35.5C 431.667,38.8333 428.333,42.1667 425,45.5C 424.837,50.368 425.337,55.2014 426.5,60C 425.293,69.5272 419.96,73.1938 410.5,71C 406.614,68.8901 402.614,67.0567 398.5,65.5C 394.87,67.3152 391.203,69.1485 387.5,71C 380.803,73.0101 375.636,71.1768 372,65.5C 371.206,59.1916 371.706,53.0249 373.5,47C 369.298,43.1334 365.465,38.9668 362,34.5C 361.146,30.3749 361.48,26.3749 363,22.5C 364.214,20.9512 365.714,19.7845 367.5,19C 372.916,18.1536 378.249,16.9869 383.5,15.5C 385.359,9.08781 388.692,3.75447 393.5,-0.5 Z"/></g>
<g><path style="opacity:1" fill="#fad776" d="M 249.5,382.5 C 181.024,366.848 133.524,326.515 107,261.5C 84.8638,194.207 95.1971,132.54 138,76.5C 159.596,50.6125 186.096,31.4459 217.5,19C 216.207,18.51 214.873,18.3433 213.5,18.5C 220.928,16.5453 228.595,15.7119 236.5,16C 222.722,22.0531 209.722,29.3865 197.5,38C 134.01,88.8682 108.843,154.702 122,235.5C 138.95,306.778 181.45,355.778 249.5,382.5 Z"/></g>
<g><path style="opacity:1" fill="#fee181" d="M 213.5,18.5 C 214.873,18.3433 216.207,18.51 217.5,19C 186.096,31.4459 159.596,50.6125 138,76.5C 95.1971,132.54 84.8638,194.207 107,261.5C 133.524,326.515 181.024,366.848 249.5,382.5C 294.763,396.544 339.763,395.71 384.5,380C 388.692,377.78 390.359,374.28 389.5,369.5C 394.971,367.577 399.971,364.91 404.5,361.5C 409.027,366.141 414.027,366.641 419.5,363C 435.518,352.815 449.851,340.648 462.5,326.5C 463.097,326.735 463.43,327.235 463.5,328C 437.355,405.643 386.355,459.809 310.5,490.5C 212.779,508.984 131.445,480.818 66.5,406C 63.4453,405.366 60.4453,405.532 57.5,406.5C 54.3401,402.852 51.6735,398.852 49.5,394.5C 51.8239,391.525 52.6573,388.192 52,384.5C 18.2781,329.847 7.27812,270.847 19,207.5C 33.0304,145.736 65.3638,96.0696 116,58.5C 117.818,55.5839 117.984,52.5839 116.5,49.5C 120.659,46.2533 124.992,43.2533 129.5,40.5C 132.41,43.9509 136.077,45.1176 140.5,44C 163.43,31.4125 187.764,22.9125 213.5,18.5 Z"/></g>
<g><path style="opacity:1" fill="#f6da7d" d="M 35.5,20.5 C 36.4959,20.4142 37.3292,20.7476 38,21.5C 40.6184,28.7282 45.7851,32.3949 53.5,32.5C 51.144,35.0217 48.9773,37.6884 47,40.5C 46.9967,44.5666 46.8301,48.5666 46.5,52.5C 40.0943,47.2566 33.761,47.2566 27.5,52.5C 26.6735,48.5408 26.1735,44.5408 26,40.5C 24.0227,37.6884 21.856,35.0217 19.5,32.5C 28.0255,32.6297 33.3588,28.6297 35.5,20.5 Z"/></g>
<g><path style="opacity:1" fill="#f7db7d" d="M 398.5,20.5 C 400.601,23.1789 402.601,26.0123 404.5,29C 407.937,30.8574 411.604,32.1907 415.5,33C 409.137,38.1287 406.803,44.6287 408.5,52.5C 405.372,50.6006 402.038,49.2672 398.5,48.5C 395.137,49.015 392.137,50.3483 389.5,52.5C 388.672,48.2044 388.172,43.8711 388,39.5C 385.65,37.3171 383.483,34.9837 381.5,32.5C 390.223,32.6521 395.89,28.6521 398.5,20.5 Z"/></g>
<g><path style="opacity:0.959" fill="#020201" d="M 116.5,49.5 C 117.984,52.5839 117.818,55.5839 116,58.5C 65.3638,96.0696 33.0304,145.736 19,207.5C 7.27812,270.847 18.2781,329.847 52,384.5C 52.6573,388.192 51.8239,391.525 49.5,394.5C 45.8407,396.002 42.3407,395.668 39,393.5C 16.9427,358.16 3.77605,319.827 -0.5,278.5C -0.5,263.167 -0.5,247.833 -0.5,232.5C 8.73036,155.181 44.397,93.3475 106.5,47C 110.421,45.8613 113.754,46.6946 116.5,49.5 Z"/></g>
<g><path style="opacity:0.955" fill="#020201" d="M 343.5,109.5 C 349.291,108.489 354.124,110.156 358,114.5C 361.5,121.5 365,128.5 368.5,135.5C 376.781,137.231 385.115,138.731 393.5,140C 401.44,145.159 403.274,151.993 399,160.5C 393.667,165.833 388.333,171.167 383,176.5C 384.212,186.113 384.878,195.78 385,205.5C 381.269,212.78 375.435,215.28 367.5,213C 360.676,209.755 354.009,206.255 347.5,202.5C 341.342,205.412 335.342,208.579 329.5,212C 319.723,215.853 312.889,213.02 309,203.5C 309.184,194.725 310.351,186.058 312.5,177.5C 305.47,171.637 299.304,164.97 294,157.5C 291.762,149.488 294.262,143.655 301.5,140C 309.469,138.481 317.469,137.147 325.5,136C 329.476,128.547 333.31,121.047 337,113.5C 339.095,111.875 341.261,110.542 343.5,109.5 Z"/></g>
<g><path style="opacity:0.868" fill="#000000" d="M 211.5,129.5 C 218.49,127.838 222.49,130.505 223.5,137.5C 221.495,144.503 217.162,146.503 210.5,143.5C 206.425,138.589 206.758,133.922 211.5,129.5 Z"/></g>
<g><path style="opacity:1" fill="#fbde7f" d="M 346.5,128.5 C 347.376,128.369 348.043,128.702 348.5,129.5C 351.452,135.906 354.785,142.073 358.5,148C 360.167,149 361.833,150 363.5,151C 370.18,151.927 376.846,152.927 383.5,154C 377.258,159.571 371.758,165.738 367,172.5C 367.604,180.141 368.437,187.808 369.5,195.5C 363.443,192.973 357.443,190.14 351.5,187C 348.833,186.333 346.167,186.333 343.5,187C 337.557,190.14 331.557,192.973 325.5,195.5C 326.343,187.791 327.176,180.125 328,172.5C 323.242,165.738 317.742,159.571 311.5,154C 317.432,152.675 323.432,151.675 329.5,151C 331.949,150.275 334.283,149.275 336.5,148C 340.5,141.833 343.833,135.333 346.5,128.5 Z"/></g>
<g><path style="opacity:0.851" fill="#000000" d="M 418.5,191.5 C 425.808,191.639 428.974,195.305 428,202.5C 425.565,207.224 421.731,208.724 416.5,207C 412.788,204.398 411.622,200.898 413,196.5C 414.107,193.887 415.94,192.22 418.5,191.5 Z"/></g>
<g><path style="opacity:0.949" fill="#010100" d="M 241.5,216.5 C 246.609,215.923 250.776,217.59 254,221.5C 256.039,225.745 258.206,229.912 260.5,234C 265.922,234.57 271.255,235.57 276.5,237C 282.797,242.622 283.63,248.789 279,255.5C 276.333,258.167 273.667,260.833 271,263.5C 270.567,268.41 271.067,273.243 272.5,278C 270.698,286.802 265.365,290.469 256.5,289C 252.34,287.088 248.34,284.921 244.5,282.5C 240.136,284.682 235.802,286.849 231.5,289C 222.723,290.448 217.723,286.781 216.5,278C 217.717,273.208 218.217,268.375 218,263.5C 213.161,259.672 209.494,255.005 207,249.5C 206.151,242.682 208.984,238.182 215.5,236C 219.848,235.427 224.181,234.76 228.5,234C 230.523,230.27 232.356,226.437 234,222.5C 236.134,219.847 238.634,217.847 241.5,216.5 Z"/></g>
<g><path style="opacity:1" fill="#f6da7d" d="M 243.5,237.5 C 245.69,240.688 248.024,243.855 250.5,247C 253.898,248.916 257.565,249.916 261.5,250C 254.946,255.417 252.613,262.25 254.5,270.5C 247.632,265.205 240.798,265.205 234,270.5C 234.186,266.516 234.186,262.516 234,258.5C 231.872,255.37 229.372,252.537 226.5,250C 235.5,250.183 241.166,246.016 243.5,237.5 Z"/></g>
<g><path style="opacity:0.96" fill="#020100" d="M 511.5,250.5 C 511.5,259.5 511.5,268.5 511.5,277.5C 499.829,375.976 449.496,446.809 360.5,490C 334.11,501.263 306.776,508.429 278.5,511.5C 263.167,511.5 247.833,511.5 232.5,511.5C 160.592,503.801 101.759,472.134 56,416.5C 55.037,412.851 55.537,409.518 57.5,406.5C 60.4453,405.532 63.4453,405.366 66.5,406C 131.445,480.818 212.779,508.984 310.5,490.5C 398.396,467.3 456.896,412.633 486,326.5C 491.326,309.874 494.326,292.874 495,275.5C 486.652,294.222 475.819,311.222 462.5,326.5C 449.851,340.648 435.518,352.815 419.5,363C 414.027,366.641 409.027,366.141 404.5,361.5C 404.248,358.68 404.748,356.014 406,353.5C 446.236,328.58 473.903,293.58 489,248.5C 493.947,243.315 499.781,242.149 506.5,245C 508.402,246.73 510.069,248.563 511.5,250.5 Z"/></g>
<g><path style="opacity:1" fill="#f9d676" d="M 310.5,490.5 C 386.355,459.809 437.355,405.643 463.5,328C 463.43,327.235 463.097,326.735 462.5,326.5C 475.819,311.222 486.652,294.222 495,275.5C 494.326,292.874 491.326,309.874 486,326.5C 456.896,412.633 398.396,467.3 310.5,490.5 Z"/></g>
<g><path style="opacity:0.867" fill="#000000" d="M 321.5,307.5 C 331.336,310.004 333.002,315.17 326.5,323C 317.884,324.717 314.051,321.217 315,312.5C 316.603,309.965 318.769,308.298 321.5,307.5 Z"/></g>
<g><path style="opacity:0.953" fill="#010100" d="M 511.5,465.5 C 511.5,468.5 511.5,471.5 511.5,474.5C 507.55,478.787 503.55,483.12 499.5,487.5C 501.233,493.391 501.733,499.391 501,505.5C 499.64,508.023 497.807,510.023 495.5,511.5C 492.167,511.5 488.833,511.5 485.5,511.5C 481.949,509.139 478.115,507.139 474,505.5C 469.885,507.139 466.051,509.139 462.5,511.5C 459.5,511.5 456.5,511.5 453.5,511.5C 450.443,509.605 448.277,506.938 447,503.5C 447.117,497.476 447.45,491.476 448,485.5C 443.284,482.451 439.618,478.451 437,473.5C 435.711,468.035 437.211,463.535 441.5,460C 447.09,458.391 452.757,457.058 458.5,456C 460.794,451.912 462.961,447.745 465,443.5C 470.532,438.572 476.365,438.239 482.5,442.5C 485.088,446.674 487.421,451.007 489.5,455.5C 494.404,456.988 499.404,458.155 504.5,459C 508.015,460.018 510.348,462.185 511.5,465.5 Z"/></g>
<g><path style="opacity:0.858" fill="#000000" d="M 41.5,459.5 C 50.4926,458.66 53.9926,462.66 52,471.5C 44.6913,477.701 39.5246,476.201 36.5,467C 37.3305,463.809 38.9972,461.309 41.5,459.5 Z"/></g>
<g><path style="opacity:1" fill="#f5d97d" d="M 473.5,460.5 C 476.04,463.728 478.707,466.895 481.5,470C 484.784,471.125 488.117,472.125 491.5,473C 485.352,477.967 482.685,484.467 483.5,492.5C 477.167,488.5 470.833,488.5 464.5,492.5C 464.17,488.567 464.003,484.567 464,480.5C 462.023,477.688 459.856,475.022 457.5,472.5C 466.023,472.633 471.356,468.633 473.5,460.5 Z"/></g>
</svg>
