<?xml version="1.0" encoding="UTF-8"?>
<svg version="1.1" xmlns="http://www.w3.org/2000/svg" width="512" height="512">
<path d="M0 0 C7.11127671 5.07293974 12.99494428 11.30674862 14.5546875 20.14208984 C14.70164063 21.0852002 14.84859375 22.02831055 15 23 C16.03406982 22.98428955 17.06813965 22.9685791 18.13354492 22.95239258 C21.98193527 22.89795946 25.83029179 22.86360151 29.67895508 22.83520508 C31.34242481 22.82014886 33.00585505 22.79969937 34.66918945 22.77368164 C37.06471522 22.73715793 39.45971467 22.72024218 41.85546875 22.70703125 C42.5952446 22.69154739 43.33502045 22.67606354 44.09721375 22.66011047 C47.22459186 22.65909863 49.99464021 22.99852013 53.0090332 23.83081055 C55.56585748 26.61651058 55.29747916 27.9697385 55.3125 31.6875 C55.23205586 33.45956945 55.13513292 35.2312602 55 37 C55.86284607 36.99111755 56.72569214 36.98223511 57.61468506 36.9730835 C65.79306789 36.8925434 73.97131528 36.83183682 82.15000534 36.79275131 C86.35359529 36.77198066 90.55685433 36.74385873 94.76025391 36.69824219 C98.82571866 36.65440458 102.89086751 36.63078403 106.9565506 36.62049103 C108.49852717 36.61316698 110.04048876 36.59886716 111.5823288 36.57707977 C126.67809381 36.37247728 138.71574626 39.27787881 150 49.87890625 C160.7506658 61.34782774 162.31054888 73.89627496 162.1953125 89 C162.1915762 90.44588016 162.18873214 91.89176287 162.18673706 93.33764648 C162.17914914 97.11878615 162.15954307 100.89976892 162.1373291 104.68084717 C162.11676557 108.54892862 162.10771301 112.41703574 162.09765625 116.28515625 C162.07629193 123.85684188 162.04221549 131.42839885 162 139 C163.03305267 139.20119949 164.06610535 139.40239899 165.13046265 139.60969543 C166.49764332 139.87875536 167.864799 140.14794235 169.23193359 140.41723633 C169.91142563 140.54922676 170.59091766 140.68121719 171.29100037 140.81720734 C193.47056308 145.20283239 214.09661982 159.53861735 227 178 C241.67336949 200.59391956 247.93120123 226.546944 242.92333984 253.29931641 C239.10991469 270.57279093 231.16881673 286.10428516 218.8203125 298.80859375 C216.45887241 301.56413453 216.45887241 301.56413453 216 305 C218.57060863 310.79739893 221.87913349 317.49458907 227.76953125 320.3359375 C229.63158569 320.73699538 231.5021469 321.10040688 233.37890625 321.42578125 C241.14549945 323.12725547 245.16279601 330.43177224 249.1875 336.6875 C250.62841459 338.97651592 252.05721937 341.27264535 253.48193359 343.57177734 C256.09574285 347.75269513 258.80343729 351.87218478 261.5 356 C262.59018799 357.67816184 263.68003321 359.3565464 264.76953125 361.03515625 C266.9037441 364.31979797 269.04771352 367.5977559 271.19921875 370.87109375 C271.95525391 372.02641602 271.95525391 372.02641602 272.7265625 373.20507812 C273.67222444 374.65012036 274.62123009 376.09298224 275.57421875 377.53320312 C280.69783787 385.3826501 281.88108146 391.55984152 281 401 C278.35857147 411.79617434 266.596307 417.02495624 257.8203125 422.3984375 C251.70153376 425.87309024 244.46806063 426.18095205 237.6796875 424.38671875 C228.746291 420.41048149 223.60243879 411.18741757 218.6875 403.1875 C214.61696792 396.66145792 210.49082401 390.18464874 206.1953125 383.8046875 C205.78954483 383.201371 205.38377716 382.5980545 204.9657135 381.97645569 C203.35532246 379.58500666 201.74328336 377.19480138 200.1199646 374.81210327 C189.4817047 359.19590281 189.4817047 359.19590281 190.4375 349.5 C191.00615213 339.64647044 185.9493129 333.39414603 180 326 C175.87624313 326.53788133 171.81878272 327.2129979 167.7421875 328.0390625 C166.40583252 328.30904053 166.40583252 328.30904053 165.04248047 328.58447266 C164.36846191 328.72159668 163.69444336 328.8587207 163 329 C162.99780016 329.83239087 162.99780016 329.83239087 162.99555588 330.68159771 C162.95836264 344.23891478 162.89893538 357.79598131 162.81609726 371.35309887 C162.77669619 377.90948125 162.74447142 384.4657308 162.72900391 391.0222168 C162.71378902 397.3571791 162.67925721 403.69177602 162.63169098 410.02657509 C162.61692704 412.43567022 162.60896187 414.84481753 162.60811615 417.25395775 C162.58654025 447.91493322 162.58654025 447.91493322 152 461 C151.52175781 461.61359375 151.04351562 462.2271875 150.55078125 462.859375 C144.92774401 469.26142243 135.3904896 474.32379364 127 476 C125.32986886 476.09219328 123.65651743 476.13257664 121.98384953 476.13701439 C120.4582016 476.1446262 120.4582016 476.1446262 118.9017325 476.15239179 C117.22827553 476.15313843 117.22827553 476.15313843 115.52101135 476.15390015 C114.33436872 476.1582824 113.14772609 476.16266465 111.92512459 476.1671797 C108.62998853 476.17823742 105.33489988 476.18479001 102.03975213 476.18936086 C98.48602029 476.19532309 94.93230588 476.20693155 91.37858582 476.21765137 C82.79428597 476.24216378 74.20998035 476.25680218 65.62565628 476.26971143 C63.19980172 476.27342465 60.77394774 476.27739779 58.34809375 476.2814641 C43.27500685 476.30670532 28.20191902 476.32875252 13.12881565 476.34119225 C9.63804178 476.34412182 6.14726794 476.3470835 2.65649414 476.35009766 C1.78890667 476.35084371 0.9213192 476.35158976 0.0274412 476.35235842 C-14.0153462 476.36500201 -28.0580067 476.39821207 -42.10073482 476.43989949 C-56.52779338 476.48237558 -70.95478709 476.50589395 -85.381908 476.51111281 C-93.47821224 476.51452083 -101.57431829 476.52620367 -109.67056084 476.55921555 C-116.56847391 476.58729555 -123.46614815 476.59818079 -130.36411392 476.58702008 C-133.87978077 476.58185331 -137.39494812 476.5845892 -140.91054153 476.60948563 C-144.73349266 476.63224035 -148.55519962 476.62385061 -152.37815857 476.60800171 C-153.47372005 476.6218838 -154.56928154 476.63576588 -155.69804186 476.65006864 C-168.24290706 476.52261562 -179.13735224 471.89385426 -188 463 C-197.48046027 452.02454408 -199.60201654 440.90797364 -199.50793457 426.71131897 C-199.51255091 425.18419551 -199.51890873 423.6570765 -199.52684355 422.12996668 C-199.54345964 417.95928205 -199.53532592 413.78896605 -199.52289867 409.61828053 C-199.51381862 405.11033837 -199.52783258 400.60245795 -199.53881836 396.0945282 C-199.55657713 387.27337284 -199.55277526 378.45235386 -199.5411678 369.63119323 C-199.53212277 362.45954082 -199.5309141 355.28792654 -199.53526306 348.11627007 C-199.53587599 347.09434147 -199.53648893 346.07241288 -199.53712043 345.01951675 C-199.53839938 342.94327239 -199.53969623 340.86702804 -199.5410108 338.7907837 C-199.55240901 319.33501521 -199.5393151 299.8793222 -199.51780933 280.4235661 C-199.49994173 263.74303296 -199.50304116 247.0626112 -199.52148438 230.38208008 C-199.54290912 210.9959953 -199.55130762 191.60997663 -199.53903532 172.22388166 C-199.53776117 170.15510302 -199.53650369 168.08632436 -199.53526306 166.0175457 C-199.53464596 164.99975831 -199.53402886 163.98197092 -199.53339306 162.93334149 C-199.52994477 155.77388956 -199.53575731 148.61447968 -199.54518127 141.45503426 C-199.55642057 132.72481898 -199.55332076 123.99474749 -199.5320583 115.26454861 C-199.52157344 110.8133944 -199.51738208 106.36247959 -199.53065491 101.91132736 C-199.54263821 97.83078882 -199.53591933 93.75070995 -199.5147447 89.67021268 C-199.5103036 88.19995197 -199.51248836 86.72965185 -199.52224785 85.25941683 C-199.60050085 72.48344816 -197.69812715 61.72277563 -189 52 C-188.236875 51.13375 -187.47375 50.2675 -186.6875 49.375 C-177.52031145 41.27376361 -168.31873348 36.86429057 -156.0065918 36.88647461 C-154.98137169 36.88625557 -154.98137169 36.88625557 -153.93544006 36.8860321 C-151.68999999 36.88672538 -149.44464423 36.89449026 -147.19921875 36.90234375 C-145.63694809 36.90421001 -144.07467685 36.90563293 -142.5124054 36.90663147 C-138.41069916 36.91044028 -134.30902861 36.92025654 -130.20733643 36.93133545 C-126.01778649 36.9415848 -121.82823075 36.94613663 -117.63867188 36.95117188 C-109.42576491 36.96188033 -101.2128869 36.97893703 -93 37 C-93.05800781 36.32453125 -93.11601563 35.6490625 -93.17578125 34.953125 C-93.54221353 27.70823526 -93.54221353 27.70823526 -91.0090332 24.39941406 C-87.21906581 22.63681016 -83.94836486 22.49515335 -79.85546875 22.609375 C-79.08568192 22.61503479 -78.31589508 22.62069458 -77.52278137 22.62652588 C-75.07704057 22.64882128 -72.6327939 22.69900125 -70.1875 22.75 C-68.52410978 22.770074 -66.86069647 22.7883232 -65.19726562 22.8046875 C-61.13093942 22.84866316 -57.06572256 22.91764021 -53 23 C-52.80374023 22.38656738 -52.60748047 21.77313477 -52.40527344 21.14111328 C-52.14262695 20.33399902 -51.87998047 19.52688477 -51.609375 18.6953125 C-51.35124023 17.89625488 -51.09310547 17.09719727 -50.82714844 16.27392578 C-47.77126414 7.87294989 -40.8390722 1.44803789 -32.89453125 -2.2734375 C-23.04401561 -6.05116102 -9.00187806 -5.65604728 0 0 Z " fill="#141D24" transform="translate(215,20)"/>
<path d="M0 0 C1.16804169 0.00444122 2.33608337 0.00888245 3.53952026 0.01345825 C4.18354797 0.0131662 4.82757568 0.01287415 5.49111938 0.01257324 C7.623112 0.0139683 9.75475655 0.02953729 11.88668823 0.04519653 C13.36356414 0.04892605 14.84044252 0.05177331 16.31732178 0.05377197 C20.20704971 0.0614133 24.09662861 0.08106596 27.98629761 0.10317993 C31.95437606 0.12362768 35.92247855 0.13277139 39.89059448 0.14285278 C47.67842289 0.16431147 55.46612844 0.19845331 63.25387573 0.24050903 C63.30286011 0.93918091 63.35184448 1.63785278 63.40231323 2.35769653 C63.51446167 3.72281372 63.51446167 3.72281372 63.62887573 5.11550903 C63.73328979 6.47289185 63.73328979 6.47289185 63.83981323 7.85769653 C64.04955706 10.41992806 64.04955706 10.41992806 66.25387573 12.24050903 C68.80722407 12.54835771 68.80722407 12.54835771 71.83383179 12.50120544 C73.02008652 12.50829025 74.20634125 12.51537506 75.42854309 12.52267456 C76.73666458 12.52019714 78.04478607 12.51771973 79.39254761 12.51516724 C80.77874528 12.51951255 82.16494054 12.5246951 83.5511322 12.53065491 C87.32171591 12.54407469 91.09219956 12.54462036 94.86280251 12.54209161 C98.00666284 12.54102405 101.15050275 12.54589966 104.29435873 12.55069703 C111.70845147 12.56180222 119.12249354 12.56222375 126.53659058 12.55618286 C134.19494209 12.55013911 141.85311007 12.56246187 149.51143026 12.58375293 C156.07876304 12.60134212 162.64603725 12.6073746 169.21339273 12.60411519 C173.13928623 12.6022981 177.06504877 12.60498066 180.99092102 12.61882973 C184.68125916 12.63136027 188.37131012 12.62950976 192.0616436 12.61641884 C194.06750606 12.612907 196.07337709 12.62426567 198.07920837 12.63598633 C199.85859047 12.62546486 199.85859047 12.62546486 201.67391968 12.61473083 C202.70926094 12.61489858 203.7446022 12.61506632 204.81131744 12.61523914 C205.61736168 12.49157821 206.42340591 12.36791727 207.25387573 12.24050903 C209.27737897 9.20525417 209.57511591 8.04624702 209.87887573 4.55300903 C209.95364136 3.74476685 210.02840698 2.93652466 210.10543823 2.10379028 C210.17891479 1.18146606 210.17891479 1.18146606 210.25387573 0.24050903 C218.67697914 0.17103288 227.09996305 0.11771017 235.52328205 0.08507252 C239.434478 0.06940894 243.34547807 0.0481584 247.25656128 0.01419067 C251.03019832 -0.01837865 254.80364683 -0.03633877 258.57741356 -0.0441227 C260.0179561 -0.04967062 261.45848819 -0.06050432 262.89895058 -0.07668114 C264.91469913 -0.09842055 266.93063694 -0.09971607 268.94650269 -0.10006714 C270.09455887 -0.10672897 271.24261505 -0.11339081 272.42546082 -0.12025452 C275.25387573 0.24050903 275.25387573 0.24050903 277.12680054 1.37332153 C278.77770512 4.10831954 278.61320302 6.27464547 278.5944519 9.45608521 C278.59422531 10.73718674 278.59399872 12.01828827 278.59376526 13.33821106 C278.5784453 14.73663685 278.56279732 16.13505907 278.54684448 17.53347778 C278.54124841 18.96408138 278.53697836 20.39469072 278.53398132 21.82530212 C278.52253329 25.58852036 278.49306688 29.35139059 278.45986938 33.11447144 C278.42916736 36.9552642 278.41547573 40.79611327 278.40036011 44.63699341 C278.36819679 52.17165718 278.31700139 59.70603432 278.25387573 67.24050903 C277.18878784 67.62505249 276.12369995 68.00959595 275.02633667 68.40579224 C259.40046345 74.11040475 246.97231445 81.36227343 235.25387573 93.24050903 C234.58871948 93.90695435 233.92356323 94.57339966 233.23825073 95.26004028 C215.54414057 114.18955003 209.16492091 139.01634344 209.87106323 164.20144653 C210.27028331 172.22351039 211.72188093 179.63288326 214.25387573 187.24050903 C214.46286499 187.88133423 214.67185425 188.52215942 214.88717651 189.18240356 C223.21430953 213.9267756 240.5153595 231.28925793 263.32028198 243.41629028 C268.16746162 245.66418789 273.23251154 247.41455842 278.25387573 249.24050903 C278.25387573 268.71050903 278.25387573 288.18050903 278.25387573 308.24050903 C256.96887573 308.73550903 256.96887573 308.73550903 235.25387573 309.24050903 C234.92387573 326.40050903 234.59387573 343.56050903 234.25387573 361.24050903 C204.09552175 361.28456947 173.9371855 361.32150948 143.77880833 361.34263969 C140.22134376 361.34514122 136.66387926 361.34772985 133.10641479 361.35037231 C132.04403817 361.35115925 132.04403817 361.35115925 130.9601994 361.35196207 C119.48022221 361.36067352 108.00026497 361.37644754 96.52029963 361.39481463 C84.74782203 361.41349314 72.97535491 361.42462141 61.2028631 361.42868602 C54.58747865 361.43130012 47.97213952 361.4374711 41.35676956 361.45196915 C35.13690714 361.46549065 28.91710892 361.46974274 22.6972332 361.4667244 C20.40823836 361.467277 18.1192415 361.47128663 15.83025932 361.47891998 C12.71736636 361.48879629 9.60471934 361.48650483 6.49182129 361.48101807 C5.11732769 361.48975659 5.11732769 361.48975659 3.71506655 361.49867165 C-2.51788185 361.46875145 -2.51788185 361.46875145 -4.74612427 359.24050903 C-4.9968226 356.70531893 -4.9968226 356.70531893 -4.99780655 353.42459869 C-5.00302204 352.17827777 -5.00823754 350.93195685 -5.01361108 349.64786863 C-5.00928629 348.25203107 -5.00477295 346.85619408 -5.00009155 345.46035767 C-5.00239391 343.98750164 -5.00556891 342.51464676 -5.00954604 341.0417943 C-5.01793366 336.97978141 -5.01375089 332.91786188 -5.0075736 328.85584855 C-5.00306625 324.4808832 -5.01002431 320.1059344 -5.01553345 315.73097229 C-5.02444752 307.1546115 -5.0224965 298.57828563 -5.01670817 290.00192344 C-5.01219958 283.03449775 -5.01157528 276.06708188 -5.0137558 269.09965515 C-5.01406226 268.10969961 -5.01436873 267.11974408 -5.01468448 266.09978989 C-5.01532391 264.08899541 -5.01597233 262.07820094 -5.01662967 260.06740648 C-5.02233886 241.19238131 -5.01576584 222.31737553 -5.00502893 203.44235355 C-4.99609289 187.23101936 -4.99764477 171.0197138 -5.00686646 154.80838013 C-5.0175587 136.00295207 -5.02178948 117.19754102 -5.01564193 98.39211035 C-5.0150048 96.38852787 -5.01437606 94.3849454 -5.0137558 92.38136292 C-5.01344725 91.39544695 -5.0131387 90.40953098 -5.0128208 89.39373878 C-5.01109071 82.43108274 -5.01401569 75.46843745 -5.0187149 68.50578308 C-5.02431214 60.02579826 -5.02283178 51.54585048 -5.01215342 43.06586993 C-5.00688104 38.73556772 -5.00486644 34.40532737 -5.01145172 30.07502556 C-5.0173811 26.11628581 -5.01418633 22.15766567 -5.00349662 18.19893688 C-5.00124971 16.76155591 -5.00242748 15.32416498 -5.00724819 13.88679034 C-5.01326967 11.94334013 -5.0059393 9.99986189 -4.99780655 8.05641937 C-4.99748184 6.9737817 -4.99715714 5.89114402 -4.9968226 4.77569914 C-4.632294 1.08939896 -3.65705572 0.32028956 0 0 Z " fill="#FDFDFD" transform="translate(59.746124267578125,95.75949096679688)"/>
<path d="M0 0 C14.97904257 10.60024838 25.48491848 24.89117233 31.375 42.1875 C31.75156738 43.29182373 31.75156738 43.29182373 32.13574219 44.41845703 C33.79241776 49.59296882 34.61654796 54.58687561 35 60 C35.05043457 60.68956787 35.10086914 61.37913574 35.15283203 62.08959961 C36.35559513 82.62178833 30.39166735 103.93204756 16.96484375 119.85546875 C16.31644531 120.56316406 15.66804687 121.27085937 15 122 C14.17628906 122.90363281 13.35257813 123.80726563 12.50390625 124.73828125 C3.11175094 134.58339157 -7.4165421 140.88105523 -20 146 C-20.98613281 146.41636719 -21.97226562 146.83273437 -22.98828125 147.26171875 C-41.79248573 153.93568921 -64.39917486 151.45325791 -82.21142578 143.2644043 C-89.56458982 139.71427687 -95.97763057 135.55451594 -102 130 C-103.37091797 128.76636719 -103.37091797 128.76636719 -104.76953125 127.5078125 C-111.60603437 121.0547521 -116.54066189 114.25690229 -121 106 C-121.48210937 105.12988281 -121.96421875 104.25976562 -122.4609375 103.36328125 C-131.71719349 85.04711409 -132.83646379 62.54783932 -126.72753906 43.11035156 C-118.73593644 19.92934048 -103.81742607 3.92425895 -82.1484375 -7.50390625 C-55.58916384 -20.32430492 -23.97835849 -16.19433913 0 0 Z " fill="#6EA66E" transform="translate(411,186)"/>
<path d="M0 0 C0.94632294 -0.0071553 1.89264587 -0.01431061 2.86764526 -0.02168274 C3.90923294 -0.02437164 4.95082062 -0.02706055 6.02397156 -0.02983093 C7.11838562 -0.03640213 8.21279968 -0.04297333 9.34037781 -0.04974365 C12.97408612 -0.06950821 16.60775307 -0.08114575 20.24150085 -0.09111023 C21.4801055 -0.09518576 22.71871014 -0.09926128 23.99484825 -0.10346031 C29.87294975 -0.12217968 35.75103805 -0.13674299 41.62916213 -0.14507228 C48.41315006 -0.15484399 55.19681164 -0.18116127 61.98068458 -0.22157317 C67.85717792 -0.25537765 73.7335618 -0.26721776 79.61014366 -0.27127647 C82.10963849 -0.27615638 84.60912947 -0.28781 87.10856056 -0.30631447 C90.60406794 -0.33058645 94.09871873 -0.32976239 97.59428406 -0.32279968 C98.62979904 -0.33560974 99.66531403 -0.3484198 100.73220825 -0.36161804 C105.07701076 -0.33001973 107.75233503 -0.28992011 111.56002808 1.92654419 C114.63222068 5.43736297 115.75110185 8.10089777 115.77064514 12.76383972 C115.77917511 13.68622437 115.78770508 14.60860901 115.79649353 15.5589447 C115.79558716 16.56371857 115.79468079 17.56849243 115.79374695 18.60371399 C115.80046417 19.6675531 115.8071814 20.73139221 115.81410217 21.82746887 C115.83311727 25.34814612 115.83700814 28.8686331 115.8391571 32.38935852 C115.84558247 34.8354958 115.85231063 37.2816323 115.85932922 39.72776794 C115.87131071 44.85733319 115.87500913 49.98683105 115.87382507 55.1164093 C115.87362181 61.68944244 115.90092799 68.26204356 115.93536949 74.83497429 C115.95760621 79.88788335 115.9616636 84.94068791 115.96060562 89.9936409 C115.96296629 92.41694249 115.97181586 94.84024676 115.98727036 97.26350021 C116.00686465 100.65325432 116.00111733 104.04206979 115.98905945 107.43183899 C116.00029846 108.43256439 116.01153748 109.43328979 116.02311707 110.46434021 C115.9715944 116.16399682 115.49400473 119.73268768 111.5032196 124.14717102 C108.52703511 125.97974282 106.2818955 126.40150464 102.81062317 126.42132568 C101.87141022 126.43130081 100.93219727 126.44127594 99.96452332 126.45155334 C98.94104797 126.45221802 97.91757263 126.45288269 96.86308289 126.4535675 C95.77973663 126.46189102 94.69639038 126.47021454 93.58021545 126.47879028 C89.99461791 126.50290979 86.4092022 126.51166461 82.8235321 126.51826477 C80.33255457 126.52722912 77.8415776 126.53635093 75.3506012 126.54562378 C70.12688385 126.56212131 64.90323067 126.56981539 59.67948914 126.57270813 C54.31537775 126.5759413 48.9516742 126.59708151 43.58769226 126.63423157 C37.11208701 126.67840998 30.63686608 126.69817163 24.16111374 126.69943428 C21.69314181 126.70364253 19.22516969 126.71610086 16.75728226 126.73695183 C13.30511856 126.76379839 9.85436007 126.75905969 6.40214539 126.74653625 C4.87300507 126.76878769 4.87300507 126.76878769 3.31297302 126.79148865 C-1.20515111 126.74480058 -4.48369498 126.66513218 -8.11546326 123.79721069 C-11.18878301 120.37707856 -11.62011313 118.04512457 -11.65068054 113.61279297 C-11.66358124 112.21865677 -11.66358124 112.21865677 -11.67674255 110.7963562 C-11.68313248 109.26977638 -11.68313248 109.26977638 -11.68965149 107.71235657 C-11.69782898 106.63890991 -11.70600647 105.56546326 -11.71443176 104.45948792 C-11.73928028 100.90096089 -11.75579928 97.34247371 -11.7702179 93.78388977 C-11.77554157 92.56951548 -11.78086525 91.35514118 -11.78635025 90.10396767 C-11.81307773 83.6780269 -11.83245515 77.25210554 -11.84687805 70.8261261 C-11.86353714 64.18463676 -11.9083273 57.54365456 -11.9592495 50.90233135 C-11.99287816 45.79882222 -12.00445065 40.69543134 -12.01010513 35.59182167 C-12.01682818 33.1433769 -12.03207736 30.69494019 -12.05599594 28.24660301 C-12.0875586 24.82071211 -12.08769705 21.39616676 -12.08027649 17.97016907 C-12.09668182 16.95852188 -12.11308716 15.94687469 -12.12998962 14.90457153 C-12.08969099 10.3610228 -12.00655618 7.15620938 -9.08531189 3.53323364 C-5.76928402 0.47657771 -4.36964709 0.02263568 0 0 Z " fill="#C7915C" transform="translate(144.4967803955078,129.8528289794922)"/>
<path d="M0 0 C1.02478203 -0.00021904 1.02478203 -0.00021904 2.07026672 -0.0004425 C4.32658065 0.0002537 6.58281184 0.00803243 8.83911133 0.01586914 C10.40424047 0.01773436 11.96937019 0.01915777 13.53450012 0.02015686 C17.65267551 0.02397387 21.7708156 0.03379721 25.88897705 0.04486084 C30.09175133 0.05509248 34.29453131 0.05965824 38.49731445 0.06469727 C46.74277516 0.0754202 54.98820041 0.09301041 63.23364258 0.11352539 C63.23364258 4.40352539 63.23364258 8.69352539 63.23364258 13.11352539 C61.23543457 13.12810791 59.23722656 13.14269043 57.1784668 13.15771484 C50.56461336 13.20812928 43.95099366 13.2747363 37.33736992 13.3492403 C33.32885639 13.39390254 29.32044353 13.43316757 25.31176758 13.45996094 C21.44066884 13.48603564 17.56995831 13.5264669 13.69910049 13.57671165 C12.22483283 13.59335233 10.75049806 13.60488403 9.27614975 13.6111393 C7.20541773 13.62081139 5.13567257 13.64890479 3.06518555 13.68115234 C1.29979935 13.69780693 1.29979935 13.69780693 -0.50125122 13.71479797 C-6.71425571 14.47351609 -10.7570676 17.4360206 -14.76635742 22.11352539 C-16.6615165 25.95018932 -17.01809652 29.05703892 -17.02362633 33.31305408 C-17.03007522 34.56861475 -17.03652411 35.82417541 -17.04316843 37.11778337 C-17.04022624 38.50852041 -17.03709081 39.89925706 -17.03378296 41.28999329 C-17.03751954 42.76941271 -17.04212109 44.24883017 -17.0475136 45.72824448 C-17.05975808 49.79469045 -17.05948144 53.86105423 -17.05712485 57.92751443 C-17.05671705 62.3127732 -17.06775233 66.69800549 -17.07723999 71.08325195 C-17.0938589 79.67524505 -17.09934994 88.2672107 -17.10046475 96.85921852 C-17.1014148 103.84273095 -17.10552296 110.82623432 -17.111866 117.80974388 C-17.12948085 137.60585513 -17.13870449 157.40194469 -17.13720505 177.19806383 C-17.13712514 178.26546644 -17.13704522 179.33286905 -17.13696289 180.43261719 C-17.13688113 181.5013219 -17.13679937 182.57002661 -17.13671513 183.67111631 C-17.13590216 200.99248892 -17.15504189 218.31377458 -17.18323962 235.63512204 C-17.21195915 253.4172003 -17.22578043 271.19923615 -17.22405207 288.9813382 C-17.22338785 298.96598779 -17.22889433 308.95054623 -17.25040817 318.93517494 C-17.26860771 327.43616891 -17.27297741 335.93703041 -17.25938933 344.43803541 C-17.25285346 348.77524969 -17.25276468 353.11220976 -17.27009583 357.44939995 C-17.28580443 361.42139928 -17.28298581 365.39294236 -17.26552756 369.36493041 C-17.26245276 370.80031286 -17.2661082 372.23572917 -17.27724771 373.67107169 C-17.33432516 381.54855009 -17.2032862 387.45453247 -12.76635742 394.11352539 C-8.50283624 397.50694021 -5.0157795 399.23817619 0.42066193 399.23936653 C1.70699437 399.24327815 1.70699437 399.24327815 3.01931334 399.2472688 C3.96181078 399.24503807 4.90430823 399.24280735 5.87536621 399.24050903 C7.37674157 399.24284902 7.37674157 399.24284902 8.90844774 399.24523628 C12.2779285 399.2492397 15.64736457 399.24605915 19.0168457 399.24291992 C21.42618333 399.24427425 23.83552076 399.24605437 26.24485779 399.24822998 C32.11894877 399.25232537 37.99302805 399.25171362 43.86711872 399.24881734 C48.64009702 399.24656117 53.41307173 399.24625171 58.18605042 399.24734116 C58.86474128 399.24749439 59.54343215 399.24764762 60.2426894 399.2478055 C61.62133261 399.24812522 62.99997581 399.24844943 64.37861902 399.24877809 C77.31349487 399.25163128 90.24836364 399.24834837 103.18323833 399.24297772 C114.28777116 399.23850983 125.39229353 399.23928581 136.49682617 399.24389648 C149.38465723 399.24924507 162.27248207 399.25135661 175.16031408 399.24828422 C176.5339543 399.24796566 177.90759452 399.24765129 179.28123474 399.24734116 C180.29508462 399.24710974 180.29508462 399.24710974 181.3294163 399.24687365 C186.09799475 399.24600936 190.86656926 399.24746951 195.63514709 399.24982071 C202.0503857 399.25291421 208.46560918 399.25071937 214.88084602 399.24492645 C217.240372 399.24360012 219.59989964 399.24399083 221.95942497 399.24618912 C225.17027908 399.24890556 228.38106897 399.24551334 231.59191895 399.24050903 C233.00566512 399.24385512 233.00566512 399.24385512 234.44797182 399.2472688 C235.30552679 399.24466105 236.16308175 399.2420533 237.04662323 399.23936653 C237.7881097 399.23920418 238.52959617 399.23904183 239.29355192 399.23887455 C242.51246991 399.03090042 243.99481662 398.37345244 246.17895508 395.99633789 C246.89825195 395.08625977 247.61754883 394.17618164 248.35864258 393.23852539 C249.16172852 392.23305664 249.96481445 391.22758789 250.79223633 390.19165039 C251.59790039 389.17586914 252.40356445 388.16008789 253.23364258 387.11352539 C254.62594627 385.40231415 256.02175441 383.69394798 257.42114258 381.98852539 C258.15977539 381.08618164 258.8984082 380.18383789 259.65942383 379.25415039 C260.51737832 378.20717834 261.37546276 377.16031276 262.23364258 376.11352539 C262.75619629 375.47608398 263.27875 374.83864258 263.81713867 374.18188477 C270.43562834 366.11341464 277.06500411 358.05802453 283.8581543 350.13549805 C287.82733587 345.48667258 289.48088588 342.97606107 289.55249023 336.80615234 C289.57235992 335.50503006 289.59222961 334.20390778 289.61270142 332.86335754 C289.62457789 331.4428423 289.63624074 330.02232527 289.64770508 328.60180664 C289.66641492 327.14876706 289.6859882 325.69573836 289.70639038 324.24272156 C289.75773722 320.42054662 289.79734911 316.59833644 289.83453369 312.77600098 C289.87455745 308.87474839 289.92565719 304.97364269 289.97583008 301.07250977 C290.07261962 293.41960806 290.15599075 285.7666496 290.23364258 278.11352539 C294.85364258 278.44352539 299.47364258 278.77352539 304.23364258 279.11352539 C304.32647088 293.15259625 304.397473 307.19159366 304.44089127 321.23090935 C304.46173366 327.75048568 304.48999074 334.26985146 304.53540039 340.78930664 C304.57897662 347.08519678 304.60280486 353.38088486 304.61315155 359.67691422 C304.62052172 362.07459823 304.63491383 364.47227163 304.65656281 366.86986923 C304.68575245 370.23762349 304.68959196 373.60455098 304.68774414 376.97241211 C304.70212524 377.95568985 304.71650635 378.93896759 304.73132324 379.95204163 C304.66796845 390.67762521 300.95116049 398.27549589 293.61254883 405.97680664 C287.99866138 411.01916532 281.77020542 413.22846605 274.29278564 413.25333309 C273.29248731 413.25902433 272.29218897 413.26471557 271.26157856 413.27057928 C270.1647132 413.27175916 269.06784784 413.27293903 267.93774414 413.27415466 C266.18734848 413.28178639 266.18734848 413.28178639 264.4015913 413.2895723 C261.16154232 413.30256775 257.92151804 413.31105771 254.68145061 413.31754529 C251.90246563 413.32392184 249.12349902 413.33399119 246.34452552 413.34410595 C237.18868042 413.37741226 228.03282415 413.39894904 218.87693834 413.4173058 C216.49191158 413.42210251 214.10688527 413.42708563 211.72185898 413.43211102 C196.9033828 413.46308585 182.08490267 413.48976441 167.2664032 413.50652981 C163.83474724 413.51047915 160.40309136 413.51448217 156.97143555 413.51855469 C156.11853884 413.51956305 155.26564213 413.52057141 154.38690007 413.52161033 C140.57943833 413.5386067 126.77215614 413.579705 112.964782 413.63057768 C98.78068233 413.68240728 84.59667487 413.71147915 70.41248131 413.71872669 C62.45198226 413.7233824 54.49177717 413.73806453 46.53137207 413.77847099 C39.74978516 413.8128525 32.96854528 413.82667771 26.18687624 413.81404685 C22.72997541 413.80823861 19.27380772 413.81195164 15.81701851 413.84221649 C12.05921414 413.86994771 8.30323105 413.86036382 4.54541016 413.84178162 C3.46639057 413.85857655 2.38737099 413.87537147 1.27565384 413.89267534 C-7.55707476 413.78400927 -15.09992131 411.02997903 -21.92138958 405.3048467 C-30.53899724 396.23718437 -31.35540371 386.09939888 -31.28102112 374.08349609 C-31.28635339 372.57230866 -31.29342299 371.06112653 -31.30206817 369.54995441 C-31.32063206 365.41876293 -31.31441229 361.28793146 -31.30391514 357.15672541 C-31.29690537 352.69310577 -31.31293445 348.22955876 -31.32591248 343.76596069 C-31.34752738 335.03023619 -31.34743212 326.29464208 -31.33928693 317.55889964 C-31.33298131 310.45776153 -31.33412912 303.35666139 -31.34055901 296.25552368 C-31.34146066 295.2439836 -31.34236232 294.23244351 -31.34329129 293.19025069 C-31.34514253 291.13518134 -31.34700509 289.08011199 -31.34887885 287.02504265 C-31.36544834 267.7648687 -31.35674509 248.50476805 -31.33989327 229.24459851 C-31.32519452 211.63064114 -31.33982871 194.01685434 -31.36866344 176.40291893 C-31.39806689 158.30651687 -31.40902711 140.21019349 -31.39948124 122.11376858 C-31.39845871 120.06635477 -31.3974641 118.01894094 -31.39649773 115.9715271 C-31.39602134 114.96421974 -31.39554495 113.95691238 -31.39505412 112.91908056 C-31.39289139 105.82831701 -31.4026865 98.7376281 -31.41726875 91.6468811 C-31.43479764 83.00293327 -31.43466657 74.35920292 -31.4119171 65.71526361 C-31.40078045 61.30684197 -31.39759931 56.89880342 -31.4162178 52.49039841 C-31.43305743 48.45116362 -31.42662504 44.41264504 -31.40200102 40.37345636 C-31.39712873 38.9159858 -31.40060344 37.45845708 -31.41348846 36.00103533 C-31.49713471 25.79993688 -30.00013211 18.70785442 -23.80932617 10.52758789 C-16.69364129 3.66656962 -10.01219512 -0.01797522 0 0 Z " fill="#A0CBF6" transform="translate(59.766357421875,69.886474609375)"/>
<path d="M0 0 C0.94632294 -0.0071553 1.89264587 -0.01431061 2.86764526 -0.02168274 C3.90923294 -0.02437164 4.95082062 -0.02706055 6.02397156 -0.02983093 C7.11838562 -0.03640213 8.21279968 -0.04297333 9.34037781 -0.04974365 C12.97408612 -0.06950821 16.60775307 -0.08114575 20.24150085 -0.09111023 C21.4801055 -0.09518576 22.71871014 -0.09926128 23.99484825 -0.10346031 C29.87294975 -0.12217968 35.75103805 -0.13674299 41.62916213 -0.14507228 C48.41315006 -0.15484399 55.19681164 -0.18116127 61.98068458 -0.22157317 C67.85717792 -0.25537765 73.7335618 -0.26721776 79.61014366 -0.27127647 C82.10963849 -0.27615638 84.60912947 -0.28781 87.10856056 -0.30631447 C90.60406794 -0.33058645 94.09871873 -0.32976239 97.59428406 -0.32279968 C98.62979904 -0.33560974 99.66531403 -0.3484198 100.73220825 -0.36161804 C105.07701076 -0.33001973 107.75233503 -0.28992011 111.56002808 1.92654419 C114.63222068 5.43736297 115.75110185 8.10089777 115.77064514 12.76383972 C115.77917511 13.68622437 115.78770508 14.60860901 115.79649353 15.5589447 C115.79558716 16.56371857 115.79468079 17.56849243 115.79374695 18.60371399 C115.80046417 19.6675531 115.8071814 20.73139221 115.81410217 21.82746887 C115.83311727 25.34814612 115.83700814 28.8686331 115.8391571 32.38935852 C115.84558247 34.8354958 115.85231063 37.2816323 115.85932922 39.72776794 C115.87131071 44.85733319 115.87500913 49.98683105 115.87382507 55.1164093 C115.87362181 61.68944244 115.90092799 68.26204356 115.93536949 74.83497429 C115.95760621 79.88788335 115.9616636 84.94068791 115.96060562 89.9936409 C115.96296629 92.41694249 115.97181586 94.84024676 115.98727036 97.26350021 C116.00686465 100.65325432 116.00111733 104.04206979 115.98905945 107.43183899 C116.00029846 108.43256439 116.01153748 109.43328979 116.02311707 110.46434021 C115.9715944 116.16399682 115.49400473 119.73268768 111.5032196 124.14717102 C108.52703511 125.97974282 106.2818955 126.40150464 102.81062317 126.42132568 C101.87141022 126.43130081 100.93219727 126.44127594 99.96452332 126.45155334 C98.94104797 126.45221802 97.91757263 126.45288269 96.86308289 126.4535675 C95.77973663 126.46189102 94.69639038 126.47021454 93.58021545 126.47879028 C89.99461791 126.50290979 86.4092022 126.51166461 82.8235321 126.51826477 C80.33255457 126.52722912 77.8415776 126.53635093 75.3506012 126.54562378 C70.12688385 126.56212131 64.90323067 126.56981539 59.67948914 126.57270813 C54.31537775 126.5759413 48.9516742 126.59708151 43.58769226 126.63423157 C37.11208701 126.67840998 30.63686608 126.69817163 24.16111374 126.69943428 C21.69314181 126.70364253 19.22516969 126.71610086 16.75728226 126.73695183 C13.30511856 126.76379839 9.85436007 126.75905969 6.40214539 126.74653625 C4.87300507 126.76878769 4.87300507 126.76878769 3.31297302 126.79148865 C-1.20515111 126.74480058 -4.48369498 126.66513218 -8.11546326 123.79721069 C-11.18878301 120.37707856 -11.62011313 118.04512457 -11.65068054 113.61279297 C-11.66358124 112.21865677 -11.66358124 112.21865677 -11.67674255 110.7963562 C-11.68313248 109.26977638 -11.68313248 109.26977638 -11.68965149 107.71235657 C-11.69782898 106.63890991 -11.70600647 105.56546326 -11.71443176 104.45948792 C-11.73928028 100.90096089 -11.75579928 97.34247371 -11.7702179 93.78388977 C-11.77554157 92.56951548 -11.78086525 91.35514118 -11.78635025 90.10396767 C-11.81307773 83.6780269 -11.83245515 77.25210554 -11.84687805 70.8261261 C-11.86353714 64.18463676 -11.9083273 57.54365456 -11.9592495 50.90233135 C-11.99287816 45.79882222 -12.00445065 40.69543134 -12.01010513 35.59182167 C-12.01682818 33.1433769 -12.03207736 30.69494019 -12.05599594 28.24660301 C-12.0875586 24.82071211 -12.08769705 21.39616676 -12.08027649 17.97016907 C-12.09668182 16.95852188 -12.11308716 15.94687469 -12.12998962 14.90457153 C-12.08969099 10.3610228 -12.00655618 7.15620938 -9.08531189 3.53323364 C-5.76928402 0.47657771 -4.36964709 0.02263568 0 0 Z M0.5032196 12.14717102 C0.5032196 45.80717102 0.5032196 79.46717102 0.5032196 114.14717102 C34.1632196 114.14717102 67.8232196 114.14717102 102.5032196 114.14717102 C102.5032196 80.48717102 102.5032196 46.82717102 102.5032196 12.14717102 C92.2732196 12.14717102 82.0432196 12.14717102 71.5032196 12.14717102 C71.46583679 14.56674133 71.42845398 16.98631165 71.38993835 19.47920227 C71.34372708 21.8224746 71.29249217 24.16558693 71.24076843 26.50874329 C71.20751425 28.13722511 71.17948376 29.76582233 71.15678406 31.39448547 C71.12324604 33.73572463 71.07093376 36.07590588 71.01493835 38.41670227 C71.00854843 39.14492691 71.00215851 39.87315155 70.99557495 40.6234436 C70.91459735 43.40727283 70.78393722 45.64004373 69.42045593 48.10322571 C66.41237014 49.74114432 63.71701995 49.55537254 60.3157196 49.58076477 C59.26734924 49.58862755 59.26734924 49.58862755 58.19779968 49.59664917 C56.72182035 49.60306549 55.24578985 49.60173733 53.76982117 49.59321594 C51.5107586 49.58469944 49.25422016 49.6134764 46.9954071 49.6452179 C45.56051203 49.64682989 44.12561248 49.64625241 42.6907196 49.64326477 C41.38489929 49.6451178 40.07907898 49.64697083 38.73368835 49.64888 C35.5032196 49.14717102 35.5032196 49.14717102 33.58598328 47.5917511 C32.10919494 44.2575726 32.02417143 41.12285734 31.99150085 37.53779602 C31.96457405 36.44758148 31.96457405 36.44758148 31.93710327 35.33534241 C31.88308719 33.02267695 31.84913401 30.71021681 31.8157196 28.39717102 C31.78253867 26.82552792 31.74804829 25.25391188 31.71220398 23.68232727 C31.62490807 19.83724712 31.56477135 15.99309375 31.5032196 12.14717102 C21.2732196 12.14717102 11.0432196 12.14717102 0.5032196 12.14717102 Z " fill="#141C23" transform="translate(144.4967803955078,129.8528289794922)"/>
<path d="M0 0 C14.97904257 10.60024838 25.48491848 24.89117233 31.375 42.1875 C31.75156738 43.29182373 31.75156738 43.29182373 32.13574219 44.41845703 C33.79241776 49.59296882 34.61654796 54.58687561 35 60 C35.05043457 60.68956787 35.10086914 61.37913574 35.15283203 62.08959961 C36.35559513 82.62178833 30.39166735 103.93204756 16.96484375 119.85546875 C16.31644531 120.56316406 15.66804687 121.27085937 15 122 C14.17628906 122.90363281 13.35257813 123.80726563 12.50390625 124.73828125 C3.11175094 134.58339157 -7.4165421 140.88105523 -20 146 C-20.98613281 146.41636719 -21.97226562 146.83273437 -22.98828125 147.26171875 C-41.79248573 153.93568921 -64.39917486 151.45325791 -82.21142578 143.2644043 C-89.56458982 139.71427687 -95.97763057 135.55451594 -102 130 C-103.37091797 128.76636719 -103.37091797 128.76636719 -104.76953125 127.5078125 C-111.60603437 121.0547521 -116.54066189 114.25690229 -121 106 C-121.48210937 105.12988281 -121.96421875 104.25976562 -122.4609375 103.36328125 C-131.71719349 85.04711409 -132.83646379 62.54783932 -126.72753906 43.11035156 C-118.73593644 19.92934048 -103.81742607 3.92425895 -82.1484375 -7.50390625 C-55.58916384 -20.32430492 -23.97835849 -16.19433913 0 0 Z M-100.90234375 24.30859375 C-108.02453444 34.04900772 -112.61676788 44.18671272 -115 56 C-115.18433594 56.82886719 -115.36867188 57.65773437 -115.55859375 58.51171875 C-118.61997863 75.76926006 -112.60047701 94.00758395 -103.0625 108.2734375 C-92.30437351 122.49535471 -77.56441485 131.9296639 -60.109375 135.609375 C-40.65055804 138.05394999 -21.17907882 134.66992983 -5.29931641 122.72021484 C5.08582407 114.35142799 12.12414832 104.39138857 17 92 C17.39445313 91.06027344 17.78890625 90.12054688 18.1953125 89.15234375 C24.10660713 73.13397545 22.01396187 55.28272315 15.6796875 39.765625 C12.39707251 32.698137 8.15549491 26.81515469 3 21 C2.20335937 20.06220703 2.20335937 20.06220703 1.390625 19.10546875 C-10.20658744 6.38872343 -27.19203978 0.38453802 -43.8828125 -1.2890625 C-65.08821463 -1.98535929 -87.38656053 7.90648311 -100.90234375 24.30859375 Z " fill="#FBC55D" transform="translate(411,186)"/>
<path d="M0 0 C6.57428345 3.73831804 10.7255526 7.65047119 13.1875 14.8125 C13.39966754 16.24399187 13.56820006 17.68279629 13.6875 19.125 C13.82198481 22.73217523 13.82198481 22.73217523 15.72949219 24.51098633 C19.10854878 26.30019478 22.27841019 26.29152128 26.015625 26.32421875 C26.67997559 26.34085571 27.34432617 26.35749268 28.02880859 26.37463379 C30.49805411 26.43223825 32.96783582 26.46463734 35.4375 26.5 C43.72875 26.6546875 43.72875 26.6546875 52.1875 26.8125 C52.1875 40.0125 52.1875 53.2125 52.1875 66.8125 C11.9275 66.8125 -28.3325 66.8125 -69.8125 66.8125 C-69.8125 30.8125 -69.8125 30.8125 -68.8125 26.8125 C-67.79824951 26.79268066 -66.78399902 26.77286133 -65.73901367 26.75244141 C-61.97606576 26.67636977 -58.21350377 26.58765509 -54.45092773 26.49511719 C-52.82242451 26.45683382 -51.19383691 26.42197976 -49.56518555 26.390625 C-47.22413986 26.34495998 -44.8836747 26.28696923 -42.54296875 26.2265625 C-41.45063179 26.20923569 -41.45063179 26.20923569 -40.33622742 26.19155884 C-36.64288626 26.08371488 -34.96423586 25.91365724 -31.8125 23.8125 C-31.15718772 21.36316651 -31.15718772 21.36316651 -30.875 18.5625 C-29.5459805 10.3418713 -25.40174488 5.60993268 -18.8125 0.8125 C-13.09602291 -2.67893011 -6.17231047 -1.92252293 0 0 Z " fill="#609BD7" transform="translate(204.8125,30.1875)"/>
<path d="M0 0 C1.32956697 1.12598488 2.64367214 2.27062394 3.9375 3.4375 C4.52402344 3.9325 5.11054688 4.4275 5.71484375 4.9375 C18.07953731 16.15264155 25.21091463 32.89552152 26.3359375 49.31640625 C27.2103963 69.80318126 20.54565311 87.14381973 6.9375 102.4375 C-4.97879491 115.19659769 -21.45706168 121.76061291 -38.68359375 122.77734375 C-56.89088231 123.39057734 -74.15462358 118.42975126 -87.6875 105.875 C-89.51780537 104.09502878 -91.29028191 102.27680521 -93.0625 100.4375 C-93.65289062 99.87804687 -94.24328125 99.31859375 -94.8515625 98.7421875 C-102.86479904 90.55754483 -107.89495152 77.46210002 -110.0625 66.4375 C-110.4028125 64.7359375 -110.4028125 64.7359375 -110.75 63 C-112.60604488 41.84108835 -106.52817923 23.65657815 -93.0625 7.4375 C-68.91225429 -19.25027152 -27.99925817 -21.0588648 0 0 Z M-87.0703125 19.78125 C-97.16556752 33.24159003 -99.42766159 48.11179183 -98.0625 64.4375 C-95.94504035 77.69746351 -87.91520463 90.17547244 -77.63671875 98.66015625 C-63.93012153 108.12374006 -48.84276425 112.73872764 -32.22265625 109.74609375 C-16.33613743 105.89139527 -3.68192836 97.90466432 5.40234375 84.1171875 C13.10162695 70.67772624 15.12153057 55.1733751 12.2890625 39.953125 C7.60479406 24.81933466 -1.66882517 13.11495971 -15.15234375 4.94140625 C-40.55643207 -8.186881 -68.71043867 -1.65050934 -87.0703125 19.78125 Z " fill="#141D22" transform="translate(406.0625,199.5625)"/>
<path d="M0 0 C1.75201721 -0.01418472 1.75201721 -0.01418472 3.53942871 -0.02865601 C5.42546814 -0.01954697 5.42546814 -0.01954697 7.34960938 -0.01025391 C8.64402954 -0.01312408 9.93844971 -0.01599426 11.27209473 -0.01895142 C14.00914269 -0.02336892 16.74589646 -0.01696265 19.48291016 -0.00292969 C22.98689441 0.01416242 26.49018928 0.00431809 29.99414825 -0.01364708 C33.34185688 -0.02710964 36.68938118 -0.01767698 40.03710938 -0.01025391 C41.9231488 -0.01936295 41.9231488 -0.01936295 43.84729004 -0.02865601 C45.01530151 -0.01919952 46.18331299 -0.00974304 47.38671875 0 C48.41390015 0.00238678 49.44108154 0.00477356 50.49938965 0.00723267 C53.5892042 0.44415952 54.7942505 1.48043993 57.19335938 3.38818359 C58.34835938 3.38818359 59.50335938 3.38818359 60.69335938 3.38818359 C64.19335938 3.38818359 64.19335938 3.38818359 66.63085938 4.51318359 C68.19335938 6.38818359 68.19335938 6.38818359 68.88085938 9.07568359 C67.68646235 14.83050563 63.23691823 18.34462474 59.19335938 22.38818359 C58.89817593 24.29804754 58.89817593 24.29804754 58.95385742 26.49902344 C58.95012619 27.34685394 58.94639496 28.19468445 58.94255066 29.06820679 C58.94668472 29.98590851 58.95081879 30.90361023 58.95507812 31.84912109 C58.93965872 33.78402394 58.92335511 35.71891991 58.90625 37.65380859 C58.8897848 40.71092866 58.88086946 43.76754622 58.88793945 46.82470703 C58.89055557 49.77092681 58.86246452 52.71560663 58.83007812 55.66162109 C58.84028488 56.57527435 58.85049164 57.48892761 58.86100769 58.43026733 C58.84781998 59.28440216 58.83463226 60.13853699 58.82104492 61.01855469 C58.8204155 61.76753021 58.81978607 62.51650574 58.81913757 63.28817749 C57.84566586 66.55498438 56.03540824 67.62292928 53.19335938 69.38818359 C50.37913513 69.88938904 50.37913513 69.88938904 47.27319336 69.88989258 C45.52128944 69.903964 45.52128944 69.903964 43.73399353 69.9183197 C42.4817952 69.90708572 41.22959686 69.89585175 39.93945312 69.88427734 C38.64644791 69.88573257 37.35344269 69.88718781 36.02125549 69.88868713 C33.29008525 69.8900686 30.55944179 69.87755503 27.82836914 69.85473633 C24.33222957 69.82632319 20.83696279 69.82909951 17.34075832 69.84182644 C13.99856544 69.85046197 10.65663128 69.83533659 7.31445312 69.82177734 C6.06023056 69.82471298 4.806008 69.82764862 3.51377869 69.83067322 C2.3489949 69.81798904 1.18421112 69.80530487 -0.01586914 69.79223633 C-1.04003433 69.78683334 -2.06419952 69.78143036 -3.11940002 69.77586365 C-6.29874237 69.31718957 -7.65285397 68.77931903 -9.80664062 66.38818359 C-10.3145752 63.65588379 -10.3145752 63.65588379 -10.32421875 60.31201172 C-10.33682739 59.06061401 -10.34943604 57.80921631 -10.36242676 56.51989746 C-10.35526714 55.15307045 -10.34706321 53.78624857 -10.33789062 52.41943359 C-10.3405852 51.01842988 -10.34446733 49.61742798 -10.3494873 48.21643066 C-10.35538416 45.28082466 -10.34681425 42.34570563 -10.328125 39.41015625 C-10.30533426 35.64693696 -10.31845649 31.88485864 -10.34241486 28.12168121 C-10.35686841 25.22885539 -10.35226913 22.33630015 -10.34190369 19.44346619 C-10.33923512 18.05598312 -10.34251081 16.6684755 -10.3518219 15.28102112 C-10.36197802 13.34213734 -10.34375354 11.40316744 -10.32421875 9.46435547 C-10.32103638 8.36087769 -10.317854 7.2573999 -10.3145752 6.1204834 C-9.80664062 3.38818359 -9.80664062 3.38818359 -8.13720703 1.53268433 C-5.25071879 0.11518003 -3.21454894 0.00746939 0 0 Z " fill="#151E25" transform="translate(89.806640625,361.61181640625)"/>
<path d="M0 0 C1.23460464 -0.00622879 2.46920929 -0.01245758 3.7412262 -0.01887512 C5.08912561 -0.01018797 6.43702108 -0.00087009 7.78491211 0.0090332 C9.16588846 0.00955184 10.54686556 0.00903401 11.92784119 0.00752258 C14.82049597 0.00761227 17.71287183 0.01803493 20.60546875 0.03613281 C24.31694499 0.05884138 28.02801443 0.05935997 31.73954105 0.05261517 C34.59024179 0.04927742 37.44084942 0.05590119 40.29153252 0.0657444 C41.66029816 0.06959848 43.02907416 0.07074376 44.39784431 0.06915855 C46.30822187 0.0687886 48.21858588 0.08286949 50.12890625 0.09765625 C51.21683975 0.10226364 52.30477325 0.10687103 53.42567444 0.11161804 C55.99975586 0.37231445 55.99975586 0.37231445 57.99975586 2.37231445 C59.67038086 2.34137695 59.67038086 2.34137695 61.37475586 2.30981445 C64.99975586 2.37231445 64.99975586 2.37231445 67.43725586 3.49731445 C68.99975586 5.37231445 68.99975586 5.37231445 69.68725586 8.05981445 C68.49285883 13.81463649 64.04331472 17.32875559 59.99975586 21.37231445 C59.69091849 23.28867318 59.69091849 23.28867318 59.72851562 25.49902344 C59.71832901 26.35008163 59.7081424 27.20113983 59.69764709 28.07798767 C59.69550705 28.99882645 59.693367 29.91966522 59.69116211 30.8684082 C59.66600498 32.80786437 59.64060692 34.74731743 59.61499023 36.68676758 C59.5862135 39.7525962 59.56220354 42.8183708 59.54345703 45.88427734 C59.52185136 48.8376061 59.48241716 51.7902983 59.44116211 54.7434082 C59.4410463 55.66222275 59.44093048 56.58103729 59.44081116 57.5276947 C59.42747238 58.38190506 59.41413361 59.23611542 59.40039062 60.11621094 C59.39531998 60.86740707 59.39024933 61.61860321 59.38502502 62.39256287 C58.89487849 64.91123935 57.96823198 65.77720206 55.99975586 67.37231445 C53.36344642 68.69046918 51.37251212 68.51390657 48.42016602 68.53344727 C46.66792221 68.54785858 46.66792221 68.54785858 44.88027954 68.56256104 C42.97875626 68.56893585 42.97875626 68.56893585 41.03881836 68.57543945 C39.7415683 68.58113953 38.44431824 68.5868396 37.10775757 68.5927124 C34.35886238 68.60322121 31.60999643 68.60906458 28.86108398 68.61254883 C25.34141691 68.61803197 21.82213701 68.64205604 18.30259132 68.67052078 C14.9438409 68.6936434 11.58514429 68.69559661 8.22631836 68.70043945 C6.96268463 68.71278625 5.6990509 68.72513306 4.39712524 68.737854 C3.22265839 68.73485291 2.04819153 68.73185181 0.83813477 68.72875977 C-0.19507904 68.7324054 -1.22829285 68.73605103 -2.29281616 68.73980713 C-5.49146203 68.305639 -6.83770265 67.77530114 -9.00024414 65.37231445 C-9.50144958 62.67797852 -9.50144958 62.67797852 -9.50195312 59.38793945 C-9.51133408 58.1565625 -9.52071503 56.92518555 -9.53038025 55.65649414 C-9.5199022 54.31176052 -9.50853322 52.96703359 -9.49633789 51.62231445 C-9.49649286 50.24373295 -9.49798144 48.865151 -9.50074768 47.48657227 C-9.50213214 44.59802987 -9.48956683 41.70998374 -9.46679688 38.8215332 C-9.43841124 35.11898783 -9.4411485 31.41726704 -9.45388699 27.71466064 C-9.46084212 24.8681738 -9.45305696 22.02187755 -9.44062996 19.17541504 C-9.43611378 17.81026948 -9.43578013 16.44510347 -9.43969536 15.07995605 C-9.44260558 13.17216625 -9.42394763 11.26438027 -9.40429688 9.35668945 C-9.3961924 7.72812012 -9.3961924 7.72812012 -9.38792419 6.06665039 C-9.00024414 3.37231445 -9.00024414 3.37231445 -7.8500061 1.52156067 C-5.18488896 -0.13426092 -3.12609489 -0.00180728 0 0 Z " fill="#131C23" transform="translate(89.000244140625,275.627685546875)"/>
<path d="M0 0 C17.49840139 -0.81810708 32.60418306 2.59762319 46.25 14.25 C55.06555932 22.6184945 63.26020956 34.53227614 64.14526367 47.05541992 C64.17008213 49.43292186 64.1856583 51.80985898 64.1875 54.1875 C64.19974609 55.00025391 64.21199219 55.81300781 64.22460938 56.65039062 C64.26144953 72.08641638 58.43696751 85.20965165 47.76171875 96.33203125 C43.18674205 100.59094738 38.62538983 103.35037236 33 106 C32.9498877 105.12899658 32.89977539 104.25799316 32.84814453 103.3605957 C32.65545424 100.06323233 32.45717853 96.76629576 32.25537109 93.46948242 C32.1698716 92.05489814 32.08646519 90.64018546 32.00537109 89.2253418 C31.53069556 80.97126174 30.8170385 72.85132331 29.41015625 64.69140625 C28.90798989 61.3962384 28.84543446 58.32315913 29 55 C23.42228633 59.81524526 17.98630615 64.75798529 12.625 69.8125 C11.91472656 70.47958984 11.20445312 71.14667969 10.47265625 71.83398438 C6.69936626 75.37875907 6.69936626 75.37875907 3 79 C-0.98907919 79.60007638 -2.68412844 79.1947744 -6.1484375 77.05859375 C-7.23681671 76.2009669 -8.31201151 75.32640302 -9.375 74.4375 C-9.93719238 73.98076904 -10.49938477 73.52403809 -11.07861328 73.0534668 C-12.20320341 72.13576642 -13.32295912 71.21210589 -14.4375 70.28222656 C-15.81112739 69.15499358 -17.23068511 68.08422549 -18.65625 67.0234375 C-20.70161896 65.44619876 -22.43370137 64.05305604 -24 62 C-24.1875 58.1875 -24.1875 58.1875 -23 55 C-20 53 -20 53 -17.2421875 53.05859375 C-13.08073865 54.26691805 -10.43458625 56.34070225 -7.125 59.0625 C-6.53203125 59.53494141 -5.9390625 60.00738281 -5.328125 60.49414062 C-3.87719872 61.65254145 -2.43742828 62.82489171 -1 64 C4.65364359 59.22141565 10.17767322 54.33018717 15.5625 49.25 C16.40619141 48.50234375 17.24988281 47.7546875 18.11914062 46.984375 C22.50024507 42.97373647 22.50024507 42.97373647 24.19628906 37.52954102 C23.71130531 34.87169562 22.96109659 32.52364885 22 30 C21.73936768 29.19965332 21.47873535 28.39930664 21.21020508 27.57470703 C20.4091256 25.16876639 19.53091896 22.80577522 18.625 20.4375 C18.33367187 19.65181641 18.04234375 18.86613281 17.7421875 18.05664062 C15.69672942 12.60657139 13.40431543 7.30114481 11 2 C5.555 1.505 5.555 1.505 0 1 C0 0.67 0 0.34 0 0 Z " fill="#5F8F5F" transform="translate(355,198)"/>
<path d="M0 0 C27.33226865 -1.10244956 48.99665815 2.17176721 70.40625 20.52734375 C81.09760951 30.71955846 88.63150659 42.25814843 93.375 56.1875 C93.62604492 56.92371582 93.87708984 57.65993164 94.13574219 58.41845703 C95.79241776 63.59296882 96.61654796 68.58687561 97 74 C97.05043457 74.68956787 97.10086914 75.37913574 97.15283203 76.08959961 C98.35559513 96.62178833 92.39166735 117.93204756 78.96484375 133.85546875 C78.31644531 134.56316406 77.66804688 135.27085937 77 136 C76.17628906 136.90363281 75.35257812 137.80726563 74.50390625 138.73828125 C64.11612884 149.62702949 51.06083972 158.48986005 36 161 C36 156.05 36 151.1 36 146 C38.165625 145.195625 38.165625 145.195625 40.375 144.375 C56.26520694 137.95177551 68.25889143 127.19753426 75.6875 111.6875 C76.48003537 109.800636 77.25063483 107.90442114 78 106 C78.39445312 105.06027344 78.78890625 104.12054688 79.1953125 103.15234375 C85.10660713 87.13397545 83.01396187 69.28272315 76.6796875 53.765625 C68.15270151 35.40697757 53.67302384 23.96256342 35.125 16.90625 C30.99329643 15.64658428 27.06262462 14.97028278 22.7578125 14.73828125 C11.08987869 14.02483754 11.08987869 14.02483754 7.578125 10.72265625 C5.68370397 7.57881945 4 4.73451575 4 1 C2.68 0.67 1.36 0.34 0 0 Z " fill="#FABA42" transform="translate(349,172)"/>
<path d="M0 0 C5.77322921 3.67249921 8.75418221 8.86215365 12.25 14.625 C13.46578418 16.58517597 14.68469277 18.54341651 15.90625 20.5 C16.88271484 22.06427734 16.88271484 22.06427734 17.87890625 23.66015625 C22.11264407 30.32653901 26.54213472 36.86486324 30.9552002 43.41339111 C32.09160232 45.09998606 33.22553669 46.78824293 34.359375 48.4765625 C35.01389648 49.44674316 35.66841797 50.41692383 36.34277344 51.41650391 C39.39926215 56.18134827 40.71337967 59.19105123 40 65 C36.50857656 69.03858681 32.50544541 71.93821562 28.0625 74.8125 C27.46759766 75.21919922 26.87269531 75.62589844 26.25976562 76.04492188 C22.36584616 78.57703344 19.62139226 79.90458677 15 79 C9.72028826 75.54788078 6.93470704 71.22449007 3.75 65.875 C-1.83553993 56.75195145 -7.71268754 47.85289067 -13.69006348 38.98431396 C-26.07370789 20.60714119 -26.07370789 20.60714119 -25 15 C-21.57434224 10.30723092 -17.94599012 7.21594961 -13.0625 4.125 C-12.46759766 3.7228125 -11.87269531 3.320625 -11.25976562 2.90625 C-7.36988345 0.40652244 -4.59722064 -0.89373397 0 0 Z " fill="#FCBB42" transform="translate(443,353)"/>
<path d="M0 0 C6.57428345 3.73831804 10.7255526 7.65047119 13.1875 14.8125 C13.39966754 16.24399187 13.56820006 17.68279629 13.6875 19.125 C13.82198481 22.73217523 13.82198481 22.73217523 15.72949219 24.51098633 C19.10908747 26.30048002 22.27838844 26.29119169 26.015625 26.32421875 C26.76463074 26.34216995 27.51363647 26.36012115 28.28533936 26.37861633 C30.66933624 26.43264543 33.0531338 26.46659003 35.4375 26.5 C37.05731936 26.53317975 38.67711244 26.56767003 40.296875 26.60351562 C44.26044413 26.69082785 48.22311237 26.75095437 52.1875 26.8125 C52.1875 36.0525 52.1875 45.2925 52.1875 54.8125 C46.37918982 52.87639661 40.84408969 50.89669348 35.25 48.5 C1.87927688 34.55873382 -32.84899269 30.25654118 -68.8125 29.8125 C-68.8125 28.8225 -68.8125 27.8325 -68.8125 26.8125 C-67.79824951 26.79268066 -66.78399902 26.77286133 -65.73901367 26.75244141 C-61.97606576 26.67636977 -58.21350377 26.58765509 -54.45092773 26.49511719 C-52.82242451 26.45683382 -51.19383691 26.42197976 -49.56518555 26.390625 C-47.22413986 26.34495998 -44.8836747 26.28696923 -42.54296875 26.2265625 C-41.45063179 26.20923569 -41.45063179 26.20923569 -40.33622742 26.19155884 C-36.64288626 26.08371488 -34.96423586 25.91365724 -31.8125 23.8125 C-31.15718772 21.36316651 -31.15718772 21.36316651 -30.875 18.5625 C-29.5459805 10.3418713 -25.40174488 5.60993268 -18.8125 0.8125 C-13.09602291 -2.67893011 -6.17231047 -1.92252293 0 0 Z " fill="#3A83C8" transform="translate(204.8125,30.1875)"/>
<path d="M0 0 C8.82375956 -0.09070046 17.64720485 -0.16394485 26.47132683 -0.20724869 C30.56960371 -0.22804201 34.66754259 -0.25620646 38.765625 -0.30175781 C42.72733972 -0.3455132 46.68873121 -0.36919905 50.6506691 -0.37950897 C52.15522467 -0.38684752 53.6597644 -0.40117683 55.16418076 -0.42292023 C67.55193676 -0.59469064 76.79325249 1.00330279 86.01953125 9.70703125 C91.38725978 15.92173865 94.12951114 23.07882732 94.11352539 31.21557617 C94.11341209 33.13722847 94.11341209 33.13722847 94.11329651 35.09770203 C94.10818987 36.49612466 94.10297387 37.8945469 94.09765625 39.29296875 C94.09579089 40.72357636 94.09436754 42.15418461 94.09336853 43.58479309 C94.08955267 47.34786751 94.07973032 51.11090325 94.06866455 54.8739624 C94.05843043 58.71479774 94.05386662 62.55563933 94.04882812 66.39648438 C94.03810722 73.93100924 94.02051795 81.46549427 94 89 C89.38 89.33 84.76 89.66 80 90 C79.9906543 88.06237793 79.98130859 86.12475586 79.97167969 84.12841797 C79.93610527 77.71408871 79.88227757 71.30011396 79.81609726 64.8860302 C79.77665048 60.99854766 79.74444857 57.11129068 79.72900391 53.22363281 C79.71381841 49.46915424 79.67934059 45.71529586 79.63169098 41.9610939 C79.61689645 40.53148933 79.60896009 39.1017962 79.60811615 37.67211533 C79.60573932 35.66395427 79.57633413 33.65588103 79.54589844 31.64794922 C79.53701599 30.50655487 79.52813354 29.36516052 79.51898193 28.18917847 C78.77206289 23.59931133 76.59429568 20.6510978 73.40209961 17.34516907 C66.76467715 12.719034 59.32228411 13.26874993 51.5625 13.29296875 C50.07175694 13.27983603 48.58103162 13.26452699 47.09033203 13.24714661 C43.19080121 13.20746673 39.29173766 13.1971173 35.39202881 13.19311523 C31.40313698 13.1837514 27.41451604 13.14631779 23.42578125 13.11132812 C15.61713697 13.04692557 7.80892051 13.01614198 0 13 C0 8.71 0 4.42 0 0 Z " fill="#77B2EE" transform="translate(270,70)"/>
<path d="M0 0 C0.33 0 0.66 0 1 0 C1.10189485 7.6496231 1.17167286 15.29906945 1.21972656 22.94921875 C1.2397713 25.54856914 1.26701447 28.14787483 1.30175781 30.74707031 C1.35058865 34.4955553 1.37304126 38.24344111 1.390625 41.9921875 C1.41127014 43.14363251 1.43191528 44.29507751 1.45318604 45.48141479 C1.45632532 56.91521804 -1.74813357 64.60121266 -9.62109375 72.86328125 C-14.87236117 77.57993688 -20.96072219 80.13649116 -28.03417969 80.11352539 C-29.20494049 80.11341209 -29.20494049 80.11341209 -30.39935303 80.11329651 C-31.23178528 80.10813522 -32.06421753 80.10297394 -32.921875 80.09765625 C-33.78186096 80.0962413 -34.64184692 80.09482635 -35.52789307 80.09336853 C-38.26863109 80.08778097 -41.00928676 80.07523075 -43.75 80.0625 C-45.6106759 80.05748339 -47.47135309 80.05292077 -49.33203125 80.04882812 C-53.88805246 80.03781561 -58.44401228 80.02055951 -63 80 C-60.61668035 76.90665726 -58.26529645 74.19441879 -55.26953125 71.69140625 C-43.21050958 61.36187647 -32.29923161 49.86736429 -23 37 C-22.22398437 35.93394531 -21.44796875 34.86789062 -20.6484375 33.76953125 C-13.00957934 22.99375368 -6.26769581 11.62200881 0 0 Z " fill="#79B5F1" transform="translate(363,403)"/>
<path d="M0 0 C1.57723091 -0.01485695 1.57723091 -0.01485695 3.18632507 -0.03001404 C4.33450211 -0.02551239 5.48267914 -0.02101074 6.66564941 -0.01637268 C7.87900467 -0.02323593 9.09235992 -0.03009918 10.34248352 -0.03717041 C13.66697855 -0.05233596 16.99091292 -0.05393265 20.31540108 -0.04822803 C23.09135574 -0.0451375 25.86725963 -0.05122699 28.64320707 -0.05726677 C35.1915837 -0.07131206 41.73982986 -0.06975034 48.28820801 -0.05836487 C55.04346034 -0.04687925 61.79831586 -0.06096637 68.55351591 -0.08776134 C74.35491339 -0.10991122 80.15618624 -0.1165575 85.957623 -0.11068493 C89.42193385 -0.1073129 92.88599023 -0.10974649 96.3502655 -0.12693596 C100.21206249 -0.14526192 104.07337047 -0.1312253 107.93518066 -0.11402893 C109.65744621 -0.12853088 109.65744621 -0.12853088 111.414505 -0.14332581 C112.46599228 -0.13349167 113.51747955 -0.12365753 114.60083008 -0.11352539 C115.97019588 -0.11321146 115.97019588 -0.11321146 117.36722565 -0.1128912 C120.60288325 0.55276894 121.81728072 1.78864559 123.80041504 4.38768005 C123.80041504 8.01268005 123.80041504 8.01268005 122.80041504 11.38768005 C119.78850427 13.45570912 117.2323358 13.64022983 113.63879395 13.64837646 C112.59572083 13.65546127 111.55264771 13.66254608 110.47796631 13.66984558 C109.33914001 13.66736816 108.20031372 13.66489075 107.02697754 13.66233826 C105.22157501 13.67000465 105.22157501 13.67000465 103.37969971 13.67782593 C100.08216957 13.68934364 96.7848908 13.69179575 93.48735809 13.68926263 C90.73378134 13.68819252 87.98022775 13.6930772 85.22665596 13.69786805 C78.73104238 13.70895968 72.23548663 13.70940229 65.73986816 13.70335388 C59.03921524 13.69731054 52.33877211 13.70963489 45.63815498 13.73092395 C39.88348108 13.74853514 34.12887398 13.75454217 28.37417412 13.75128621 C24.93784758 13.74947275 21.50167078 13.75211572 18.06536865 13.76600075 C14.23477933 13.78090028 10.40445774 13.77161318 6.57385254 13.75999451 C5.43502625 13.76763824 4.29619995 13.77528198 3.12286377 13.78315735 C2.07979065 13.77614304 1.03671753 13.76912872 -0.03796387 13.76190186 C-0.94350006 13.7620696 -1.84903625 13.76223734 -2.78201294 13.76241016 C-5.72456878 13.30630616 -7.09415046 12.47674135 -9.19958496 10.38768005 C-9.69958496 6.88768005 -9.69958496 6.88768005 -9.19958496 3.38768005 C-6.26017216 0.46851929 -4.06731799 0.01082599 0 0 Z " fill="#192128" transform="translate(177.1995849609375,374.61231994628906)"/>
<path d="M0 0 C0.85947739 -0.00701431 1.71895477 -0.01402863 2.60447693 -0.02125549 C4.01424805 -0.00978989 4.01424805 -0.00978989 5.45249939 0.00190735 C6.44458908 -0.00174332 7.43667877 -0.00539398 8.45883179 -0.00915527 C11.74457308 -0.0172744 15.02982336 -0.00364005 18.3155365 0.01094055 C20.59332275 0.01145895 22.87110946 0.01094203 25.14889526 0.00942993 C29.92464366 0.00951971 34.70022346 0.01996226 39.47593689 0.03804016 C45.60873262 0.06074027 51.74128213 0.06126972 57.87410831 0.05452251 C62.57772016 0.0511872 67.28127549 0.05780416 71.98487663 0.06765175 C74.24679201 0.07151062 76.50871367 0.07264913 78.77063179 0.0710659 C81.92642914 0.07069659 85.08190622 0.08327741 88.23765564 0.0995636 C89.17952728 0.09708618 90.12139893 0.09460876 91.09181213 0.09205627 C92.37679848 0.10268349 92.37679848 0.10268349 93.68774414 0.11352539 C94.80740869 0.1166047 94.80740869 0.1166047 95.94969273 0.11974621 C97.78038025 0.3742218 97.78038025 0.3742218 99.78038025 2.3742218 C100.34719138 8.60914428 100.34719138 8.60914428 98.52178192 11.07306862 C96.37614321 12.67626257 95.26490146 12.75109761 92.60545349 12.75517273 C91.75583542 12.7636322 90.90621735 12.77209167 90.03085327 12.7808075 C89.10192764 12.7747348 88.17300201 12.76866211 87.21592712 12.7624054 C86.2351973 12.76766235 85.25446747 12.77291931 84.24401855 12.77833557 C80.99556142 12.7915615 77.74759255 12.78278814 74.49913025 12.7726593 C72.24615891 12.77467929 69.99318821 12.77759009 67.74021912 12.78135681 C63.01574994 12.78578369 58.29145078 12.77933729 53.56700134 12.76533508 C47.50374062 12.74824315 41.44087824 12.75808237 35.37763214 12.77605247 C30.72458379 12.78688041 26.07163027 12.7834485 21.4185791 12.7756691 C19.18260654 12.77366435 16.94662543 12.77613593 14.71066284 12.78310776 C11.58848689 12.79070581 8.46696079 12.77914078 5.34483337 12.7624054 C3.95144493 12.77151443 3.95144493 12.77151443 2.52990723 12.7808075 C1.68028915 12.77234802 0.83067108 12.76388855 -0.04469299 12.75517273 C-0.78283989 12.75404165 -1.52098679 12.75291058 -2.28150177 12.75174522 C-4.79645009 12.26186179 -5.68495823 11.39655261 -7.21961975 9.3742218 C-7.86332572 4.22457403 -7.86332572 4.22457403 -5.95990849 1.71011066 C-3.8024114 0.05396231 -2.69894487 -0.0006062 0 0 Z " fill="#121B22" transform="translate(175.21961975097656,318.6257781982422)"/>
<path d="M0 0 C0.85947739 -0.00701431 1.71895477 -0.01402863 2.60447693 -0.02125549 C4.01424805 -0.00978989 4.01424805 -0.00978989 5.45249939 0.00190735 C6.44458908 -0.00174332 7.43667877 -0.00539398 8.45883179 -0.00915527 C11.74457308 -0.0172744 15.02982336 -0.00364005 18.3155365 0.01094055 C20.59332275 0.01145895 22.87110946 0.01094203 25.14889526 0.00942993 C29.92464366 0.00951971 34.70022346 0.01996226 39.47593689 0.03804016 C45.60873262 0.06074027 51.74128213 0.06126972 57.87410831 0.05452251 C62.57772016 0.0511872 67.28127549 0.05780416 71.98487663 0.06765175 C74.24679201 0.07151062 76.50871367 0.07264913 78.77063179 0.0710659 C81.92642914 0.07069659 85.08190622 0.08327741 88.23765564 0.0995636 C89.17952728 0.09708618 90.12139893 0.09460876 91.09181213 0.09205627 C92.37679848 0.10268349 92.37679848 0.10268349 93.68774414 0.11352539 C94.80740869 0.1166047 94.80740869 0.1166047 95.94969273 0.11974621 C97.78038025 0.3742218 97.78038025 0.3742218 99.78038025 2.3742218 C100.3473286 8.61065371 100.3473286 8.61065371 98.51898861 11.07306862 C96.3862727 12.66916706 95.29426869 12.75107292 92.65014648 12.75517273 C91.81038773 12.7636322 90.97062897 12.77209167 90.10542297 12.7808075 C89.18741913 12.7747348 88.26941528 12.76866211 87.32359314 12.7624054 C86.35422318 12.76766235 85.38485321 12.77291931 84.3861084 12.77833557 C81.17492154 12.79156221 77.9642286 12.78278722 74.7530365 12.7726593 C72.52488103 12.77467943 70.2967262 12.77759036 68.068573 12.78135681 C63.39537775 12.78578392 58.72235437 12.77933717 54.04917908 12.76533508 C48.05551738 12.74825304 42.06225896 12.75807594 36.0686121 12.77605247 C31.46613522 12.78688824 26.86375408 12.78344472 22.26127434 12.7756691 C20.05124807 12.77366601 17.84121314 12.77613015 15.63119698 12.78310776 C12.54275082 12.79071755 9.45495924 12.77912376 6.36656189 12.7624054 C5.45058228 12.76847809 4.53460266 12.77455078 3.59086609 12.7808075 C-2.55612504 12.71909182 -2.55612504 12.71909182 -5.79141235 11.03746033 C-7.21961975 9.3742218 -7.21961975 9.3742218 -7.65711975 6.3742218 C-6.9463038 1.50005525 -4.8105226 -0.00108048 0 0 Z " fill="#121B22" transform="translate(175.21961975097656,405.6257781982422)"/>
<path d="M0 0 C14.19 0 28.38 0 43 0 C43 5 43 5 41.75 6.7734375 C40.88375 7.56621094 40.88375 7.56621094 40 8.375 C39.36578125 8.96539062 38.7315625 9.55578125 38.078125 10.1640625 C37.39234375 10.76992188 36.7065625 11.37578125 36 12 C35.29359375 12.62648438 34.5871875 13.25296875 33.859375 13.8984375 C32.51221384 15.08094563 31.15863497 16.25620847 29.796875 17.421875 C28.12659942 18.88881269 26.55211328 20.40956293 25 22 C20.42238068 19.9583388 16.75839002 16.77213407 12.8515625 13.6796875 C9.56348273 11.74287339 7.75363641 11.50303969 4 12 C1.71650884 13.87472412 1.71650884 13.87472412 1.63671875 16.8828125 C2.08075637 20.69294174 2.88633752 21.48692344 5.8125 23.875 C6.62976563 24.54273438 7.44703125 25.21046875 8.2890625 25.8984375 C9.18367188 26.59195312 10.07828125 27.28546875 11 28 C12.40378906 29.13308594 12.40378906 29.13308594 13.8359375 30.2890625 C18.90596422 34.379625 18.90596422 34.379625 24.91015625 36.625 C29.523211 35.69189158 31.66898377 32.90682484 34.75 29.5 C35.88632664 28.27724135 37.02675184 27.05827456 38.171875 25.84375 C38.6678418 25.29912109 39.16380859 24.75449219 39.67480469 24.19335938 C41 23 41 23 43 23 C43 29.6 43 36.2 43 43 C28.81 43 14.62 43 0 43 C0 28.81 0 14.62 0 0 Z " fill="#6CA46C" transform="translate(92,288)"/>
<path d="M0 0 C14.19 0 28.38 0 43 0 C43 5 43 5 41.59472656 6.9128418 C40.62744629 7.79709839 40.62744629 7.79709839 39.640625 8.69921875 C38.58488281 9.67665039 38.58488281 9.67665039 37.5078125 10.67382812 C36.39019531 11.6705957 36.39019531 11.6705957 35.25 12.6875 C34.52039063 13.36361328 33.79078125 14.03972656 33.0390625 14.73632812 C29.82412918 17.67360811 26.99619819 20.19460251 23 22 C22.154375 21.278125 21.30875 20.55625 20.4375 19.8125 C19.29250343 18.87397822 18.14662235 17.93653481 17 17 C16.44699219 16.52304687 15.89398438 16.04609375 15.32421875 15.5546875 C10.7661313 11.88726082 7.81064831 11.49029401 2 12 C1.56979061 15.06524187 1.34965533 17.03149129 2 20 C4.22155921 22.89824104 7.07193997 24.85096511 10 27 C10.98742187 27.804375 11.97484375 28.60875 12.9921875 29.4375 C18.43670079 34.0286604 18.43670079 34.0286604 24.9453125 36.66015625 C29.51484335 35.67262337 31.68642575 32.88753842 34.75 29.5 C35.88632664 28.27724135 37.02675184 27.05827456 38.171875 25.84375 C38.6678418 25.29912109 39.16380859 24.75449219 39.67480469 24.19335938 C41 23 41 23 43 23 C43 29.6 43 36.2 43 43 C28.81 43 14.62 43 0 43 C0 28.81 0 14.62 0 0 Z " fill="#6CA46D" transform="translate(92,375)"/>
<path d="M0 0 C0.82321243 -0.00686325 1.64642487 -0.0137265 2.49458313 -0.02079773 C5.21336149 -0.03908629 7.93156401 -0.03522575 10.65039062 -0.02954102 C12.54081409 -0.03410148 14.43123589 -0.03940665 16.32165527 -0.04542542 C20.282702 -0.05436029 24.24354715 -0.05192869 28.20458984 -0.04199219 C33.282486 -0.03049568 38.35968748 -0.05072248 43.43749237 -0.07990932 C47.34084497 -0.09824722 51.2440303 -0.0979838 55.14741516 -0.0922718 C57.01972936 -0.09211833 58.89205472 -0.09818437 60.764328 -0.11056328 C63.38109054 -0.12542801 65.99655943 -0.11483056 68.61328125 -0.09765625 C69.77450249 -0.1121582 69.77450249 -0.1121582 70.95918274 -0.12695312 C74.44192489 -0.07904607 76.4562242 0.15229789 79.31872559 2.20884705 C80.80664062 4.40405273 80.80664062 4.40405273 80.80664062 8.02905273 C79.80664062 11.40405273 79.80664062 11.40405273 78.25048828 12.5978241 C74.75421084 13.75125074 71.34653281 13.69050675 67.70507812 13.67871094 C66.89161926 13.68382187 66.0781604 13.6889328 65.24005127 13.69419861 C62.55383935 13.70808746 59.86788416 13.70713859 57.18164062 13.70483398 C55.31363835 13.70872087 53.44563696 13.71305553 51.57763672 13.71781921 C47.66370782 13.72527958 43.74986913 13.72499115 39.8359375 13.71972656 C34.81869428 13.71392758 29.8018197 13.73087415 24.78463745 13.75407124 C20.92763101 13.76879636 17.07071365 13.76968202 13.21368408 13.76656151 C11.36370106 13.76707518 9.51371311 13.77232159 7.66375732 13.78237343 C5.07832801 13.79469897 2.49362073 13.7879701 -0.09179688 13.77636719 C-0.85659363 13.78401093 -1.62139038 13.79165466 -2.40936279 13.79953003 C-5.56544476 13.76819595 -7.85313465 13.58337085 -10.66845703 12.09953308 C-12.19335938 10.40405273 -12.19335938 10.40405273 -12.69335938 6.90405273 C-12.19335938 3.40405273 -12.19335938 3.40405273 -10.67419434 1.71055603 C-7.17145824 -0.13411978 -3.86493735 -0.02247451 0 0 Z " fill="#1B232A" transform="translate(180.193359375,287.595947265625)"/>
<path d="M0 0 C2 2 2 2 2.44921875 5.25585938 C1.89400824 9.88341829 0.07256997 11.85232559 -3.1875 14.90625 C-3.72342773 15.43464478 -4.25935547 15.96303955 -4.81152344 16.50744629 C-6.52523998 18.18875123 -8.26189995 19.8439541 -10 21.5 C-11.13826724 22.61169795 -12.27500268 23.72496662 -13.41015625 24.83984375 C-18.61792544 29.9292825 -23.88772025 34.91821486 -29.45068359 39.62133789 C-31.26018176 41.1787353 -31.26018176 41.1787353 -33.625 43.9375 C-36 46 -36 46 -38.75 46.4140625 C-42.89649577 45.88578299 -45.26481767 44.03832822 -48.375 41.4375 C-48.93719238 40.98076904 -49.49938477 40.52403809 -50.07861328 40.0534668 C-51.20320341 39.13576642 -52.32295912 38.21210589 -53.4375 37.28222656 C-54.81112739 36.15499358 -56.23068511 35.08422549 -57.65625 34.0234375 C-59.70161896 32.44619876 -61.43370137 31.05305604 -63 29 C-63.1875 25.1875 -63.1875 25.1875 -62 22 C-59 20 -59 20 -56.2421875 20.05859375 C-52.08073865 21.26691805 -49.43458625 23.34070225 -46.125 26.0625 C-45.53203125 26.53494141 -44.9390625 27.00738281 -44.328125 27.49414062 C-42.87719872 28.65254145 -41.43742828 29.82489171 -40 31 C-32.91051799 25.22376502 -26.60670139 18.68354518 -20.1875 12.1875 C-17.93385512 9.90729329 -15.67693141 7.63040587 -13.41796875 5.35546875 C-12.64612495 4.57117744 -12.64612495 4.57117744 -11.85868835 3.77104187 C-7.54673375 -0.57072463 -6.05578341 -1.3877837 0 0 Z " fill="#131D23" transform="translate(394,231)"/>
<path d="M0 0 C7.92 0 15.84 0 24 0 C22.05303673 3.89392653 19.75989569 6.81792437 16.9375 10.0625 C15.94702887 11.21408076 14.95746072 12.36643871 13.96875 13.51953125 C13.47246094 14.09783691 12.97617187 14.67614258 12.46484375 15.27197266 C9.49680147 18.7732732 6.64265396 22.36760119 3.77734375 25.953125 C2 28 2 28 0 29 C0 19.43 0 9.86 0 0 Z " fill="#929293" transform="translate(306,416)"/>
<path d="M0 0 C1.25361328 0.00322266 2.50722656 0.00644531 3.79882812 0.00976562 C5.76432617 0.02233398 5.76432617 0.02233398 7.76953125 0.03515625 C9.10481606 0.04017308 10.44010266 0.04473566 11.77539062 0.04882812 C15.04431598 0.0606293 18.31315116 0.07709328 21.58203125 0.09765625 C18.13175735 2.39783885 14.60100778 3.54297999 10.70703125 4.84765625 C1.5548805 8.00370359 -7.08998716 11.87392214 -15.70703125 16.2890625 C-16.43720459 16.66111816 -17.16737793 17.03317383 -17.91967773 17.41650391 C-19.35571862 18.15144631 -20.78769776 18.89439037 -22.21508789 19.64599609 C-23.92006223 20.52274318 -25.66645299 21.31803102 -27.41796875 22.09765625 C-28.07796875 21.76765625 -28.73796875 21.43765625 -29.41796875 21.09765625 C-25.60762309 12.2068497 -20.0915523 5.82018999 -11.1796875 1.7890625 C-7.24269945 0.24394746 -4.21862774 -0.01908881 0 0 Z " fill="#78B4F0" transform="translate(59.41796875,69.90234375)"/>
<path d="M0 0 C4.62 0 9.24 0 14 0 C14 8.25 14 16.5 14 25 C9.38 25 4.76 25 0 25 C0 16.75 0 8.5 0 0 Z " fill="#FBC65E" transform="translate(189,142)"/>
<path d="M0 0 C1.13888672 -0.02320313 1.13888672 -0.02320313 2.30078125 -0.046875 C6.03702816 -0.02070164 7.92574735 0.07738594 11 2.33984375 C13.03884178 5.2759883 13.09512611 7.00363413 12.5 10.5 C9.95272157 13.31261994 8.35595431 13.51573728 4.53125 13.93359375 C3.02093063 13.95078653 1.51035138 13.95160345 0 13.9375 C-0.75925781 13.95748047 -1.51851562 13.97746094 -2.30078125 13.99804688 C-5.92555207 13.99487282 -8.06040362 13.82901042 -11 11.62890625 C-12.5 9.5 -12.5 9.5 -13 7 C-11.57348611 -0.13256946 -6.06535519 -0.1235726 0 0 Z " fill="#181E23" transform="translate(170.5,216.5)"/>
<path d="M0 0 C1.89453125 2.265625 1.89453125 2.265625 3.8125 5.25 C4.78123047 6.71179688 4.78123047 6.71179688 5.76953125 8.203125 C7 11 7 11 6.44921875 13.1875 C4.80404546 15.24507522 3.2608145 16.40348548 1 17.75 C0.29875 18.17796875 -0.4025 18.6059375 -1.125 19.046875 C-3 20 -3 20 -5 20 C-6.44963959 18.09625645 -7.81184323 16.12532841 -9.125 14.125 C-9.84945313 13.03445313 -10.57390625 11.94390625 -11.3203125 10.8203125 C-13 8 -13 8 -13 6 C-10.91796875 4.4921875 -10.91796875 4.4921875 -8.1875 2.875 C-7.29417969 2.33617187 -6.40085937 1.79734375 -5.48046875 1.2421875 C-3 0 -3 0 0 0 Z " fill="#F7B741" transform="translate(420,332)"/>
</svg>
