<?xml version="1.0" encoding="UTF-8"?>
<!DOCTYPE svg PUBLIC "-//W3C//DTD SVG 1.1//EN" "http://www.w3.org/Graphics/SVG/1.1/DTD/svg11.dtd">
<svg xmlns="http://www.w3.org/2000/svg" version="1.1" width="512px" height="512px" style="shape-rendering:geometricPrecision; text-rendering:geometricPrecision; image-rendering:optimizeQuality; fill-rule:evenodd; clip-rule:evenodd" xmlns:xlink="http://www.w3.org/1999/xlink">
<g><path style="opacity:0.892" fill="#000000" d="M 384.5,-0.5 C 393.167,-0.5 401.833,-0.5 410.5,-0.5C 426.945,1.80548 441.111,8.80548 453,20.5C 455.335,23.1662 457.169,26.1662 458.5,29.5C 459.776,30.6446 461.109,30.6446 462.5,29.5C 462.833,30.6667 463.167,31.8333 463.5,33C 464.243,42.8162 464.743,52.6495 465,62.5C 466.554,155.89 464.887,249.223 460,342.5C 459.496,346.02 457.663,348.52 454.5,350C 429.644,357.73 404.977,366.063 380.5,375C 367.552,378.72 354.552,382.054 341.5,385C 334.864,393.764 329.364,403.264 325,413.5C 305.698,445.778 287.198,478.444 269.5,511.5C 268.833,511.5 268.167,511.5 267.5,511.5C 267.666,507.486 267.499,503.486 267,499.5C 255.686,492.421 245.186,484.254 235.5,475C 224.667,462.833 213.167,451.333 201,440.5C 200.333,439.167 199.667,437.833 199,436.5C 171.572,446.367 144.739,457.7 118.5,470.5C 123.202,437.26 111.702,411.593 84,393.5C 72.5459,398.56 61.2126,403.894 50,409.5C 46.1483,363.582 44.6483,317.582 45.5,271.5C 45.8758,208.161 46.7091,144.828 48,81.5C 48.1747,77.789 48.6747,74.1224 49.5,70.5C 78.6651,63.0992 107.998,56.2659 137.5,50C 206.552,36.5897 275.552,22.923 344.5,9C 358.035,6.11477 371.368,2.94811 384.5,-0.5 Z M 392.5,6.5 C 410.88,5.27367 427.88,9.44033 443.5,19C 448.167,22.3333 452.167,26.3333 455.5,31C 452.351,31.2743 449.351,30.6077 446.5,29C 437.637,23.5671 428.303,19.2338 418.5,16C 409.219,13.5044 399.886,13.1711 390.5,15C 345.149,23.9215 300.149,34.2548 255.5,46C 193.116,57.5425 131.283,71.3759 70,87.5C 68.9716,90.9103 68.4716,94.4103 68.5,98C 69.0788,109.991 69.4121,121.991 69.5,134C 68.1816,189.495 67.1816,244.995 66.5,300.5C 66.5715,328.508 67.0715,356.508 68,384.5C 68.3095,385.766 68.8095,386.933 69.5,388C 73.0266,388.951 76.3599,390.284 79.5,392C 71.7665,395.855 63.7665,399.022 55.5,401.5C 55.1667,397.833 54.8333,394.167 54.5,390.5C 55.2798,341.172 55.7798,291.838 56,242.5C 57.8497,188.846 59.183,135.179 60,81.5C 77.2381,76.3802 94.7381,71.8802 112.5,68C 162.728,57.1543 213.062,46.821 263.5,37C 306.689,27.0006 349.689,16.834 392.5,6.5 Z M 401.5,21.5 C 418.407,21.143 434.074,25.3096 448.5,34C 413.007,44.6085 377.341,54.6085 341.5,64C 271.569,81.6493 201.569,98.9827 131.5,116C 127.702,116.928 124.202,118.428 121,120.5C 120.667,123.5 120.333,126.5 120,129.5C 111.73,115.229 100.23,104.396 85.5,97C 182.737,74.4409 279.737,50.7742 376.5,26C 384.898,24.0466 393.231,22.5466 401.5,21.5 Z M 450.5,44.5 C 451.5,44.5 452.5,44.5 453.5,44.5C 454.925,79.8175 455.925,115.151 456.5,150.5C 455.738,213.876 454.238,277.209 452,340.5C 450.992,342.259 449.492,343.426 447.5,344C 412.167,356.667 376.833,369.333 341.5,382C 317.367,414.482 295.2,448.315 275,483.5C 273.954,455.843 273.288,428.177 273,400.5C 223.692,415.821 175.359,433.488 128,453.5C 127.395,434.169 126.895,414.836 126.5,395.5C 128.495,306.496 130.662,217.496 133,128.5C 192.483,113.754 251.983,98.9209 311.5,84C 358.15,71.4998 404.483,58.3331 450.5,44.5 Z M 81.5,105.5 C 94.2573,116.01 105.424,128.01 115,141.5C 117.514,145.525 119.181,149.859 120,154.5C 119.111,217.512 117.444,280.512 115,343.5C 114.487,368.511 114.487,393.511 115,418.5C 107.35,400.85 94.5167,388.683 76.5,382C 75.2317,379.859 74.5651,377.526 74.5,375C 77.5744,285.191 79.9078,195.358 81.5,105.5 Z M 241.5,257.5 C 241.657,256.127 241.49,254.793 241,253.5C 219.889,216.274 222.222,180.608 248,146.5C 259.422,133.408 273.589,124.908 290.5,121C 320.746,119.377 340.912,132.877 351,161.5C 358.773,190.208 355.44,217.541 341,243.5C 328.895,251.61 320.562,262.61 316,276.5C 314.532,281.025 314.366,285.525 315.5,290C 298.855,287.955 282.189,288.121 265.5,290.5C 264.426,277.182 258.759,266.349 248.5,258C 246.567,257.749 244.734,257.249 243,256.5C 242.617,257.056 242.117,257.389 241.5,257.5 Z M 308.5,293.5 C 313.602,294.757 317.435,297.757 320,302.5C 321.379,306.475 320.213,309.309 316.5,311C 299.596,313.619 282.596,314.619 265.5,314C 261.577,310.12 261.577,306.12 265.5,302C 280.037,299.567 294.37,296.733 308.5,293.5 Z M 311.5,322.5 C 319.071,322.263 321.904,325.93 320,333.5C 319.535,334.931 318.701,336.097 317.5,337C 302.973,338.628 288.473,340.462 274,342.5C 271.5,342 269,341.5 266.5,341C 259.734,336.003 260.067,331.337 267.5,327C 277.841,326.451 288.174,325.784 298.5,325C 303.047,324.571 307.381,323.738 311.5,322.5 Z M 298.5,350.5 C 300.857,350.337 303.19,350.503 305.5,351C 295.93,366.594 285.597,367.261 274.5,353C 282.702,352.681 290.702,351.848 298.5,350.5 Z M 263.5,413.5 C 265.37,437.981 266.203,462.648 266,487.5C 252.138,473.304 237.971,459.471 223.5,446C 217.664,441.502 211.331,437.836 204.5,435C 223.909,426.921 243.576,419.755 263.5,413.5 Z"/></g>
<g><path style="opacity:0.89" fill="#000000" d="M 241.5,257.5 C 238.944,256.457 236.777,254.79 235,252.5C 217.586,229.765 212.586,204.431 220,176.5C 228.114,144.401 247.614,122.567 278.5,111C 321.557,103.286 349.39,120.452 362,162.5C 369.465,193.969 362.798,221.969 342,246.5C 337.348,262.472 330.515,277.472 321.5,291.5C 328.424,296.431 330.924,303.098 329,311.5C 327.939,314.562 326.106,317.062 323.5,319C 329.556,325.386 330.723,332.553 327,340.5C 323.027,344.318 318.694,347.651 314,350.5C 312.217,365.949 303.551,374.282 288,375.5C 274.508,374.342 267.508,367.008 267,353.5C 254.779,350.738 249.112,343.071 250,330.5C 250.688,326.791 252.188,323.457 254.5,320.5C 248.393,310.5 249.393,301.333 257.5,293C 248.761,282.69 243.428,270.857 241.5,257.5 Z M 241.5,257.5 C 242.117,257.389 242.617,257.056 243,256.5C 244.734,257.249 246.567,257.749 248.5,258C 258.759,266.349 264.426,277.182 265.5,290.5C 282.189,288.121 298.855,287.955 315.5,290C 314.366,285.525 314.532,281.025 316,276.5C 320.562,262.61 328.895,251.61 341,243.5C 355.44,217.541 358.773,190.208 351,161.5C 340.912,132.877 320.746,119.377 290.5,121C 273.589,124.908 259.422,133.408 248,146.5C 222.222,180.608 219.889,216.274 241,253.5C 241.49,254.793 241.657,256.127 241.5,257.5 Z M 308.5,293.5 C 294.37,296.733 280.037,299.567 265.5,302C 261.577,306.12 261.577,310.12 265.5,314C 282.596,314.619 299.596,313.619 316.5,311C 320.213,309.309 321.379,306.475 320,302.5C 317.435,297.757 313.602,294.757 308.5,293.5 Z M 311.5,322.5 C 307.381,323.738 303.047,324.571 298.5,325C 288.174,325.784 277.841,326.451 267.5,327C 260.067,331.337 259.734,336.003 266.5,341C 269,341.5 271.5,342 274,342.5C 288.473,340.462 302.973,338.628 317.5,337C 318.701,336.097 319.535,334.931 320,333.5C 321.904,325.93 319.071,322.263 311.5,322.5 Z M 298.5,350.5 C 290.702,351.848 282.702,352.681 274.5,353C 285.597,367.261 295.93,366.594 305.5,351C 303.19,350.503 300.857,350.337 298.5,350.5 Z"/></g>
</svg>
