<?xml version="1.0" encoding="UTF-8"?>
<svg version="1.1" xmlns="http://www.w3.org/2000/svg" width="512" height="512">
<path d="M0 0 C19.55536077 16.50538593 31.80886775 37.38754953 35.46923828 62.74951172 C35.71076451 66.20024663 35.72434815 69.6281352 35.69628906 73.08618164 C35.69658112 74.05339142 35.69687317 75.0206012 35.69717407 76.01712036 C35.69579563 79.17150266 35.68030532 82.32564012 35.66455078 85.47998047 C35.66081536 87.68386201 35.65797089 89.88774522 35.65597534 92.09162903 C35.64838058 97.86028724 35.62876822 103.62884292 35.60656738 109.39746094 C35.58601893 115.29669814 35.57695446 121.19595208 35.56689453 127.09521484 C35.54551806 138.6466919 35.51143288 150.19809325 35.46923828 161.74951172 C33.15923828 161.74951172 30.84923828 161.74951172 28.46923828 161.74951172 C28.46923828 165.70951172 28.46923828 169.66951172 28.46923828 173.74951172 C29.32864014 173.63953857 30.18804199 173.52956543 31.07348633 173.41625977 C34.38126693 173.04995525 37.66685885 172.79220554 40.98754883 172.59594727 C42.39958885 172.49248772 43.80951057 172.35075557 45.21313477 172.1652832 C54.20830052 171.00973294 61.54709828 173.40883751 69.10403442 178.38601685 C76.72483261 184.50614596 81.07311925 190.81435055 82.53775024 200.56411743 C84.19252838 215.97199101 83.53665813 231.58091307 82.98181361 247.03563327 C82.74408234 253.77475289 82.63087193 260.51438815 82.526034 267.25667632 C82.30821277 281.09224494 81.94039998 294.92041153 81.46923828 308.74951172 C78.82923828 308.74951172 76.18923828 308.74951172 73.46923828 308.74951172 C73.46923828 312.70951172 73.46923828 316.66951172 73.46923828 320.74951172 C113.72923828 320.74951172 153.98923828 320.74951172 195.46923828 320.74951172 C195.46923828 377.17951172 195.46923828 433.60951172 195.46923828 491.74951172 C26.50923828 491.74951172 -142.45076172 491.74951172 -316.53076172 491.74951172 C-316.53076172 435.31951172 -316.53076172 378.88951172 -316.53076172 320.74951172 C-276.27076172 320.74951172 -236.01076172 320.74951172 -194.53076172 320.74951172 C-194.53076172 316.78951172 -194.53076172 312.82951172 -194.53076172 308.74951172 C-197.17076172 308.74951172 -199.81076172 308.74951172 -202.53076172 308.74951172 C-203.02475384 294.25031424 -203.39325988 279.75225031 -203.61881733 265.24630451 C-203.72641536 258.50790122 -203.87319398 251.7748232 -204.11499023 245.03979492 C-205.85431153 194.82694191 -205.85431153 194.82694191 -195.80221558 183.32199097 C-188.74911229 176.61620341 -180.36406998 171.56687724 -170.38056946 171.73384094 C-168.31383139 171.90349889 -166.27380435 172.16539603 -164.21826172 172.43701172 C-162.77300869 172.54290477 -161.326974 172.63862447 -159.88037109 172.72412109 C-156.41359641 172.95039863 -152.97764217 173.30843252 -149.53076172 173.74951172 C-149.53076172 169.78951172 -149.53076172 165.82951172 -149.53076172 161.74951172 C-151.84076172 161.74951172 -154.15076172 161.74951172 -156.53076172 161.74951172 C-156.62398167 149.1524518 -156.69478831 136.55547573 -156.73801041 123.95813942 C-156.75876858 118.10689622 -156.78686801 112.25589129 -156.83251953 106.40478516 C-156.87640099 100.74427365 -156.89998699 95.08398942 -156.91027069 89.42332077 C-156.9175869 87.27786056 -156.93187039 85.13241092 -156.95368195 82.9870491 C-157.23940654 53.68292011 -150.13107887 29.08546374 -129.37451172 7.56591797 C-117.80994013 -4.05773692 -104.132129 -12.25805075 -88.53076172 -17.25048828 C-87.56009766 -17.57017578 -86.58943359 -17.88986328 -85.58935547 -18.21923828 C-56.4238616 -26.1037773 -23.30049362 -19.03431074 0 0 Z " fill="#020202" transform="translate(316.53076171875,20.25048828125)"/>
<path d="M0 0 C19.55536077 16.50538593 31.80886775 37.38754953 35.46923828 62.74951172 C35.71076451 66.20024663 35.72434815 69.6281352 35.69628906 73.08618164 C35.69658112 74.05339142 35.69687317 75.0206012 35.69717407 76.01712036 C35.69579563 79.17150266 35.68030532 82.32564012 35.66455078 85.47998047 C35.66081536 87.68386201 35.65797089 89.88774522 35.65597534 92.09162903 C35.64838058 97.86028724 35.62876822 103.62884292 35.60656738 109.39746094 C35.58601893 115.29669814 35.57695446 121.19595208 35.56689453 127.09521484 C35.54551806 138.6466919 35.51143288 150.19809325 35.46923828 161.74951172 C33.15923828 161.74951172 30.84923828 161.74951172 28.46923828 161.74951172 C28.46923828 165.70951172 28.46923828 169.66951172 28.46923828 173.74951172 C19.55923828 173.74951172 10.64923828 173.74951172 1.46923828 173.74951172 C1.46923828 138.76951172 1.46923828 103.78951172 1.46923828 67.74951172 C-0.18076172 67.08951172 -1.83076172 66.42951172 -3.53076172 65.74951172 C-19.29744497 55.19196233 -28.67575639 40.37482919 -33.19091797 22.07373047 C-33.74537857 18.28172979 -33.5879014 14.57787032 -33.53076172 10.74951172 C-38.48076172 10.74951172 -43.43076172 10.74951172 -48.53076172 10.74951172 C-48.46888672 11.98701172 -48.40701172 13.22451172 -48.34326172 14.49951172 C-48.46910976 30.68357008 -56.58185374 46.04855162 -67.87841797 57.26513672 C-83.73349485 72.11613657 -100.86770245 75.74951172 -122.53076172 75.74951172 C-122.53076172 108.08951172 -122.53076172 140.42951172 -122.53076172 173.74951172 C-131.44076172 173.74951172 -140.35076172 173.74951172 -149.53076172 173.74951172 C-149.53076172 169.78951172 -149.53076172 165.82951172 -149.53076172 161.74951172 C-151.84076172 161.74951172 -154.15076172 161.74951172 -156.53076172 161.74951172 C-156.62398167 149.1524518 -156.69478831 136.55547573 -156.73801041 123.95813942 C-156.75876858 118.10689622 -156.78686801 112.25589129 -156.83251953 106.40478516 C-156.87640099 100.74427365 -156.89998699 95.08398942 -156.91027069 89.42332077 C-156.9175869 87.27786056 -156.93187039 85.13241092 -156.95368195 82.9870491 C-157.23940654 53.68292011 -150.13107887 29.08546374 -129.37451172 7.56591797 C-117.80994013 -4.05773692 -104.132129 -12.25805075 -88.53076172 -17.25048828 C-87.56009766 -17.57017578 -86.58943359 -17.88986328 -85.58935547 -18.21923828 C-56.4238616 -26.1037773 -23.30049362 -19.03431074 0 0 Z " fill="#FDE276" transform="translate(316.53076171875,20.25048828125)"/>
<path d="M0 0 C4.76426315 -0.30017167 9.52286977 -0.51588948 14.29443359 -0.65917969 C15.91096947 -0.71896805 17.5268721 -0.8004483 19.14111328 -0.90527344 C21.48628653 -1.0535733 23.8228184 -1.11938594 26.171875 -1.171875 C26.87552185 -1.23381042 27.5791687 -1.29574585 28.30413818 -1.35955811 C34.35852867 -1.36739945 38.89790064 1.99222167 43.07235718 6.0867691 C50.27093749 14.57445164 48.45861728 26.35852118 48.171875 36.796875 C48.14946284 39.20106755 48.13239579 41.60531532 48.12042236 44.00958252 C48.07484282 50.30418144 47.95718462 56.59539905 47.82397461 62.88867188 C47.70069251 69.32375351 47.64630052 75.75938756 47.5859375 82.1953125 C47.45766459 94.79830851 47.25550107 107.39897352 47 120 C49.64 120 52.28 120 55 120 C55 123.96 55 127.92 55 132 C39.16 132 23.32 132 7 132 C7 117.48 7 102.96 7 88 C2.05 88 -2.9 88 -8 88 C-8 102.52 -8 117.04 -8 132 C-28.79 132 -49.58 132 -71 132 C-71 99 -71 66 -71 32 C-69.68 32.66 -68.36 33.32 -67 34 C-66.67 34.99 -66.34 35.98 -66 37 C-36.69769047 40.00228305 -36.69769047 40.00228305 -10.73144531 29.55761719 C-1.71806977 20.04054258 0.14787471 12.75019751 0 0 Z " fill="#BCDAFE" transform="translate(335,209)"/>
<path d="M0 0 C0.7598822 0.01697937 1.5197644 0.03395874 2.30267334 0.05145264 C4.68204735 0.11757876 7.04676351 0.26764068 9.421875 0.421875 C11.05318633 0.48220984 12.68471511 0.53693777 14.31640625 0.5859375 C18.2737008 0.71680381 22.22032511 0.92290821 26.171875 1.171875 C26.15995117 2.19998291 26.14802734 3.22809082 26.13574219 4.28735352 C26.25350151 15.84235618 28.83486907 22.21014757 36.90332031 30.72949219 C51.18923538 43.13401414 74.54989556 39.21430195 92.171875 38.171875 C92.44 37.5325 92.708125 36.893125 92.984375 36.234375 C94.171875 34.171875 94.171875 34.171875 97.171875 33.171875 C97.171875 66.171875 97.171875 99.171875 97.171875 133.171875 C76.711875 133.171875 56.251875 133.171875 35.171875 133.171875 C35.171875 118.651875 35.171875 104.131875 35.171875 89.171875 C29.891875 89.171875 24.611875 89.171875 19.171875 89.171875 C19.171875 103.691875 19.171875 118.211875 19.171875 133.171875 C3.331875 133.171875 -12.508125 133.171875 -28.828125 133.171875 C-28.828125 129.211875 -28.828125 125.251875 -28.828125 121.171875 C-26.188125 121.171875 -23.548125 121.171875 -20.828125 121.171875 C-20.83918652 120.62633343 -20.85024803 120.08079185 -20.86164474 119.51871872 C-21.12756728 106.19610903 -21.32489769 92.87396895 -21.44987106 79.54926682 C-21.51235293 73.10507683 -21.59701738 66.66280983 -21.73339844 60.21972656 C-21.86432494 53.99498014 -21.93564589 47.77207626 -21.96665192 41.54605865 C-21.98873025 39.17767592 -22.03184776 36.80938786 -22.09688568 34.44179535 C-22.6352659 14.02039733 -22.6352659 14.02039733 -16.90048218 7.2586441 C-11.98005832 2.43240895 -7.03457224 -0.61918734 0 0 Z " fill="#BCDAFE" transform="translate(150.828125,207.828125)"/>
<path d="M0 0 C64.68 0 129.36 0 196 0 C196 16.17 196 32.34 196 49 C131.32 49 66.64 49 0 49 C0 32.83 0 16.66 0 0 Z " fill="#B7E894" transform="translate(301,356)"/>
<path d="M0 0 C2.67447963 3.22205628 4.90400946 6.44364134 7 10.0625 C9.93547233 14.74527729 13.23497374 18.61414503 17.125 22.5 C17.62773437 23.004104 18.13046875 23.50820801 18.6484375 24.02758789 C20.87377727 26.18814392 22.79858931 27.90552117 25.62091064 29.22943115 C28 31 28 31 28.75604248 34.05328369 C28.84344696 35.93778229 28.84344696 35.93778229 28.93261719 37.86035156 C28.97029205 38.5553627 29.00796692 39.25037384 29.04678345 39.96644592 C29.16085767 42.27439324 29.23375176 44.58074576 29.296875 46.890625 C29.33305813 48.08460026 29.33305813 48.08460026 29.36997223 49.30269623 C29.49205718 53.53707606 29.57861416 57.77068658 29.640625 62.00634766 C29.69781675 65.47224855 29.82161896 68.92500912 30.00976562 72.38623047 C31.70441061 104.30688267 31.70441061 104.30688267 20.86578369 116.7315979 C12.2994429 125.71775319 2.72479992 131.55624336 -9.9229126 132.20869446 C-12.96306726 132.20429457 -15.96603233 132.06433533 -19 131.875 C-20.04196533 131.83434418 -21.08393066 131.79368835 -22.1574707 131.75180054 C-36.58889722 131.09113101 -49.7695797 129.25593323 -60.21118164 118.52661133 C-73.66787962 100.95455529 -67.48434436 65.72565025 -66 45 C-64.91098389 44.80374023 -63.82196777 44.60748047 -62.69995117 44.40527344 C-61.25175766 44.14015255 -59.80359866 43.87484307 -58.35546875 43.609375 C-57.63999878 43.48095215 -56.92452881 43.3525293 -56.18737793 43.22021484 C-39.36117458 40.11798897 -25.88322372 32.04073331 -14 20 C-13.32066406 19.319375 -12.64132812 18.63875 -11.94140625 17.9375 C-6.94635819 12.59758225 -3.50073592 6.38432084 0 0 Z " fill="#FED9A9" transform="translate(275,65)"/>
<path d="M0 0 C19.8 0 39.6 0 60 0 C60 46.53 60 93.06 60 141 C40.2 141 20.4 141 0 141 C0 94.47 0 47.94 0 0 Z " fill="#FAD6A7" transform="translate(226,356)"/>
<path d="M0 0 C19.55536077 16.50538593 31.80886775 37.38754953 35.46923828 62.74951172 C35.71076451 66.20024663 35.72434815 69.6281352 35.69628906 73.08618164 C35.69658112 74.05339142 35.69687317 75.0206012 35.69717407 76.01712036 C35.69579563 79.17150266 35.68030532 82.32564012 35.66455078 85.47998047 C35.66081536 87.68386201 35.65797089 89.88774522 35.65597534 92.09162903 C35.64838058 97.86028724 35.62876822 103.62884292 35.60656738 109.39746094 C35.58601893 115.29669814 35.57695446 121.19595208 35.56689453 127.09521484 C35.54551806 138.6466919 35.51143288 150.19809325 35.46923828 161.74951172 C30.51923828 161.74951172 25.56923828 161.74951172 20.46923828 161.74951172 C20.46376984 159.97997131 20.46376984 159.97997131 20.45819092 158.17468262 C20.42106688 146.9952351 20.36310606 135.81605862 20.28533554 124.63681793 C20.24601738 118.89100592 20.21375257 113.14534358 20.19824219 107.39941406 C20.18297186 101.84247794 20.14834466 96.28595374 20.10092926 90.72920227 C20.08622169 88.62123722 20.07820345 86.51321333 20.07735443 84.40519714 C20.06497851 69.06894192 19.22322782 54.31914765 11.78173828 40.49951172 C11.43925049 39.8438623 11.0967627 39.18821289 10.74389648 38.51269531 C-0.06592344 18.42858292 -16.50977046 5.28228262 -38.09326172 -1.28564453 C-39.22763672 -1.60404297 -40.36201172 -1.92244141 -41.53076172 -2.25048828 C-42.35576172 -2.49669922 -43.18076172 -2.74291016 -44.03076172 -2.99658203 C-64.19976275 -8.07384791 -85.84290109 -2.88806486 -103.41357422 7.44482422 C-105.88883723 9.11310493 -108.21450532 10.86730677 -110.53076172 12.74951172 C-111.35962891 13.41595703 -112.18849609 14.08240234 -113.04248047 14.76904297 C-128.58069621 27.97533659 -138.84417495 46.8691741 -140.77070045 67.29322052 C-141.15488681 74.03416531 -141.1374182 80.78101834 -141.14013672 87.53076172 C-141.15515089 89.68267033 -141.17188471 91.83456755 -141.19024658 93.9864502 C-141.23356898 99.595526 -141.2538406 105.20444647 -141.26898193 110.81365967 C-141.28868079 116.5592962 -141.33063563 122.30476803 -141.37060547 128.05029297 C-141.44552644 139.28331463 -141.4960475 150.51629877 -141.53076172 161.74951172 C-146.48076172 161.74951172 -151.43076172 161.74951172 -156.53076172 161.74951172 C-156.62398167 149.1524518 -156.69478831 136.55547573 -156.73801041 123.95813942 C-156.75876858 118.10689622 -156.78686801 112.25589129 -156.83251953 106.40478516 C-156.87640099 100.74427365 -156.89998699 95.08398942 -156.91027069 89.42332077 C-156.9175869 87.27786056 -156.93187039 85.13241092 -156.95368195 82.9870491 C-157.23940654 53.68292011 -150.13107887 29.08546374 -129.37451172 7.56591797 C-117.80994013 -4.05773692 -104.132129 -12.25805075 -88.53076172 -17.25048828 C-87.56009766 -17.57017578 -86.58943359 -17.88986328 -85.58935547 -18.21923828 C-56.4238616 -26.1037773 -23.30049362 -19.03431074 0 0 Z " fill="#000000" transform="translate(316.53076171875,20.25048828125)"/>
<path d="M0 0 C-0.76183594 0.35191406 -1.52367187 0.70382813 -2.30859375 1.06640625 C-9.25765832 4.38911752 -15.13460038 8.02932235 -21 13 C-21.65355469 13.49757813 -22.30710938 13.99515625 -22.98046875 14.5078125 C-39.73641709 27.81892516 -48.92494704 50.02713088 -51.45703125 70.73828125 C-51.69932189 73.48747242 -51.86043968 76.24368366 -52 79 C-47.71 79 -43.42 79 -39 79 C-39 79.33 -39 79.66 -39 80 C-44.61 80 -50.22 80 -56 80 C-56 112.34 -56 144.68 -56 178 C-64.91 178 -73.82 178 -83 178 C-83 174.04 -83 170.08 -83 166 C-80.36 166 -77.72 166 -75 166 C-75.00888245 164.8203064 -75.01776489 163.64061279 -75.0269165 162.4251709 C-75.10840327 151.24593924 -75.16815651 140.06676873 -75.20724869 128.88730621 C-75.22802277 123.14137789 -75.25615224 117.39569149 -75.30175781 111.64990234 C-75.34558132 106.09314128 -75.36921341 100.53661125 -75.37950897 94.97969055 C-75.38683536 92.87165191 -75.40113973 90.76362428 -75.42292023 88.65568542 C-75.57588161 73.22220231 -74.77243104 58.58565003 -67.25 44.6875 C-66.90710938 44.03072266 -66.56421875 43.37394531 -66.2109375 42.69726562 C-55.61086172 22.90916796 -39.1418551 9.25481034 -18 2 C-5.22942531 -1.8277603 -5.22942531 -1.8277603 0 0 Z " fill="#FBB354" transform="translate(250,16)"/>
<path d="M0 0 C64.68 0 129.36 0 196 0 C196 5.94 196 11.88 196 18 C131.32 18 66.64 18 0 18 C0 12.06 0 6.12 0 0 Z " fill="#ADDC8B" transform="translate(15,356)"/>
<path d="M0 0 C64.68 0 129.36 0 196 0 C196 5.61 196 11.22 196 17 C131.32 17 66.64 17 0 17 C0 11.39 0 5.78 0 0 Z " fill="#AADA89" transform="translate(15,388)"/>
<path d="M0 0 C12.54 0 25.08 0 38 0 C38 46.2 38 92.4 38 140 C25.46 140 12.92 140 0 140 C0 131.75 0 123.5 0 115 C5.28 115 10.56 115 16 115 C16 112.03 16 109.06 16 106 C20.29 106 24.58 106 29 106 C29 91.81 29 77.62 29 63 C20.09 63 11.18 63 2 63 C2 59.37 2 55.74 2 52 C10.91 52 19.82 52 29 52 C29 46.72 29 41.44 29 36 C24.71 36 20.42 36 16 36 C16 33.03 16 30.06 16 27 C10.72 27 5.44 27 0 27 C0 18.09 0 9.18 0 0 Z " fill="#FFF4CB" transform="translate(248,357)"/>
<path d="M0 0 C64.68 0 129.36 0 196 0 C196 5.28 196 10.56 196 16 C131.32 16 66.64 16 0 16 C0 10.72 0 5.44 0 0 Z " fill="#B6E892" transform="translate(301,451)"/>
<path d="M0 0 C64.68 0 129.36 0 196 0 C196 5.28 196 10.56 196 16 C131.32 16 66.64 16 0 16 C0 10.72 0 5.44 0 0 Z " fill="#B5E791" transform="translate(15,451)"/>
<path d="M0 0 C64.68 0 129.36 0 196 0 C196 5.28 196 10.56 196 16 C131.32 16 66.64 16 0 16 C0 10.72 0 5.44 0 0 Z " fill="#B6E892" transform="translate(301,420)"/>
<path d="M0 0 C64.68 0 129.36 0 196 0 C196 5.28 196 10.56 196 16 C131.32 16 66.64 16 0 16 C0 10.72 0 5.44 0 0 Z " fill="#B6E892" transform="translate(15,420)"/>
<path d="M0 0 C64.68 0 129.36 0 196 0 C196 4.95 196 9.9 196 15 C131.32 15 66.64 15 0 15 C0 10.05 0 5.1 0 0 Z " fill="#B6E892" transform="translate(301,482)"/>
<path d="M0 0 C64.68 0 129.36 0 196 0 C196 4.95 196 9.9 196 15 C131.32 15 66.64 15 0 15 C0 10.05 0 5.1 0 0 Z " fill="#B5E791" transform="translate(15,482)"/>
<path d="M0 0 C5.28 0 10.56 0 16 0 C16 2.97 16 5.94 16 9 C20.29 9 24.58 9 29 9 C29 14.28 29 19.56 29 25 C20.09 25 11.18 25 2 25 C2 28.63 2 32.26 2 36 C10.91 36 19.82 36 29 36 C29 50.19 29 64.38 29 79 C24.71 79 20.42 79 16 79 C16 81.97 16 84.94 16 88 C10.72 88 5.44 88 0 88 C0 85.03 0 82.06 0 79 C-4.29 79 -8.58 79 -13 79 C-13 74.05 -13 69.1 -13 64 C-4.09 64 4.82 64 14 64 C14 59.71 14 55.42 14 51 C5.09 51 -3.82 51 -13 51 C-13 37.14 -13 23.28 -13 9 C-8.71 9 -4.42 9 0 9 C0 6.03 0 3.06 0 0 Z " fill="#070706" transform="translate(248,384)"/>
<path d="M0 0 C-0.04449532 1.21457634 -0.04449532 1.21457634 -0.08988953 2.45368958 C-0.35520568 10.17441337 -0.52477819 17.88908993 -0.59327984 25.61386585 C-0.63169332 29.58390967 -0.70397761 33.54663708 -0.8605957 37.51391602 C-2.10930605 57.05420981 -2.10930605 57.05420981 5.34521484 74.40380859 C9.30530079 78.63262197 13.58719027 82.31154109 18.28263855 85.70072937 C18.84936783 86.12948868 19.41609711 86.55824799 20 87 C20 87.33 20 87.66 20 88 C10.74005928 90.23664846 3.12620885 89.51366584 -5.3828125 85.0234375 C-13.03494605 79.83950708 -19.12558713 74.00670581 -22 65 C-25.50951981 45.25913051 -23.42220979 23.85807571 -22 4 C-20.87980469 3.79503906 -19.75960937 3.59007813 -18.60546875 3.37890625 C-17.13279176 3.10688311 -15.66013664 2.83474151 -14.1875 2.5625 C-13.44951172 2.42779297 -12.71152344 2.29308594 -11.95117188 2.15429688 C-0.33898628 0 -0.33898628 0 0 0 Z " fill="#FBB984" transform="translate(231,106)"/>
<path d="M0 0 C39.6 0 79.2 0 120 0 C120 4.62 120 9.24 120 14 C80.4 14 40.8 14 0 14 C0 9.38 0 4.76 0 0 Z " fill="#FFFFFF" transform="translate(364,374)"/>
<path d="M0 0 C64.68 0 129.36 0 196 0 C196 0.33 196 0.66 196 1 C138.91 1 81.82 1 23 1 C23 6.28 23 11.56 23 17 C19.7 17 16.4 17 13 17 C13 22.28 13 27.56 13 33 C16.3 33 19.6 33 23 33 C23 37.95 23 42.9 23 48 C80.09 48 137.18 48 196 48 C196 48.33 196 48.66 196 49 C131.32 49 66.64 49 0 49 C0 32.83 0 16.66 0 0 Z " fill="#7BBE84" transform="translate(301,356)"/>
<path d="M0 0 C18.81 0 37.62 0 57 0 C57 12.47390787 57 12.47390787 51.51342773 18.16772461 C43.35616693 24.91191662 30.62067178 23.99821582 20.56640625 23.25 C12.89683168 22.46783619 8.15486589 20.05917508 2.99633789 14.41821289 C-0.83205898 9.3373384 0 6.97579991 0 0 Z " fill="#F3F3F3" transform="translate(263,209)"/>
<path d="M0 0 C18.81 0 37.62 0 57 0 C57 9.00542002 56.5722482 11.80445509 50.87329102 17.76342773 C42.47585875 24.8837168 29.87727626 24.02064738 19.46484375 23.21484375 C11.13517155 22.2045338 6.77984115 19.9868704 1.5 13.6015625 C0 10 0 10 0 0 Z " fill="#FEFEFE" transform="translate(192,209)"/>
<path d="M0 0 C4.95 0 9.9 0 15 0 C15 17.16 15 34.32 15 52 C10.05 52 5.1 52 0 52 C0 34.84 0 17.68 0 0 Z " fill="#FEFEFF" transform="translate(356,277)"/>
<path d="M0 0 C7.59 0 15.18 0 23 0 C23 4.95 23 9.9 23 15 C79.76 15 136.52 15 195 15 C195 10.05 195 5.1 195 0 C195.33 0 195.66 0 196 0 C196 5.28 196 10.56 196 16 C131.32 16 66.64 16 0 16 C0 10.72 0 5.44 0 0 Z " fill="#87C98A" transform="translate(15,420)"/>
<path d="M0 0 C7.59 0 15.18 0 23 0 C23 4.95 23 9.9 23 15 C80.09 15 137.18 15 196 15 C196 15.33 196 15.66 196 16 C131.32 16 66.64 16 0 16 C0 10.72 0 5.44 0 0 Z " fill="#86C98A" transform="translate(301,420)"/>
<path d="M0 0 C18.81 0 37.62 0 57 0 C57 2.97 57 5.94 57 9 C56.67 9 56.34 9 56 9 C56 6.36 56 3.72 56 1 C44.78 1 33.56 1 22 1 C22 4.96 22 8.92 22 13 C23.32 13.66 24.64 14.32 26 15 C26.639375 15.845625 27.27875 16.69125 27.9375 17.5625 C32.73013433 21.37704569 38.03888913 20.90399382 44 21 C44 21.33 44 21.66 44 22 C12.501558 24.1835038 12.501558 24.1835038 5.45800781 18.19628906 C-0.4442163 11.83548625 0 9.39157591 0 0 Z " fill="#E0A3C0" transform="translate(192,209)"/>
<path d="M0 0 C2.58479229 3.08186773 4.9892807 6.28074966 7.3125 9.5625 C7.84488281 10.30628906 8.37726563 11.05007812 8.92578125 11.81640625 C10 14 10 14 9.96875 16.00390625 C5.0306325 26.17881772 -10.09242554 31.70575472 -20.0625 35.3125 C-25.67057146 37.09789659 -31.13462905 37.76907988 -37 38 C-34.12000574 35.75333781 -31.15016434 33.90478361 -28 32.0625 C-15.68424014 24.21325571 -6.50928622 13.01857244 0 0 Z " fill="#F6B682" transform="translate(275,65)"/>
<path d="M0 0 C4.95 0 9.9 0 15 0 C15.1081866 2.58445773 15.18737237 5.16437352 15.25 7.75 C15.30027344 8.84441406 15.30027344 8.84441406 15.3515625 9.9609375 C15.4174248 13.58336387 15.31755877 15.57746313 13.109375 18.515625 C11 20 11 20 9 20 C8.79375 20.53625 8.5875 21.0725 8.375 21.625 C6.4943538 24.87338889 4.16192322 27.91978735 1 30 C-2.84192852 29.84445634 -4.7012786 27.61365748 -7.25 24.9375 C-7.95640625 24.20402344 -8.6628125 23.47054687 -9.390625 22.71484375 C-9.92171875 22.14894531 -10.4528125 21.58304688 -11 21 C-9.55508611 17.57305763 -7.72943016 15.7294704 -4.9375 13.3125 C-1.79133231 10.29149631 -0.4471058 8.36787972 0 4 C0 2.68 0 1.36 0 0 Z " fill="#FFFDFB" transform="translate(278,151)"/>
<path d="M0 0 C7.59 0 15.18 0 23 0 C23 5.28 23 10.56 23 16 C15.41 16 7.82 16 0 16 C0 10.72 0 5.44 0 0 Z " fill="#7BCA90" transform="translate(301,451)"/>
<path d="M0 0 C7.59 0 15.18 0 23 0 C23 5.28 23 10.56 23 16 C15.41 16 7.82 16 0 16 C0 10.72 0 5.44 0 0 Z " fill="#7DCC92" transform="translate(15,451)"/>
<path d="M0 0 C7.59 0 15.18 0 23 0 C23 5.28 23 10.56 23 16 C15.41 16 7.82 16 0 16 C0 10.72 0 5.44 0 0 Z " fill="#7DCC92" transform="translate(15,357)"/>
<path d="M0 0 C7.59 0 15.18 0 23 0 C23 4.95 23 9.9 23 15 C15.41 15 7.82 15 0 15 C0 10.05 0 5.1 0 0 Z " fill="#7BCA90" transform="translate(301,482)"/>
<path d="M0 0 C7.59 0 15.18 0 23 0 C23 4.95 23 9.9 23 15 C15.41 15 7.82 15 0 15 C0 10.05 0 5.1 0 0 Z " fill="#7DCC92" transform="translate(15,482)"/>
<path d="M0 0 C7.59 0 15.18 0 23 0 C23 4.95 23 9.9 23 15 C15.41 15 7.82 15 0 15 C0 10.05 0 5.1 0 0 Z " fill="#7DCC92" transform="translate(15,389)"/>
<path d="M0 0 C4.95 0 9.9 0 15 0 C15 4.95 15 9.9 15 15 C10.05 15 5.1 15 0 15 C0 10.05 0 5.1 0 0 Z " fill="#FAFDF9" transform="translate(314,374)"/>
<path d="M0 0 C4.95 0 9.9 0 15 0 C15 4.95 15 9.9 15 15 C10.05 15 5.1 15 0 15 C0 10.05 0 5.1 0 0 Z " fill="#FEFEFF" transform="translate(356,252)"/>
<path d="M0 0 C4.95 0 9.9 0 15 0 C15 4.95 15 9.9 15 15 C10.05 15 5.1 15 0 15 C0 10.05 0 5.1 0 0 Z " fill="#FEFEFF" transform="translate(356,227)"/>
<path d="M0 0 C4.95 0 9.9 0 15 0 C15 4.95 15 9.9 15 15 C10.05 15 5.1 15 0 15 C0 10.05 0 5.1 0 0 Z " fill="#FFFDFC" transform="translate(278,126)"/>
<path d="M0 0 C4.95 0 9.9 0 15 0 C15 4.95 15 9.9 15 15 C10.05 15 5.1 15 0 15 C0 10.05 0 5.1 0 0 Z " fill="#FFFDFC" transform="translate(278,101)"/>
<path d="M0 0 C4.62 0 9.24 0 14 0 C14 4.62 14 9.24 14 14 C9.38 14 4.76 14 0 14 C0 9.38 0 4.76 0 0 Z " fill="#FFFFFF" transform="translate(339,374)"/>
<path d="M0 0 C4.62 0 9.24 0 14 0 C14 3.63 14 7.26 14 11 C9.38 11 4.76 11 0 11 C0 7.37 0 3.74 0 0 Z " fill="#FFF4CB" transform="translate(248,436)"/>
</svg>
