<?xml version="1.0" encoding="UTF-8"?>
<!DOCTYPE svg PUBLIC "-//W3C//DTD SVG 1.1//EN" "http://www.w3.org/Graphics/SVG/1.1/DTD/svg11.dtd">
<svg xmlns="http://www.w3.org/2000/svg" version="1.1" width="512px" height="512px" style="shape-rendering:geometricPrecision; text-rendering:geometricPrecision; image-rendering:optimizeQuality; fill-rule:evenodd; clip-rule:evenodd" xmlns:xlink="http://www.w3.org/1999/xlink">
<g><path style="opacity:0.965" fill="#010101" d="M 188.5,11.5 C 217.537,11.0497 246.537,11.5497 275.5,13C 316.208,22.709 340.042,48.209 347,89.5C 347.667,106.833 347.667,124.167 347,141.5C 343.96,150.542 337.793,156.042 328.5,158C 317.167,158.667 305.833,158.667 294.5,158C 286.361,156.532 280.528,152.032 277,144.5C 275.955,131.857 274.955,119.19 274,106.5C 270.061,93.275 261.228,85.775 247.5,84C 233.12,83.089 218.786,83.4223 204.5,85C 193.573,88.927 186.406,96.427 183,107.5C 182.5,129.831 182.333,152.164 182.5,174.5C 247.168,174.333 311.834,174.5 376.5,175C 394,179.167 404.833,190 409,207.5C 409.333,249.833 409.667,292.167 410,334.5C 447.84,353.832 465.174,384.832 462,427.5C 453.136,476.603 423.803,502.937 374,506.5C 335.896,505.048 308.396,487.381 291.5,453.5C 220.836,452.667 150.169,452.167 79.5,452C 60.7794,446.945 50.2794,434.778 48,415.5C 47.0231,345.473 47.3565,275.473 49,205.5C 53.3619,188.472 64.1952,178.306 81.5,175C 90.8274,174.5 100.161,174.334 109.5,174.5C 109.333,147.831 109.5,121.165 110,94.5C 113.888,57.2848 133.055,31.4514 167.5,17C 174.509,14.666 181.509,12.8326 188.5,11.5 Z"/></g>
<g><path style="opacity:1" fill="#cbc3cb" d="M 185.5,26.5 C 213.502,26.3334 241.502,26.5 269.5,27C 305.978,34.4791 327.144,56.6458 333,93.5C 333.667,108.167 333.667,122.833 333,137.5C 331.878,139.624 330.378,141.457 328.5,143C 316.404,143.958 304.404,143.625 292.5,142C 291.54,140.581 290.707,139.081 290,137.5C 289.667,126.5 289.333,115.5 289,104.5C 284.056,85.8893 272.223,74.3893 253.5,70C 236.833,69.3333 220.167,69.3333 203.5,70C 184.12,75.3792 172.287,87.8792 168,107.5C 167.5,129.831 167.333,152.164 167.5,174.5C 153.167,174.5 138.833,174.5 124.5,174.5C 124.333,146.165 124.5,117.831 125,89.5C 132.464,56.2039 152.631,35.2039 185.5,26.5 Z"/></g>
<g><path style="opacity:1" fill="#fee076" d="M 394.5,211.5 C 394.832,251.004 394.499,290.337 393.5,329.5C 351.427,322.459 318.927,336.792 296,372.5C 284.394,393.241 281.227,415.241 286.5,438.5C 218.499,438.667 150.499,438.5 82.5,438C 71.776,434.612 65.276,427.445 63,416.5C 62.3333,347.5 62.3333,278.5 63,209.5C 65.919,198.248 73.0857,191.415 84.5,189C 180.5,188.333 276.5,188.333 372.5,189C 384.767,191.766 392.1,199.266 394.5,211.5 Z"/></g>
<g><path style="opacity:0.765" fill="#796b37" d="M 394.5,211.5 C 395.831,251.002 395.831,290.669 394.5,330.5C 393.893,330.376 393.56,330.043 393.5,329.5C 394.499,290.337 394.832,251.004 394.5,211.5 Z"/></g>
<g><path style="opacity:0.998" fill="#050402" d="M 219.5,232.5 C 252.559,230.398 273.059,245.398 281,277.5C 283.952,298.318 277.618,315.652 262,329.5C 261.667,341.833 261.333,354.167 261,366.5C 255.274,389.456 240.774,398.289 217.5,393C 205.559,388.057 198.392,379.224 196,366.5C 195.667,354.167 195.333,341.833 195,329.5C 172.747,306.881 169.747,281.881 186,254.5C 194.48,243.014 205.647,235.681 219.5,232.5 Z"/></g>
<g><path style="opacity:1" fill="#fcc85c" d="M 221.5,246.5 C 243.839,244.748 258.673,254.414 266,275.5C 270.278,295.331 264.278,311.331 248,323.5C 247.918,338.879 247.251,354.212 246,369.5C 239.436,380.353 230.269,383.186 218.5,378C 215.96,375.795 213.793,373.295 212,370.5C 210.714,355.234 210.047,339.901 210,324.5C 205.023,319.854 200.356,314.854 196,309.5C 186.848,292.54 187.848,276.207 199,260.5C 205.415,253.885 212.915,249.218 221.5,246.5 Z"/></g>
<g><path style="opacity:1" fill="#65f0be" d="M 360.5,342.5 C 405.48,338.666 434.314,358.333 447,401.5C 452.277,440.453 437.444,468.619 402.5,486C 364.755,498.416 333.922,488.916 310,457.5C 292.585,425.514 294.919,395.181 317,366.5C 329.154,354.174 343.654,346.174 360.5,342.5 Z"/></g>
<g><path style="opacity:0.999" fill="#010202" d="M 409.5,385.5 C 418.742,384.23 421.909,387.897 419,396.5C 401.805,414.029 384.305,431.196 366.5,448C 364.029,448.706 361.695,448.373 359.5,447C 349.636,437.47 340.136,427.637 331,417.5C 330.013,410.823 332.847,407.656 339.5,408C 347.97,415.469 356.137,423.302 364,431.5C 379.368,416.299 394.535,400.965 409.5,385.5 Z"/></g>
</svg>
