<?xml version="1.0" encoding="UTF-8"?>
<!DOCTYPE svg PUBLIC "-//W3C//DTD SVG 1.1//EN" "http://www.w3.org/Graphics/SVG/1.1/DTD/svg11.dtd">
<svg xmlns="http://www.w3.org/2000/svg" version="1.1" width="512px" height="512px" style="shape-rendering:geometricPrecision; text-rendering:geometricPrecision; image-rendering:optimizeQuality; fill-rule:evenodd; clip-rule:evenodd" xmlns:xlink="http://www.w3.org/1999/xlink">
<g><path style="opacity:0.987" fill="#5fb1b7" d="M 241.5,-0.5 C 250.833,-0.5 260.167,-0.5 269.5,-0.5C 310.398,7.22074 337.564,30.8874 351,70.5C 353.807,80.9853 354.974,91.652 354.5,102.5C 353.566,103.568 353.232,104.901 353.5,106.5C 352.65,116.083 350.65,125.417 347.5,134.5C 322.318,184.752 281.985,203.919 226.5,192C 197.643,181.642 176.977,162.476 164.5,134.5C 160.6,124.546 158.267,114.213 157.5,103.5C 157.5,103.167 157.5,102.833 157.5,102.5C 157.405,55.7902 178.738,23.2902 221.5,5C 228.208,2.82607 234.875,0.992739 241.5,-0.5 Z"/></g>
<g><path style="opacity:1" fill="#8aced7" d="M 242.5,15.5 C 285.891,12.1248 316.391,30.1248 334,69.5C 344.606,105.673 336.106,136.506 308.5,162C 283.955,180.446 256.955,185.113 227.5,176C 185.555,156.957 168.055,124.457 175,78.5C 185.193,44.1347 207.693,23.1347 242.5,15.5 Z"/></g>
<g><path style="opacity:1" fill="#eefcfe" d="M 292.5,50.5 C 300.164,49.6662 303.664,52.9995 303,60.5C 289,89.8333 275,119.167 261,148.5C 258.398,152.212 254.898,153.378 250.5,152C 247.639,149.106 245.139,145.939 243,142.5C 234.333,128.5 225.667,114.5 217,100.5C 213.993,90.5106 217.493,86.6773 227.5,89C 236,102.167 244.5,115.333 253,128.5C 265.257,103.653 277.257,78.6526 289,53.5C 290.145,52.3636 291.312,51.3636 292.5,50.5 Z"/></g>
<g><path style="opacity:1" fill="#ea7b76" d="M 354.5,102.5 C 364.348,102.173 374.014,102.506 383.5,103.5C 373.833,103.5 364.167,103.5 354.5,103.5C 354.737,104.791 354.404,105.791 353.5,106.5C 353.232,104.901 353.566,103.568 354.5,102.5 Z"/></g>
<g><path style="opacity:1" fill="#d23433" d="M 157.5,102.5 C 157.5,102.833 157.5,103.167 157.5,103.5C 150.799,103.682 144.799,105.849 139.5,110C 131.459,116.603 125.792,124.77 122.5,134.5C 122.5,135.167 122.167,135.5 121.5,135.5C 116.036,136.565 111.036,138.732 106.5,142C 100.541,147.45 95.2077,153.283 90.5,159.5C 91.5606,141.223 98.2273,125.389 110.5,112C 115.673,107.413 121.673,104.413 128.5,103C 138.161,102.5 147.828,102.334 157.5,102.5 Z"/></g>
<g><path style="opacity:1" fill="#f3524b" d="M 157.5,103.5 C 158.267,114.213 160.6,124.546 164.5,134.5C 150.5,134.5 136.5,134.5 122.5,134.5C 125.792,124.77 131.459,116.603 139.5,110C 144.799,105.849 150.799,103.682 157.5,103.5 Z"/></g>
<g><path style="opacity:1" fill="#f3544d" d="M 383.5,103.5 C 394.612,105.608 402.945,111.608 408.5,121.5C 408.427,123.027 409.094,124.027 410.5,124.5C 413.568,128.644 415.568,133.311 416.5,138.5C 416.294,141.495 416.96,144.162 418.5,146.5C 419.535,150.739 420.201,155.072 420.5,159.5C 413.844,147.843 404.178,139.843 391.5,135.5C 376.882,134.533 362.215,134.2 347.5,134.5C 350.65,125.417 352.65,116.083 353.5,106.5C 354.404,105.791 354.737,104.791 354.5,103.5C 364.167,103.5 373.833,103.5 383.5,103.5 Z"/></g>
<g><path style="opacity:0.886" fill="#e8a8a5" d="M 408.5,121.5 C 409.906,121.973 410.573,122.973 410.5,124.5C 409.094,124.027 408.427,123.027 408.5,121.5 Z"/></g>
<g><path style="opacity:1" fill="#d3eef3" d="M 122.5,134.5 C 136.5,134.5 150.5,134.5 164.5,134.5C 176.977,162.476 197.643,181.642 226.5,192C 281.985,203.919 322.318,184.752 347.5,134.5C 362.215,134.2 376.882,134.533 391.5,135.5C 399.094,176.317 405.76,217.317 411.5,258.5C 315.5,258.5 219.5,258.5 123.5,258.5C 116.167,258.5 108.833,258.5 101.5,258.5C 107.199,217.305 113.866,176.305 121.5,135.5C 122.167,135.5 122.5,135.167 122.5,134.5 Z"/></g>
<g><path style="opacity:0.995" fill="#c1dbdf" d="M 121.5,135.5 C 113.866,176.305 107.199,217.305 101.5,258.5C 93.1667,258.5 84.8333,258.5 76.5,258.5C 77.09,250.114 78.09,241.78 79.5,233.5C 83.3531,208.862 87.0198,184.195 90.5,159.5C 95.2077,153.283 100.541,147.45 106.5,142C 111.036,138.732 116.036,136.565 121.5,135.5 Z"/></g>
<g><path style="opacity:1" fill="#effcfe" d="M 391.5,135.5 C 404.178,139.843 413.844,147.843 420.5,159.5C 424.712,184.107 428.712,208.774 432.5,233.5C 433.781,241.798 434.781,250.131 435.5,258.5C 427.5,258.5 419.5,258.5 411.5,258.5C 405.76,217.317 399.094,176.317 391.5,135.5 Z"/></g>
<g><path style="opacity:0.98" fill="#ee9690" d="M 416.5,138.5 C 417.768,140.905 418.435,143.572 418.5,146.5C 416.96,144.162 416.294,141.495 416.5,138.5 Z"/></g>
<g><path style="opacity:0.996" fill="#f3504a" d="M 60.5,205.5 C 60.6663,212.175 60.4996,218.842 60,225.5C 58.878,227.407 58.0447,229.407 57.5,231.5C 54.8234,234.336 51.49,235.836 47.5,236C 37.1667,236.667 26.8333,236.667 16.5,236C 10.3725,235.359 6.20586,232.192 4,226.5C 3.33333,218.833 3.33333,211.167 4,203.5C 6.03996,198.124 9.87329,194.957 15.5,194C 26.5,193.333 37.5,193.333 48.5,194C 54.9801,195.315 58.9801,199.148 60.5,205.5 Z"/></g>
<g><path style="opacity:0.996" fill="#f4514a" d="M 454.5,231.5 C 453.073,228.976 451.906,226.31 451,223.5C 450.501,217.843 450.334,212.176 450.5,206.5C 451.579,199.587 455.579,195.42 462.5,194C 473.833,193.333 485.167,193.333 496.5,194C 502.384,195.343 506.217,198.843 508,204.5C 508.901,212.579 508.568,220.579 507,228.5C 504.089,233.075 499.922,235.575 494.5,236C 482.784,236.887 471.117,236.554 459.5,235C 457.654,233.97 455.987,232.804 454.5,231.5 Z"/></g>
<g><path style="opacity:0.94" fill="#e6e4e3" d="M 60.5,205.5 C 66.8333,214.833 73.1667,224.167 79.5,233.5C 78.09,241.78 77.09,250.114 76.5,258.5C 75.8333,258.5 75.1667,258.5 74.5,258.5C 69.2211,249.228 63.5544,240.228 57.5,231.5C 58.0447,229.407 58.878,227.407 60,225.5C 60.4996,218.842 60.6663,212.175 60.5,205.5 Z"/></g>
<g><path style="opacity:0.95" fill="#e6e6e5" d="M 450.5,206.5 C 450.334,212.176 450.501,217.843 451,223.5C 451.906,226.31 453.073,228.976 454.5,231.5C 448.086,239.986 442.42,248.986 437.5,258.5C 436.833,258.5 436.167,258.5 435.5,258.5C 434.781,250.131 433.781,241.798 432.5,233.5C 438.5,224.5 444.5,215.5 450.5,206.5 Z"/></g>
<g><path style="opacity:1" fill="#f3514a" d="M 123.5,258.5 C 219.5,258.5 315.5,258.5 411.5,258.5C 419.5,258.5 427.5,258.5 435.5,258.5C 436.167,258.5 436.833,258.5 437.5,258.5C 447.038,261.269 455.705,265.602 463.5,271.5C 428.613,284.512 392.613,293.012 355.5,297C 283.744,304.892 212.078,304.225 140.5,295C 125.717,292.487 111.05,289.487 96.5,286C 103.694,274.974 112.694,265.807 123.5,258.5 Z"/></g>
<g><path style="opacity:1" fill="#d13030" d="M 74.5,258.5 C 75.1667,258.5 75.8333,258.5 76.5,258.5C 84.8333,258.5 93.1667,258.5 101.5,258.5C 108.833,258.5 116.167,258.5 123.5,258.5C 112.694,265.807 103.694,274.974 96.5,286C 111.05,289.487 125.717,292.487 140.5,295C 212.078,304.225 283.744,304.892 355.5,297C 392.613,293.012 428.613,284.512 463.5,271.5C 468.126,274.458 472.126,278.124 475.5,282.5C 442.442,296.182 408.108,305.349 372.5,310C 296.204,320.869 219.871,321.202 143.5,311C 125.129,308.526 106.963,305.026 89,300.5C 86.1761,304.45 84.0095,308.783 82.5,313.5C 53.5195,316.452 40.3528,332.452 43,361.5C 47.9423,377.944 58.7756,387.944 75.5,391.5C 76.0356,398.583 77.0356,405.583 78.5,412.5C 59.8333,412.5 41.1667,412.5 22.5,412.5C 18.8411,388.387 15.5077,364.221 12.5,340C 14.9829,298.819 35.6495,271.652 74.5,258.5 Z"/></g>
<g><path style="opacity:0.999" fill="#f3514a" d="M 475.5,282.5 C 493.862,301.755 501.362,324.755 498,351.5C 495.025,371.822 492.192,392.156 489.5,412.5C 489.167,412.5 488.833,412.5 488.5,412.5C 446.167,412.5 403.833,412.5 361.5,412.5C 361.5,411.5 361.5,410.5 361.5,409.5C 363.786,395.181 363.953,380.848 362,366.5C 355.67,347.835 342.837,336.669 323.5,333C 278.163,331.107 232.83,331.107 187.5,333C 167.547,337.619 154.714,349.785 149,369.5C 148.23,383.882 148.73,398.215 150.5,412.5C 126.5,412.5 102.5,412.5 78.5,412.5C 77.0356,405.583 76.0356,398.583 75.5,391.5C 102.734,392.223 117.734,379.056 120.5,352C 117.726,329.393 105.06,316.56 82.5,313.5C 84.0095,308.783 86.1761,304.45 89,300.5C 106.963,305.026 125.129,308.526 143.5,311C 219.871,321.202 296.204,320.869 372.5,310C 408.108,305.349 442.442,296.182 475.5,282.5 Z"/></g>
<g><path style="opacity:1" fill="#e6e4e3" d="M 82.5,313.5 C 105.06,316.56 117.726,329.393 120.5,352C 117.734,379.056 102.734,392.223 75.5,391.5C 58.7756,387.944 47.9423,377.944 43,361.5C 40.3528,332.452 53.5195,316.452 82.5,313.5 Z"/></g>
<g><path style="opacity:1" fill="#e6e3e3" d="M 423.5,313.5 C 454.672,313.171 469.838,328.504 469,359.5C 462.27,383.542 446.437,394.042 421.5,391C 399.445,383.413 389.611,367.913 392,344.5C 397.12,328.545 407.62,318.212 423.5,313.5 Z"/></g>
<g><path style="opacity:1" fill="#f89244" d="M 79.5,329.5 C 68.3306,341.381 66.4972,354.715 74,369.5C 75.1411,371.609 76.6411,373.442 78.5,375C 77.552,375.483 76.552,375.649 75.5,375.5C 61.5217,370.893 55.6883,361.226 58,346.5C 61.5418,336.113 68.7084,330.447 79.5,329.5 Z"/></g>
<g><path style="opacity:1" fill="#fad15f" d="M 79.5,329.5 C 91.4734,328.969 99.6401,334.302 104,345.5C 106.014,366.979 96.5138,376.979 75.5,375.5C 76.552,375.649 77.552,375.483 78.5,375C 76.6411,373.442 75.1411,371.609 74,369.5C 66.4972,354.715 68.3306,341.381 79.5,329.5 Z"/></g>
<g><path style="opacity:1" fill="#fad160" d="M 428.5,329.5 C 446.61,330.109 455.11,339.442 454,357.5C 449.325,371.569 439.825,377.569 425.5,375.5C 426.376,375.631 427.043,375.298 427.5,374.5C 415.249,359.19 415.583,344.19 428.5,329.5 Z"/></g>
<g><path style="opacity:1" fill="#f89143" d="M 428.5,329.5 C 415.583,344.19 415.249,359.19 427.5,374.5C 427.043,375.298 426.376,375.631 425.5,375.5C 410.788,370.905 404.954,360.905 408,345.5C 411.768,336.231 418.602,330.897 428.5,329.5 Z"/></g>
<g><path style="opacity:1" fill="#cec7c7" d="M 361.5,409.5 C 360.566,410.568 360.232,411.901 360.5,413.5C 267.5,413.5 174.5,413.5 81.5,413.5C 61.6596,413.83 41.9929,413.497 22.5,412.5C 41.1667,412.5 59.8333,412.5 78.5,412.5C 102.5,412.5 126.5,412.5 150.5,412.5C 148.73,398.215 148.23,383.882 149,369.5C 154.714,349.785 167.547,337.619 187.5,333C 232.83,331.107 278.163,331.107 323.5,333C 342.837,336.669 355.67,347.835 362,366.5C 363.953,380.848 363.786,395.181 361.5,409.5 Z"/></g>
<g><path style="opacity:1" fill="#d13030" d="M 190.5,347.5 C 232.835,347.333 275.168,347.5 317.5,348C 332.234,349.066 342.067,356.566 347,370.5C 347.982,384.616 347.482,398.616 345.5,412.5C 285.833,412.5 226.167,412.5 166.5,412.5C 163.448,398.241 162.948,383.907 165,369.5C 169.978,358.018 178.478,350.684 190.5,347.5 Z"/></g>
<g><path style="opacity:0.985" fill="#cacacb" d="M 22.5,412.5 C 41.9929,413.497 61.6596,413.83 81.5,413.5C 68.0514,420.894 64.2181,431.894 70,446.5C 72.6415,451.144 76.4748,454.311 81.5,456C 97.0055,456.169 112.339,456.669 127.5,457.5C 101.167,457.5 74.8333,457.5 48.5,457.5C 38.4944,457.666 28.4944,457.5 18.5,457C 7.54487,453.714 2.54487,446.38 3.5,435C 3.13103,421.867 9.46436,414.367 22.5,412.5 Z"/></g>
<g><path style="opacity:0.855" fill="#e2b9b7" d="M 361.5,409.5 C 361.5,410.5 361.5,411.5 361.5,412.5C 403.833,412.5 446.167,412.5 488.5,412.5C 446.003,413.499 403.337,413.832 360.5,413.5C 360.232,411.901 360.566,410.568 361.5,409.5 Z"/></g>
<g><path style="opacity:1" fill="#e5e5e5" d="M 488.5,412.5 C 488.833,412.5 489.167,412.5 489.5,412.5C 499.097,413.263 505.264,418.263 508,427.5C 510.652,450.347 500.486,460.347 477.5,457.5C 450.833,457.5 424.167,457.5 397.5,457.5C 307.833,457.5 218.167,457.5 128.5,457.5C 128.167,457.5 127.833,457.5 127.5,457.5C 112.339,456.669 97.0055,456.169 81.5,456C 76.4748,454.311 72.6415,451.144 70,446.5C 64.2181,431.894 68.0514,420.894 81.5,413.5C 174.5,413.5 267.5,413.5 360.5,413.5C 403.337,413.832 446.003,413.499 488.5,412.5 Z"/></g>
<g><path style="opacity:0.984" fill="#3a3d4c" d="M 48.5,457.5 C 74.8333,457.5 101.167,457.5 127.5,457.5C 127.833,457.5 128.167,457.5 128.5,457.5C 128.5,462.5 128.5,467.5 128.5,472.5C 108.833,472.5 89.1667,472.5 69.5,472.5C 69.3335,482.172 69.5002,491.839 70,501.5C 71.9779,505.638 74.8112,508.971 78.5,511.5C 71.1667,511.5 63.8333,511.5 56.5,511.5C 53.1141,509.277 50.6141,506.277 49,502.5C 48.5001,487.504 48.3334,472.504 48.5,457.5 Z"/></g>
<g><path style="opacity:0.988" fill="#3b3c4c" d="M 397.5,457.5 C 424.167,457.5 450.833,457.5 477.5,457.5C 477.5,462.5 477.5,467.5 477.5,472.5C 457.833,472.5 438.167,472.5 418.5,472.5C 418.334,482.172 418.5,491.839 419,501.5C 420.261,506.255 423.095,509.588 427.5,511.5C 420.167,511.5 412.833,511.5 405.5,511.5C 402.19,509.688 399.69,507.021 398,503.5C 397.5,488.17 397.333,472.837 397.5,457.5 Z"/></g>
<g><path style="opacity:1" fill="#5b5d6f" d="M 128.5,472.5 C 128.666,482.172 128.5,491.839 128,501.5C 126.787,505.869 124.287,509.203 120.5,511.5C 106.5,511.5 92.5,511.5 78.5,511.5C 74.8112,508.971 71.9779,505.638 70,501.5C 69.5002,491.839 69.3335,482.172 69.5,472.5C 89.1667,472.5 108.833,472.5 128.5,472.5 Z"/></g>
<g><path style="opacity:1" fill="#5b5d6f" d="M 477.5,472.5 C 477.666,481.839 477.5,491.173 477,500.5C 476.07,505.717 473.237,509.384 468.5,511.5C 454.833,511.5 441.167,511.5 427.5,511.5C 423.095,509.588 420.261,506.255 419,501.5C 418.5,491.839 418.334,482.172 418.5,472.5C 438.167,472.5 457.833,472.5 477.5,472.5 Z"/></g>
</svg>
