<?xml version="1.0" encoding="UTF-8"?>
<svg version="1.1" xmlns="http://www.w3.org/2000/svg" width="512" height="512">
<path d="M0 0 C2.51373162 -0.00350931 5.027461 -0.00917696 7.54118347 -0.01681519 C13.60629167 -0.02948703 19.67094923 -0.01926005 25.73599855 0.00229806 C32.8125665 0.02651461 39.88906011 0.02458156 46.9656603 0.02199215 C59.590458 0.01831872 72.21509714 0.0389919 84.83984375 0.07324219 C97.07198074 0.10641458 109.30395176 0.12048316 121.53613281 0.11425781 C134.89842393 0.10749066 148.26064597 0.10995629 161.62292689 0.12961721 C162.68274672 0.13117644 162.68274672 0.13117644 163.76397705 0.13276717 C165.182661 0.13485788 166.60134492 0.13696885 168.0200288 0.13910034 C172.94722998 0.14598251 177.87440979 0.14666765 182.80161476 0.1452179 C189.42645413 0.14362651 196.05112264 0.15854379 202.67592049 0.18444443 C205.10633636 0.1916078 207.53677331 0.19368904 209.96719742 0.19032669 C213.28322244 0.18661382 216.59866876 0.20135287 219.91462708 0.2208252 C220.87667755 0.21549727 221.83872803 0.21016934 222.82993156 0.20467997 C230.88400356 0.28633062 236.21441782 2.10147343 242.20629883 7.74145508 C243.48648895 8.93878769 243.48648895 8.93878769 244.7925415 10.16030884 C246.05381866 11.37549698 246.05381866 11.37549698 247.34057617 12.61523438 C248.104245 13.35003021 248.86791382 14.08482605 249.65472412 14.84188843 C251.9491397 17.07728658 254.22227692 19.33225495 256.48901367 21.59570312 C257.30882721 22.41218826 258.12864075 23.2286734 258.97329712 24.06990051 C260.68702956 25.77861499 262.39945141 27.48864487 264.1105957 29.19995117 C266.72481636 31.81196677 269.34696231 34.41585178 271.96948242 37.01953125 C273.64314826 38.69026574 275.31634218 40.36147314 276.98901367 42.03320312 C277.7682016 42.80520554 278.54738953 43.57720795 279.35018921 44.37260437 C285.82662888 50.87640651 290.46910784 55.9040934 290.46083069 65.48075867 C290.46289268 67.31702316 290.46289268 67.31702316 290.46499634 69.19038391 C290.46145721 70.54904199 290.4578224 71.90769983 290.45410156 73.26635742 C290.45381953 74.69535317 290.45397775 76.12434906 290.45454407 77.55334473 C290.4548314 81.43528733 290.44894501 85.31719915 290.44197011 89.19913459 C290.43572592 93.25505401 290.43513193 97.3109741 290.4339447 101.36689758 C290.43083454 109.0485278 290.42262537 116.73014382 290.41259521 124.41176778 C290.40142432 133.15652996 290.39592116 141.90129281 290.39089978 150.64606035 C290.38044251 168.63579308 290.36284914 186.62551259 290.34057617 204.61523438 C291.01835617 204.67645477 291.69613617 204.73767517 292.39445496 204.80075073 C293.28828384 204.88503326 294.18211273 204.9693158 295.10302734 205.05615234 C296.42907234 205.17892044 296.42907234 205.17892044 297.78190613 205.3041687 C316.87444125 207.62530906 334.94585634 219.9438335 346.65307617 234.80273438 C361.42494713 254.57258452 365.88219571 276.68935328 363.05932617 301.04150391 C359.98173663 320.48190262 347.977193 339.78987974 332.34057617 351.61523438 C320.40349067 360.10106118 305.3754967 367.90233175 290.34057617 367.61523438 C290.37199707 369.50628906 290.37199707 369.50628906 290.40405273 371.43554688 C290.47677704 376.13936889 290.52249353 380.84314177 290.56030273 385.54736328 C290.58034453 387.57837294 290.60758564 389.60932543 290.64233398 391.64013672 C290.69118032 394.56947994 290.7136196 397.49805637 290.73120117 400.42773438 C290.75184631 401.3270166 290.77249146 402.22629883 290.79376221 403.15283203 C290.79584359 409.07950935 289.82647036 413.71873664 286.34057617 418.61523438 C281.87465199 422.16974546 278.35211855 423.74395165 272.68554688 423.72875977 C271.74479813 423.72868423 270.80404938 423.7286087 269.83479309 423.72853088 C268.82220932 423.7233696 267.80962555 423.71820831 266.76635742 423.71289062 C265.20790352 423.7107682 265.20790352 423.7107682 263.6179657 423.70860291 C260.29630669 423.70300093 256.97471484 423.69044809 253.65307617 423.67773438 C251.4024261 423.67271963 249.15177498 423.66815668 246.90112305 423.6640625 C241.3809178 423.65303086 235.86075179 423.63629081 230.34057617 423.61523438 C230.67057617 425.59523438 231.00057617 427.57523437 231.34057617 429.61523438 C232.39435959 429.60635193 233.44814301 429.59746948 234.53385925 429.58831787 C244.46563881 429.50722482 254.39735118 429.44726548 264.32938671 429.40798569 C269.43555184 429.38711258 274.54144965 429.35879981 279.64746094 429.31347656 C284.57524047 429.2700092 289.50276292 429.24609518 294.43071938 429.2357254 C296.31061157 429.22833565 298.19048972 429.21390515 300.07027245 429.19231415 C302.70389566 429.16326817 305.33645718 429.15927884 307.97021484 429.16113281 C308.74705124 429.14675171 309.52388763 429.13237061 310.32426453 429.11755371 C314.00508483 429.14558339 316.14722908 429.49501437 319.30122375 431.45611572 C322.10638337 434.42601558 322.46516627 436.80319024 322.48583984 440.73193359 C322.49540962 441.96869339 322.49540962 441.96869339 322.50517273 443.23043823 C322.50684196 444.56173264 322.50684196 444.56173264 322.50854492 445.91992188 C322.51187332 446.83605255 322.51520172 447.75218323 322.51863098 448.69607544 C322.52369394 450.63445534 322.5260395 452.57284396 322.52587891 454.51123047 C322.52806259 457.47182648 322.54621727 460.43204818 322.56518555 463.39257812 C322.56812018 465.27669144 322.57010451 467.16080651 322.57104492 469.04492188 C322.57823044 469.92840302 322.58541595 470.81188416 322.59281921 471.72213745 C322.5620179 480.03970339 322.5620179 480.03970339 320.34057617 483.61523438 C316.43088179 486.50703469 313.62025799 486.99071782 308.80470276 486.9927578 C308.15884952 486.99711812 307.51299628 487.00147844 306.84757173 487.0059709 C304.68039433 487.01693141 302.51385259 487.00650197 300.34667969 486.9961853 C298.77850042 486.99964156 297.21032358 487.00440592 295.64215183 487.01036704 C291.33043764 487.02291108 287.01892219 487.01669122 282.7072072 487.00740838 C278.05819877 487.00063215 273.40922498 487.01109203 268.76022339 487.01934814 C259.65185297 487.03270292 250.54355663 487.02979997 241.43518329 487.02111022 C234.03402265 487.01434094 226.63288281 487.01341368 219.23171997 487.01668167 C218.17920376 487.01714137 217.12668756 487.01760107 216.04227692 487.0180747 C213.90425324 487.01903385 211.76622956 487.02000649 209.6282059 487.02099247 C189.56989661 487.02955148 169.51162842 487.01970423 149.45332587 487.00359137 C132.23440694 486.99018773 115.01554869 486.99251568 97.79663086 487.00634766 C77.81114038 487.02239445 57.82568595 487.02872746 37.84018993 487.01951087 C35.70993742 487.0185552 33.5796849 487.01761208 31.44943237 487.01668167 C30.40124897 487.01621884 29.35306557 487.01575602 28.27311903 487.01527917 C20.87902085 487.01268658 13.48494548 487.01706607 6.09085083 487.02412033 C-2.91746313 487.03252553 -11.92569864 487.03027586 -20.93400359 487.0142781 C-25.53205671 487.00638217 -30.12997894 487.00332626 -34.72803116 487.01322556 C-38.93481322 487.02214564 -43.14134269 487.01728413 -47.34810174 487.0012929 C-48.87225472 486.99793367 -50.39642893 486.99966471 -51.92056835 487.00692026 C-53.98853463 487.01601173 -56.05562996 487.00671886 -58.12355042 486.9927578 C-59.84816167 486.99202721 -59.84816167 486.99202721 -61.60761356 486.99128187 C-65.05177916 486.56688791 -66.898471 485.68784715 -69.65942383 483.61523438 C-71.7407188 480.49329191 -71.9130451 479.77394874 -71.93408203 476.22314453 C-71.94838005 474.89629135 -71.94838005 474.89629135 -71.96296692 473.54263306 C-71.96205551 472.58948212 -71.9611441 471.63633118 -71.96020508 470.65429688 C-71.9644902 469.67157806 -71.96877533 468.68885925 -71.97319031 467.67636108 C-71.97893498 465.59674856 -71.97943287 463.51711594 -71.97509766 461.4375 C-71.97194287 458.25941533 -71.99537747 455.08226607 -72.02075195 451.90429688 C-72.02302548 449.88346472 -72.0237282 447.86263005 -72.02270508 445.84179688 C-72.03191483 444.8926944 -72.04112457 443.94359192 -72.0506134 442.96572876 C-72.01632302 438.06134444 -71.94062893 434.55388039 -68.65942383 430.61523438 C-65.50082768 429.0359363 -62.09994308 429.43527098 -58.62963867 429.40991211 C-57.80029312 429.40001251 -56.97094757 429.39011292 -56.11647034 429.37991333 C-53.36779664 429.34825773 -50.61910564 429.32352488 -47.87036133 429.29882812 C-45.96749414 429.2782621 -44.06463156 429.25726573 -42.16177368 429.2358551 C-37.14766158 429.18059811 -32.133508 429.13120485 -27.11932373 429.08300781 C-22.00504861 429.03281925 -16.89083389 428.9771194 -11.77661133 428.921875 C-1.7376004 428.81424907 8.30146292 428.71281396 18.34057617 428.61523438 C18.67057617 426.96523438 19.00057617 425.31523437 19.34057617 423.61523438 C18.47733231 423.62522713 18.47733231 423.62522713 17.59664917 423.63542175 C11.59435628 423.70191163 5.59216842 423.74709158 -0.41040039 423.7800293 C-2.64905041 423.79509402 -4.88767102 423.81554971 -7.1262207 423.84155273 C-10.34829985 423.8780372 -13.56998794 423.89498421 -16.79223633 423.90820312 C-18.2878862 423.93142891 -18.2878862 423.93142891 -19.81375122 423.9551239 C-25.95165643 423.95660266 -30.56685307 423.4360115 -35.30395508 419.11523438 C-39.149261 414.17678129 -39.78523219 411.08629997 -39.81764221 404.914505 C-39.82504918 403.88773023 -39.82504918 403.88773023 -39.83260578 402.84021252 C-39.84798975 400.54167084 -39.85634382 398.24315711 -39.86474609 395.94458008 C-39.87432391 394.29883579 -39.88433394 392.65309397 -39.89474487 391.00735474 C-39.92181043 386.53455029 -39.94281106 382.06173527 -39.96274686 377.58889413 C-39.98459622 372.91635471 -40.01199004 368.24384793 -40.0388031 363.57133484 C-40.08874419 354.72100237 -40.13367777 345.87065179 -40.17682546 337.02028388 C-40.22618573 326.94541469 -40.28110835 316.87057825 -40.33650506 306.79574072 C-40.45034685 286.06893578 -40.55718111 265.34209957 -40.65942383 244.61523438 C-41.90015656 244.20807693 -43.14088928 243.80091949 -44.41921997 243.38142395 C-46.06069275 242.83945865 -47.70211894 242.29735222 -49.34350586 241.75512695 C-50.15966873 241.48770943 -50.9758316 241.2202919 -51.81672668 240.94477081 C-57.29692482 239.1303188 -62.48992808 237.13491808 -67.53442383 234.30273438 C-68.22802002 233.92375 -68.92161621 233.54476562 -69.63623047 233.15429688 C-98.84654401 216.79247134 -119.77067283 189.66181489 -129.11376953 157.76220703 C-129.67607518 155.7217752 -130.18011518 153.67674947 -130.65942383 151.61523438 C-130.93870728 150.42595337 -130.93870728 150.42595337 -131.22363281 149.21264648 C-132.91037568 141.14943059 -133.01658912 133.12907028 -132.97192383 124.92773438 C-132.96976868 124.21769257 -132.96761353 123.50765076 -132.96539307 122.77609253 C-132.80094149 89.05734049 -119.87006242 59.71481418 -96.28442383 35.74023438 C-70.03794724 9.92129011 -36.14300211 -0.21482076 0 0 Z " fill="#252323" transform="translate(140.659423828125,12.384765625)"/>
<path d="M0 0 C56.43 0 112.86 0 171 0 C171.33 14.19 171.66 28.38 172 43 C175.51109879 48.10476454 175.51109879 48.10476454 180 50 C200.295 50.495 200.295 50.495 221 51 C221 95.88 221 140.76 221 187 C214.73 188.65 208.46 190.3 202 192 C180.0778937 201.83270944 165.61827365 214.47713415 155 236 C148.61400267 236.15294625 142.22848266 236.25754588 135.84106445 236.32958984 C133.67128855 236.35964259 131.50163292 236.40049737 129.33227539 236.45263672 C126.20168288 236.52595944 123.07270493 236.55957216 119.94140625 236.5859375 C118.50179283 236.63238907 118.50179283 236.63238907 117.03309631 236.67977905 C110.67042711 236.68291233 106.97406658 235.31710872 101.90567017 231.45249939 C99.38699778 229.53277048 96.73977307 228.36868036 93.8125 227.1875 C92.36810547 226.59001953 92.36810547 226.59001953 90.89453125 225.98046875 C78.24306716 221.69502005 62.21118918 222.38672084 49.97265625 227.4921875 C45.39750331 229.81283012 40.66212764 232.33787236 37 236 C34.99116395 236.10272308 32.97873658 236.13572495 30.96728516 236.1418457 C29.67569489 236.14888016 28.38410461 236.15591461 27.05337524 236.16316223 C26.01132872 236.16588607 26.01132872 236.16588607 24.94823074 236.16866493 C22.77970874 236.17581208 20.61141546 236.19146499 18.44296265 236.21000671 C12.27613464 236.26255964 6.10942992 236.31046461 -0.05761719 236.32592773 C-3.82616933 236.33599815 -7.59414984 236.36529895 -11.36247635 236.40724754 C-12.80015366 236.41957793 -14.23791165 236.42467507 -15.67564011 236.42244911 C-17.68665312 236.42010185 -19.69764402 236.44442099 -21.70849609 236.4699707 C-23.42605606 236.47877007 -23.42605606 236.47877007 -25.17831421 236.48774719 C-28.08425574 236.7480842 -28.08425574 236.7480842 -29.89712524 238.81047058 C-31.59099069 242.17328962 -30.97003736 244.44319636 -30 248 C-27.12547713 250.7647699 -25.07671018 251.3805696 -21.13964844 251.43237305 C-19.69860748 251.46206429 -19.69860748 251.46206429 -18.22845459 251.49235535 C-17.19915833 251.49874527 -16.16986206 251.50513519 -15.109375 251.51171875 C-14.04962463 251.52966995 -12.98987427 251.54762115 -11.89801025 251.56611633 C-8.51538056 251.6202702 -5.1328924 251.65413199 -1.75 251.6875 C0.54429055 251.72066852 2.83856241 251.75515773 5.1328125 251.79101562 C10.75508143 251.87599955 16.37736856 251.94432802 22 252 C21.65356445 252.88550537 21.30712891 253.77101074 20.95019531 254.68334961 C20.49741211 255.84874268 20.04462891 257.01413574 19.578125 258.21484375 C19.12856445 259.36847412 18.67900391 260.52210449 18.21582031 261.71069336 C15.93068118 267.89295833 14.97235685 273.71980353 14.453125 280.27734375 C14.36708008 281.35105225 14.28103516 282.42476074 14.19238281 283.53100586 C14.12889648 284.34577393 14.06541016 285.16054199 14 286 C12.80922852 286.0093457 11.61845703 286.01869141 10.39160156 286.02832031 C5.97064908 286.06821387 1.55039297 286.13397073 -2.87011719 286.20751953 C-4.78278656 286.23573286 -6.6955726 286.25694561 -8.60839844 286.27099609 C-11.35933173 286.29242081 -14.10886175 286.3390674 -16.859375 286.390625 C-17.71368103 286.39185364 -18.56798706 286.39308228 -19.44818115 286.39434814 C-24.33344496 286.51114381 -24.33344496 286.51114381 -28.54394531 288.85058594 C-30.52794951 291.77935405 -30.50606926 293.52981081 -30 297 C-28.83121225 299.22135968 -28.83121225 299.22135968 -27 301 C-24.85705554 301.61292341 -24.85705554 301.61292341 -22.43676758 301.54589844 C-21.51603958 301.56561707 -20.59531158 301.58533569 -19.64668274 301.60565186 C-18.65597275 301.60688049 -17.66526276 301.60810913 -16.64453125 301.609375 C-15.62775803 301.62591125 -14.6109848 301.64244751 -13.56340027 301.65948486 C-10.3130396 301.70810414 -7.06314722 301.72936706 -3.8125 301.75 C-1.6100023 301.77814797 0.59247345 301.80807373 2.79492188 301.83984375 C8.19652916 301.91386646 13.598004 301.96542723 19 302 C19.55071167 303.18517212 19.55071167 303.18517212 20.11254883 304.39428711 C23.04882683 310.51905887 25.864877 315.76685671 30.6875 320.5625 C31.15994141 321.05556641 31.63238281 321.54863281 32.11914062 322.05664062 C34.37858455 324.40481447 36.69541811 326.69625507 39 329 C37.28490234 329.74056641 37.28490234 329.74056641 35.53515625 330.49609375 C34.044217 331.14310512 32.5533345 331.7902473 31.0625 332.4375 C29.93038086 332.92573242 29.93038086 332.92573242 28.77539062 333.42382812 C25.12971311 334.80102606 25.12971311 334.80102606 22 337 C20.45088061 337.10700632 18.89700644 337.14621365 17.34423828 337.15771484 C15.85731979 337.17310806 15.85731979 337.17310806 14.34036255 337.18881226 C13.26124603 337.19611359 12.18212952 337.20341492 11.0703125 337.2109375 C8.80858649 337.23900406 6.54686783 337.26766851 4.28515625 337.296875 C0.70133654 337.33818704 -2.88234557 337.37505393 -6.46630859 337.40136719 C-9.91272733 337.42889677 -13.3585113 337.47476954 -16.8046875 337.5234375 C-17.87975555 337.52669037 -18.95482361 337.52994324 -20.06246948 337.53329468 C-21.55884445 337.55814438 -21.55884445 337.55814438 -23.08544922 337.58349609 C-23.96401581 337.59158295 -24.8425824 337.5996698 -25.74777222 337.60800171 C-28.48930123 338.08516245 -29.38197473 338.76055073 -31 341 C-31.4893203 344.84465948 -31.73116276 347.03844145 -29.33886719 350.18457031 C-26.42375389 352.44728247 -24.80134297 352.53466647 -21.140625 352.609375 C-20.02558594 352.64160156 -18.91054687 352.67382812 -17.76171875 352.70703125 C-16.60285156 352.72121094 -15.44398438 352.73539062 -14.25 352.75 C-13.07566406 352.77964844 -11.90132813 352.80929687 -10.69140625 352.83984375 C-7.79420178 352.91050727 -4.89780045 352.96322266 -2 353 C-2.37656738 353.43062744 -2.75313477 353.86125488 -3.14111328 354.30493164 C-6.55167309 358.23891541 -9.81215714 362.22735462 -12.875 366.4375 C-14.04675781 368.01337891 -14.04675781 368.01337891 -15.2421875 369.62109375 C-19.33568972 376.12083311 -22.56478903 383.12957805 -26 390 C-42.5 390 -59 390 -76 390 C-76 336.87 -76 283.74 -76 229 C-60.655 228.505 -60.655 228.505 -45 228 C-27.86583256 225.88926923 -1.77734902 219.12385539 10.35991383 205.47018051 C14.0853887 201.35022574 17.24207156 200.54510211 22.73722839 200.25396729 C25.51298692 200.22492916 28.27689397 200.22791891 31.05151367 200.25878906 C32.58299287 200.25388859 34.1144655 200.24632632 35.6459198 200.23631287 C39.79056652 200.21645099 43.93436747 200.23297166 48.07896972 200.25557041 C52.41999998 200.27242916 56.76086814 200.2537955 61.10188293 200.23846436 C69.32056909 200.21445001 77.53895543 200.21912426 85.75765067 200.23558688 C100.48484577 200.2641484 115.21201996 200.24394585 129.93919736 200.21318793 C135.10726106 200.20353278 140.27512469 200.20645104 145.44317853 200.21986341 C148.65446133 200.2266693 151.86571044 200.22564327 155.07699776 200.22285652 C156.56694448 200.22336838 158.05689462 200.22734906 159.54682159 200.23503685 C161.57909701 200.24514862 163.61142565 200.24197091 165.64372253 200.23809814 C166.78134128 200.2403603 167.91896002 200.24262245 169.09105206 200.24495316 C171.96648819 200.00282192 173.61539745 199.58968314 176 198 C177.38550197 195.22899606 177.1877467 193.0665294 177 190 C175.27773504 186.75150023 175.27773504 186.75150023 172 186 C170.12280843 185.89751754 168.24220839 185.85364784 166.36225891 185.84178162 C164.6017218 185.82709839 164.6017218 185.82709839 162.80561829 185.81211853 C161.51665146 185.80636307 160.22768463 185.8006076 158.8996582 185.79467773 C157.52977198 185.7850984 156.15988871 185.77508828 154.79000854 185.76467896 C151.06924936 185.73762982 147.34847749 185.71662031 143.62767434 185.69667697 C139.7398931 185.67481748 135.85215095 185.64742861 131.96440125 185.62062073 C124.60154294 185.57069335 117.23866293 185.52575468 109.87576216 185.48259836 C101.49372231 185.43322638 93.11172168 185.37830811 84.72971976 185.32291877 C67.4865161 185.20909802 50.24327602 185.10225918 33 185 C33.40847168 184.38819885 33.81694336 183.77639771 34.23779297 183.14605713 C34.77549316 182.34021179 35.31319336 181.53436646 35.8671875 180.70410156 C36.39940918 179.90667542 36.93163086 179.10924927 37.47998047 178.28765869 C39.35638479 175.46363403 41.19622563 172.62100754 43 169.75 C43.61875 168.77546875 44.2375 167.8009375 44.875 166.796875 C46.88446359 163.40260179 48.49176892 159.84716823 50.1328125 156.26269531 C50.6705127 155.09039368 51.20821289 153.91809204 51.76220703 152.71026611 C52.17067871 151.8158783 52.57915039 150.92149048 53 150 C53.6156825 149.99761165 54.23136499 149.99522329 54.86570454 149.99276257 C69.83816918 149.93365804 84.81045294 149.85813743 99.78273487 149.76428509 C107.02319192 149.71929595 114.26359944 149.67988861 121.50415039 149.65356445 C127.81412031 149.63060947 134.1239339 149.59723977 140.4337799 149.55129844 C143.77564334 149.52733213 147.11735163 149.50862585 150.45929909 149.50238609 C154.18770201 149.49280876 157.91553488 149.46482522 161.64379883 149.43237305 C163.31075302 149.43452568 163.31075302 149.43452568 165.01138306 149.4367218 C166.02520554 149.42418365 167.03902802 149.41164551 168.08357239 149.39872742 C168.96572827 149.39411845 169.84788416 149.38950949 170.75677204 149.38476086 C173.4965123 148.91483768 174.3898197 148.24260723 176 146 C176.57921311 141.26785128 176.57921311 141.26785128 174.625 137.125 C171.75524651 135.13824758 169.96004285 134.86881465 166.50753784 134.84178162 C165.56240326 134.8319928 164.61726868 134.82220398 163.64349365 134.81211853 C162.60340149 134.80636307 161.56330933 134.8006076 160.49169922 134.79467773 C159.39900726 134.78477814 158.30631531 134.77487854 157.18051147 134.76467896 C153.55525914 134.7329969 149.92999368 134.70828002 146.3046875 134.68359375 C143.79647473 134.66303001 141.28826548 134.6420337 138.78005981 134.62062073 C132.8444346 134.57099567 126.90878617 134.5257459 120.97311127 134.48259836 C113.55365216 134.42839825 106.13425124 134.36743626 98.71484375 134.30664062 C85.47660207 134.19898582 72.23832112 134.09736924 59 134 C58.8968956 128.84478014 59.10830872 124.08979985 60 119 C60.25862548 115.71165945 60.41115696 112.41981245 60.5625 109.125 C60.62727539 107.80628906 60.62727539 107.80628906 60.69335938 106.4609375 C60.79869339 104.30744203 60.89977649 102.15373936 61 100 C61.84345238 99.99918285 61.84345238 99.99918285 62.70394421 99.99834919 C76.39199828 99.9833757 90.07972274 99.94059 103.76759624 99.86790943 C110.38702117 99.83360177 117.00621437 99.8085235 123.62573242 99.80444336 C130.01258136 99.80016864 136.3989072 99.77177351 142.78559303 99.72656822 C145.22363045 99.71356693 147.66173037 99.70929478 150.0997982 99.71384621 C153.51201412 99.71873316 156.92269001 99.69274156 160.3347168 99.65942383 C161.34532166 99.66804947 162.35592651 99.67667511 163.39715576 99.68556213 C168.06564182 99.6090209 170.3071728 99.50557606 174.1665802 96.68925476 C176.34619641 94.03466157 176.34619641 94.03466157 176 90.3125 C175.30616669 86.74460887 175.30616669 86.74460887 172 85 C169.80804958 84.68960953 169.80804958 84.68960953 167.34931946 84.7215271 C166.39439606 84.71036362 165.43947266 84.69920013 164.45561218 84.68769836 C163.40976456 84.68553818 162.36391693 84.68337799 161.28637695 84.68115234 C160.1837854 84.67110672 159.08119385 84.6610611 157.94519043 84.65071106 C154.29289278 84.61976705 150.6406688 84.60281262 146.98828125 84.5859375 C144.45907451 84.5672349 141.92987408 84.54766218 139.40068054 84.5272522 C133.41904822 84.48108797 127.43742316 84.44371424 121.45570964 84.41057932 C114.6455536 84.3723663 107.83549329 84.32295403 101.02541792 84.27259517 C87.01701627 84.16925764 73.00855296 84.08000319 59 84 C58.52171982 82.57110258 58.04395557 81.14203247 57.56640625 79.71289062 C57.16723999 78.51919861 57.16723999 78.51919861 56.76000977 77.3013916 C55.45762253 73.35762248 54.2668926 69.38074557 53.0625 65.40625 C52.21466993 62.68820653 51.3364382 59.9870325 50.43359375 57.28710938 C50.16474365 56.48253296 49.89589355 55.67795654 49.61889648 54.84899902 C49.31254272 53.93374451 49.31254272 53.93374451 49 53 C50.22362495 52.99786247 50.22362495 52.99786247 51.4719696 52.99568176 C59.16727893 52.97783731 66.86191943 52.93618207 74.5569334 52.86790943 C78.51288593 52.83364733 82.46845263 52.80853078 86.42456055 52.80444336 C90.24395479 52.80015855 94.06247879 52.77168255 97.88160133 52.72656822 C99.33715556 52.71359874 100.79281396 52.70928366 102.24841881 52.71384621 C104.29115619 52.71875696 106.33135454 52.69264852 108.3737793 52.65942383 C109.53515915 52.65276199 110.696539 52.64610016 111.89311218 52.63923645 C115.95632023 51.80323887 117.4859319 50.24133245 120 47 C120.17761741 43.32416555 120.17761741 43.32416555 119 40 C115.39825977 37.59883985 112.91125184 37.77802943 108.765625 37.88745117 C107.24454972 37.90991341 105.72347212 37.93221947 104.20239258 37.95439148 C103.39605377 37.96967077 102.58971497 37.98495007 101.75894165 38.00069237 C97.47369138 38.07290006 93.18809693 38.08288993 88.90234375 38.10351562 C83.45480537 38.13305775 78.00941261 38.18065722 72.56298828 38.2980957 C68.15606631 38.39148555 63.75269095 38.42037222 59.34484863 38.40770912 C57.67344543 38.41448069 56.00195685 38.44429582 54.3314209 38.49855614 C41.61851301 38.89462323 41.61851301 38.89462323 37.22210312 35.71360397 C33.54986875 32.21869016 30.80212047 28.20097825 28 24 C21.45767332 16.35671129 14.11190467 10.30556704 5.71484375 4.83984375 C3 3 3 3 0 0 Z " fill="#EAEDEF" transform="translate(193,30)"/>
<path d="M0 0 C0.86753906 0.73863281 1.73507813 1.47726563 2.62890625 2.23828125 C3.48613281 2.94597656 4.34335938 3.65367188 5.2265625 4.3828125 C22.71321112 19.38295158 33.69141235 39.13000904 39.62890625 61.23828125 C39.85707031 62.07359375 40.08523437 62.90890625 40.3203125 63.76953125 C46.28002027 90.10893901 39.36590694 119.32983874 25.53369141 142.03613281 C9.77465547 166.89094137 -14.60529773 184.00351587 -43.30859375 190.61328125 C-72.282037 196.58914674 -100.75029233 190.08512435 -125.37109375 174.23828125 C-128.84441428 171.71879909 -132.11820838 169.03381894 -135.37109375 166.23828125 C-136.36302734 165.46291016 -136.36302734 165.46291016 -137.375 164.671875 C-156.05573452 149.61407081 -169.50070788 123.27653953 -172.17626953 99.58496094 C-174.77316305 68.30508568 -167.20143932 39.59342435 -147.01171875 15.31640625 C-146.1347085 14.28762968 -145.25480365 13.26130863 -144.37109375 12.23828125 C-143.40429688 11.11679688 -143.40429688 11.11679688 -142.41796875 9.97265625 C-129.49665219 -3.8475345 -111.54638035 -13.88197254 -93.37109375 -18.76171875 C-92.30503906 -19.05949219 -91.23898438 -19.35726562 -90.140625 -19.6640625 C-59.69436645 -26.99684619 -24.46302228 -19.69970779 0 0 Z " fill="#D6E9FB" transform="translate(196.37109375,51.76171875)"/>
<path d="M0 0 C1.14597656 0.474375 2.29195313 0.94875 3.47265625 1.4375 C20.30225229 9.05568493 32.43548193 22.71840886 39 40 C39.3196875 40.80308594 39.639375 41.60617187 39.96875 42.43359375 C45.3776281 58.48494033 42.43577536 76.35961752 35.42578125 91.37109375 C26.74442952 107.25655087 13.46295287 118.69580647 -3.7265625 124.19140625 C-12.8718695 126.83678014 -21.45067271 127.6585743 -31 127 C-32.50626953 126.91105469 -32.50626953 126.91105469 -34.04296875 126.8203125 C-45.85227533 125.51347965 -58.21108937 118.90618162 -67 111 C-67.73476563 110.34515625 -68.46953125 109.6903125 -69.2265625 109.015625 C-80.96371163 97.94580542 -88.64928058 82.88525605 -89.203125 66.55859375 C-89.49950865 47.47446893 -85.70676876 31.16481156 -72.11254883 17.05786133 C-70.75449065 15.69239851 -69.37773765 14.34560383 -68 13 C-67.01386719 11.98292969 -67.01386719 11.98292969 -66.0078125 10.9453125 C-49.29072111 -5.19780151 -20.98914373 -9.17080923 0 0 Z " fill="#FCC137" transform="translate(446,237)"/>
<path d="M0 0 C119.13 0 238.26 0 361 0 C361 7.92 361 15.84 361 24 C241.87 24 122.74 24 0 24 C0 16.08 0 8.16 0 0 Z " fill="#E2A66E" transform="translate(85,458)"/>
<path d="M0 0 C7.31567459 5.20487959 13.03584638 11.92621326 16.3125 20.3125 C16.66828125 21.20066406 17.0240625 22.08882813 17.390625 23.00390625 C19.9087931 32.04156888 19.73361034 43.6872567 15.56640625 52.15234375 C14.94572266 53.22162109 14.94572266 53.22162109 14.3125 54.3125 C13.88839844 55.07691406 13.46429688 55.84132813 13.02734375 56.62890625 C7.8834341 65.09701377 0.57523071 71.69340599 -8.6875 75.3125 C-9.56792969 75.66699219 -10.44835937 76.02148438 -11.35546875 76.38671875 C-21.44005688 79.18865004 -33.69183031 78.59158485 -43.046875 73.9140625 C-54.18976756 67.15579926 -62.22011141 58.0959187 -65.6875 45.3125 C-66.13194712 42.0507043 -66.21243515 38.8517306 -66.1875 35.5625 C-66.18177979 34.68360107 -66.17605957 33.80470215 -66.17016602 32.89916992 C-65.86222995 21.63202779 -61.62764073 12.34532719 -53.6875 4.3125 C-50.52733571 1.63114848 -47.26144753 -0.5941104 -43.6875 -2.6875 C-42.95144531 -3.12320312 -42.21539062 -3.55890625 -41.45703125 -4.0078125 C-28.25464166 -10.50675126 -12.03283563 -7.32167456 0 0 Z " fill="#F5DBCC" transform="translate(289.6875,275.6875)"/>
<path d="M0 0 C3.48492657 3.63479369 4.78753595 6.81753766 5.96484375 11.671875 C6.20274376 12.6252198 6.20274376 12.6252198 6.44544983 13.5978241 C6.95443427 15.64588166 7.44603155 17.69767633 7.9375 19.75 C8.62860956 22.55996798 9.32791419 25.36787436 10.02734375 28.17578125 C10.19664398 28.86060074 10.36594421 29.54542023 10.54037476 30.25099182 C12.16672742 36.78442602 14.1064933 43.18937905 16.1875 49.58984375 C17.31766651 54.33328298 17.98341457 58.7366451 15.9765625 63.35546875 C13.09581842 65.75229337 9.94138511 66.45152735 6.375 67.3125 C4.74969461 67.73319694 3.12471256 68.15514438 1.5 68.578125 C0.17935547 68.91553711 0.17935547 68.91553711 -1.16796875 69.25976562 C-5.25973164 70.32926779 -9.32450665 71.48917655 -13.39257812 72.64501953 C-21.6166919 74.97932615 -29.84976141 77.29040568 -38.125 79.4375 C-39.30320313 79.74558594 -40.48140625 80.05367188 -41.6953125 80.37109375 C-50.43408386 82.03414598 -50.43408386 82.03414598 -54.2890625 79.48828125 C-56.51797705 76.24668635 -57.4447556 72.95511363 -58.375 69.1875 C-58.57851074 68.41140381 -58.78202148 67.63530762 -58.99169922 66.83569336 C-59.43472942 65.1397444 -59.87146978 63.44214302 -60.30273438 61.74316406 C-61.03717756 58.85373702 -61.79004824 55.96957891 -62.546875 53.0859375 C-63.79904115 48.31287078 -65.03809209 43.53656505 -66.27026367 38.75830078 C-67.27534345 34.95924045 -68.35818284 31.18267463 -69.45092773 27.40795898 C-70.27385616 23.79900252 -70.10570696 21.53826226 -69 18 C-66.17058981 15.41804385 -63.50781202 14.35294146 -59.84375 13.3515625 C-58.83086914 13.07094971 -57.81798828 12.79033691 -56.77441406 12.5012207 C-55.69385742 12.21206787 -54.61330078 11.92291504 -53.5 11.625 C-52.38592773 11.31973389 -51.27185547 11.01446777 -50.12402344 10.69995117 C-42.3728202 8.59176993 -34.59401549 6.60468093 -26.78637695 4.71679688 C-22.00139745 3.54869749 -17.36008562 2.18252854 -12.6875 0.625 C-7.91358326 -0.87449949 -4.76536781 -1.72364367 0 0 Z " fill="#262424" transform="translate(180,102)"/>
<path d="M0 0 C2.22823597 0.00850564 4.4539022 -0.02025449 6.68188477 -0.05200195 C8.10571213 -0.05361437 9.529544 -0.05303565 10.95336914 -0.05004883 C12.24235107 -0.05190186 13.53133301 -0.05375488 14.859375 -0.05566406 C18.92432233 0.53690647 20.51464828 1.45703939 23.30102539 4.44604492 C24.44433594 7.01928711 24.44433594 7.01928711 25.18774414 9.99291992 C25.48124756 11.12826172 25.77475098 12.26360352 26.07714844 13.43334961 C26.37790283 14.67503906 26.67865723 15.91672852 26.98852539 17.19604492 C27.32128597 18.51058639 27.65572159 19.82470481 27.99169922 21.13842773 C28.91629965 24.77479635 29.81678237 28.41676251 30.71264648 32.06030273 C31.75207008 36.2749282 32.80885599 40.48521363 33.86352539 44.69604492 C35.15409239 49.84877724 36.44240556 55.00194539 37.71191406 60.15991211 C39.87981846 68.94227039 42.13804731 77.683202 44.6582489 86.37213135 C45.94010944 90.85938146 46.83799778 95.27090932 47.55102539 99.88354492 C48.35512337 104.04182335 48.35512337 104.04182335 51.30883789 106.76635742 C53.65829675 107.55077471 53.65829675 107.55077471 56.07055664 107.97729492 C59.21351217 108.63781097 61.06316476 110.20818429 63.30102539 112.44604492 C63.30102539 113.10604492 63.30102539 113.76604492 63.30102539 114.44604492 C74.40440947 111.75070142 85.42884313 108.88609541 96.39868164 105.68896484 C103.5832518 103.61116672 110.81304632 101.76368708 118.08227539 100.0065918 C122.29898094 99.03816787 122.29898094 99.03816787 126.30102539 97.44604492 C134.21864364 96.36143968 140.49440479 98.42549532 147.30102539 102.44604492 C149.79862147 104.52373948 150.23511957 105.01294954 150.73852539 108.32104492 C150.18182966 112.29744301 149.36663129 113.84027991 146.30102539 116.44604492 C142.14728653 116.90757146 139.5715509 116.97284818 135.73852539 115.38354492 C129.66855726 113.0489418 121.2361718 116.59808086 115.17602539 118.13354492 C114.12576172 118.39756104 113.07549805 118.66157715 111.9934082 118.93359375 C104.09469309 120.9403425 96.2417009 123.0858731 88.43164062 125.41455078 C83.71380244 126.81329303 79.09421328 127.85642779 74.23852539 128.69604492 C71.49871451 129.23193841 71.49871451 129.23193841 69.30102539 130.44604492 C67.81210363 132.87048389 67.06760837 135.13846745 66.28149414 137.86791992 C64.32899341 143.00198559 59.75842976 146.2437446 54.93774414 148.60229492 C49.0663128 150.48115295 42.3928221 150.67553133 36.62915039 148.38354492 C30.3888527 144.53047521 26.60543611 139.35927709 24.30102539 132.44604492 C23.55878528 125.59553378 24.28399945 120.14806497 28.30102539 114.44604492 C29.08477539 113.84791992 29.86852539 113.24979492 30.67602539 112.63354492 C32.52031542 110.62088555 32.52031542 110.62088555 32.24633789 108.36010742 C31.73057086 105.34694213 31.03526912 102.41389926 30.30102539 99.44604492 C29.99899586 98.12240553 29.69965386 96.79815087 29.40258789 95.47338867 C27.72108091 88.07458914 25.85875588 80.73931289 23.89222717 73.41053772 C22.1697224 66.98234423 20.51560143 60.53712114 18.86474609 54.09017944 C16.24044701 43.84560227 13.59456321 33.61149376 10.67236328 23.44677734 C9.30102539 18.64260148 9.30102539 18.64260148 9.30102539 16.44604492 C8.29519409 16.49317627 8.29519409 16.49317627 7.26904297 16.54125977 C4.21754987 16.66632745 1.16659583 16.74412293 -1.88647461 16.82104492 C-3.46912109 16.89645508 -3.46912109 16.89645508 -5.08374023 16.97338867 C-12.69046611 17.11736456 -12.69046611 17.11736456 -15.55078125 15.21337891 C-18.0990554 12.33751451 -18.69623025 10.60796208 -18.76147461 6.75854492 C-15.99886491 -1.85429707 -7.55499179 -0.04410338 0 0 Z " fill="#262525" transform="translate(66.698974609375,79.553955078125)"/>
<path d="M0 0 C24.22499561 -2.37547729 24.22499561 -2.37547729 30.03222656 1.27880859 C33.03165438 4.68282454 34.49750831 8.80666408 36.09960938 12.99902344 C37.5873608 16.30531702 39.8274514 18.77265539 42.3125 21.375 C42.77567627 21.86154053 43.23885254 22.34808105 43.71606445 22.84936523 C57.54443235 36.90235151 74.53858866 44.83762096 94 47 C94 60.53 94 74.06 94 88 C77.83 88 61.66 88 45 88 C42.36 82.72 39.72 77.44 37 72 C32.40392128 65.45216182 27.60385937 59.32803646 22.21484375 53.42578125 C21 52 21 52 21 51 C21.70608398 50.98018066 22.41216797 50.96036133 23.13964844 50.93994141 C26.34346994 50.84459585 29.54664801 50.73495487 32.75 50.625 C33.86117187 50.5940625 34.97234375 50.563125 36.1171875 50.53125 C37.18710937 50.49257813 38.25703125 50.45390625 39.359375 50.4140625 C40.34389648 50.3826416 41.32841797 50.3512207 42.34277344 50.31884766 C45.0417775 49.99498701 46.72364368 49.4631862 49 48 C50.54163175 44.9167365 50.29747535 42.39121901 50 39 C47.9569709 36.98226608 46.59422831 36.0944832 43.74623108 35.64164734 C42.51265114 35.6521386 42.51265114 35.6521386 41.25415039 35.6628418 C39.8460183 35.66219978 39.8460183 35.66219978 38.40943909 35.6615448 C36.89385658 35.68019341 36.89385658 35.68019341 35.34765625 35.69921875 C33.18684592 35.69156904 31.02603844 35.68307784 28.86523438 35.67382812 C25.47527597 35.6760267 22.08589356 35.68730829 18.69604492 35.71508789 C-5.10812883 35.86688464 -5.10812883 35.86688464 -16 29 C-17.32626567 28.31938147 -18.65699065 27.64695294 -20 27 C-19.34 26.360625 -18.68 25.72125 -18 25.0625 C-16.99664036 24.04496861 -15.99713654 23.02363051 -15 22 C-14.38382812 21.37996094 -13.76765625 20.75992187 -13.1328125 20.12109375 C-7.3253029 13.9859231 -3.76483096 7.49034775 0 0 Z " fill="#E9EBED" transform="translate(320,332)"/>
<path d="M0 0 C4.43176389 3.8484377 5.23238929 8.74915973 6.4375 14.25 C6.85332714 16.04507204 7.27266317 17.83933448 7.6953125 19.6328125 C8.01290527 20.98101074 8.01290527 20.98101074 8.33691406 22.35644531 C9.15113053 25.60251893 10.12600984 28.78059424 11.13354492 31.97094727 C15.77660795 46.70152804 15.77660795 46.70152804 14 52 C10.40326621 55.65071854 6.52851206 57.07358432 1.6875 58.375 C0.97198975 58.57706055 0.25647949 58.77912109 -0.48071289 58.98730469 C-8.32683567 61.16664586 -16.24028952 63.10611418 -24.15161133 65.03271484 C-25.14185303 65.2745752 -26.13209473 65.51643555 -27.15234375 65.765625 C-28.4825354 66.08708496 -28.4825354 66.08708496 -29.83959961 66.41503906 C-32.02607467 66.93057584 -32.02607467 66.93057584 -34 68 C-36.2421875 68.23828125 -36.2421875 68.23828125 -38.875 68.3125 C-39.73867187 68.34988281 -40.60234375 68.38726562 -41.4921875 68.42578125 C-44.86610123 67.85295166 -45.82159126 66.60614526 -48 64 C-49.03320312 61.27368164 -49.03320312 61.27368164 -49.78125 58.16015625 C-50.20857422 56.44022461 -50.20857422 56.44022461 -50.64453125 54.68554688 C-51.06798828 52.89213867 -51.06798828 52.89213867 -51.5 51.0625 C-52.06986045 48.7193067 -52.64277324 46.37685361 -53.21875 44.03515625 C-53.50298828 42.8764502 -53.78722656 41.71774414 -54.08007812 40.52392578 C-55.29339061 35.87611463 -56.72254079 31.31006622 -58.19921875 26.73999023 C-59.25355838 23.13241289 -59.61904758 20.71428547 -59 17 C-56.27384755 12.83191567 -54.26398881 11.32175499 -49.44140625 10.19140625 C-48.34280273 9.92199219 -47.24419922 9.65257812 -46.11230469 9.375 C-44.94086914 9.106875 -43.76943359 8.83875 -42.5625 8.5625 C-40.12043177 7.97278672 -37.67903094 7.38030327 -35.23828125 6.78515625 C-34.02092285 6.49141113 -32.80356445 6.19766602 -31.54931641 5.89501953 C-25.5412486 4.37998469 -19.61491091 2.57478965 -13.71313477 0.68969727 C-8.82610641 -0.78756701 -5.04073607 -1.53953516 0 0 Z " fill="#262424" transform="translate(153,45)"/>
<path d="M0 0 C2.8125 1.5625 2.8125 1.5625 5 4 C5.0825 5.155 5.165 6.31 5.25 7.5 C5.4975 8.655 5.745 9.81 6 11 C8.08974084 12.29167204 10.21637109 13.05757915 12.515625 13.91796875 C19.27284856 16.86097335 24.09683196 22.34690656 27 29 C27.5625 32.125 27.5625 32.125 27 35 C24.54405875 38.32274404 23.0743356 39.77618008 19 40.625 C14.44244642 39.67550967 12.55031708 36.93316977 9.71875 33.40234375 C6.73427549 29.69904763 4.62868784 27.36209117 -0.18359375 26.69921875 C-5.04642076 26.67393542 -7.94318127 27.04958638 -12 30 C-12.66 30 -13.32 30 -14 30 C-15.35793203 35.97666279 -15.35793203 35.97666279 -13.375 41.4375 C-9.1170534 44.23878066 -4.76642938 45.34921682 0.1875 46.375 C10.61515399 48.75241096 20.22070376 51.73654979 26.3828125 61.1015625 C29.56208883 67.39341705 30.15997893 73.57033046 28.375 80.38671875 C25.39042407 88.23455457 19.67115791 92.95162677 12.1875 96.4375 C9.4606809 97.59096861 8.01377937 98 5 98 C5.103125 99.0725 5.20625 100.145 5.3125 101.25 C5 105 5 105 2.875 107.4375 C-0.49379821 109.26836859 -2.22527006 109.64250722 -6 109 C-8.30275556 107.1329009 -9.67823871 105.64352259 -11 103 C-11.039992 101.00039988 -11.04346799 98.99952758 -11 97 C-11.99 96.95875 -12.98 96.9175 -14 96.875 C-21.13984627 95.83647691 -26.46549133 90.05066701 -30.8125 84.65234375 C-33.95476901 80.28004181 -34.66764353 76.34114822 -34 71 C-31.9375 68 -31.9375 68 -29 66 C-25.4375 65.875 -25.4375 65.875 -22 67 C-19.39380167 69.53380393 -18.12190573 71.70133095 -16.75 75.0625 C-14.31269941 79.15368314 -11.47582227 80.577701 -7 82 C-1.34927903 82.97275467 3.98078753 81.70436503 9 79 C10.76367293 77.68457754 10.76367293 77.68457754 12 76 C12.23753308 72.49211747 12.23753308 72.49211747 11 69 C5.30010562 64.12103967 -1.61190456 63.09728492 -8.76953125 61.46484375 C-18.04676297 59.16144328 -24.40667314 54.73195184 -30 47 C-32.84481621 40.92837812 -33.16255536 34.72558439 -31.16015625 28.30859375 C-28.21154687 21.80576836 -23.73584499 16.0071843 -17 13.15234375 C-16.38125 12.93707031 -15.7625 12.72179687 -15.125 12.5 C-14.09375 12.005 -13.0625 11.51 -12 11 C-10.74843159 7.57784653 -10.74843159 7.57784653 -10 4 C-7.10536748 -0.03180958 -4.89210177 -0.79871049 0 0 Z " fill="#272422" transform="translate(425,244)"/>
<path d="M0 0 C1.32354579 3.97063738 0.33386509 5.67347477 -1.01953125 9.609375 C-1.2381633 10.25440979 -1.45679535 10.89944458 -1.68205261 11.56402588 C-2.38377653 13.62900697 -3.09768333 15.6895187 -3.8125 17.75 C-4.51406936 19.79698861 -5.21308597 21.84482597 -5.91081238 23.89312744 C-6.54921826 25.76325365 -7.19399373 27.63120188 -7.83911133 29.49902344 C-8.99221115 32.97651058 -10.01842674 36.47065682 -11 40 C-11.20367187 40.72445312 -11.40734375 41.44890625 -11.6171875 42.1953125 C-12.05363066 45.46202342 -11.84294532 47.79449756 -9.91015625 50.55859375 C-6.97422024 54.0933609 -3.73593385 57.32703332 -0.46191406 60.54638672 C2.22309404 63.21614928 4.6362022 66.04525275 7 69 C7 69.66 7 70.32 7 71 C-18.41 71 -43.82 71 -70 71 C-66.46950039 56.87800155 -66.46950039 56.87800155 -63.375 50.5 C-62.85450073 49.4179126 -62.85450073 49.4179126 -62.32348633 48.31396484 C-51.533308 26.62756221 -31.92859426 10.35212559 -9.08203125 2.60546875 C-6.06687087 1.67494488 -3.05345629 0.7947352 0 0 Z " fill="#89C7FC" transform="translate(246,371)"/>
<path d="M0 0 C7.15991372 0.49952886 13.43370203 3.2397957 20 6 C20.85980469 6.35964844 21.71960938 6.71929687 22.60546875 7.08984375 C44.45898345 17.10752341 59.26673578 36.92828432 68.09765625 58.70703125 C69.5843709 62.87674722 70 65.40757151 70 70 C44.59 70 19.18 70 -7 70 C-3.035927 64.71456934 0.79951771 59.86840853 5.3125 55.125 C10.28586747 50.30882159 10.28586747 50.30882159 12.2265625 43.93286133 C11.95947349 39.29650698 10.8329249 35.45546096 9.375 31.07421875 C9.10864746 30.24541702 8.84229492 29.4166153 8.56787109 28.56269836 C7.72143725 25.93443637 6.8613783 23.31089794 6 20.6875 C5.14118589 18.04549386 4.28524334 15.40259526 3.43212891 12.75874329 C2.90182989 11.11815075 2.36776272 9.47877054 1.82958984 7.84074402 C0 2.22025414 0 2.22025414 0 0 Z " fill="#89C8FD" transform="translate(285,372)"/>
<path d="M0 0 C8.58 0 17.16 0 26 0 C26 0.33 26 0.66 26 1 C22.37 1 18.74 1 15 1 C15 53.47 15 105.94 15 160 C26.55 160 38.1 160 50 160 C50 160.33 50 160.66 50 161 C33.5 161 17 161 0 161 C0 107.87 0 54.74 0 0 Z " fill="#CACACF" transform="translate(117,259)"/>
<path d="M0 0 C0.85961914 2.22143555 0.85961914 2.22143555 1.53515625 5.13671875 C1.78716797 6.18923828 2.03917969 7.24175781 2.29882812 8.32617188 C2.55083984 9.43541016 2.80285156 10.54464844 3.0625 11.6875 C3.57220185 13.85854742 4.08386306 16.02913594 4.59765625 18.19921875 C4.81945557 19.16690186 5.04125488 20.13458496 5.26977539 21.1315918 C5.97283496 24.06683088 5.97283496 24.06683088 7.08764648 27.11254883 C8 30 8 30 8 34 C-1.10544821 37.29780656 -10.30571169 39.97871843 -19.6875 42.375 C-20.73873047 42.64973145 -21.78996094 42.92446289 -22.87304688 43.20751953 C-23.86755859 43.45614746 -24.86207031 43.70477539 -25.88671875 43.9609375 C-26.77576904 44.18571777 -27.66481934 44.41049805 -28.58081055 44.64208984 C-31.07718425 45.01141912 -32.62875832 44.7971892 -35 44 C-36.14397482 39.64125819 -37.28317467 35.28130705 -38.41796875 30.92016602 C-38.80467865 29.43675073 -39.19269087 27.95367432 -39.58203125 26.47094727 C-40.14145196 24.33958289 -40.69617699 22.20704354 -41.25 20.07421875 C-41.51248535 19.0803138 -41.51248535 19.0803138 -41.78027344 18.06632996 C-42.49911058 15.28185301 -43 12.8909461 -43 10 C-41.4188708 9.49307308 -39.83498617 8.99473557 -38.25 8.5 C-37.36828125 8.2215625 -36.4865625 7.943125 -35.578125 7.65625 C-33 7 -33 7 -29 7 C-28.80664062 7.63808594 -28.61328125 8.27617187 -28.4140625 8.93359375 C-28.15367187 9.75988281 -27.89328125 10.58617187 -27.625 11.4375 C-27.36976563 12.26121094 -27.11453125 13.08492187 -26.8515625 13.93359375 C-26.19117773 16.17798016 -26.19117773 16.17798016 -24 17 C-19.42026692 17.47776056 -19.42026692 17.47776056 -15.2890625 15.87109375 C-13.42331895 13.16293872 -13.70774662 11.05985488 -13.8125 7.8125 C-13.83957031 6.72582031 -13.86664063 5.63914062 -13.89453125 4.51953125 C-13.94673828 3.27236328 -13.94673828 3.27236328 -14 2 C-12.23225581 1.46877637 -10.46065917 0.95035927 -8.6875 0.4375 C-7.70136719 0.14746094 -6.71523437 -0.14257812 -5.69921875 -0.44140625 C-3 -1 -3 -1 0 0 Z " fill="#DEA36C" transform="translate(171,120)"/>
<path d="M0 0 C119.13 0 238.26 0 361 0 C361 7.92 361 15.84 361 24 C241.87 24 122.74 24 0 24 C0 16.08 0 8.16 0 0 Z M1 1 C1 7.93 1 14.86 1 22 C45.63020501 22.06840101 90.26040312 22.12151002 134.89065022 22.15319599 C140.1566738 22.15694822 145.42269728 22.16083118 150.6887207 22.16479492 C151.73711494 22.16558185 152.78550917 22.16636878 153.86567292 22.16717956 C170.8531095 22.18024236 187.84051569 22.20390102 204.82793423 22.23145839 C222.25161768 22.25948827 239.67528519 22.27617114 257.09899026 22.28226548 C267.85500341 22.28638695 278.61093069 22.29941591 289.36691741 22.3237494 C296.73731781 22.33957676 304.10767366 22.34440718 311.47808983 22.34050413 C315.73385318 22.3385779 319.98946623 22.34158233 324.24520302 22.35761642 C328.13945138 22.37218178 332.03344792 22.3729744 335.92770771 22.36269668 C337.33829037 22.36142584 338.74888855 22.36525998 340.15944054 22.37464955 C342.07394486 22.38665518 343.98854429 22.37842099 345.90306377 22.36914349 C347.4995979 22.37085223 347.4995979 22.37085223 349.12838525 22.37259549 C352.49048774 21.93635862 354.32075414 21.06193707 357 19 C360.04349839 13.65835921 360.04349839 13.65835921 359 1 C240.86 1 122.72 1 1 1 Z " fill="#B58256" transform="translate(85,458)"/>
<path d="M0 0 C1.32 0 2.64 0 4 0 C5.88479666 5.74267442 7.75404983 11.49008914 9.60913086 17.24243164 C10.24225861 19.19823703 10.87959848 21.15268413 11.52124023 23.10571289 C12.4432706 25.91465591 13.34999894 28.72814942 14.25390625 31.54296875 C14.54342667 32.41398727 14.83294708 33.2850058 15.13124084 34.18241882 C17.61592297 42.01284625 17.61592297 42.01284625 16 46 C14.60131836 47.94458008 14.60131836 47.94458008 12.83984375 49.76953125 C11.8972168 50.76049805 11.8972168 50.76049805 10.93554688 51.77148438 C10.27619141 52.44501953 9.61683594 53.11855469 8.9375 53.8125 C8.27427734 54.50537109 7.61105469 55.19824219 6.92773438 55.91210938 C5.29370077 57.6166768 3.65113735 59.3120225 2 61 C0.81706665 59.81493139 -0.36572864 58.62972468 -1.54785156 57.44384766 C-2.92192279 56.07763091 -4.31589139 54.73151104 -5.7109375 53.38671875 C-6.59007812 52.49597656 -7.46921875 51.60523438 -8.375 50.6875 C-9.26960937 49.80449219 -10.16421875 48.92148437 -11.0859375 48.01171875 C-13.58464216 44.08008346 -12.87668128 41.35093559 -12 37 C-11.28639181 34.17284198 -10.42867029 31.40649787 -9.53125 28.6328125 C-9.29088013 27.87201385 -9.05051025 27.11121521 -8.80285645 26.32736206 C-8.04170251 23.92446419 -7.27081689 21.52481313 -6.5 19.125 C-5.98247354 17.49237738 -5.46554096 15.85956637 -4.94921875 14.2265625 C-4.4562646 12.67430902 -3.96279359 11.12221958 -3.46875 9.5703125 C-3.23643677 8.84014923 -3.00412354 8.10998596 -2.76477051 7.35769653 C-1.11858223 2.23716446 -1.11858223 2.23716446 0 0 Z " fill="#F9DC74" transform="translate(264,370)"/>
<path d="M0 0 C17.83740896 14.49289478 29.30123449 34.89222625 35 57 C35.33837891 58.24523437 35.33837891 58.24523437 35.68359375 59.515625 C41.6846003 85.8372813 34.72798261 115.10636113 20.90478516 137.79785156 C16.01538603 145.50930547 10.30109993 152.40097572 4 159 C3.01 158.67 2.02 158.34 1 158 C1.54527344 157.37996094 2.09054688 156.75992188 2.65234375 156.12109375 C25.0848798 129.77724372 32.46681761 98.62770023 29.79785156 64.40820312 C27.31777574 43.27608538 16.98475417 19.04025007 1.20703125 4.328125 C0 3 0 3 0 0 Z " fill="#BFDCF7" transform="translate(201,56)"/>
<path d="M0 0 C0.68603516 1.87011719 0.68603516 1.87011719 1.2890625 4.296875 C1.50820312 5.1734375 1.72734375 6.05 1.953125 6.953125 C2.17484375 7.87609375 2.3965625 8.7990625 2.625 9.75 C2.96917969 11.11125 2.96917969 11.11125 3.3203125 12.5 C4.37292978 16.78565607 5.12906906 20.56435941 5 25 C0.77155158 26.14849509 -3.45787926 27.29333049 -7.6875 28.4375 C-8.88568359 28.76298828 -10.08386719 29.08847656 -11.31835938 29.42382812 C-12.47529297 29.73642578 -13.63222656 30.04902344 -14.82421875 30.37109375 C-16.41882935 30.8031311 -16.41882935 30.8031311 -18.0456543 31.24389648 C-20.68722903 31.91995276 -23.32108226 32.49540191 -26 33 C-27.00597015 29.23073331 -28.00374802 25.45934588 -29 21.6875 C-29.28617187 20.61564453 -29.57234375 19.54378906 -29.8671875 18.43945312 C-30.13789062 17.41142578 -30.40859375 16.38339844 -30.6875 15.32421875 C-30.93886719 14.37635498 -31.19023438 13.42849121 -31.44921875 12.4519043 C-32 10 -32 10 -32 7 C-29.36 6.67 -26.72 6.34 -24 6 C-23.525625 6.969375 -23.05125 7.93875 -22.5625 8.9375 C-21.29806053 11.80477437 -21.29806053 11.80477437 -20 13 C-14.63321419 13.6248086 -14.63321419 13.6248086 -10 11.5 C-8.55168345 7.87920862 -8.80564172 4.88716564 -9 1 C-2.25 -1.125 -2.25 -1.125 0 0 Z " fill="#DCA16B" transform="translate(144,63)"/>
<path d="M0 0 C8.25 0 16.5 0 25 0 C25 11.22 25 22.44 25 34 C19.06 34 13.12 34 7 34 C6.9175 31.6075 6.835 29.215 6.75 26.75 C6.37495071 19.30530971 4.71831615 12.95478623 2 6 C1.34 4.02 0.68 2.04 0 0 Z " fill="#E8EBED" transform="translate(317,282)"/>
<path d="M0 0 C19.70981497 7.28406206 35.14913825 25.45064386 44 44 C49.39338854 56.39844849 49.39338854 56.39844849 49 63 C46.03 63 43.06 63 40 63 C39.731875 61.9584375 39.46375 60.916875 39.1875 59.84375 C34.92551153 43.98071849 28.47028525 30.71256049 18 18 C17.40316406 17.25105469 16.80632812 16.50210937 16.19140625 15.73046875 C11.70973725 10.31727502 6.33880006 5.16940003 0 2 C0 1.34 0 0.68 0 0 Z " fill="#5FB3F9" transform="translate(306,379)"/>
<path d="M0 0 C11.57424378 8.7397351 18.39182004 22.87116213 21 37 C22.98948524 55.78639564 18.88748761 72.8910252 7.44140625 88.06640625 C6.33751674 89.41421469 5.17722782 90.71575147 4 92 C3.67 91.01 3.34 90.02 3 89 C4.29296875 86.5390625 4.29296875 86.5390625 6.1875 83.625 C15.46620379 68.38273809 17.46567015 49.09772707 14.3515625 31.64453125 C11.98771544 22.05781816 7.99301851 11.99127314 1.78125 4.2265625 C0 2 0 2 0 0 Z " fill="#EBB129" transform="translate(467,251)"/>
<path d="M0 0 C8.26991292 4.75519993 14.52875148 12.11566592 18 21 C18.35578125 21.88816406 18.7115625 22.77632813 19.078125 23.69140625 C21.59768669 32.73407046 21.40983175 44.35391815 17.265625 52.83203125 C16.63914062 53.90517578 16.63914062 53.90517578 16 55 C15.54109375 55.78761719 15.0821875 56.57523437 14.609375 57.38671875 C11.58785841 62.19729121 8.25120125 66.2318898 4 70 C3.34 70 2.68 70 2 70 C3.27663894 67.32959929 4.69854197 64.93460147 6.375 62.5 C13.8357983 50.36790068 15.36368011 35.93751466 12.08203125 22.140625 C9.93535003 16.22162048 7.03228372 10.98897049 3.33203125 5.90234375 C2.00283822 4.00405341 0.98427169 2.09449285 0 0 Z " fill="#EBC6B7" transform="translate(288,275)"/>
<path d="M0 0 C7.88864358 6.76169449 7.88864358 6.76169449 10.96484375 9.83203125 C11.61904297 10.48494141 12.27324219 11.13785156 12.94726562 11.81054688 C13.60404297 12.47119141 14.26082031 13.13183594 14.9375 13.8125 C15.62134766 14.49248047 16.30519531 15.17246094 17.00976562 15.87304688 C17.65494141 16.51951172 18.30011719 17.16597656 18.96484375 17.83203125 C19.5487085 18.41702393 20.13257324 19.0020166 20.73413086 19.60473633 C22 21 22 21 22 22 C14.74 22 7.48 22 0 22 C0 14.74 0 7.48 0 0 Z " fill="#A599A5" transform="translate(380,42)"/>
<path d="M0 0 C2.875 0.875 2.875 0.875 4.875 2.875 C5.21990322 6.92761287 5.17663882 8.42254176 2.875 11.875 C-3.06732331 12.52325345 -3.06732331 12.52325345 -6.0625 10.6875 C-7.53859492 8.16945572 -7.61589348 6.75023324 -7.125 3.875 C-4.88889892 0.60685227 -4.01504863 -0.16060195 0 0 Z " fill="#E3E5E7" transform="translate(114.125,201.125)"/>
<path d="M0 0 C0 4.38968456 -2.12805101 5.76905739 -5 9 C-5.99 8.67 -6.98 8.34 -8 8 C-5.58443874 4.80800833 -3.31996462 2.25283313 0 0 Z " fill="#B6D1EB" transform="translate(210,206)"/>
</svg>
