<?xml version="1.0" encoding="UTF-8"?>
<!DOCTYPE svg PUBLIC "-//W3C//DTD SVG 1.1//EN" "http://www.w3.org/Graphics/SVG/1.1/DTD/svg11.dtd">
<svg xmlns="http://www.w3.org/2000/svg" version="1.1" width="512px" height="512px" style="shape-rendering:geometricPrecision; text-rendering:geometricPrecision; image-rendering:optimizeQuality; fill-rule:evenodd; clip-rule:evenodd" xmlns:xlink="http://www.w3.org/1999/xlink">
<g><path style="opacity:0.994" fill="#000001" d="M 206.5,5.5 C 220.557,10.8902 230.224,20.5569 235.5,34.5C 237.308,34.5086 238.975,34.0086 240.5,33C 245.649,28.6851 250.649,24.1851 255.5,19.5C 266.976,28.8203 274.643,40.6536 278.5,55C 338.833,55.3333 399.167,55.6667 459.5,56C 465.074,58.1939 469.574,61.6939 473,66.5C 483.395,95.6844 493.395,125.018 503,154.5C 503.926,164.907 503.592,175.241 502,185.5C 498.972,191.361 494.472,195.694 488.5,198.5C 487.667,296.832 487.167,395.165 487,493.5C 485.167,498 482,501.167 477.5,503C 342.167,503.5 206.834,503.667 71.5,503.5C 71.5,482.167 71.5,460.833 71.5,439.5C 37.584,439.089 16.4173,422.422 8,389.5C 5.77423,373.298 8.44089,357.964 16,343.5C 38.7697,293.733 75.9364,259.566 127.5,241C 129.547,235.986 131.214,230.82 132.5,225.5C 116.712,216.29 107.046,202.623 103.5,184.5C 87.4721,182.958 76.9721,174.625 72,159.5C 71.3333,154.167 71.3333,148.833 72,143.5C 73.5454,139.099 75.0454,134.766 76.5,130.5C 75.1083,121.15 73.6083,111.817 72,102.5C 68.3125,61.0129 86.4792,34.8462 126.5,24C 140.188,23.7234 153.854,23.0568 167.5,22C 181.992,19.7466 194.992,14.2466 206.5,5.5 Z"/></g>
<g><path style="opacity:1" fill="#646c77" d="M 205.5,25.5 C 206.873,25.3433 208.207,25.51 209.5,26C 212,28.5 214.5,31 217,33.5C 221.185,41.5583 224.685,49.8916 227.5,58.5C 236.984,54.2608 245.984,49.2608 254.5,43.5C 261.405,52.0549 264.405,61.8882 263.5,73C 262.853,89.2316 261.519,105.398 259.5,121.5C 255.524,120.705 251.524,120.038 247.5,119.5C 249.602,103.795 243.269,93.2946 228.5,88C 216.5,87.6667 204.5,87.3333 192.5,87C 176.909,82.3434 168.576,71.8434 167.5,55.5C 162.167,55.5 156.833,55.5 151.5,55.5C 151.804,60.8292 152.804,65.9959 154.5,71C 120.658,69.6787 103.658,85.8453 103.5,119.5C 99.658,119.239 95.9913,119.906 92.5,121.5C 88.3565,107.032 87.1898,92.3655 89,77.5C 95.1667,59.3333 107.333,47.1667 125.5,41C 142.533,40.1446 159.533,38.8113 176.5,37C 186.91,34.7863 196.576,30.953 205.5,25.5 Z"/></g>
<g><path style="opacity:1" fill="#fc806c" d="M 279.5,71.5 C 288.192,71.1686 296.859,71.502 305.5,72.5C 312.167,98.5 318.833,124.5 325.5,150.5C 310.181,151.499 294.848,151.833 279.5,151.5C 279.663,149.143 279.497,146.81 279,144.5C 276.877,139.925 275.044,135.258 273.5,130.5C 277.06,110.997 279.06,91.3305 279.5,71.5 Z"/></g>
<g><path style="opacity:1" fill="#fce7a5" d="M 321.5,71.5 C 342.844,71.167 364.177,71.5003 385.5,72.5C 392.167,98.5 398.833,124.5 405.5,150.5C 384.167,151.833 362.833,151.833 341.5,150.5C 334.674,124.196 328.007,97.8631 321.5,71.5 Z"/></g>
<g><path style="opacity:1" fill="#fc806c" d="M 401.5,71.5 C 419.927,71.0264 438.26,71.5264 456.5,73C 458.049,74.214 459.215,75.714 460,77.5C 468.068,101.87 476.235,126.204 484.5,150.5C 463.5,151.833 442.5,151.833 421.5,150.5C 414.674,124.196 408.007,97.8631 401.5,71.5 Z"/></g>
<g><path style="opacity:1" fill="#eecfb3" d="M 137.5,87.5 C 146.506,87.3336 155.506,87.5002 164.5,88C 172.119,96.1435 181.452,101.143 192.5,103C 203.833,103.333 215.167,103.667 226.5,104C 227.931,104.465 229.097,105.299 230,106.5C 231.648,132.079 231.981,157.746 231,183.5C 226.5,200 216,210.5 199.5,215C 183.5,215.667 167.5,215.667 151.5,215C 135.026,210.526 124.526,200.026 120,183.5C 119.333,157.5 119.333,131.5 120,105.5C 123.353,96.9815 129.186,90.9815 137.5,87.5 Z"/></g>
<g><path style="opacity:1" fill="#0c0a09" d="M 140.5,119.5 C 151.167,120.003 153.833,124.836 148.5,134C 139.42,137.215 135.253,134.048 136,124.5C 137.025,122.313 138.525,120.646 140.5,119.5 Z"/></g>
<g><path style="opacity:1" fill="#0c0a09" d="M 204.5,119.5 C 215.167,120.003 217.833,124.836 212.5,134C 203.42,137.215 199.253,134.048 200,124.5C 201.025,122.313 202.525,120.646 204.5,119.5 Z"/></g>
<g><path style="opacity:1" fill="#ebccb0" d="M 98.5,135.5 C 100.167,135.5 101.833,135.5 103.5,135.5C 103.5,146.167 103.5,156.833 103.5,167.5C 89.073,164.651 84.573,156.317 90,142.5C 92.4412,139.546 95.2745,137.213 98.5,135.5 Z"/></g>
<g><path style="opacity:1" fill="#ebcbb0" d="M 247.5,135.5 C 261.927,138.349 266.427,146.683 261,160.5C 257.66,165.087 253.16,167.42 247.5,167.5C 247.5,156.833 247.5,146.167 247.5,135.5 Z"/></g>
<g><path style="opacity:1" fill="#010101" d="M 199.5,167.5 C 204.833,167.5 210.167,167.5 215.5,167.5C 214.11,185.141 204.776,195.641 187.5,199C 175.505,199.5 163.505,199.667 151.5,199.5C 151.5,194.167 151.5,188.833 151.5,183.5C 163.505,183.667 175.505,183.5 187.5,183C 195.077,180.591 199.077,175.424 199.5,167.5 Z"/></g>
<g><path style="opacity:1" fill="#f96d50" d="M 274.5,167.5 C 292.167,167.5 309.833,167.5 327.5,167.5C 327.665,171.182 327.499,174.848 327,178.5C 326.535,179.931 325.701,181.097 324.5,182C 314.929,183.142 305.262,183.642 295.5,183.5C 285.738,183.642 276.071,183.142 266.5,182C 264.993,181.163 264.493,179.996 265,178.5C 268.75,175.256 271.917,171.589 274.5,167.5 Z"/></g>
<g><path style="opacity:1" fill="#fad56f" d="M 343.5,167.5 C 364.833,167.5 386.167,167.5 407.5,167.5C 407.665,171.182 407.499,174.848 407,178.5C 406.535,179.931 405.701,181.097 404.5,182C 394.929,183.142 385.262,183.642 375.5,183.5C 366.5,183.333 357.5,183.167 348.5,183C 346.333,182.167 344.833,180.667 344,178.5C 343.501,174.848 343.335,171.182 343.5,167.5 Z"/></g>
<g><path style="opacity:1" fill="#fa6d50" d="M 423.5,167.5 C 444.833,167.5 466.167,167.5 487.5,167.5C 487.665,171.182 487.499,174.848 487,178.5C 486.535,179.931 485.701,181.097 484.5,182C 474.929,183.142 465.262,183.642 455.5,183.5C 446.5,183.333 437.5,183.167 428.5,183C 426.333,182.167 424.833,180.667 424,178.5C 423.501,174.848 423.335,171.182 423.5,167.5 Z"/></g>
<g><path style="opacity:1" fill="#e5e8ec" d="M 246.5,183.5 C 249.434,184.289 251.268,186.289 252,189.5C 255.571,194.031 260.071,197.198 265.5,199C 285.167,199.667 304.833,199.667 324.5,199C 328.446,197.694 332.112,195.861 335.5,193.5C 338.472,195.968 341.806,197.802 345.5,199C 365.167,199.667 384.833,199.667 404.5,199C 408.446,197.694 412.112,195.861 415.5,193.5C 418.472,195.968 421.806,197.802 425.5,199C 440.83,199.5 456.163,199.667 471.5,199.5C 471.5,295.5 471.5,391.5 471.5,487.5C 407.5,487.5 343.5,487.5 279.5,487.5C 279.5,471.5 279.5,455.5 279.5,439.5C 284.862,439.528 290.195,439.194 295.5,438.5C 295.099,446.585 295.599,454.585 297,462.5C 299.222,466.388 302.388,469.221 306.5,471C 352.167,471.667 397.833,471.667 443.5,471C 448.185,469.65 451.685,466.817 454,462.5C 455.658,383.89 455.991,305.224 455,226.5C 452.744,221.243 448.91,217.743 443.5,216C 413.833,215.333 384.167,215.333 354.5,216C 349.667,218.167 346.167,221.667 344,226.5C 343.5,254.831 343.333,283.165 343.5,311.5C 334.494,311.666 325.494,311.5 316.5,311C 292.772,277.953 261.605,254.787 223,241.5C 220.864,235.96 219.531,230.293 219,224.5C 234.309,215.013 243.475,201.346 246.5,183.5 Z"/></g>
<g><path style="opacity:1" fill="#eccdb1" d="M 147.5,230.5 C 166.16,231.82 184.827,231.82 203.5,230.5C 204.084,233.67 204.75,236.837 205.5,240C 205.415,241.107 205.081,242.107 204.5,243C 195.026,247.324 185.36,251.158 175.5,254.5C 165.728,251.114 156.061,247.448 146.5,243.5C 146.167,242.5 145.833,241.5 145.5,240.5C 146.17,237.154 146.837,233.821 147.5,230.5 Z"/></g>
<g><path style="opacity:1" fill="#d2a06b" d="M 359.5,231.5 C 364.833,231.5 370.167,231.5 375.5,231.5C 375.5,242.167 375.5,252.833 375.5,263.5C 391.5,263.5 407.5,263.5 423.5,263.5C 423.5,252.833 423.5,242.167 423.5,231.5C 428.833,231.5 434.167,231.5 439.5,231.5C 439.5,258.167 439.5,284.833 439.5,311.5C 412.833,311.5 386.167,311.5 359.5,311.5C 359.5,284.833 359.5,258.167 359.5,231.5 Z"/></g>
<g><path style="opacity:1" fill="#b17945" d="M 391.5,231.5 C 396.833,231.5 402.167,231.5 407.5,231.5C 407.5,236.833 407.5,242.167 407.5,247.5C 402.167,247.5 396.833,247.5 391.5,247.5C 391.5,242.167 391.5,236.833 391.5,231.5 Z"/></g>
<g><path style="opacity:1" fill="#39aad4" d="M 131.5,256.5 C 141.276,258.214 150.609,261.381 159.5,266C 152.644,271.691 145.644,277.191 138.5,282.5C 134.245,274.991 130.245,267.324 126.5,259.5C 128.145,258.304 129.811,257.304 131.5,256.5 Z"/></g>
<g><path style="opacity:1" fill="#39aad4" d="M 212.5,256.5 C 216.814,256.272 220.814,257.272 224.5,259.5C 220.755,267.324 216.755,274.991 212.5,282.5C 205.356,277.191 198.356,271.691 191.5,266C 198.693,263.109 205.693,259.942 212.5,256.5 Z"/></g>
<g><path style="opacity:1" fill="#4ec0e8" d="M 110.5,265.5 C 118.226,279.279 125.726,293.279 133,307.5C 139.357,302.309 145.857,297.309 152.5,292.5C 155.03,296.226 157.03,300.226 158.5,304.5C 154.434,317.198 150.267,329.865 146,342.5C 140.917,343.307 135.75,343.807 130.5,344C 126.388,345.779 123.222,348.612 121,352.5C 119.568,360.054 119.068,367.721 119.5,375.5C 108.833,375.5 98.1667,375.5 87.5,375.5C 87.5,364.833 87.5,354.167 87.5,343.5C 82.1667,343.5 76.8333,343.5 71.5,343.5C 71.5,354.167 71.5,364.833 71.5,375.5C 60.8333,375.5 50.1667,375.5 39.5,375.5C 39.5,380.833 39.5,386.167 39.5,391.5C 60.8333,391.5 82.1667,391.5 103.5,391.5C 103.5,402.167 103.5,412.833 103.5,423.5C 89.1628,423.667 74.8295,423.5 60.5,423C 32.0192,414.218 20.1859,395.052 25,365.5C 40.6956,321.041 69.1956,287.707 110.5,265.5 Z"/></g>
<g><path style="opacity:1" fill="#4ec0e8" d="M 239.5,265.5 C 286.421,289.08 315.755,326.413 327.5,377.5C 326.04,403.125 312.707,418.292 287.5,423C 274.171,423.5 260.837,423.667 247.5,423.5C 247.5,412.833 247.5,402.167 247.5,391.5C 268.833,391.5 290.167,391.5 311.5,391.5C 311.5,386.167 311.5,380.833 311.5,375.5C 300.833,375.5 290.167,375.5 279.5,375.5C 279.5,364.833 279.5,354.167 279.5,343.5C 274.167,343.5 268.833,343.5 263.5,343.5C 263.5,354.167 263.5,364.833 263.5,375.5C 252.833,375.5 242.167,375.5 231.5,375.5C 231.932,367.721 231.432,360.054 230,352.5C 228.167,349.333 225.667,346.833 222.5,345C 216.664,343.954 210.831,343.121 205,342.5C 200.733,329.865 196.566,317.198 192.5,304.5C 193.97,300.226 195.97,296.226 198.5,292.5C 205.143,297.309 211.643,302.309 218,307.5C 225.435,293.63 232.602,279.63 239.5,265.5 Z"/></g>
<g><path style="opacity:1" fill="#f5d16d" d="M 173.5,274.5 C 178.069,275.866 182.069,278.366 185.5,282C 183.167,286.333 180.833,290.667 178.5,295C 176.5,295.667 174.5,295.667 172.5,295C 170.167,290.667 167.833,286.333 165.5,282C 168.432,279.715 171.098,277.215 173.5,274.5 Z"/></g>
<g><path style="opacity:1" fill="#f6e1a1" d="M 172.5,311.5 C 174.5,311.5 176.5,311.5 178.5,311.5C 181.426,321.944 184.759,332.277 188.5,342.5C 179.833,343.833 171.167,343.833 162.5,342.5C 166.241,332.277 169.574,321.944 172.5,311.5 Z"/></g>
<g><path style="opacity:1" fill="#d29f6b" d="M 326.5,328.5 C 331.975,327.511 337.642,327.178 343.5,327.5C 343.5,338.167 343.5,348.833 343.5,359.5C 364.833,359.5 386.167,359.5 407.5,359.5C 407.5,348.833 407.5,338.167 407.5,327.5C 418.167,327.5 428.833,327.5 439.5,327.5C 439.5,370.167 439.5,412.833 439.5,455.5C 396.833,455.5 354.167,455.5 311.5,455.5C 311.169,447.472 311.502,439.472 312.5,431.5C 337.165,415.355 346.999,392.689 342,363.5C 337.882,351.272 332.715,339.606 326.5,328.5 Z"/></g>
<g><path style="opacity:1" fill="#b17945" d="M 359.5,327.5 C 370.167,327.5 380.833,327.5 391.5,327.5C 391.5,332.833 391.5,338.167 391.5,343.5C 380.833,343.5 370.167,343.5 359.5,343.5C 359.5,338.167 359.5,332.833 359.5,327.5 Z"/></g>
<g><path style="opacity:1" fill="#e4e7eb" d="M 135.5,359.5 C 162.167,359.5 188.833,359.5 215.5,359.5C 215.5,364.833 215.5,370.167 215.5,375.5C 196.542,376.957 185.876,387.124 183.5,406C 184.497,426.495 195.164,437.662 215.5,439.5C 215.5,444.833 215.5,450.167 215.5,455.5C 188.833,455.5 162.167,455.5 135.5,455.5C 135.5,450.167 135.5,444.833 135.5,439.5C 159.704,435.785 169.87,421.785 166,397.5C 160.48,383.825 150.314,376.491 135.5,375.5C 135.5,370.167 135.5,364.833 135.5,359.5 Z"/></g>
<g><path style="opacity:1" fill="#edceb2" d="M 119.5,391.5 C 126.508,391.334 133.508,391.5 140.5,392C 150.405,396.644 153.572,404.144 150,414.5C 147.685,418.817 144.185,421.65 139.5,423C 132.842,423.5 126.175,423.666 119.5,423.5C 119.5,412.833 119.5,402.167 119.5,391.5 Z"/></g>
<g><path style="opacity:1" fill="#eeceb2" d="M 210.5,391.5 C 217.5,391.5 224.5,391.5 231.5,391.5C 231.5,402.167 231.5,412.833 231.5,423.5C 224.492,423.666 217.492,423.5 210.5,423C 200.08,417.496 197.247,409.329 202,398.5C 204.441,395.546 207.275,393.213 210.5,391.5 Z"/></g>
<g><path style="opacity:1" fill="#4ec0e8" d="M 87.5,439.5 C 98.1667,439.5 108.833,439.5 119.5,439.5C 119.334,446.175 119.5,452.842 120,459.5C 121.35,464.185 124.183,467.685 128.5,470C 143.911,471.152 159.411,471.652 175,471.5C 190.898,471.644 206.731,471.144 222.5,470C 226.817,467.685 229.65,464.185 231,459.5C 231.5,452.842 231.666,446.175 231.5,439.5C 242.167,439.5 252.833,439.5 263.5,439.5C 263.5,455.5 263.5,471.5 263.5,487.5C 204.833,487.5 146.167,487.5 87.5,487.5C 87.5,471.5 87.5,455.5 87.5,439.5 Z"/></g>
</svg>
