<?xml version="1.0" encoding="UTF-8"?>
<!DOCTYPE svg PUBLIC "-//W3C//DTD SVG 1.1//EN" "http://www.w3.org/Graphics/SVG/1.1/DTD/svg11.dtd">
<svg xmlns="http://www.w3.org/2000/svg" version="1.1" width="512px" height="512px" style="shape-rendering:geometricPrecision; text-rendering:geometricPrecision; image-rendering:optimizeQuality; fill-rule:evenodd; clip-rule:evenodd" xmlns:xlink="http://www.w3.org/1999/xlink">
<g><path style="opacity:0.978" fill="#5a4146" d="M 233.5,69.5 C 207.563,79.3902 200.396,97.0569 212,122.5C 217.062,129.271 223.562,133.938 231.5,136.5C 219.407,137.632 207.407,139.466 195.5,142C 193.376,143.122 191.543,144.622 190,146.5C 189.924,156.573 189.258,166.573 188,176.5C 182.559,183.089 177.393,189.755 172.5,196.5C 169.701,186.931 167.201,177.264 165,167.5C 164.333,153.5 164.333,139.5 165,125.5C 173.297,89.0348 196.131,70.3682 233.5,69.5 Z"/></g>
<g><path style="opacity:1" fill="#694b4b" d="M 233.5,69.5 C 267.168,69.3333 300.835,69.5 334.5,70C 339.91,71.7425 343.744,75.2425 346,80.5C 346.667,109.5 346.667,138.5 346,167.5C 344.278,176.333 341.945,184.999 339,193.5C 338.503,196.146 338.336,198.813 338.5,201.5C 337.924,197.768 336.757,194.102 335,190.5C 329.53,186.036 325.197,180.703 322,174.5C 321.506,172.866 321.34,171.199 321.5,169.5C 322.372,164.553 321.039,160.387 317.5,157C 302.765,146.751 286.431,140.418 268.5,138C 256.199,136.748 243.866,136.248 231.5,136.5C 223.562,133.938 217.062,129.271 212,122.5C 200.396,97.0569 207.563,79.3902 233.5,69.5 Z"/></g>
<g><path style="opacity:1" fill="#e5ae78" d="M 231.5,136.5 C 243.866,136.248 256.199,136.748 268.5,138C 286.431,140.418 302.765,146.751 317.5,157C 321.039,160.387 322.372,164.553 321.5,169.5C 292.934,157.075 263.268,153.575 232.5,159C 228.281,161.552 225.114,165.052 223,169.5C 222.833,182 222.667,194.5 222.5,207C 222.396,221.867 222.896,236.7 224,251.5C 227.387,267.622 234.887,281.289 246.5,292.5C 231.381,290.686 217.714,285.353 205.5,276.5C 180.268,255.998 169.268,229.331 172.5,196.5C 177.393,189.755 182.559,183.089 188,176.5C 189.258,166.573 189.924,156.573 190,146.5C 191.543,144.622 193.376,143.122 195.5,142C 207.407,139.466 219.407,137.632 231.5,136.5 Z"/></g>
<g><path style="opacity:0.996" fill="#efbf86" d="M 321.5,169.5 C 321.34,171.199 321.506,172.866 322,174.5C 325.197,180.703 329.53,186.036 335,190.5C 336.757,194.102 337.924,197.768 338.5,201.5C 340.232,232.348 329.232,257.348 305.5,276.5C 287.854,288.83 268.188,294.164 246.5,292.5C 234.887,281.289 227.387,267.622 224,251.5C 222.896,236.7 222.396,221.867 222.5,207C 222.667,194.5 222.833,182 223,169.5C 225.114,165.052 228.281,161.552 232.5,159C 263.268,153.575 292.934,157.075 321.5,169.5 Z"/></g>
<g><path style="opacity:0.986" fill="#694b4b" d="M 478.5,263.5 C 477.348,257.834 474.348,253.334 469.5,250C 448.932,237.987 426.932,233.487 403.5,236.5C 386.102,229.074 382.768,217.407 393.5,201.5C 396.626,197.762 400.626,195.262 405.5,194C 428.833,193.333 452.167,193.333 475.5,194C 480.573,195.406 484.073,198.572 486,203.5C 489.007,224.278 486.507,244.278 478.5,263.5 Z"/></g>
<g><path style="opacity:0.971" fill="#5a4146" d="M 66.5,197.5 C 51.4877,205.833 46.9877,218.166 53,234.5C 55.6961,238.361 58.8627,241.694 62.5,244.5C 61.1266,244.343 59.7932,244.51 58.5,245C 51.4475,257.719 41.4475,267.386 28.5,274C 26.9512,275.214 25.7845,276.714 25,278.5C 25.866,296.191 33.6993,309.857 48.5,319.5C 48.5,325.5 48.5,331.5 48.5,337.5C 48.0195,340.834 46.3528,343.167 43.5,344.5C 30.2682,342.59 17.6016,338.757 5.5,333C 1.67295,329.692 0.506281,325.526 2,320.5C 9.35442,297.376 14.0211,273.709 16,249.5C 19.8067,227.373 31.6401,211.206 51.5,201C 56.302,198.897 61.302,197.731 66.5,197.5 Z"/></g>
<g><path style="opacity:1" fill="#694b4b" d="M 104.5,345.5 C 101.672,344.004 100.006,341.671 99.5,338.5C 98.6803,332.203 98.347,325.869 98.5,319.5C 108.041,313.293 115.041,304.96 119.5,294.5C 121.782,289.876 123.115,284.876 123.5,279.5C 123.205,277.029 122.205,274.863 120.5,273C 103.463,258.982 84.1294,249.482 62.5,244.5C 58.8627,241.694 55.6961,238.361 53,234.5C 46.9877,218.166 51.4877,205.833 66.5,197.5C 98.116,194.904 119.616,208.571 131,238.5C 134.254,268.024 140.087,297.024 148.5,325.5C 147.74,330.761 144.74,333.927 139.5,335C 128.121,339.593 116.454,343.093 104.5,345.5 Z"/></g>
<g><path style="opacity:0.952" fill="#5a4146" d="M 393.5,201.5 C 382.768,217.407 386.102,229.074 403.5,236.5C 396.236,242.26 389.403,248.593 383,255.5C 380.879,259.053 379.379,262.72 378.5,266.5C 372.248,252.492 369.748,237.825 371,222.5C 373.519,210.147 381.019,203.147 393.5,201.5 Z"/></g>
<g><path style="opacity:1" fill="#e5ae78" d="M 478.5,263.5 C 478.5,263.833 478.5,264.167 478.5,264.5C 474.007,261.491 469.007,259.324 463.5,258C 447.415,253.891 431.082,252.224 414.5,253C 410.114,254.93 406.948,258.097 405,262.5C 404.333,275.833 404.333,289.167 405,302.5C 407.11,310.048 410.277,317.048 414.5,323.5C 410.725,322.445 407.058,321.112 403.5,319.5C 384.781,307.05 376.448,289.384 378.5,266.5C 379.379,262.72 380.879,259.053 383,255.5C 389.403,248.593 396.236,242.26 403.5,236.5C 426.932,233.487 448.932,237.987 469.5,250C 474.348,253.334 477.348,257.834 478.5,263.5 Z"/></g>
<g><path style="opacity:1" fill="#e5ae77" d="M 62.5,244.5 C 84.1294,249.482 103.463,258.982 120.5,273C 122.205,274.863 123.205,277.029 123.5,279.5C 123.115,284.876 121.782,289.876 119.5,294.5C 104.461,279.995 86.961,269.328 67,262.5C 62.3751,269.459 56.7085,275.459 50,280.5C 46.0568,298.235 50.8901,312.902 64.5,324.5C 58.9079,323.636 53.5746,321.969 48.5,319.5C 33.6993,309.857 25.866,296.191 25,278.5C 25.7845,276.714 26.9512,275.214 28.5,274C 41.4475,267.386 51.4475,257.719 58.5,245C 59.7932,244.51 61.1266,244.343 62.5,244.5 Z"/></g>
<g><path style="opacity:0.994" fill="#efbf86" d="M 478.5,264.5 C 481.345,285.14 475.011,302.307 459.5,316C 457.922,317.094 456.255,317.928 454.5,318.5C 441.855,325.384 428.521,327.051 414.5,323.5C 410.277,317.048 407.11,310.048 405,302.5C 404.333,289.167 404.333,275.833 405,262.5C 406.948,258.097 410.114,254.93 414.5,253C 431.082,252.224 447.415,253.891 463.5,258C 469.007,259.324 474.007,261.491 478.5,264.5 Z"/></g>
<g><path style="opacity:1" fill="#efbf86" d="M 119.5,294.5 C 115.041,304.96 108.041,313.293 98.5,319.5C 93.581,321.482 88.581,323.316 83.5,325C 76.9863,325.82 70.6529,325.653 64.5,324.5C 50.8901,312.902 46.0568,298.235 50,280.5C 56.7085,275.459 62.3751,269.459 67,262.5C 86.961,269.328 104.461,279.995 119.5,294.5 Z"/></g>
<g><path style="opacity:1" fill="#d29b6e" d="M 205.5,276.5 C 217.714,285.353 231.381,290.686 246.5,292.5C 268.188,294.164 287.854,288.83 305.5,276.5C 305.5,283.167 305.5,289.833 305.5,296.5C 297.308,299.954 288.975,303.121 280.5,306C 259.423,310.432 238.756,309.099 218.5,302C 214.365,299.597 210.032,297.763 205.5,296.5C 205.5,289.833 205.5,283.167 205.5,276.5 Z"/></g>
<g><path style="opacity:0.994" fill="#e5ae77" d="M 205.5,296.5 C 210.032,297.763 214.365,299.597 218.5,302C 238.756,309.099 259.423,310.432 280.5,306C 288.975,303.121 297.308,299.954 305.5,296.5C 305.5,301.5 305.5,306.5 305.5,311.5C 289.132,321.841 272.465,331.841 255.5,341.5C 238.555,331.873 221.889,321.873 205.5,311.5C 205.5,306.5 205.5,301.5 205.5,296.5 Z"/></g>
<g><path style="opacity:0.992" fill="#d23c69" d="M 205.5,311.5 C 221.889,321.873 238.555,331.873 255.5,341.5C 272.465,331.841 289.132,321.841 305.5,311.5C 308.755,311.014 311.422,312.014 313.5,314.5C 316.981,319.795 319.648,325.462 321.5,331.5C 311.871,344.575 301.871,357.408 291.5,370C 288.366,370.79 285.366,370.457 282.5,369C 278.667,365.167 274.833,361.333 271,357.5C 270.817,360.365 270.317,363.031 269.5,365.5C 269.665,362.15 269.498,358.817 269,355.5C 264.652,350.985 260.152,346.651 255.5,342.5C 250.848,346.651 246.348,350.985 242,355.5C 241.502,358.817 241.335,362.15 241.5,365.5C 240.683,363.031 240.183,360.365 240,357.5C 236.167,361.333 232.333,365.167 228.5,369C 225.634,370.457 222.634,370.79 219.5,370C 209.129,357.408 199.129,344.575 189.5,331.5C 191.498,323.997 195.165,317.497 200.5,312C 202.134,311.506 203.801,311.34 205.5,311.5 Z"/></g>
<g><path style="opacity:1" fill="#d19a6e" d="M 48.5,319.5 C 53.5746,321.969 58.9079,323.636 64.5,324.5C 70.6529,325.653 76.9863,325.82 83.5,325C 88.581,323.316 93.581,321.482 98.5,319.5C 98.347,325.869 98.6803,332.203 99.5,338.5C 95.4787,338.318 91.4787,339.151 87.5,341C 74.1472,343.618 61.1472,342.451 48.5,337.5C 48.5,331.5 48.5,325.5 48.5,319.5 Z"/></g>
<g><path style="opacity:1" fill="#d29c6e" d="M 454.5,318.5 C 454.5,322.5 454.5,326.5 454.5,330.5C 452.833,331.833 451.167,333.167 449.5,334.5C 435.348,338.784 421.348,338.45 407.5,333.5C 406.128,332.488 404.795,331.488 403.5,330.5C 403.5,326.833 403.5,323.167 403.5,319.5C 407.058,321.112 410.725,322.445 414.5,323.5C 428.521,327.051 441.855,325.384 454.5,318.5 Z"/></g>
<g><path style="opacity:0.993" fill="#fe4f7c" d="M 189.5,331.5 C 199.129,344.575 209.129,357.408 219.5,370C 222.634,370.79 225.634,370.457 228.5,369C 232.333,365.167 236.167,361.333 240,357.5C 240.183,360.365 240.683,363.031 241.5,365.5C 241.833,367.833 243.167,369.167 245.5,369.5C 243.245,393.478 241.245,417.478 239.5,441.5C 214.5,441.5 189.5,441.5 164.5,441.5C 164.667,429.829 164.5,418.162 164,406.5C 162.721,401.275 160.388,396.609 157,392.5C 145.965,381.632 135.131,370.632 124.5,359.5C 125.11,358.609 125.443,357.609 125.5,356.5C 128.351,354.495 131.351,352.662 134.5,351C 152.831,344.39 171.164,337.89 189.5,331.5 Z"/></g>
<g><path style="opacity:0.995" fill="#fe507c" d="M 321.5,331.5 C 336.645,336.437 351.645,341.77 366.5,347.5C 371.107,349.548 375.773,351.715 380.5,354C 382.996,355.331 384.996,357.164 386.5,359.5C 375.869,370.632 365.035,381.632 354,392.5C 350.612,396.609 348.279,401.275 347,406.5C 346.5,418.162 346.333,429.829 346.5,441.5C 321.5,441.5 296.5,441.5 271.5,441.5C 269.755,417.478 267.755,393.478 265.5,369.5C 267.833,369.167 269.167,367.833 269.5,365.5C 270.317,363.031 270.817,360.365 271,357.5C 274.833,361.333 278.667,365.167 282.5,369C 285.366,370.457 288.366,370.79 291.5,370C 301.871,357.408 311.871,344.575 321.5,331.5 Z"/></g>
<g><path style="opacity:0.991" fill="#c7cee1" d="M 403.5,330.5 C 404.795,331.488 406.128,332.488 407.5,333.5C 414.47,340.3 421.636,346.967 429,353.5C 436.03,347.3 442.863,340.967 449.5,334.5C 451.167,333.167 452.833,331.833 454.5,330.5C 455.822,330.33 456.989,330.663 458,331.5C 459.777,334.059 461.277,336.726 462.5,339.5C 458.574,347.851 454.241,356.017 449.5,364C 447.635,365.301 445.635,365.635 443.5,365C 441.34,363.668 439.34,362.168 437.5,360.5C 434.766,358.381 431.933,356.381 429,354.5C 425.719,355.96 422.886,357.96 420.5,360.5C 417.48,363.68 413.813,365.18 409.5,365C 405.957,360.084 402.79,354.917 400,349.5C 397.928,346.029 396.428,342.362 395.5,338.5C 396.44,336.388 397.606,334.388 399,332.5C 400.11,330.963 401.61,330.297 403.5,330.5 Z"/></g>
<g><path style="opacity:1" fill="#e5af7a" d="M 407.5,333.5 C 421.348,338.45 435.348,338.784 449.5,334.5C 442.863,340.967 436.03,347.3 429,353.5C 421.636,346.967 414.47,340.3 407.5,333.5 Z"/></g>
<g><path style="opacity:0.991" fill="#e5af78" d="M 48.5,337.5 C 61.1472,342.451 74.1472,343.618 87.5,341C 91.4787,339.151 95.4787,338.318 99.5,338.5C 100.006,341.671 101.672,344.004 104.5,345.5C 107.997,348.083 111.664,350.416 115.5,352.5C 101.076,371.699 82.0761,378.533 58.5,373C 53.0552,371.112 48.0552,368.445 43.5,365C 39.2688,360.938 35.2688,356.771 31.5,352.5C 35.8441,350.329 39.8441,347.663 43.5,344.5C 46.3528,343.167 48.0195,340.834 48.5,337.5 Z"/></g>
<g><path style="opacity:0.992" fill="#d5dbec" d="M 395.5,338.5 C 396.428,342.362 397.928,346.029 400,349.5C 402.79,354.917 405.957,360.084 409.5,365C 413.813,365.18 417.48,363.68 420.5,360.5C 420.336,363.187 420.503,365.854 421,368.5C 421.708,369.381 422.542,370.047 423.5,370.5C 422.532,394.168 421.532,417.835 420.5,441.5C 410.5,441.5 400.5,441.5 390.5,441.5C 393.2,439.954 395.033,437.621 396,434.5C 396.667,415.833 396.667,397.167 396,378.5C 394.923,371.013 391.757,364.68 386.5,359.5C 384.996,357.164 382.996,355.331 380.5,354C 375.773,351.715 371.107,349.548 366.5,347.5C 376.419,345.081 386.086,342.081 395.5,338.5 Z"/></g>
<g><path style="opacity:0.992" fill="#d4dbec" d="M 462.5,339.5 C 474.572,342.685 486.572,346.185 498.5,350C 502,352.334 505,355.168 507.5,358.5C 497.094,367.405 487.927,377.405 480,388.5C 478.555,406.111 478.055,423.777 478.5,441.5C 464.833,441.5 451.167,441.5 437.5,441.5C 436.228,417.846 435.228,394.179 434.5,370.5C 437.142,367.808 438.142,364.475 437.5,360.5C 439.34,362.168 441.34,363.668 443.5,365C 445.635,365.635 447.635,365.301 449.5,364C 454.241,356.017 458.574,347.851 462.5,339.5 Z"/></g>
<g><path style="opacity:1" fill="#5d5c6e" d="M 269.5,365.5 C 269.167,367.833 267.833,369.167 265.5,369.5C 258.833,370.833 252.167,370.833 245.5,369.5C 243.167,369.167 241.833,367.833 241.5,365.5C 241.335,362.15 241.502,358.817 242,355.5C 246.348,350.985 250.848,346.651 255.5,342.5C 260.152,346.651 264.652,350.985 269,355.5C 269.498,358.817 269.665,362.15 269.5,365.5 Z"/></g>
<g><path style="opacity:1" fill="#d5dbec" d="M 31.5,352.5 C 35.2688,356.771 39.2688,360.938 43.5,365C 48.0552,368.445 53.0552,371.112 58.5,373C 82.0761,378.533 101.076,371.699 115.5,352.5C 118.833,353.833 122.167,355.167 125.5,356.5C 125.443,357.609 125.11,358.609 124.5,359.5C 119.243,364.68 116.077,371.013 115,378.5C 114.333,397.167 114.333,415.833 115,434.5C 115.967,437.621 117.8,439.954 120.5,441.5C 91.1667,441.5 61.8333,441.5 32.5,441.5C 32.9554,425.096 32.4554,408.763 31,392.5C 22.8703,384.019 14.0369,376.352 4.5,369.5C 6.57674,365.776 9.57674,362.943 13.5,361C 19.4008,357.882 25.4008,355.049 31.5,352.5 Z"/></g>
<g><path style="opacity:1" fill="#969db6" d="M 437.5,360.5 C 438.142,364.475 437.142,367.808 434.5,370.5C 430.833,370.5 427.167,370.5 423.5,370.5C 422.542,370.047 421.708,369.381 421,368.5C 420.503,365.854 420.336,363.187 420.5,360.5C 422.886,357.96 425.719,355.96 429,354.5C 431.933,356.381 434.766,358.381 437.5,360.5 Z"/></g>
<g><path style="opacity:1" fill="#c7cfe2" d="M 507.5,358.5 C 509.1,360.703 510.433,363.036 511.5,365.5C 511.5,389.5 511.5,413.5 511.5,437.5C 510.038,438.458 508.705,439.624 507.5,441C 497.839,441.5 488.172,441.666 478.5,441.5C 478.055,423.777 478.555,406.111 480,388.5C 487.927,377.405 497.094,367.405 507.5,358.5 Z"/></g>
<g><path style="opacity:1" fill="#d23d6a" d="M 124.5,359.5 C 135.131,370.632 145.965,381.632 157,392.5C 160.388,396.609 162.721,401.275 164,406.5C 164.5,418.162 164.667,429.829 164.5,441.5C 149.833,441.5 135.167,441.5 120.5,441.5C 117.8,439.954 115.967,437.621 115,434.5C 114.333,415.833 114.333,397.167 115,378.5C 116.077,371.013 119.243,364.68 124.5,359.5 Z"/></g>
<g><path style="opacity:1" fill="#d23d6a" d="M 386.5,359.5 C 391.757,364.68 394.923,371.013 396,378.5C 396.667,397.167 396.667,415.833 396,434.5C 395.033,437.621 393.2,439.954 390.5,441.5C 375.833,441.5 361.167,441.5 346.5,441.5C 346.333,429.829 346.5,418.162 347,406.5C 348.279,401.275 350.612,396.609 354,392.5C 365.035,381.632 375.869,370.632 386.5,359.5 Z"/></g>
<g><path style="opacity:1" fill="#c7cfe1" d="M 4.5,369.5 C 14.0369,376.352 22.8703,384.019 31,392.5C 32.4554,408.763 32.9554,425.096 32.5,441.5C 22.8276,441.666 13.1609,441.5 3.5,441C 2.29493,439.624 0.961599,438.458 -0.5,437.5C -0.5,417.167 -0.5,396.833 -0.5,376.5C 0.921263,373.991 2.58793,371.657 4.5,369.5 Z"/></g>
<g><path style="opacity:1" fill="#727386" d="M 245.5,369.5 C 252.167,370.833 258.833,370.833 265.5,369.5C 267.755,393.478 269.755,417.478 271.5,441.5C 260.833,441.5 250.167,441.5 239.5,441.5C 241.245,417.478 243.245,393.478 245.5,369.5 Z"/></g>
<g><path style="opacity:1" fill="#b0bad3" d="M 423.5,370.5 C 427.167,370.5 430.833,370.5 434.5,370.5C 435.228,394.179 436.228,417.846 437.5,441.5C 431.833,441.5 426.167,441.5 420.5,441.5C 421.532,417.835 422.532,394.168 423.5,370.5 Z"/></g>
</svg>
