<?xml version="1.0" encoding="UTF-8"?>
<svg version="1.1" xmlns="http://www.w3.org/2000/svg" width="512" height="512">
<path d="M0 0 C0.6985762 -0.00686325 1.3971524 -0.0137265 2.11689758 -0.02079773 C4.4057805 -0.03896534 6.69397123 -0.03524238 8.98291016 -0.02954102 C10.5880251 -0.03410819 12.1931381 -0.03941536 13.79824829 -0.04542542 C17.15545618 -0.05433721 20.51242595 -0.05195619 23.86962891 -0.04199219 C28.15220449 -0.03051456 32.433954 -0.05070473 36.71642113 -0.07990932 C40.0297866 -0.09833983 43.3429567 -0.09796515 46.65636063 -0.0922718 C48.23427106 -0.09211937 49.8121954 -0.09809847 51.39005661 -0.11056328 C69.47635847 -0.23331211 69.47635847 -0.23331211 76.76806641 6.30639648 C80.89961636 12.69374819 81.97291037 18.88477172 82.64697266 26.40405273 C83.59056641 26.3518457 83.59056641 26.3518457 84.55322266 26.29858398 C91.53154636 26.07788399 97.36210512 26.348362 102.66259766 31.27905273 C107.9927075 37.17250752 109.05041835 41.39801362 109.00244141 49.31420898 C108.48045406 53.85148363 106.69959822 57.05046409 103.64697266 60.40405273 C102.65697266 61.06405273 101.66697266 61.72405273 100.64697266 62.40405273 C100.09694613 66.65243468 100.46805748 70.94323268 100.64697266 75.21655273 C100.66630859 76.40571289 100.68564453 77.59487305 100.70556641 78.82006836 C100.96690182 85.8721649 101.44720052 88.49178775 106.64697266 93.40405273 C107.38396582 96.93272122 107.30042339 100.37522796 107.20947266 103.96655273 C107.22042969 104.91208008 107.23138672 105.85760742 107.24267578 106.83178711 C107.17057712 113.63309429 107.17057712 113.63309429 104.87744141 117.00952148 C102.54680275 118.46668086 101.11846648 118.97261981 98.39697266 119.15405273 C97.15947266 119.23655273 95.92197266 119.31905273 94.64697266 119.40405273 C94.69337891 120.05631836 94.73978516 120.70858398 94.78759766 121.38061523 C95.03366563 127.33897549 94.67961856 130.69929918 90.64697266 135.40405273 C90.06947266 136.14655273 89.49197266 136.88905273 88.89697266 137.65405273 C82.01601032 143.00591233 71.87024049 141.96051447 63.64697266 141.40405273 C58.73414946 140.58639405 55.07314386 139.29016059 51.70947266 135.52905273 C47.66260876 129.39744077 47.64697266 127.32160148 47.64697266 119.40405273 C35.43697266 119.40405273 23.22697266 119.40405273 10.64697266 119.40405273 C10.64697266 122.37405273 10.64697266 125.34405273 10.64697266 128.40405273 C8.85828563 133.57137082 6.11666947 136.30964725 1.64697266 139.40405273 C-7.36934798 142.52174433 -18.47395809 143.09718514 -27.48193359 139.52124023 C-31.3880229 137.18900319 -34.55553632 133.79652582 -36.00537109 129.44702148 C-36.57797318 126.08218 -36.40983903 122.81275393 -36.35302734 119.40405273 C-38.30615234 119.30639648 -40.25927734 119.20874023 -42.21240234 119.11108398 C-45.58788036 117.9961907 -46.58079054 116.46518903 -48.35302734 113.40405273 C-48.89880457 110.22108879 -48.86699573 107.12559172 -48.79052734 103.90405273 C-48.79761719 103.06229492 -48.80470703 102.22053711 -48.81201172 101.35327148 C-48.76317822 96.58261429 -48.47632709 93.2528133 -45.35302734 89.40405273 C-44.36302734 88.90905273 -44.36302734 88.90905273 -43.35302734 88.40405273 C-43.00911133 84.21914259 -42.73730669 80.03249047 -42.47802734 75.84155273 C-42.38005859 74.66012695 -42.28208984 73.47870117 -42.18115234 72.26147461 C-41.66125106 64.6385686 -41.66125106 64.6385686 -45.25927734 58.21264648 C-46.28222948 57.26738884 -47.3123214 56.32972775 -48.35302734 55.40405273 C-50.89286297 51.01706393 -51.01348666 46.34924187 -50.35302734 41.40405273 C-48.49523197 35.5034413 -45.41647218 31.84719522 -40.35302734 28.40405273 C-35.24973968 26.08437652 -29.88072241 25.81917608 -24.35302734 25.40405273 C-24.21767578 24.48624023 -24.08232422 23.56842773 -23.94287109 22.62280273 C-22.55191185 14.69350216 -21.07426312 8.3454057 -14.35302734 3.40405273 C-9.33393116 0.91739136 -5.68917292 0.0245095 0 0 Z " fill="#020202" transform="translate(123.35302734375,25.595947265625)"/>
<path d="M0 0 C1.30873581 -0.00960754 2.61747162 -0.01921509 3.96586609 -0.02911377 C5.38845646 -0.03396347 6.81104888 -0.03824188 8.23364258 -0.04199219 C9.31681479 -0.04623325 9.31681479 -0.04623325 10.42186928 -0.05056 C14.24593086 -0.06552177 18.06995503 -0.07476929 21.89404297 -0.07910156 C25.8199399 -0.08457108 29.74548737 -0.10857527 33.67127514 -0.13707352 C36.71099302 -0.15581574 39.7506288 -0.16091169 42.79039955 -0.16243744 C44.23630997 -0.16544019 45.68221978 -0.17338707 47.12807274 -0.18662262 C65.25130168 -0.34063864 65.25130168 -0.34063864 72.84301758 4.78222656 C78.37253275 11.32478268 80.44067383 18.63125824 80.44067383 27.16113281 C81.28629883 27.103125 82.13192383 27.04511719 83.00317383 26.98535156 C89.43287691 26.72962474 94.52311101 26.56175771 99.78442383 30.56347656 C104.69513888 35.30046349 106.73567828 39.32052187 107.00317383 46.22363281 C106.70964285 52.88259264 104.83103625 56.54160667 100.32446289 61.48022461 C98.08199431 64.67158638 97.97094862 66.262029 98.05004883 70.11816406 C98.06293945 71.22998047 98.07583008 72.34179688 98.08911133 73.48730469 C98.13938477 75.21303711 98.13938477 75.21303711 98.19067383 76.97363281 C98.2087207 78.14345703 98.22676758 79.31328125 98.24536133 80.51855469 C98.29240942 83.40025062 98.35813673 86.28027078 98.44067383 89.16113281 C99.05942383 89.26425781 99.67817383 89.36738281 100.31567383 89.47363281 C102.44067383 90.16113281 102.44067383 90.16113281 104.44067383 93.16113281 C104.92246624 96.60316527 104.85705911 100.06393399 104.87817383 103.53613281 C104.92748047 104.95539063 104.92748047 104.95539063 104.9777832 106.40332031 C105.01403581 111.09638454 104.97847292 113.42234737 102.15161133 117.30566406 C98.718022 119.65574321 96.51663678 119.56073702 92.44067383 119.16113281 C92.48708008 119.80179687 92.53348633 120.44246094 92.58129883 121.10253906 C92.84656672 127.45949453 92.32188203 131.05427992 88.44067383 136.16113281 C81.97368767 141.17634657 76.98397738 141.36846721 69.12817383 141.41113281 C67.72148437 141.44207031 67.72148437 141.44207031 66.28637695 141.47363281 C59.93791056 141.50942403 55.46722475 140.89581509 50.57739258 136.47753906 C50.09915039 135.89875 49.6209082 135.31996094 49.12817383 134.72363281 C48.63704102 134.14742187 48.1459082 133.57121094 47.63989258 132.97753906 C44.65665376 128.45895258 45.44067383 124.82958876 45.44067383 119.16113281 C33.23067383 119.16113281 21.02067383 119.16113281 8.44067383 119.16113281 C8.44067383 122.13113281 8.44067383 125.10113281 8.44067383 128.16113281 C7.20700792 132.78375153 5.10975664 135.62859751 1.37817383 138.59863281 C-4.07793522 141.50081847 -8.70460196 141.41151262 -14.74682617 141.47363281 C-15.66786133 141.50263672 -16.58889648 141.53164063 -17.5378418 141.56152344 C-23.67905749 141.61818476 -28.49941972 140.82122912 -33.55932617 137.16113281 C-37.12892099 132.67625727 -38.70439147 129.17063818 -38.62182617 123.47363281 C-38.61280273 122.66539062 -38.6037793 121.85714844 -38.59448242 121.02441406 C-38.58288086 120.40953125 -38.5712793 119.79464844 -38.55932617 119.16113281 C-40.16807617 119.25394531 -40.16807617 119.25394531 -41.80932617 119.34863281 C-45.68614517 119.15479186 -46.92438686 118.89741595 -49.55932617 116.16113281 C-50.93896336 112.02222124 -50.82299664 108.12219505 -50.87182617 103.78613281 C-50.90083008 102.93535156 -50.92983398 102.08457031 -50.9597168 101.20800781 C-51.0024909 96.98324208 -50.91445153 94.7425133 -48.66479492 91.05957031 C-46.55932617 89.16113281 -46.55932617 89.16113281 -44.55932617 89.16113281 C-44.56456299 88.4853418 -44.5697998 87.80955078 -44.57519531 87.11328125 C-44.59600624 84.04590793 -44.60899946 80.97854948 -44.62182617 77.91113281 C-44.63020508 76.84765625 -44.63858398 75.78417969 -44.6472168 74.68847656 C-44.65043945 73.66367187 -44.65366211 72.63886719 -44.65698242 71.58300781 C-44.66221924 70.64038086 -44.66745605 69.69775391 -44.67285156 68.7265625 C-44.56900699 66.37989844 -44.22639146 64.40468803 -43.55932617 62.16113281 C-44.13682617 61.95488281 -44.71432617 61.74863281 -45.30932617 61.53613281 C-49.22783411 59.14148907 -51.13516391 55.43361959 -52.55932617 51.16113281 C-53.29085961 44.40943899 -52.85091187 38.61891028 -48.55932617 33.16113281 C-44.80631386 29.37576694 -41.43303123 27.35902975 -36.08276367 26.79394531 C-32.88436814 26.78697713 -29.74577424 26.89518506 -26.55932617 27.16113281 C-26.47295898 26.31550781 -26.3865918 25.46988281 -26.29760742 24.59863281 C-25.29777102 16.52655914 -24.19136168 9.90239226 -17.62963867 4.60253906 C-11.86164441 0.76083723 -6.9014288 0.04101278 0 0 Z " fill="#010202" transform="translate(125.559326171875,344.8388671875)"/>
<path d="M0 0 C1.65092192 -0.00269878 3.30184228 -0.0065844 4.95275879 -0.01159668 C8.40241725 -0.01747365 11.85165967 -0.00898742 15.30126953 0.00976562 C19.70612968 0.03255447 24.11001473 0.01942163 28.51483917 -0.00452423 C31.92082972 -0.0190313 35.32659201 -0.01435388 38.73258972 -0.00401306 C40.35597349 -0.0013593 41.9793785 -0.00456762 43.60273743 -0.01393127 C53.59946089 -0.0589496 61.04676764 0.04504346 68.90625 7.03125 C72.96221996 12.37526448 74.09375 19.99327566 74.09375 26.53125 C74.8671875 26.48484375 75.640625 26.4384375 76.4375 26.390625 C83.17286639 26.15722121 88.6626949 26.20652094 94.09375 30.53125 C99.274349 36.22990889 100.39866315 41.20663953 100.30859375 48.8125 C99.91716146 53.76589766 98.11971638 56.59644629 94.5 59.89453125 C90.54525904 64.59869815 91.5683746 70.60293916 91.78125 76.40625 C91.80380859 77.5715625 91.82636719 78.736875 91.84960938 79.9375 C91.90833703 82.80340945 91.99042125 85.66665922 92.09375 88.53125 C92.7125 88.82 93.33125 89.10875 93.96875 89.40625 C96.09375 90.53125 96.09375 90.53125 98.09375 92.53125 C98.57340793 96.13553674 98.46413426 99.77366521 98.46875 103.40625 C98.49324219 104.41300781 98.51773438 105.41976562 98.54296875 106.45703125 C98.57223091 113.80183244 98.57223091 113.80183244 96.3359375 117.2109375 C92.7319712 119.33313369 90.21027516 118.80568501 86.09375 118.53125 C86.12855469 119.18351562 86.16335937 119.83578125 86.19921875 120.5078125 C86.36835966 125.96864754 86.32594668 129.89843476 83.09375 134.53125 C76.84578424 140.81335765 71.32155339 140.79104361 62.90625 140.90625 C61.88982422 140.94363281 60.87339844 140.98101562 59.82617188 141.01953125 C52.98104011 141.09907442 48.32898256 140.10306235 43.09375 135.53125 C38.74411515 129.77850713 39.09375 125.89686727 39.09375 118.53125 C26.88375 118.53125 14.67375 118.53125 2.09375 118.53125 C2.09375 121.83125 2.09375 125.13125 2.09375 128.53125 C-0.0530857 133.46102087 -2.43314931 136.54918287 -6.90625 139.53125 C-11.57566958 141.08772319 -16.26485536 140.79829094 -21.15625 140.84375 C-22.18105469 140.87275391 -23.20585938 140.90175781 -24.26171875 140.93164062 C-30.73089236 140.98575855 -34.67415878 140.43077107 -39.90625 136.53125 C-43.42197521 131.99781486 -45.05154123 128.55634495 -44.96875 122.84375 C-44.95972656 122.03550781 -44.95070313 121.22726562 -44.94140625 120.39453125 C-44.92980469 119.77964844 -44.91820313 119.16476562 -44.90625 118.53125 C-45.958125 118.634375 -47.01 118.7375 -48.09375 118.84375 C-51.90625 118.53125 -51.90625 118.53125 -54.60546875 116.63671875 C-57.83827465 112.27325407 -57.64633616 108.82521352 -57.53125 103.53125 C-57.55058594 102.64179688 -57.56992188 101.75234375 -57.58984375 100.8359375 C-57.57087353 98.29392846 -57.46810537 96.01172495 -56.90625 93.53125 C-56.09285156 92.76554687 -55.27945313 91.99984375 -54.44140625 91.2109375 C-50.2568745 86.78784231 -50.8841865 81.52762378 -50.71875 75.65625 C-50.64333984 74.49738281 -50.56792969 73.33851563 -50.49023438 72.14453125 C-50.19471016 64.64936162 -50.19471016 64.64936162 -53.83203125 58.359375 C-54.84956145 57.40888959 -55.8732802 56.46493282 -56.90625 55.53125 C-59.44608562 51.1442612 -59.56670932 46.47643913 -58.90625 41.53125 C-57.04351183 35.61493956 -53.94356484 32.02652968 -48.90625 28.53125 C-45.15455814 26.71835192 -42.24434672 26.30623562 -38.09375 26.40625 C-36.63001953 26.43332031 -36.63001953 26.43332031 -35.13671875 26.4609375 C-34.40066406 26.48414063 -33.66460937 26.50734375 -32.90625 26.53125 C-32.83148438 25.69722656 -32.75671875 24.86320312 -32.6796875 24.00390625 C-31.80243271 16.49563732 -30.60026597 9.88450439 -24.90625 4.53125 C-17.17929155 -0.71858347 -8.97636227 -0.05177634 0 0 Z " fill="#010202" transform="translate(131.90625,185.46875)"/>
<path d="M0 0 C8.17019857 6.60534199 12.96353696 15.20393314 14.1328125 25.6796875 C14.49739097 36.78717813 11.91162759 45.68688737 4.73046875 54.24609375 C-2.83881956 61.90495944 -11.48171264 65.32769421 -22.125 65.6875 C-32.90557051 65.40899226 -41.55366668 61.85631772 -49.25 54.25 C-56.68898799 45.34600344 -58.93268134 36.54161063 -58.65625 25.03515625 C-57.58650604 15.0680226 -52.85495161 6.72829212 -45.25 0.25 C-30.84145452 -9.2093498 -14.38673974 -9.89764426 0 0 Z " fill="#F1C54A" transform="translate(491.25,383.75)"/>
<path d="M0 0 C8.29909892 6.05328542 14.24271521 13.1554376 16.3125 23.375 C17.39467054 33.90361754 16.64912786 43.29842165 10.39453125 52.0625 C3.41048474 60.36918894 -4.76083654 66.11883248 -15.6875 67.375 C-26.6386401 68.25815646 -36.13739272 64.72174728 -44.55859375 57.84765625 C-51.09964699 51.86927426 -55.28306288 43.9509282 -55.92578125 35.08984375 C-56.14455801 23.95525835 -54.85577115 15.69949241 -47.4375 7 C-34.58441426 -6.20895294 -16.1589782 -10.0297106 0 0 Z " fill="#F2C54B" transform="translate(488.6875,62.625)"/>
<path d="M0 0 C7.20597552 5.54227295 12.91997919 13.37125248 14.3125 22.5 C15.23088807 34.2641139 13.68623102 44.33336807 6.0703125 53.65234375 C-1.43119357 61.53726013 -8.66108963 65.46917014 -19.56787109 65.84960938 C-31.27259912 65.98981805 -39.06533084 63.60158536 -47.6875 55.5 C-55.70426632 46.91315252 -58.43037735 37.84240989 -58.06640625 26.18359375 C-57.00813603 15.89546166 -52.47735338 7.41814683 -44.5859375 0.71484375 C-30.94320518 -9.09538956 -13.91289207 -9.24998819 0 0 Z " fill="#F1C54A" transform="translate(490.6875,223.5)"/>
<path d="M0 0 C0.8946698 -0.0065712 1.7893396 -0.0131424 2.71112061 -0.01991272 C5.67566003 -0.03964259 8.64014877 -0.05130863 11.60473633 -0.0612793 C12.6180282 -0.06535482 13.63132008 -0.06943035 14.67531776 -0.07362938 C20.04021628 -0.09449038 25.40508923 -0.10879108 30.77001953 -0.11816406 C36.30371825 -0.12921888 41.83701381 -0.16360821 47.37057018 -0.20333576 C51.6317671 -0.22951942 55.89286828 -0.23785755 60.15413857 -0.24144554 C62.19342072 -0.2463082 64.23269869 -0.25791302 66.27190208 -0.27648354 C69.13211074 -0.30090831 71.99128084 -0.2999036 74.8515625 -0.29296875 C75.68770584 -0.30577881 76.52384918 -0.31858887 77.3853302 -0.33178711 C83.69251254 -0.2762915 89.05223614 1.22504773 93.77847576 5.58898449 C97.82775907 10.179035 99.51551244 14.41306669 99.44458008 20.4777832 C99.43958496 21.35861572 99.43458984 22.23944824 99.42944336 23.14697266 C99.41123535 24.25000732 99.39302734 25.35304199 99.37426758 26.48950195 C99.33301758 30.01637695 99.29176758 33.54325195 99.24926758 37.17700195 C87.36926758 37.17700195 75.48926758 37.17700195 63.24926758 37.17700195 C62.75426758 31.73200195 62.75426758 31.73200195 62.24926758 26.17700195 C59.80762661 21.11285773 57.36588015 19.30955685 52.24926758 17.17700195 C47.93749176 16.65536533 43.65005616 16.70344812 39.30883789 16.73095703 C37.25411192 16.73948185 35.20215817 16.71064141 33.14770508 16.67895508 C31.18704102 16.67992187 31.18704102 16.67992187 29.18676758 16.6809082 C27.40592773 16.67812866 27.40592773 16.67812866 25.58911133 16.67529297 C20.76669888 17.39971238 17.62669128 19.60958878 14.43676758 23.23950195 C12.60713025 27.35780688 12.60713025 27.35780688 12.24926758 37.17700195 C0.69926758 37.17700195 -10.85073242 37.17700195 -22.75073242 37.17700195 C-22.85385742 33.38200195 -22.95698242 29.58700195 -23.06323242 25.67700195 C-23.10875244 24.49686523 -23.15427246 23.31672852 -23.20117188 22.10083008 C-23.2914686 15.1986652 -22.44351128 10.41293798 -17.75073242 5.17700195 C-11.84723251 0.57227202 -7.28134671 0.0231356 0 0 Z " fill="#ADDB69" transform="translate(114.750732421875,396.822998046875)"/>
<path d="M0 0 C0.91738953 -0.0049649 1.83477905 -0.00992981 2.77996826 -0.01504517 C5.8190587 -0.02966647 8.85809694 -0.03646886 11.8972168 -0.04199219 C14.00847882 -0.0477438 16.11974082 -0.05350154 18.23100281 -0.05926514 C22.66035201 -0.06977513 27.08968305 -0.07561777 31.51904297 -0.07910156 C37.19186648 -0.0845853 42.86444985 -0.10861088 48.53719807 -0.13707352 C52.89953815 -0.15570693 57.26182049 -0.16090588 61.62419701 -0.16243744 C63.71535746 -0.16546306 65.80651692 -0.17348851 67.89763832 -0.18662262 C70.8251733 -0.20369705 73.75212279 -0.20179931 76.6796875 -0.1953125 C77.54172287 -0.20452728 78.40375824 -0.21374207 79.29191589 -0.22323608 C85.29903712 -0.18158743 89.57487328 0.87277468 94.1159668 5.09863281 C94.68702148 5.77925781 95.25807617 6.45988281 95.84643555 7.16113281 C96.43038086 7.84175781 97.01432617 8.52238281 97.6159668 9.22363281 C100.08035722 12.59095416 100.15389816 15.44790025 100.1315918 19.48535156 C100.12909424 20.41178467 100.12659668 21.33821777 100.12402344 22.29272461 C100.11491943 23.46617432 100.10581543 24.63962402 100.09643555 25.84863281 C100.07581055 29.58175781 100.05518555 33.31488281 100.03393555 37.16113281 C88.15393555 37.16113281 76.27393555 37.16113281 64.03393555 37.16113281 C63.53893555 31.22113281 63.53893555 31.22113281 63.03393555 25.16113281 C60.06419187 20.80550875 57.89371399 18.15690949 53.03393555 16.16113281 C48.44158084 15.70316733 43.83425375 15.7908135 39.22143555 15.78613281 C37.96266602 15.76164062 36.70389648 15.73714844 35.40698242 15.71191406 C28.41371076 15.68979512 23.64271996 15.8137299 18.03393555 20.16113281 C13.14467657 25.56505063 13.84527293 28.047759 13.03393555 36.16113281 C1.48393555 36.16113281 -10.06606445 36.16113281 -21.96606445 36.16113281 C-22.04856445 32.32488281 -22.13106445 28.48863281 -22.21606445 24.53613281 C-22.25248047 23.33778809 -22.28889648 22.13944336 -22.32641602 20.90478516 C-22.40471766 13.38403872 -21.62806008 9.93057086 -16.3684082 4.51660156 C-10.90309591 0.15892589 -6.77420696 0.00872312 0 0 Z " fill="#F8637C" transform="translate(113.966064453125,77.8388671875)"/>
<path d="M0 0 C0.92378448 -0.0065712 1.84756897 -0.0131424 2.79934692 -0.01991272 C5.86672034 -0.03967558 8.93404466 -0.05131684 12.00146484 -0.0612793 C13.04877148 -0.06535482 14.09607811 -0.06943035 15.17512131 -0.07362938 C20.72156325 -0.09450588 26.26798036 -0.10879904 31.81445312 -0.11816406 C37.53762431 -0.12921344 43.26040508 -0.16359205 48.98343849 -0.20333576 C53.38789581 -0.22951697 57.7922605 -0.23785741 62.19678879 -0.24144554 C64.30584719 -0.24630997 66.4149015 -0.25791983 68.52388382 -0.27648354 C71.48237974 -0.30089962 74.43987111 -0.29990491 77.3984375 -0.29296875 C78.2642041 -0.30577881 79.1299707 -0.31858887 80.02197266 -0.33178711 C86.59043531 -0.27588306 92.15335883 1.28033479 96.92724609 5.9934082 C97.47058594 6.85772461 97.47058594 6.85772461 98.02490234 7.73950195 C98.40517578 8.31829102 98.78544922 8.89708008 99.17724609 9.4934082 C100.98369175 12.83494501 101.20655802 15.56306969 101.18505859 19.2824707 C101.18256104 20.16829834 101.18006348 21.05412598 101.17749023 21.96679688 C101.16838623 23.08803955 101.15928223 24.20928223 101.14990234 25.36450195 C101.12927734 28.93262695 101.10865234 32.50075195 101.08740234 36.17700195 C89.20740234 36.17700195 77.32740234 36.17700195 65.08740234 36.17700195 C64.59240234 30.73200195 64.59240234 30.73200195 64.08740234 25.17700195 C62.03417692 20.75467026 59.96699607 18.62167394 55.44189453 16.7878418 C50.09512894 15.40069875 44.51093871 15.70837952 39.02490234 15.73950195 C37.77128906 15.71952148 36.51767578 15.69954102 35.22607422 15.67895508 C26.32047077 15.61323824 26.32047077 15.61323824 19.08740234 20.17700195 C14.25065471 25.66736413 14.90672653 27.98376005 14.08740234 36.17700195 C2.53740234 36.17700195 -9.01259766 36.17700195 -20.91259766 36.17700195 C-20.99509766 32.34075195 -21.07759766 28.50450195 -21.16259766 24.55200195 C-21.19901367 23.35365723 -21.23542969 22.1553125 -21.27294922 20.9206543 C-21.3381056 14.66248919 -21.18365239 10.88434723 -16.91259766 6.17700195 C-11.49739421 0.72293341 -7.47657415 0.02289955 0 0 Z " fill="#6ED3F6" transform="translate(112.91259765625,237.822998046875)"/>
<path d="M0 0 C1.30177689 -0.01283524 2.60355377 -0.02567047 3.94477844 -0.03889465 C5.36837381 -0.04706244 6.79197349 -0.0545061 8.21557617 -0.0612793 C8.93348516 -0.06535482 9.65139416 -0.06943035 10.39105797 -0.07362938 C14.19104091 -0.09447278 17.99098792 -0.10878187 21.79101562 -0.11816406 C25.70849988 -0.12922438 29.62541549 -0.16362408 33.54269886 -0.20333576 C36.56167125 -0.22952564 39.58050859 -0.23785795 42.59958458 -0.24144554 C44.0432386 -0.24630551 45.48688683 -0.25790283 46.93042946 -0.27648354 C48.95478169 -0.30092042 50.97941157 -0.29748572 53.00390625 -0.29296875 C54.72907219 -0.30176811 54.72907219 -0.30176811 56.48908997 -0.31074524 C60.42057103 0.28719545 62.60278585 1.72551743 65.69604492 4.17700195 C67.74509542 8.27510294 67.01326217 13.48507381 67.07104492 17.98950195 C67.12711914 19.63015625 67.12711914 19.63015625 67.18432617 21.30395508 C67.27320933 29.40713608 67.27320933 29.40713608 64.29760742 33.3762207 C60.34836006 36.10985889 58.30540413 36.31291486 53.50561523 36.35400391 C52.20376282 36.36683914 50.9019104 36.37967438 49.56060791 36.39289856 C48.13179911 36.40106694 46.70298602 36.40851049 45.27416992 36.4152832 C44.55534386 36.41935873 43.83651779 36.42343426 43.09590912 36.42763329 C39.28944689 36.44849797 35.48302073 36.46279654 31.67651367 36.47216797 C27.75115355 36.48321875 23.82636246 36.51760129 19.90120316 36.55733967 C16.87793958 36.58353295 13.85481084 36.59186228 10.83144379 36.59544945 C9.38499875 36.60031037 7.93855955 36.61191043 6.49222565 36.63048744 C4.46297439 36.65492626 2.43344612 36.65148943 0.40405273 36.64697266 C-1.32563751 36.65577202 -1.32563751 36.65577202 -3.090271 36.66474915 C-7.02606883 36.06740532 -9.207872 34.63164528 -12.30395508 32.17700195 C-14.34928105 28.08635001 -13.57713057 22.86060369 -13.61645508 18.36450195 C-13.65996094 16.72384766 -13.65996094 16.72384766 -13.7043457 15.05004883 C-13.76821542 6.98772524 -13.76821542 6.98772524 -11.47192383 2.9777832 C-7.79505595 -0.07633588 -4.61780088 0.0396076 0 0 Z " fill="#030101" transform="translate(268.303955078125,38.822998046875)"/>
<path d="M0 0 C1.22484604 -0.00637985 2.44969208 -0.0127597 3.71165466 -0.01933289 C5.69142052 -0.02100212 5.69142052 -0.02100212 7.71118164 -0.02270508 C9.08354222 -0.02592009 10.45590246 -0.02928434 11.82826233 -0.03279114 C14.70224807 -0.03877228 17.57620379 -0.04063205 20.45019531 -0.04003906 C24.12655684 -0.03993742 27.80272532 -0.05359579 31.4790411 -0.07081127 C34.31267679 -0.08194755 37.14626601 -0.08395778 39.97992134 -0.08342934 C41.99232031 -0.08517783 44.00470477 -0.09600676 46.01707458 -0.10697937 C47.85907188 -0.10236443 47.85907188 -0.10236443 49.73828125 -0.09765625 C50.81653671 -0.09908127 51.89479218 -0.10050629 53.00572205 -0.10197449 C57.21026714 0.25304015 59.98623619 1.35343211 63.21508789 4.05151367 C65.85219256 8.79830208 65.5138112 13.30704543 65.43383789 18.64526367 C65.45704102 20.19407227 65.45704102 20.19407227 65.48071289 21.77416992 C65.44184857 29.30413123 65.44184857 29.30413123 63.02758789 33.30151367 C59.47783224 36.4274179 57.21586479 36.28356835 52.54394531 36.32226562 C51.88844193 36.32883682 51.23293854 36.33540802 50.55757141 36.34217834 C48.38481535 36.36191423 46.21212843 36.37357484 44.03930664 36.38354492 C42.92609763 36.38965821 42.92609763 36.38965821 41.79039955 36.395895 C37.8618968 36.41675758 33.93342899 36.43105811 30.00488281 36.44042969 C25.94939667 36.45149112 21.89445968 36.48588669 17.83916759 36.52560139 C14.71900928 36.55176243 11.59898187 36.56012105 8.47872353 36.56371117 C6.98400478 36.56857898 5.48929196 36.58019865 3.9946804 36.59874916 C1.89998412 36.6231303 -0.19329085 36.62217855 -2.28808594 36.61523438 C-4.07440178 36.62403374 -4.07440178 36.62403374 -5.89680481 36.63301086 C-9.70159018 36.04747468 -11.34388799 34.8124992 -14.06616211 32.14526367 C-16.1152126 28.04716268 -15.38337936 22.83719182 -15.44116211 18.33276367 C-15.49723633 16.69210937 -15.49723633 16.69210937 -15.55444336 15.01831055 C-15.64286926 6.95681549 -15.64286926 6.95681549 -12.79272461 2.94604492 C-8.51918097 0.1235469 -5.07013343 0.01793693 0 0 Z " fill="#000000" transform="translate(270.066162109375,357.854736328125)"/>
<path d="M0 0 C0.98325508 -0.0098568 0.98325508 -0.0098568 1.9863739 -0.01991272 C4.15912996 -0.03964861 6.33181688 -0.05130922 8.50463867 -0.0612793 C9.24677801 -0.06535482 9.98891735 -0.06943035 10.75354576 -0.07362938 C14.68204851 -0.09449195 18.61051632 -0.10879249 22.5390625 -0.11816406 C26.59454865 -0.12922549 30.64948563 -0.16362107 34.70477772 -0.20333576 C37.82493603 -0.2294968 40.94496344 -0.23785543 44.06522179 -0.24144554 C45.55994053 -0.24631335 47.05465335 -0.25793303 48.54926491 -0.27648354 C50.64396119 -0.30086468 52.73723616 -0.29991293 54.83203125 -0.29296875 C56.61834709 -0.30176811 56.61834709 -0.30176811 58.44075012 -0.31074524 C62.24553549 0.27479095 63.8878333 1.50976643 66.61010742 4.17700195 C68.59313533 8.14305776 67.92638819 13.06576439 67.98510742 17.42700195 C68.04118164 18.98354492 68.04118164 18.98354492 68.09838867 20.5715332 C68.197329 29.17934186 68.197329 29.17934186 65.33666992 32.84887695 C61.19546836 36.38491726 57.91985838 36.30407736 52.57568359 36.33813477 C50.74809761 36.35254608 50.74809761 36.35254608 48.8835907 36.36724854 C47.5700209 36.37149841 46.25645111 36.37574829 44.90307617 36.38012695 C43.5355072 36.38588418 42.16793823 36.39164184 40.80036926 36.3973999 C37.93478013 36.40789158 35.0692189 36.41374609 32.20361328 36.41723633 C28.54530108 36.42271451 24.88736229 36.44673539 21.22916698 36.47520828 C18.40402678 36.49390283 15.57897527 36.49904388 12.75377846 36.5005722 C10.75362962 36.50504192 8.7535284 36.52365473 6.75346375 36.5425415 C-4.89801279 36.51406302 -4.89801279 36.51406302 -10.38989258 33.17700195 C-13.48889337 28.52850076 -12.75846712 23.77006776 -12.76489258 18.30200195 C-12.78938477 17.21274414 -12.81387695 16.12348633 -12.83911133 15.0012207 C-12.86855528 6.98265234 -12.86855528 6.98265234 -10.49145508 2.98168945 C-6.91941476 -0.08575037 -4.65730692 0.03857624 0 0 Z " fill="#000000" transform="translate(267.389892578125,198.822998046875)"/>
<path d="M0 0 C0.995476 -0.0098568 0.995476 -0.0098568 2.01106262 -0.01991272 C4.21147778 -0.03965237 6.41182459 -0.05131104 8.61230469 -0.0612793 C9.74019032 -0.06739259 9.74019032 -0.06739259 10.89086151 -0.07362938 C14.87238796 -0.09449515 18.85387991 -0.1087934 22.83544922 -0.11816406 C26.94240037 -0.12921652 31.04880791 -0.16360086 35.15556717 -0.20333576 C38.31779974 -0.22952194 41.47990335 -0.23785774 44.6422348 -0.24144554 C46.15566419 -0.2463081 47.66908794 -0.25791278 49.18241119 -0.27648354 C51.30563461 -0.30091445 53.4274594 -0.29990359 55.55078125 -0.29296875 C57.36041351 -0.30176811 57.36041351 -0.30176811 59.206604 -0.31074524 C63.22361259 0.27805719 65.39163687 1.65147805 68.53417969 4.17700195 C69.70605469 6.55200195 69.70605469 6.55200195 70.28417969 9.17700195 C70.50203125 10.13864258 70.71988281 11.1002832 70.94433594 12.09106445 C71.13898438 13.10942383 71.33363281 14.1277832 71.53417969 15.17700195 C71.73914063 16.23661133 71.94410156 17.2962207 72.15527344 18.38793945 C72.99980167 23.10564889 73.53417969 27.36089651 73.53417969 32.17700195 C43.50417969 32.17700195 13.47417969 32.17700195 -17.46582031 32.17700195 C-15.13248698 15.84366862 -15.13248698 15.84366862 -14.09082031 11.05200195 C-13.87683594 10.01817383 -13.66285156 8.9843457 -13.44238281 7.91918945 C-10.99364257 1.04312685 -6.66921679 0.05456368 0 0 Z " fill="#508CD6" transform="translate(124.4658203125,195.822998046875)"/>
<path d="M0 0 C1.05706398 -0.01336143 1.05706398 -0.01336143 2.13548279 -0.0269928 C4.45520811 -0.04823082 6.7721411 -0.02599861 9.09179688 -0.0012207 C10.70935347 -0.00272378 12.32690931 -0.0061554 13.94445801 -0.01142883 C17.33069176 -0.01575687 20.71597205 0.00105025 24.10205078 0.03320312 C28.43690962 0.07298554 32.769981 0.06368295 37.10489655 0.03896809 C40.44393499 0.02476784 43.78255771 0.034885 47.12156677 0.0524807 C48.71950792 0.05832007 50.31749179 0.05704351 51.91542053 0.04845619 C54.15160245 0.0404405 56.38518806 0.06476095 58.62109375 0.09765625 C60.52707336 0.10814751 60.52707336 0.10814751 62.47155762 0.11885071 C66.70708272 0.93278367 68.16939265 2.41325195 70.81054688 5.76049805 C73.46266989 14.13562335 73.79051371 23.09021612 74.81054688 31.76049805 C45.11054688 31.76049805 15.41054687 31.76049805 -15.18945312 31.76049805 C-15.18945312 25.70695136 -15.06942927 20.42413733 -14.00195312 14.57299805 C-13.90076172 13.90075195 -13.79957031 13.22850586 -13.6953125 12.53588867 C-12.16067851 4.01659621 -8.57418057 0.01185837 0 0 Z " fill="#518ED9" transform="translate(123.189453125,36.239501953125)"/>
<path d="M0 0 C0.67501053 -0.0049649 1.35002106 -0.00992981 2.04548645 -0.01504517 C4.28318292 -0.02967416 6.52080845 -0.03647056 8.75854492 -0.04199219 C10.31312563 -0.04774377 11.86770632 -0.0535015 13.42228699 -0.05926514 C16.68484834 -0.06977772 19.94738503 -0.07561845 23.20996094 -0.07910156 C27.38641071 -0.0845818 31.56253372 -0.10859842 35.73888111 -0.13707352 C38.95168502 -0.15571839 42.16441059 -0.16090651 45.37726402 -0.16243744 C46.91662059 -0.16546118 48.45597587 -0.17348034 49.99527931 -0.18662262 C52.15205166 -0.20371968 54.30803072 -0.20179426 56.46484375 -0.1953125 C57.69125076 -0.19895813 58.91765778 -0.20260376 60.18122864 -0.20635986 C63.74366094 0.19704624 65.5962594 0.99470098 68.42651367 3.16113281 C73.31497377 11.67067446 73.42651367 21.59211993 73.42651367 31.16113281 C44.05651367 31.16113281 14.68651367 31.16113281 -15.57348633 31.16113281 C-13.61741398 5.73219224 -13.61741398 5.73219224 -8.57348633 1.16113281 C-5.69823474 -0.27649298 -3.21331917 0.01792499 0 0 Z " fill="#518FDA" transform="translate(123.573486328125,355.8388671875)"/>
<path d="M0 0 C8.29909892 6.05328542 14.24271521 13.1554376 16.3125 23.375 C17.39467054 33.90361754 16.64912786 43.29842165 10.39453125 52.0625 C3.41048474 60.36918894 -4.76083654 66.11883248 -15.6875 67.375 C-26.6386401 68.25815646 -36.13739272 64.72174728 -44.55859375 57.84765625 C-51.09964699 51.86927426 -55.28306288 43.9509282 -55.92578125 35.08984375 C-56.14455801 23.95525835 -54.85577115 15.69949241 -47.4375 7 C-34.58441426 -6.20895294 -16.1589782 -10.0297106 0 0 Z M-41.6875 16.375 C-45.2563418 22.13357364 -46.75330523 27.65053814 -45.6875 34.375 C-43.6043648 43.10198061 -40.05133232 48.4052915 -32.9140625 53.6875 C-26.95898296 57.30577617 -20.44429023 57.29268906 -13.6875 56.375 C-6.32292263 54.15539821 -0.8498547 49.81508769 3.3125 43.375 C6.57852657 36.59799487 7.25605855 30.22659473 5.25 22.9375 C2.67766077 15.94692995 -1.90230406 11.08561749 -8.3125 7.375 C-21.09652465 1.62608648 -33.37807982 5.70949106 -41.6875 16.375 Z " fill="#010100" transform="translate(488.6875,62.625)"/>
<path d="M0 0 C8.17019857 6.60534199 12.96353696 15.20393314 14.1328125 25.6796875 C14.49739097 36.78717813 11.91162759 45.68688737 4.73046875 54.24609375 C-2.83881956 61.90495944 -11.48171264 65.32769421 -22.125 65.6875 C-32.90557051 65.40899226 -41.55366668 61.85631772 -49.25 54.25 C-56.68898799 45.34600344 -58.93268134 36.54161063 -58.65625 25.03515625 C-57.58650604 15.0680226 -52.85495161 6.72829212 -45.25 0.25 C-30.84145452 -9.2093498 -14.38673974 -9.89764426 0 0 Z M-43.25 13.25 C-47.45889663 19.87962041 -49.33970695 26.41045778 -48.25 34.25 C-45.51044764 42.30691229 -41.70687772 48.05361942 -34.25 52.25 C-33.65703125 52.61996094 -33.0640625 52.98992187 -32.453125 53.37109375 C-26.51175392 55.74132158 -18.32702237 55.11252909 -12.25390625 53.41015625 C-4.78530745 50.03394035 -1.24844972 44.8472095 2.625 37.875 C4.89875752 30.54844798 4.47380777 24.21083986 1.0078125 17.3515625 C-3.56354362 9.71370663 -8.87971886 6.04009371 -17.25 3.25 C-27.75161643 2.15344567 -36.26361576 5.26781892 -43.25 13.25 Z " fill="#020100" transform="translate(491.25,383.75)"/>
<path d="M0 0 C7.20597552 5.54227295 12.91997919 13.37125248 14.3125 22.5 C15.23088807 34.2641139 13.68623102 44.33336807 6.0703125 53.65234375 C-1.43119357 61.53726013 -8.66108963 65.46917014 -19.56787109 65.84960938 C-31.27259912 65.98981805 -39.06533084 63.60158536 -47.6875 55.5 C-55.70426632 46.91315252 -58.43037735 37.84240989 -58.06640625 26.18359375 C-57.00813603 15.89546166 -52.47735338 7.41814683 -44.5859375 0.71484375 C-30.94320518 -9.09538956 -13.91289207 -9.24998819 0 0 Z M-41.5546875 12.7265625 C-46.46626656 19.7531756 -48.71237531 25.90385837 -47.6875 34.5 C-45.31125949 42.80334042 -40.50619319 49.19073143 -33 53.4375 C-26.75431437 56.26962772 -20.8426643 56.68624308 -14.23828125 54.80078125 C-7.04666982 51.90704287 -1.52025736 47.91284171 1.6875 40.75 C2.23999954 39.33752293 2.78369537 37.92151781 3.3125 36.5 C3.6425 35.84 3.9725 35.18 4.3125 34.5 C5.35985823 26.71962456 3.53010273 21.02446832 -0.6875 14.5 C-2.89614421 11.62448478 -2.89614421 11.62448478 -5.6875 9.5 C-6.1928125 9.0359375 -6.698125 8.571875 -7.21875 8.09375 C-12.74248023 3.73291034 -18.99942521 3.57787039 -25.765625 3.9609375 C-32.59081448 4.89906115 -37.13941061 7.46148336 -41.5546875 12.7265625 Z " fill="#010100" transform="translate(490.6875,223.5)"/>
<path d="M0 0 C1.23391983 -0.00571014 2.46783966 -0.01142029 3.739151 -0.01730347 C5.11920156 -0.01854895 6.49925223 -0.01967402 7.87930298 -0.02069092 C9.32284167 -0.02531674 10.76637914 -0.03034108 12.20991516 -0.03573608 C16.14174969 -0.04888501 20.07356712 -0.0553099 24.00542021 -0.05974674 C26.45963619 -0.06267351 28.91384745 -0.06677755 31.36806107 -0.07125092 C39.04018965 -0.08493253 46.71230751 -0.09459588 54.38444746 -0.09845281 C63.25291403 -0.1029351 72.12122659 -0.1204881 80.98964632 -0.1494534 C87.83636906 -0.1710424 94.68304839 -0.1811556 101.52980483 -0.18249393 C105.62286961 -0.18354398 109.71578975 -0.18949395 113.80881882 -0.20731354 C117.65835726 -0.22374628 121.5076416 -0.2259733 125.35720253 -0.21717453 C126.77177547 -0.21640156 128.1863618 -0.22078095 129.60090065 -0.23063278 C131.52873318 -0.24327424 133.45666696 -0.23571234 135.38452148 -0.22705078 C136.46448584 -0.22851734 137.54445019 -0.2299839 138.65714073 -0.2314949 C141.31924438 0.14044189 141.31924438 0.14044189 143.20188332 1.43684769 C144.31924438 3.14044189 144.31924438 3.14044189 144.13174438 6.76544189 C143.86361938 7.87919189 143.59549438 8.99294189 143.31924438 10.14044189 C140.62586346 11.48713235 138.53521835 11.27565598 135.51823425 11.28761292 C133.66529251 11.29834587 133.66529251 11.29834587 131.7749176 11.30929565 C130.39849879 11.312136 129.0220797 11.31484772 127.6456604 11.31744385 C126.20197383 11.32370743 124.75828889 11.33035414 123.31460571 11.33735657 C119.38696764 11.35477257 115.45934174 11.36531932 111.53167462 11.3735621 C109.07963107 11.37870954 106.62759133 11.3847853 104.17555046 11.39107323 C96.5087676 11.41012446 88.8419944 11.42435739 81.17519242 11.4326852 C72.31518055 11.44246731 63.45541787 11.46881229 54.59549385 11.50918609 C47.75299823 11.53930074 40.91057424 11.55414951 34.06801361 11.55746621 C29.97826493 11.55982146 25.88878249 11.56884343 21.79910469 11.59392738 C17.95360367 11.61713305 14.10854562 11.62147204 10.26299286 11.611166 C8.85002358 11.61066873 7.43703304 11.61704521 6.02412987 11.63072205 C4.09857954 11.6483217 2.17283863 11.63898859 0.24723816 11.62818909 C-0.83142737 11.63057744 -1.91009291 11.63296579 -3.02144527 11.63542652 C-5.68075562 11.14044189 -5.68075562 11.14044189 -7.59813023 9.30917645 C-8.68075562 7.14044189 -8.68075562 7.14044189 -7.93075562 3.95294189 C-5.90924532 -0.59545626 -4.8581975 0.01339081 0 0 Z " fill="#000000" transform="translate(263.6807556152344,406.85955810546875)"/>
<path d="M0 0 C1.23391983 -0.00571014 2.46783966 -0.01142029 3.739151 -0.01730347 C5.11920156 -0.01854895 6.49925223 -0.01967402 7.87930298 -0.02069092 C9.32284167 -0.02531674 10.76637914 -0.03034108 12.20991516 -0.03573608 C16.14174969 -0.04888501 20.07356712 -0.0553099 24.00542021 -0.05974674 C26.45963619 -0.06267351 28.91384745 -0.06677755 31.36806107 -0.07125092 C39.04018965 -0.08493253 46.71230751 -0.09459588 54.38444746 -0.09845281 C63.25291403 -0.1029351 72.12122659 -0.1204881 80.98964632 -0.1494534 C87.83636906 -0.1710424 94.68304839 -0.1811556 101.52980483 -0.18249393 C105.62286961 -0.18354398 109.71578975 -0.18949395 113.80881882 -0.20731354 C117.65835726 -0.22374628 121.5076416 -0.2259733 125.35720253 -0.21717453 C126.77177547 -0.21640156 128.1863618 -0.22078095 129.60090065 -0.23063278 C131.52873318 -0.24327424 133.45666696 -0.23571234 135.38452148 -0.22705078 C136.46448584 -0.22851734 137.54445019 -0.2299839 138.65714073 -0.2314949 C141.31924438 0.14044189 141.31924438 0.14044189 143.20188332 1.43684769 C144.31924438 3.14044189 144.31924438 3.14044189 144.13174438 6.76544189 C143.86361938 7.87919189 143.59549438 8.99294189 143.31924438 10.14044189 C140.62688658 11.4866208 138.53410132 11.27875687 135.51823425 11.29434204 C133.66529251 11.30724274 133.66529251 11.30724274 131.7749176 11.32040405 C130.39849896 11.32483935 129.02207986 11.3291377 127.6456604 11.33331299 C126.20197349 11.34121296 124.75828856 11.34948185 123.31460571 11.35809326 C118.56747323 11.38431859 113.82033187 11.39961824 109.07315063 11.41387939 C107.44061718 11.41923827 105.80808379 11.42461577 104.17555046 11.43001175 C97.38742748 11.4516384 90.59930689 11.47037731 83.81115818 11.48163414 C74.07242072 11.49788894 64.33408125 11.53110583 54.59549385 11.58803499 C47.75300029 11.62667603 40.91061345 11.64625968 34.06801361 11.6515547 C29.97819658 11.65521534 25.88880396 11.66731162 21.79910469 11.69965744 C17.95353685 11.72963718 14.10865248 11.7360867 10.26299286 11.72427368 C8.85001267 11.72405211 7.43700168 11.73242597 6.02412987 11.74992752 C4.09863136 11.77248509 2.17282533 11.76138099 0.24723816 11.7484436 C-1.37076014 11.75340882 -1.37076014 11.75340882 -3.02144527 11.75847435 C-5.68075562 11.14044189 -5.68075562 11.14044189 -7.59813023 8.77431679 C-8.68075562 6.14044189 -8.68075562 6.14044189 -7.93075562 3.39044189 C-5.73709846 -0.55814099 -4.46681919 0.01231204 0 0 Z " fill="#000000" transform="translate(263.6807556152344,268.85955810546875)"/>
<path d="M0 0 C1.82553154 -0.00856522 1.82553154 -0.00856522 3.6879425 -0.01730347 C5.04388418 -0.01854888 6.39982596 -0.01967396 7.75576782 -0.02069092 C9.17812733 -0.0253182 10.6004856 -0.03034274 12.02284241 -0.03573608 C15.89270337 -0.04887038 19.76254697 -0.05530699 23.63242674 -0.05974674 C26.04896625 -0.06267569 28.465501 -0.06678015 30.88203812 -0.07125092 C38.4393691 -0.0849283 45.99668922 -0.09459388 53.55403173 -0.09845281 C62.28437808 -0.10293491 71.01456796 -0.12048876 79.74486673 -0.1494534 C86.48886607 -0.17105313 93.23282134 -0.18115616 99.97685492 -0.18249393 C104.00678048 -0.18354315 108.036559 -0.18947571 112.06644821 -0.20731354 C115.85690832 -0.22376489 119.64711042 -0.22596418 123.43759346 -0.21717453 C124.82917152 -0.21640258 126.22076329 -0.22076765 127.61230659 -0.23063278 C129.51127121 -0.24330618 131.41033897 -0.23570056 133.30932617 -0.22705078 C134.37232122 -0.22851734 135.43531628 -0.2299839 136.5305233 -0.2314949 C139.67420823 0.19351406 141.06165703 0.89587269 143.28164673 3.14044189 C143.65664673 6.20294189 143.65664673 6.20294189 143.28164673 9.14044189 C140.58546086 11.83662777 139.21509967 11.39622109 135.44267273 11.40786743 C134.19896408 11.4163974 132.95525543 11.42492737 131.67385864 11.43371582 C130.28799426 11.43301674 128.90212997 11.43209364 127.51626587 11.43096924 C126.06272535 11.43695085 124.60918802 11.44375554 123.15565491 11.45132446 C119.20113567 11.46902853 115.24670291 11.47368167 111.29214787 11.47495604 C107.99429036 11.47685235 104.69645311 11.48420674 101.39860338 11.49130023 C93.62010547 11.50759831 85.84165388 11.51246786 78.06314087 11.51104736 C70.03100023 11.50984534 61.99912806 11.53095576 53.96705538 11.56253469 C47.07784032 11.58865819 40.18871315 11.59941633 33.29944891 11.59813654 C29.18177103 11.59762577 25.06433164 11.60337191 20.94670296 11.62449265 C17.07491705 11.64380942 13.20359873 11.64404508 9.33179665 11.62945938 C7.90916006 11.62736201 6.4864947 11.63212724 5.06390762 11.6441803 C3.1251983 11.65954497 1.18633068 11.64796559 -0.75239563 11.63491821 C-2.38145545 11.63655252 -2.38145545 11.63655252 -4.04342556 11.63821983 C-6.71835327 11.14044189 -6.71835327 11.14044189 -8.63419437 9.30875587 C-9.71835327 7.14044189 -9.71835327 7.14044189 -9.03085327 3.95294189 C-6.91506918 -0.58088115 -4.66545203 0.01306497 0 0 Z " fill="#000000" transform="translate(264.7183532714844,449.85955810546875)"/>
<path d="M0 0 C1.24652847 -0.00838898 2.49305695 -0.01677795 3.77735901 -0.02542114 C5.1611817 -0.01445406 6.54500127 -0.00308809 7.92881775 0.00863647 C9.38412823 0.00649093 10.83943704 0.0026137 12.29473877 -0.00286865 C16.24928311 -0.01257271 20.20337687 0.0027535 24.15786672 0.02303743 C28.2915899 0.04058504 32.42529868 0.03708382 36.55905151 0.03631592 C43.50041764 0.03818968 50.44160903 0.05556474 57.38291931 0.08285522 C65.41560134 0.11431924 73.44809201 0.12485104 81.48083121 0.12338412 C89.19997004 0.12216469 96.91904636 0.13236436 104.63816643 0.14896774 C107.92720973 0.15604054 111.21623091 0.15969525 114.50528145 0.16075516 C118.37535706 0.16275988 122.24527115 0.17493523 126.1152935 0.19508743 C127.53833401 0.20094353 128.9613931 0.20338694 130.38444519 0.20223236 C132.321337 0.20125532 134.25822186 0.21376693 136.19506836 0.22705078 C137.28073121 0.23040247 138.36639406 0.23375416 139.48495579 0.23720741 C142.03404236 0.49447632 142.03404236 0.49447632 144.03404236 2.49447632 C144.40904236 5.43197632 144.40904236 5.43197632 144.03404236 8.49447632 C141.81536778 10.73657894 140.42615869 11.44101193 137.28571224 11.86920643 C136.22401601 11.86903869 135.16231977 11.86887094 134.06845093 11.86869812 C132.84723541 11.87571243 131.6260199 11.88272675 130.36779785 11.88995361 C129.0175307 11.88252622 127.6672652 11.87479509 126.31700134 11.86679077 C124.89272292 11.86921916 123.46844621 11.87293893 122.04417419 11.87785339 C118.17853939 11.88725885 114.31315793 11.87784043 110.44754291 11.86452127 C106.40370822 11.85320696 102.35988601 11.8573142 98.31604004 11.85926819 C91.52611653 11.86015107 84.73629287 11.84907118 77.94639587 11.83065796 C70.09264819 11.80948189 62.23904671 11.80598229 54.38527626 11.81221992 C46.83326817 11.8179111 39.28131164 11.81227137 31.72931099 11.80104637 C28.51365774 11.79639799 25.298036 11.79552755 22.08238029 11.79763222 C18.29765953 11.7995135 14.51308794 11.7914237 10.72840118 11.77557182 C9.33802724 11.77132338 7.94763817 11.77048218 6.55726051 11.77326202 C4.66238352 11.77647625 2.76749783 11.76619102 0.87265015 11.75517273 C-0.18866906 11.75311986 -1.24998827 11.75106699 -2.34346867 11.74895191 C-4.96595764 11.49447632 -4.96595764 11.49447632 -7.96595764 9.49447632 C-8.84095764 7.11947632 -8.84095764 7.11947632 -8.96595764 4.49447632 C-6.70491361 0.18544542 -4.69433328 -0.00470944 0 0 Z " fill="#000000" transform="translate(263.96595764160156,428.5055236816406)"/>
<path d="M0 0 C1.82553154 -0.00856522 1.82553154 -0.00856522 3.6879425 -0.01730347 C5.04388418 -0.01854888 6.39982596 -0.01967396 7.75576782 -0.02069092 C9.17812733 -0.0253182 10.6004856 -0.03034274 12.02284241 -0.03573608 C15.89270337 -0.04887038 19.76254697 -0.05530699 23.63242674 -0.05974674 C26.04896625 -0.06267569 28.465501 -0.06678015 30.88203812 -0.07125092 C38.4393691 -0.0849283 45.99668922 -0.09459388 53.55403173 -0.09845281 C62.28437808 -0.10293491 71.01456796 -0.12048876 79.74486673 -0.1494534 C86.48886607 -0.17105313 93.23282134 -0.18115616 99.97685492 -0.18249393 C104.00678048 -0.18354315 108.036559 -0.18947571 112.06644821 -0.20731354 C115.85690832 -0.22376489 119.64711042 -0.22596418 123.43759346 -0.21717453 C124.82917152 -0.21640258 126.22076329 -0.22076765 127.61230659 -0.23063278 C129.51127121 -0.24330618 131.41033897 -0.23570056 133.30932617 -0.22705078 C134.37232122 -0.22851734 135.43531628 -0.2299839 136.5305233 -0.2314949 C139.67420823 0.19351406 141.06165703 0.89587269 143.28164673 3.14044189 C143.65664673 6.20294189 143.65664673 6.20294189 143.28164673 9.14044189 C140.58546086 11.83662777 139.21509967 11.39622109 135.44267273 11.40786743 C134.19896408 11.4163974 132.95525543 11.42492737 131.67385864 11.43371582 C130.28799426 11.43301674 128.90212997 11.43209364 127.51626587 11.43096924 C126.06272535 11.43695085 124.60918802 11.44375554 123.15565491 11.45132446 C119.20113567 11.46902853 115.24670291 11.47368167 111.29214787 11.47495604 C107.99429036 11.47685235 104.69645311 11.48420674 101.39860338 11.49130023 C93.62010547 11.50759831 85.84165388 11.51246786 78.06314087 11.51104736 C70.03100023 11.50984534 61.99912806 11.53095576 53.96705538 11.56253469 C47.07784032 11.58865819 40.18871315 11.59941633 33.29944891 11.59813654 C29.18177103 11.59762577 25.06433164 11.60337191 20.94670296 11.62449265 C17.07491705 11.64380942 13.20359873 11.64404508 9.33179665 11.62945938 C7.90916006 11.62736201 6.4864947 11.63212724 5.06390762 11.6441803 C3.1251983 11.65954497 1.18633068 11.64796559 -0.75239563 11.63491821 C-2.38145545 11.63655252 -2.38145545 11.63655252 -4.04342556 11.63821983 C-6.71835327 11.14044189 -6.71835327 11.14044189 -8.63419437 9.30875587 C-9.71835327 7.14044189 -9.71835327 7.14044189 -9.03085327 3.95294189 C-6.91506918 -0.58088115 -4.66545203 0.01306497 0 0 Z " fill="#000000" transform="translate(264.7183532714844,246.85955810546875)"/>
<path d="M0 0 C1.85500374 -0.01475121 1.85500374 -0.01475121 3.7474823 -0.02980042 C5.12027252 -0.02042813 6.49306 -0.0106488 7.86584473 -0.00050354 C9.30968248 -0.004286 10.75351662 -0.00978544 12.19734192 -0.01687622 C16.12094809 -0.03085791 20.04411708 -0.01964237 23.96769905 -0.00316501 C28.07026656 0.01066745 32.17280822 0.00422748 36.27539062 0.0007019 C43.1654771 -0.00200166 50.05538951 0.01148783 56.94543457 0.03465271 C64.91565517 0.06126344 72.88558469 0.06301014 80.85583448 0.05126435 C88.51731567 0.04049174 96.17869138 0.04666954 103.84016418 0.06081963 C107.10328153 0.06658395 110.36632181 0.06649326 113.62944031 0.06175423 C117.47084703 0.05698806 121.31193432 0.0670708 125.15328026 0.08870888 C126.56461192 0.0942819 127.97597425 0.09473731 129.38730812 0.08975601 C131.3107028 0.08381788 133.23412854 0.09812111 135.1574707 0.11352539 C136.77352077 0.11717023 136.77352077 0.11717023 138.42221832 0.12088871 C141.07873535 0.50120544 141.07873535 0.50120544 142.96053314 1.79887295 C144.07873535 3.50120544 144.07873535 3.50120544 143.89123535 7.12620544 C143.62311035 8.23995544 143.35498535 9.35370544 143.07873535 10.50120544 C140.39239089 11.84437768 138.32484611 11.63020927 135.31568909 11.63491821 C134.08880875 11.6391832 132.86192841 11.64344818 131.59786987 11.64784241 C130.23089596 11.64749287 128.86392208 11.64703132 127.49694824 11.64646912 C126.06311454 11.64945994 124.62928165 11.65286229 123.19544983 11.65664673 C119.2946605 11.66549848 115.39389309 11.66782533 111.49309468 11.66846251 C108.23998006 11.6694107 104.98687057 11.67308792 101.73375791 11.67663461 C94.0607432 11.68478355 86.38774022 11.68721844 78.71472168 11.68650818 C70.79172791 11.68590718 62.86880218 11.6964624 54.94582564 11.71225184 C48.15003769 11.72531383 41.35427203 11.73069265 34.55847162 11.73005277 C30.49675669 11.7297974 26.4351022 11.73267014 22.37339973 11.74323082 C18.55425581 11.75288936 14.7352304 11.75300651 10.91608238 11.74571419 C9.51280164 11.74466556 8.10951361 11.74704767 6.70624542 11.75307465 C4.79376684 11.76075791 2.88124814 11.75496705 0.96876526 11.7484436 C-0.10252593 11.74898837 -1.17381712 11.74953314 -2.27757168 11.75009441 C-4.92126465 11.50120544 -4.92126465 11.50120544 -7.92126465 9.50120544 C-8.79626465 7.12620544 -8.79626465 7.12620544 -8.92126465 4.50120544 C-6.66492472 0.2126895 -4.67904712 0.00090893 0 0 Z " fill="#000000" transform="translate(263.9212646484375,130.49879455566406)"/>
<path d="M0 0 C1.82553154 -0.00856522 1.82553154 -0.00856522 3.6879425 -0.01730347 C5.04388418 -0.01854888 6.39982596 -0.01967396 7.75576782 -0.02069092 C9.17812733 -0.0253182 10.6004856 -0.03034274 12.02284241 -0.03573608 C15.89270337 -0.04887038 19.76254697 -0.05530699 23.63242674 -0.05974674 C26.04896625 -0.06267569 28.465501 -0.06678015 30.88203812 -0.07125092 C38.4393691 -0.0849283 45.99668922 -0.09459388 53.55403173 -0.09845281 C62.28437808 -0.10293491 71.01456796 -0.12048876 79.74486673 -0.1494534 C86.48886607 -0.17105313 93.23282134 -0.18115616 99.97685492 -0.18249393 C104.00678048 -0.18354315 108.036559 -0.18947571 112.06644821 -0.20731354 C115.85690832 -0.22376489 119.64711042 -0.22596418 123.43759346 -0.21717453 C124.82917152 -0.21640258 126.22076329 -0.22076765 127.61230659 -0.23063278 C129.51127121 -0.24330618 131.41033897 -0.23570056 133.30932617 -0.22705078 C134.37232122 -0.22851734 135.43531628 -0.2299839 136.5305233 -0.2314949 C139.67420823 0.19351406 141.06165703 0.89587269 143.28164673 3.14044189 C143.65664673 6.20294189 143.65664673 6.20294189 143.28164673 9.14044189 C140.58546086 11.83662777 139.21509967 11.39622109 135.44267273 11.40786743 C134.19896408 11.4163974 132.95525543 11.42492737 131.67385864 11.43371582 C130.28799426 11.43301674 128.90212997 11.43209364 127.51626587 11.43096924 C126.06272535 11.43695085 124.60918802 11.44375554 123.15565491 11.45132446 C119.20113567 11.46902853 115.24670291 11.47368167 111.29214787 11.47495604 C107.99429036 11.47685235 104.69645311 11.48420674 101.39860338 11.49130023 C93.62010547 11.50759831 85.84165388 11.51246786 78.06314087 11.51104736 C70.03100023 11.50984534 61.99912806 11.53095576 53.96705538 11.56253469 C47.07784032 11.58865819 40.18871315 11.59941633 33.29944891 11.59813654 C29.18177103 11.59762577 25.06433164 11.60337191 20.94670296 11.62449265 C17.07491705 11.64380942 13.20359873 11.64404508 9.33179665 11.62945938 C7.90916006 11.62736201 6.4864947 11.63212724 5.06390762 11.6441803 C3.1251983 11.65954497 1.18633068 11.64796559 -0.75239563 11.63491821 C-2.38145545 11.63655252 -2.38145545 11.63655252 -4.04342556 11.63821983 C-6.71835327 11.14044189 -6.71835327 11.14044189 -8.63419437 9.30875587 C-9.71835327 7.14044189 -9.71835327 7.14044189 -9.03085327 3.95294189 C-6.91506918 -0.58088115 -4.66545203 0.01306497 0 0 Z " fill="#000000" transform="translate(264.7183532714844,108.85955810546875)"/>
<path d="M0 0 C1.24652847 -0.00838898 2.49305695 -0.01677795 3.77735901 -0.02542114 C5.1611817 -0.01445406 6.54500127 -0.00308809 7.92881775 0.00863647 C9.38412823 0.00649093 10.83943704 0.0026137 12.29473877 -0.00286865 C16.24928311 -0.01257271 20.20337687 0.0027535 24.15786672 0.02303743 C28.2915899 0.04058504 32.42529868 0.03708382 36.55905151 0.03631592 C43.50041764 0.03818968 50.44160903 0.05556474 57.38291931 0.08285522 C65.41560134 0.11431924 73.44809201 0.12485104 81.48083121 0.12338412 C89.19997004 0.12216469 96.91904636 0.13236436 104.63816643 0.14896774 C107.92720973 0.15604054 111.21623091 0.15969525 114.50528145 0.16075516 C118.37535706 0.16275988 122.24527115 0.17493523 126.1152935 0.19508743 C127.53833401 0.20094353 128.9613931 0.20338694 130.38444519 0.20223236 C132.321337 0.20125532 134.25822186 0.21376693 136.19506836 0.22705078 C137.28073121 0.23040247 138.36639406 0.23375416 139.48495579 0.23720741 C142.03404236 0.49447632 142.03404236 0.49447632 144.03404236 2.49447632 C144.40904236 5.43197632 144.40904236 5.43197632 144.03404236 8.49447632 C141.82125215 10.72685456 140.4330749 11.43970199 137.30412292 11.86920643 C136.25109985 11.86903869 135.19807678 11.86887094 134.11314392 11.86869812 C132.90178772 11.87571243 131.69043152 11.88272675 130.44236755 11.88995361 C129.1031325 11.88252619 127.76389909 11.87479505 126.42466736 11.86679077 C125.01186353 11.8692192 123.59906141 11.87293903 122.18626404 11.87785339 C118.3515521 11.88725907 114.51709555 11.87783979 110.68240356 11.86452127 C106.66973329 11.853205 102.65707556 11.85731441 98.64439392 11.85926819 C91.90574471 11.86015111 85.1671961 11.84907121 78.42857361 11.83065796 C70.63732958 11.80949035 62.84623293 11.80598047 55.05496597 11.81221992 C47.56062626 11.81791436 40.06633846 11.81226697 32.57200623 11.80104637 C29.3822992 11.79640145 26.19262392 11.79552607 23.00291443 11.79763222 C19.24691735 11.7995157 15.4910703 11.79140666 11.73510742 11.77557182 C10.35644145 11.7713289 8.97776026 11.77047849 7.59909058 11.77326202 C5.71770041 11.7764843 3.83630154 11.76617617 1.9549408 11.75517273 C0.90191772 11.75311986 -0.15110535 11.75106699 -1.23603821 11.74895191 C-4.01506738 11.48989844 -5.6575696 11.0422225 -7.96595764 9.49447632 C-8.90345764 7.11947632 -8.90345764 7.11947632 -8.96595764 4.49447632 C-6.69836764 0.1879993 -4.69818533 -0.0047133 0 0 Z " fill="#000000" transform="translate(263.96595764160156,290.5055236816406)"/>
<path d="M0 0 C1.24652847 -0.00838898 2.49305695 -0.01677795 3.77735901 -0.02542114 C5.1611817 -0.01445406 6.54500127 -0.00308809 7.92881775 0.00863647 C9.38412823 0.00649093 10.83943704 0.0026137 12.29473877 -0.00286865 C16.24928311 -0.01257271 20.20337687 0.0027535 24.15786672 0.02303743 C28.2915899 0.04058504 32.42529868 0.03708382 36.55905151 0.03631592 C43.50041764 0.03818968 50.44160903 0.05556474 57.38291931 0.08285522 C65.41560134 0.11431924 73.44809201 0.12485104 81.48083121 0.12338412 C89.19997004 0.12216469 96.91904636 0.13236436 104.63816643 0.14896774 C107.92720973 0.15604054 111.21623091 0.15969525 114.50528145 0.16075516 C118.37535706 0.16275988 122.24527115 0.17493523 126.1152935 0.19508743 C127.53833401 0.20094353 128.9613931 0.20338694 130.38444519 0.20223236 C132.321337 0.20125532 134.25822186 0.21376693 136.19506836 0.22705078 C137.28073121 0.23040247 138.36639406 0.23375416 139.48495579 0.23720741 C142.03404236 0.49447632 142.03404236 0.49447632 144.03404236 2.49447632 C144.40904236 5.43197632 144.40904236 5.43197632 144.03404236 8.49447632 C141.82125215 10.72685456 140.4330749 11.43970199 137.30412292 11.86920643 C136.25109985 11.86903869 135.19807678 11.86887094 134.11314392 11.86869812 C132.90178772 11.87571243 131.69043152 11.88272675 130.44236755 11.88995361 C129.1031325 11.88252619 127.76389909 11.87479505 126.42466736 11.86679077 C125.01186353 11.8692192 123.59906141 11.87293903 122.18626404 11.87785339 C118.3515521 11.88725907 114.51709555 11.87783979 110.68240356 11.86452127 C106.66973329 11.853205 102.65707556 11.85731441 98.64439392 11.85926819 C91.90574471 11.86015111 85.1671961 11.84907121 78.42857361 11.83065796 C70.63732958 11.80949035 62.84623293 11.80598047 55.05496597 11.81221992 C47.56062626 11.81791436 40.06633846 11.81226697 32.57200623 11.80104637 C29.3822992 11.79640145 26.19262392 11.79552607 23.00291443 11.79763222 C19.24691735 11.7995157 15.4910703 11.79140666 11.73510742 11.77557182 C10.35644145 11.7713289 8.97776026 11.77047849 7.59909058 11.77326202 C5.71770041 11.7764843 3.83630154 11.76617617 1.9549408 11.75517273 C0.90191772 11.75311986 -0.15110535 11.75106699 -1.23603821 11.74895191 C-4.01506738 11.48989844 -5.6575696 11.0422225 -7.96595764 9.49447632 C-8.90345764 7.11947632 -8.90345764 7.11947632 -8.96595764 4.49447632 C-6.69836764 0.1879993 -4.69818533 -0.0047133 0 0 Z " fill="#000000" transform="translate(263.96595764160156,87.50552368164063)"/>
<path d="M0 0 C44.55 0 89.1 0 135 0 C135 3.3 135 6.6 135 10 C90.45 10 45.9 10 0 10 C0 6.7 0 3.4 0 0 Z " fill="#CED9E4" transform="translate(85,444)"/>
<path d="M0 0 C44.55 0 89.1 0 135 0 C135 3.3 135 6.6 135 10 C90.45 10 45.9 10 0 10 C0 6.7 0 3.4 0 0 Z " fill="#CED9E4" transform="translate(85,124)"/>
<path d="M0 0 C44.22 0 88.44 0 134 0 C134 3.3 134 6.6 134 10 C89.78 10 45.56 10 0 10 C0 6.7 0 3.4 0 0 Z " fill="#D0DCE6" transform="translate(86,284)"/>
<path d="M0 0 C19.8 0 39.6 0 60 0 C60 4.95 60 9.9 60 15 C40.2 15 20.4 15 0 15 C0 10.05 0 5.1 0 0 Z " fill="#AEDD6A" transform="translate(265,369)"/>
<path d="M0 0 C19.8 0 39.6 0 60 0 C60 4.95 60 9.9 60 15 C40.2 15 20.4 15 0 15 C0 10.05 0 5.1 0 0 Z " fill="#6ED2F5" transform="translate(265,209)"/>
<path d="M0 0 C19.8 0 39.6 0 60 0 C60 4.95 60 9.9 60 15 C40.2 15 20.4 15 0 15 C0 10.05 0 5.1 0 0 Z " fill="#F26179" transform="translate(265,49)"/>
<path d="M0 0 C1.875 1 1.875 1 3 3 C3.53423546 5.68175622 3.77571266 8.26369448 4 11 C5.093125 10.938125 6.18625 10.87625 7.3125 10.8125 C11 11 11 11 12.875 12.25 C14.18626396 14.28974393 14.78582164 15.5726452 15 18 C14.1875 20.6875 14.1875 20.6875 13 23 C10.04335481 24.4783226 7.25770263 24.06032783 4 24 C3.96261719 24.62648438 3.92523438 25.25296875 3.88671875 25.8984375 C3.82097656 26.71570313 3.75523437 27.53296875 3.6875 28.375 C3.62949219 29.18710937 3.57148438 29.99921875 3.51171875 30.8359375 C3 33 3 33 0 35 C-5.96764986 35.53282588 -5.96764986 35.53282588 -8.9375 34 C-10.67278693 30.73357754 -10.17982715 27.65648548 -10 24 C-11.258125 24.061875 -12.51625 24.12375 -13.8125 24.1875 C-16.37705844 24.16934383 -17.71463773 24.1515987 -20 22.9375 C-21.58433618 19.86784865 -21.36248449 17.38318857 -21 14 C-20 12.0625 -20 12.0625 -18 11 C-15.28117977 10.76404716 -12.74042978 10.86522477 -10 11 C-10.061875 9.741875 -10.12375 8.48375 -10.1875 7.1875 C-10.16934383 4.62294156 -10.1515987 3.28536227 -8.9375 1 C-5.86784865 -0.58433618 -3.38318857 -0.36248449 0 0 Z " fill="#6FD6F9" transform="translate(398,29)"/>
<path d="M0 0 C0.66 0 1.32 0 2 0 C2.64757625 1.43671568 3.29299453 2.87440416 3.9375 4.3125 C4.29714844 5.11300781 4.65679688 5.91351563 5.02734375 6.73828125 C6 9 6 9 7 12 C8.79707662 13.12848868 8.79707662 13.12848868 11 14 C11.77859375 14.35320312 12.5571875 14.70640625 13.359375 15.0703125 C14.14828125 15.41835938 14.9371875 15.76640625 15.75 16.125 C16.54921875 16.47820312 17.3484375 16.83140625 18.171875 17.1953125 C18.77515625 17.46085937 19.3784375 17.72640625 20 18 C20 18.66 20 19.32 20 20 C19.33613281 20.21914063 18.67226563 20.43828125 17.98828125 20.6640625 C11.1489658 23.12022542 7.34823175 25.25580821 4.0390625 31.94140625 C3.30630784 33.6052299 2.64579708 35.30053401 2 37 C-1 36 -1 36 -2.1328125 34.2578125 C-2.46023437 33.55398438 -2.78765625 32.85015625 -3.125 32.125 C-3.45757812 31.42632812 -3.79015625 30.72765625 -4.1328125 30.0078125 C-5 28 -5 28 -6 25 C-9.60132709 22.69515066 -14.00536651 21.46469895 -18 20 C-18 19.34 -18 18.68 -18 18 C-17.33613281 17.70867187 -16.67226563 17.41734375 -15.98828125 17.1171875 C-7.31086639 13.08884016 -3.40367489 8.95703918 0 0 Z " fill="#F5C84B" transform="translate(25,244)"/>
<path d="M0 0 C1.7315332 0.0009668 1.7315332 0.0009668 3.49804688 0.00195312 C4.70396484 0.01806641 5.90988281 0.03417969 7.15234375 0.05078125 C8.96702148 0.04594727 8.96702148 0.04594727 10.81835938 0.04101562 C19.8229445 0.096382 19.8229445 0.096382 22.08984375 2.36328125 C22.08984375 5.33328125 22.08984375 8.30328125 22.08984375 11.36328125 C11.85984375 11.36328125 1.62984375 11.36328125 -8.91015625 11.36328125 C-8.91015625 3.36328125 -8.91015625 3.36328125 -7.77954102 1.38598633 C-5.1178422 -0.0701788 -3.02602887 -0.00850331 0 0 Z " fill="#84CD45" transform="translate(145.91015625,422.63671875)"/>
<path d="M0 0 C1.10472656 -0.00386719 2.20945313 -0.00773437 3.34765625 -0.01171875 C4.50136719 -0.00011719 5.65507812 0.01148438 6.84375 0.0234375 C8.57431641 0.00603516 8.57431641 0.00603516 10.33984375 -0.01171875 C11.44457031 -0.00785156 12.54929688 -0.00398438 13.6875 0 C14.70005859 0.00338379 15.71261719 0.00676758 16.75585938 0.01025391 C19.34375 0.3984375 19.34375 0.3984375 21.19726562 1.42333984 C22.34375 3.3984375 22.34375 3.3984375 22.34375 11.3984375 C12.11375 11.3984375 1.88375 11.3984375 -8.65625 11.3984375 C-8.65625 3.3984375 -8.65625 3.3984375 -7.50976562 1.42333984 C-4.9275472 -0.00449906 -2.9451928 0.00984231 0 0 Z " fill="#3BA9DA" transform="translate(145.65625,262.6015625)"/>
<path d="M0 0 C1.10472656 -0.00386719 2.20945313 -0.00773437 3.34765625 -0.01171875 C4.50136719 -0.00011719 5.65507812 0.01148437 6.84375 0.0234375 C8.57431641 0.00603516 8.57431641 0.00603516 10.33984375 -0.01171875 C11.44457031 -0.00785156 12.54929688 -0.00398438 13.6875 0 C14.70005859 0.00338379 15.71261719 0.00676758 16.75585938 0.01025391 C19.34375 0.3984375 19.34375 0.3984375 21.19726562 1.42333984 C22.34375 3.3984375 22.34375 3.3984375 22.34375 11.3984375 C12.11375 11.3984375 1.88375 11.3984375 -8.65625 11.3984375 C-8.65625 3.3984375 -8.65625 3.3984375 -7.50976562 1.42333984 C-4.9275472 -0.00449906 -2.9451928 0.00984231 0 0 Z " fill="#E8425D" transform="translate(145.65625,102.6015625)"/>
<path d="M0 0 C8.58 0 17.16 0 26 0 C26 7 26 7 24.59765625 9.90625 C20.71174281 13.03835467 17.2815014 12.65989202 12.4375 12.5 C11.57447266 12.50257813 10.71144531 12.50515625 9.82226562 12.5078125 C3.40813684 12.40813684 3.40813684 12.40813684 0 9 C0 6.03 0 3.06 0 0 Z " fill="#585A5D" transform="translate(98,144)"/>
<path d="M0 0 C8.58 0 17.16 0 26 0 C26 8 26 8 24.5625 10.46875 C20.75236819 12.74553608 17.35856854 12.58355083 13 12.5 C12.19304687 12.51546875 11.38609375 12.5309375 10.5546875 12.546875 C6.90080401 12.52275696 4.61273542 12.36614677 1.4375 10.46875 C0 8 0 8 0 0 Z " fill="#585A5D" transform="translate(182,144)"/>
<path d="M0 0 C8.58 0 17.16 0 26 0 C26 7 26 7 24.03515625 9.90234375 C20.02012127 12.67721349 17.20135091 12.71379827 12.4375 12.5625 C11.68275391 12.57345703 10.92800781 12.58441406 10.15039062 12.59570312 C6.7626394 12.55093108 4.38634363 12.23467241 1.47265625 10.46484375 C0 8 0 8 0 0 Z " fill="#585A5D" transform="translate(182,304)"/>
<path d="M0 0 C8.25 0 16.5 0 25 0 C25 9 25 9 23.53125 11.03515625 C19.87171878 12.43007016 16.35992672 12.47354346 12.5 12.4375 C11.74074219 12.45748047 10.98148438 12.47746094 10.19921875 12.49804688 C6.78703903 12.49505898 4.41253886 12.24892391 1.46875 10.47265625 C0 8 0 8 0 0 Z " fill="#595B5E" transform="translate(98,304)"/>
<path d="M0 0 C8.25 0 16.5 0 25 0 C25 2.97 25 5.94 25 9 C20.82856144 11.78095904 17.40037332 11.33070347 12.5 11.3125 C11.63246094 11.32861328 10.76492187 11.34472656 9.87109375 11.36132812 C9.03707031 11.36197266 8.20304688 11.36261719 7.34375 11.36328125 C6.58255859 11.36626221 5.82136719 11.36924316 5.03710938 11.37231445 C3 11 3 11 1.22851562 9.97729492 C0 8 0 8 0 0 Z " fill="#5A5C5F" transform="translate(182,464)"/>
<path d="M0 0 C8.25 0 16.5 0 25 0 C25 8 25 8 23.77148438 9.97509766 C21.58574851 11.23966755 20.1777044 11.38722866 17.65625 11.3984375 C16.82222656 11.40230469 15.98820312 11.40617187 15.12890625 11.41015625 C13.82759766 11.39275391 13.82759766 11.39275391 12.5 11.375 C11.63246094 11.38660156 10.76492187 11.39820313 9.87109375 11.41015625 C9.03707031 11.40628906 8.20304687 11.40242188 7.34375 11.3984375 C6.20196289 11.39336182 6.20196289 11.39336182 5.03710938 11.38818359 C3 11 3 11 1.22851562 9.97509766 C0 8 0 8 0 0 Z " fill="#5A5C5F" transform="translate(98,464)"/>
<path d="M0 0 C0.66 0 1.32 0 2 0 C2.556875 1.3303125 2.556875 1.3303125 3.125 2.6875 C5.91633451 7.61885764 9.7220618 10.76702615 15 13 C13 15 13 15 9.625 16.6875 C5.45043869 18.9795869 4.03404208 21.76919247 2 26 C1.34 26 0.68 26 0 26 C-0.391875 25.0925 -0.78375 24.185 -1.1875 23.25 C-3.78498008 18.59244951 -7.17772523 16.14323323 -12 14 C-12 13.34 -12 12.68 -12 12 C-11.46890625 11.8040625 -10.9378125 11.608125 -10.390625 11.40625 C-5.04092873 9.14141508 -2.85858492 6.95907127 -0.59375 1.609375 C-0.3978125 1.07828125 -0.201875 0.5471875 0 0 Z " fill="#88D147" transform="translate(259,486)"/>
<path d="M0 0 C2.375 1.5625 2.375 1.5625 4 4 C4.42213381 7.43737531 4.60856522 9.82090489 3 12.9375 C-0.24370507 14.66071832 -3.4161041 14.52265149 -7 14 C-9 13 -9 13 -10 11 C-10.45429103 8.23975072 -10.51084843 5.7551376 -10 3 C-7.21052771 -0.43319666 -4.246332 -0.61925675 0 0 Z " fill="#FC647D" transform="translate(47,330)"/>
<path d="M0 0 C2 1.0625 2 1.0625 3 3 C3.50030235 6.93094707 3.5996142 9.1005787 1.375 12.4375 C-1.69817115 14.45932313 -3.38247881 14.52755517 -7 14 C-9.375 13 -9.375 13 -11 11 C-11.65964122 7.44238446 -11.63041883 4.26083766 -10 1 C-6.7413581 -0.62932095 -3.56102656 -0.52673518 0 0 Z " fill="#F5C84B" transform="translate(348,0)"/>
<path d="M0 0 C8.81299886 -0.44811859 8.81299886 -0.44811859 13 3 C15.13433186 5.71642236 14.99650018 7.1014949 14.875 10.625 C14 14 14 14 11.9453125 15.2109375 C11.30335938 15.47132813 10.66140625 15.73171875 10 16 C9.51789063 15.57847656 9.03578125 15.15695313 8.5390625 14.72265625 C7.90742188 14.17480469 7.27578125 13.62695312 6.625 13.0625 C5.68527344 12.24458984 5.68527344 12.24458984 4.7265625 11.41015625 C3.04367666 9.93041376 3.04367666 9.93041376 1 9 C0.5859375 6.93359375 0.5859375 6.93359375 0.375 4.4375 C0.30023438 3.61121094 0.22546875 2.78492188 0.1484375 1.93359375 C0.09945312 1.29550781 0.05046875 0.65742188 0 0 Z " fill="#CCD7E2" transform="translate(207,222)"/>
<path d="M0 0 C8.66725664 -0.44070796 8.66725664 -0.44070796 13 3 C15.32579101 6.48868651 15.41865457 7.89718519 15 12 C13.5 14.375 13.5 14.375 12 16 C7.73740579 13.98632415 4.02797052 11.66543799 1 8 C0.1298659 5.18724092 0.05146078 2.98472523 0 0 Z " fill="#CFDAE5" transform="translate(207,382)"/>
<path d="M0 0 C0.11922085 7.81748131 0.11922085 7.81748131 -2.51953125 10.60546875 C-4.375 11.875 -4.375 11.875 -6.2109375 12.9296875 C-8.1220957 14.07304415 -9.48740858 15.37605215 -11 17 C-13.63043554 14.36956446 -14.0255166 12.82138382 -14.5625 9.0625 C-14.4088211 5.48779509 -13.96658533 4.9599024 -11.5 2 C-7.74370649 -0.68691808 -4.48157996 -0.3863431 0 0 Z " fill="#CDD9E3" transform="translate(98,222)"/>
<path d="M0 0 C0.149011 4.19093425 0.16295396 7.68269517 -2.70703125 10.93359375 C-6.44004692 13.82165968 -8.14237816 15 -13 15 C-14.61707958 11.76584084 -14.56822376 8.49624735 -14 5 C-10.28086625 -0.75865872 -6.26782143 -0.6144923 0 0 Z " fill="#D0DCE6" transform="translate(98,382)"/>
<path d="M0 0 C7.09561034 -0.48105833 7.09561034 -0.48105833 10.9375 1.5625 C13.65361118 4.77244958 14 6.82044153 14 11 C12.5625 13.9375 12.5625 13.9375 11 16 C7.28490737 14.76163579 5.71117136 12.77895064 3 10 C2.01 9.34 1.02 8.68 0 8 C-0.40843923 5.28796348 -0.13336867 2.7562858 0 0 Z " fill="#D1DCE7" transform="translate(208,63)"/>
<path d="M0 0 C0.08099183 4.53554221 0.01701439 6.86401412 -3.0703125 10.3125 C-5.326112 12.2925121 -7.61014676 14.18467714 -10 16 C-11.96484375 14.7421875 -11.96484375 14.7421875 -14 13 C-14.7065179 8.13287668 -14.73745592 6.14186724 -12.0625 2 C-7.95087582 -0.68514232 -4.77247406 -0.46788961 0 0 Z " fill="#D3DFEA" transform="translate(98,63)"/>
<path d="M0 0 C1.17369141 -0.02513672 1.17369141 -0.02513672 2.37109375 -0.05078125 C5.06263357 0.39540984 5.96316265 1.13158543 7.5625 3.3125 C7.31796876 6.65442692 6.95706443 7.91793557 4.5625 10.3125 C2.46875 10.578125 2.46875 10.578125 0.0625 10.5625 C-0.7315625 10.56765625 -1.525625 10.5728125 -2.34375 10.578125 C-4.4375 10.3125 -4.4375 10.3125 -6.4375 8.3125 C-6.6875 5.3125 -6.6875 5.3125 -6.4375 2.3125 C-4.02263057 -0.10236943 -3.31042211 0.0163075 0 0 Z " fill="#0B0405" transform="translate(194.4375,93.6875)"/>
<path d="M0 0 C1.17369141 -0.02513672 1.17369141 -0.02513672 2.37109375 -0.05078125 C5.06263357 0.39540984 5.96316265 1.13158543 7.5625 3.3125 C7.31796876 6.65442692 6.95706443 7.91793557 4.5625 10.3125 C2.46875 10.578125 2.46875 10.578125 0.0625 10.5625 C-0.7315625 10.56765625 -1.525625 10.5728125 -2.34375 10.578125 C-4.4375 10.3125 -4.4375 10.3125 -6.4375 8.3125 C-6.6875 5.3125 -6.6875 5.3125 -6.4375 2.3125 C-4.02263057 -0.10236943 -3.31042211 0.0163075 0 0 Z " fill="#0B0405" transform="translate(110.4375,93.6875)"/>
<path d="M0 0 C1.17369141 -0.02513672 1.17369141 -0.02513672 2.37109375 -0.05078125 C5.06263357 0.39540984 5.96316265 1.13158543 7.5625 3.3125 C7.31796876 6.65442692 6.95706443 7.91793557 4.5625 10.3125 C-2.74184783 10.77626812 -2.74184783 10.77626812 -6.4375 8.3125 C-6.75 5.3125 -6.75 5.3125 -6.4375 2.3125 C-4.02263057 -0.10236943 -3.31042211 0.0163075 0 0 Z " fill="#050A0C" transform="translate(194.4375,253.6875)"/>
<path d="M0 0 C1.17369141 -0.02513672 1.17369141 -0.02513672 2.37109375 -0.05078125 C5.06263357 0.39540984 5.96316265 1.13158543 7.5625 3.3125 C7.31796876 6.65442692 6.95706443 7.91793557 4.5625 10.3125 C-2.74184783 10.77626812 -2.74184783 10.77626812 -6.4375 8.3125 C-6.75 5.3125 -6.75 5.3125 -6.4375 2.3125 C-4.02263057 -0.10236943 -3.31042211 0.0163075 0 0 Z " fill="#050A0C" transform="translate(110.4375,253.6875)"/>
<path d="M0 0 C0.886875 -0.01675781 1.77375 -0.03351563 2.6875 -0.05078125 C3.8321875 0.12904297 3.8321875 0.12904297 5 0.3125 C7 3.3125 7 3.3125 6.6875 5.9375 C6 8.3125 6 8.3125 5 9.3125 C3.35769636 9.4370486 1.70947724 9.48818524 0.0625 9.5 C-0.83339844 9.51417969 -1.72929687 9.52835937 -2.65234375 9.54296875 C-5 9.3125 -5 9.3125 -7 7.3125 C-7.25 4.8125 -7.25 4.8125 -7 2.3125 C-4.47982574 -0.20767426 -3.48500151 0.01519623 0 0 Z " fill="#040602" transform="translate(195,413.6875)"/>
<path d="M0 0 C0.886875 -0.01675781 1.77375 -0.03351563 2.6875 -0.05078125 C3.8321875 0.12904297 3.8321875 0.12904297 5 0.3125 C7 3.3125 7 3.3125 6.6875 5.9375 C6 8.3125 6 8.3125 5 9.3125 C3.35769636 9.4370486 1.70947724 9.48818524 0.0625 9.5 C-0.83339844 9.51417969 -1.72929688 9.52835937 -2.65234375 9.54296875 C-5 9.3125 -5 9.3125 -7 7.3125 C-7.25 4.8125 -7.25 4.8125 -7 2.3125 C-4.47982574 -0.20767426 -3.48500151 0.01519623 0 0 Z " fill="#040502" transform="translate(111,413.6875)"/>
</svg>
